<svg width="335" height="280" viewBox="0 0 335 280" fill="none" xmlns="http://www.w3.org/2000/svg">
<g clip-path="url(#clip0_1208_10326)">
<rect width="335" height="280" fill="white"/>
<rect width="335" height="221" fill="#48D1FF"/>
<g filter="url(#filter0_g_1208_10326)">
<rect x="89" y="-3" width="164" height="224" fill="#05B8FF"/>
</g>
<path d="M126 -17C126 -19.2091 124.209 -21 122 -21C119.791 -21 118 -19.2091 118 -17H126ZM122 -16.9H118V-16.7395L118.013 -16.5795L122 -16.9ZM122.389 14.2L118.524 15.2301L122.389 14.2ZM122.4 25.4L118.447 26.0146L122.4 25.4ZM122.131 27L118.541 25.2358L122.131 27ZM121.644 49.4L117.853 48.1244L121.644 49.4ZM121.697 57.3L118.027 58.891L118.074 58.9996L118.127 59.1053L121.697 57.3ZM122 57.9H126V56.946L125.569 56.0947L122 57.9ZM118 58C118 60.2091 119.791 62 122 62C124.209 62 126 60.2091 126 58H118ZM122 -17H118V-16.9H122H126V-17H122ZM122 -16.9L118.013 -16.5795C118.025 -16.4329 118.028 -16.3178 118.027 -16.2311C118.026 -16.1439 118.021 -16.0941 118.019 -16.0763C118.017 -16.0582 118.019 -16.0831 118.035 -16.1413C118.052 -16.1999 118.086 -16.3008 118.152 -16.4283L121.709 -14.6L125.267 -12.7717C126.04 -14.2758 126.091 -15.9233 125.987 -17.2205L122 -16.9ZM121.709 -14.6L118.152 -16.4283C117.554 -15.2655 117.251 -13.9272 117.429 -12.5047L121.398 -13L125.367 -13.4953C125.387 -13.338 125.38 -13.1797 125.352 -13.0361C125.325 -12.8962 125.285 -12.8063 125.267 -12.7717L121.709 -14.6ZM121.398 -13L117.429 -12.5047C117.591 -11.2079 118.106 -10.072 118.77 -9.1168L122.054 -11.4L125.338 -13.6832C125.299 -13.7402 125.299 -13.7519 125.313 -13.7173C125.328 -13.6803 125.354 -13.6041 125.367 -13.4953L121.398 -13ZM122.054 -11.4L118.77 -9.1168C118.591 -9.37358 118.33 -9.89076 118.332 -10.6068C118.333 -11.3221 118.595 -11.8369 118.772 -12.0907L122.051 -9.8L125.331 -7.50933C125.88 -8.29646 126.329 -9.34452 126.332 -10.5932C126.334 -11.8426 125.888 -12.8931 125.338 -13.6832L122.054 -11.4ZM122.051 -9.8L118.772 -12.0907C118.226 -11.3093 117.779 -10.2715 117.769 -9.03438C117.758 -7.79428 118.189 -6.74418 118.732 -5.94768L122.038 -8.2L125.343 -10.4523C125.523 -10.1891 125.774 -9.67239 125.768 -8.96562C125.762 -8.26188 125.504 -7.75739 125.331 -7.50933L122.051 -9.8ZM122.038 -8.2L118.732 -5.94768C118.611 -6.12524 118.416 -6.49255 118.366 -7.02289C118.314 -7.57207 118.441 -8.04321 118.6 -8.36575L122.189 -6.6L125.778 -4.83424C126.741 -6.79026 126.433 -8.85317 125.343 -10.4523L122.038 -8.2ZM122.189 -6.6L118.6 -8.36575C117.98 -7.10563 117.736 -5.66213 118.052 -4.17147L121.965 -5L125.878 -5.82853C125.917 -5.64599 125.926 -5.44448 125.898 -5.24493C125.87 -5.0496 125.815 -4.90957 125.778 -4.83424L122.189 -6.6ZM121.965 -5L118.052 -4.17147C118.192 -3.50888 118.366 -2.85089 118.571 -2.1978L122.386 -3.4L126.202 -4.6022C126.071 -5.01578 125.964 -5.42445 125.878 -5.82853L121.965 -5ZM122.386 -3.4L118.571 -2.1978C118.612 -2.07013 118.619 -1.98213 118.617 -1.91674L122.615 -1.8L126.613 -1.68325C126.643 -2.68454 126.497 -3.6632 126.202 -4.6022L122.386 -3.4ZM122.615 -1.8L118.617 -1.91674C118.616 -1.8818 118.609 -1.80597 118.556 -1.67227L122.275 -0.199999L125.994 1.27228C126.364 0.33931 126.583 -0.651533 126.613 -1.68325L122.615 -1.8ZM122.275 -0.199999L118.556 -1.67227C118.001 -0.27067 117.951 1.24381 118.448 2.69519L122.232 1.4L126.017 0.104816C126.071 0.263369 126.111 0.470917 126.105 0.707212C126.098 0.942444 126.048 1.1366 125.994 1.27228L122.275 -0.199999ZM122.232 1.4L118.448 2.69519C118.41 2.5856 118.378 2.43479 118.375 2.25632C118.373 2.07749 118.401 1.92101 118.439 1.80144L122.255 3L126.071 4.19857C126.496 2.84453 126.473 1.4375 126.017 0.104816L122.232 1.4ZM122.255 3L118.439 1.80144C118.168 2.66315 118.01 3.55399 117.979 4.46535L121.977 4.6L125.974 4.73466C125.98 4.57935 126.007 4.40352 126.071 4.19857L122.255 3ZM121.977 4.6L117.979 4.46535C117.952 5.26207 118.004 6.05573 118.132 6.8427L122.08 6.2L126.028 5.5573C125.982 5.27761 125.965 5.0046 125.974 4.73466L121.977 4.6ZM122.08 6.2L118.132 6.8427C118.15 6.95262 118.15 7.05408 118.132 7.16366L122.081 7.8L126.03 8.43634C126.184 7.47926 126.184 6.51406 126.028 5.5573L122.08 6.2ZM122.081 7.8L118.132 7.16366C117.983 8.08902 117.973 9.02292 118.102 9.9521L122.064 9.4L126.025 8.84791C126.006 8.71042 126.007 8.57765 126.03 8.43634L122.081 7.8ZM122.064 9.4L118.102 9.9521C118.078 9.7795 118.084 9.60373 118.115 9.44253C118.145 9.2856 118.191 9.18294 118.214 9.14047L121.755 11L125.297 12.8595C125.917 11.6778 126.229 10.3064 126.025 8.84791L122.064 9.4ZM121.755 11L118.214 9.14047C117.322 10.8384 117.322 12.7623 118.214 14.46L121.755 12.6L125.297 10.74C125.418 10.9718 125.545 11.3386 125.545 11.7997C125.545 12.2608 125.418 12.6277 125.297 12.8595L121.755 11ZM121.755 12.6L118.214 14.46C118.368 14.7534 118.465 15.0094 118.524 15.2301L122.389 14.2L126.254 13.17C126.028 12.3239 125.703 11.5133 125.297 10.74L121.755 12.6ZM122.389 14.2L118.524 15.2301C118.445 14.9362 118.428 14.6052 118.487 14.2798C118.545 13.9671 118.655 13.7578 118.715 13.6616L122.096 15.8L125.476 17.9384C126.316 16.6113 126.725 14.9398 126.254 13.17L122.389 14.2ZM122.096 15.8L118.715 13.6616C117.667 15.3184 117.482 17.3612 118.447 19.2335L122.002 17.4L125.557 15.5665C125.707 15.8567 125.844 16.299 125.813 16.8333C125.782 17.3565 125.604 17.7363 125.476 17.9384L122.096 15.8ZM122.002 17.4L118.447 19.2335C118.32 18.9858 118.193 18.6016 118.202 18.1262C118.211 17.6537 118.349 17.2871 118.472 17.0652L121.973 19L125.474 20.9348C126.402 19.2548 126.456 17.3082 125.557 15.5665L122.002 17.4ZM121.973 19L118.472 17.0652C117.466 18.8851 117.549 20.9442 118.59 22.668L122.014 20.6L125.438 18.532C125.575 18.759 125.747 19.1615 125.761 19.6974C125.775 20.2383 125.621 20.6687 125.474 20.9348L121.973 19ZM122.014 20.6L118.59 22.668C118.498 22.5154 118.365 22.2288 118.322 21.8288C118.277 21.4169 118.345 21.0413 118.458 20.752L122.186 22.2L125.915 23.6479C126.615 21.8452 126.335 20.018 125.438 18.532L122.014 20.6ZM122.186 22.2L118.458 20.752C117.964 22.0224 117.853 23.3994 118.195 24.7688L122.075 23.8L125.956 22.8312C125.988 22.9598 126.005 23.1132 125.994 23.2767C125.983 23.4386 125.947 23.5659 125.915 23.6479L122.186 22.2ZM122.075 23.8L118.195 24.7688C118.299 25.1874 118.383 25.6026 118.447 26.0146L122.4 25.4L126.352 24.7853C126.25 24.1308 126.118 23.4793 125.956 22.8312L122.075 23.8ZM122.4 25.4L118.447 26.0146C118.423 25.8571 118.424 25.6925 118.45 25.5374C118.475 25.3859 118.518 25.2831 118.541 25.2358L122.131 27L125.721 28.7642C126.307 27.5718 126.574 26.2118 126.352 24.7853L122.4 25.4ZM122.131 27L118.541 25.2358C117.867 26.6079 117.676 28.1794 118.146 29.7483L121.977 28.6L125.809 27.4517C125.872 27.6608 125.903 27.9133 125.878 28.1818C125.852 28.4454 125.78 28.6446 125.721 28.7642L122.131 27ZM121.977 28.6L118.146 29.7483C118.198 29.9214 118.215 30.0637 118.215 30.1866L122.215 30.2L126.215 30.2134C126.218 29.2696 126.077 28.3452 125.809 27.4517L121.977 28.6ZM122.215 30.2L118.215 30.1866C118.213 30.7153 118.21 31.244 118.206 31.7727L122.206 31.8L126.206 31.8273C126.21 31.2893 126.213 30.7513 126.215 30.2134L122.215 30.2ZM122.206 31.8L118.206 31.7727C118.207 31.7582 118.208 31.7449 118.209 31.7334C118.21 31.722 118.212 31.7142 118.213 31.7106C118.213 31.7071 118.213 31.709 118.21 31.7169C118.208 31.7248 118.202 31.7393 118.193 31.7607L121.842 33.4L125.49 35.0393C125.936 34.0481 126.199 32.968 126.206 31.8273L122.206 31.8ZM121.842 33.4L118.193 31.7607C117.652 32.9646 117.439 34.3092 117.684 35.6959L121.623 35L125.562 34.3041C125.587 34.4431 125.591 34.5935 125.571 34.7402C125.551 34.8843 125.514 34.9865 125.49 35.0393L121.842 33.4ZM121.623 35L117.684 35.6959C117.843 36.5932 118.122 37.4535 118.499 38.2718L122.133 36.6L125.767 34.9281C125.652 34.6798 125.592 34.4734 125.562 34.3041L121.623 35ZM122.133 36.6L118.499 38.2718C118.399 38.0553 118.308 37.7384 118.313 37.3554C118.317 36.9734 118.414 36.6651 118.512 36.462L122.115 38.2L125.718 39.9379C126.488 38.3403 126.516 36.5566 125.767 34.9281L122.133 36.6ZM122.115 38.2L118.512 36.462C117.935 37.6579 117.68 39.0158 117.908 40.4346L121.858 39.8L125.807 39.1653C125.832 39.3193 125.832 39.4813 125.807 39.6352C125.783 39.7858 125.741 39.889 125.718 39.9379L122.115 38.2ZM121.858 39.8L117.908 40.4346C117.994 40.9711 118.081 41.5075 118.169 42.044L122.117 41.4L126.064 40.756C125.978 40.2258 125.892 39.6956 125.807 39.1653L121.858 39.8ZM122.117 41.4L118.169 42.044C118.273 42.6854 118.405 43.3243 118.562 43.9605L122.445 43L126.328 42.0395C126.222 41.609 126.134 41.1812 126.064 40.756L122.117 41.4ZM122.445 43L118.562 43.9605C118.553 43.9235 118.544 43.869 118.544 43.8036C118.544 43.7381 118.553 43.6834 118.562 43.6461L122.447 44.6L126.331 45.5539C126.617 44.3914 126.615 43.2011 126.328 42.0395L122.445 43ZM122.447 44.6L118.562 43.6461C118.302 44.7031 118.259 45.7896 118.443 46.8713L122.386 46.2L126.33 45.5286C126.329 45.5283 126.33 45.5307 126.33 45.5354C126.33 45.54 126.331 45.5452 126.33 45.5505C126.33 45.5557 126.33 45.5594 126.33 45.5608C126.329 45.5622 126.33 45.5601 126.331 45.5539L122.447 44.6ZM122.386 46.2L118.443 46.8713C118.428 46.781 118.424 46.6807 118.434 46.5808C118.445 46.4821 118.466 46.4116 118.48 46.3758L122.218 47.8L125.956 49.2242C126.399 48.0614 126.547 46.8055 126.33 45.5286L122.386 46.2ZM122.218 47.8L118.48 46.3758C118.258 46.9576 118.049 47.5405 117.853 48.1244L121.644 49.4L125.435 50.6756C125.597 50.1928 125.771 49.709 125.956 49.2242L122.218 47.8ZM121.644 49.4L117.853 48.1244C117.2 50.0622 117.686 51.9064 118.658 53.2941L121.935 51L125.211 48.7059C125.29 48.8183 125.444 49.0811 125.517 49.4844C125.594 49.9089 125.552 50.3268 125.435 50.6756L121.644 49.4ZM121.935 51L118.658 53.2941C118.471 53.0268 118.198 52.4867 118.209 51.7418C118.22 51.0027 118.503 50.4844 118.679 50.2432L121.911 52.6L125.143 54.9567C125.708 54.1822 126.19 53.1306 126.208 51.8581C126.227 50.5799 125.772 49.5065 125.211 48.7059L121.935 51ZM121.911 52.6L118.679 50.2432C117.913 51.2945 117.329 52.6317 117.327 54.1927L121.326 54.2L125.326 54.2073C125.326 54.436 125.282 54.6307 125.23 54.7731C125.181 54.9087 125.134 54.9693 125.143 54.9567L121.911 52.6ZM121.326 54.2L117.327 54.1927C117.325 54.7851 117.337 55.3776 117.363 55.9699L121.359 55.8L125.355 55.6301C125.335 55.1557 125.326 54.6815 125.326 54.2073L121.326 54.2ZM121.359 55.8L117.363 55.9699C117.405 56.9684 117.62 57.9526 118.027 58.891L121.697 57.3L125.367 55.709C125.366 55.7072 125.365 55.7044 125.363 55.697C125.361 55.6892 125.357 55.6682 125.355 55.6301L121.359 55.8ZM121.697 57.3L118.127 59.1053L118.431 59.7053L122 57.9L125.569 56.0947L125.266 55.4947L121.697 57.3ZM122 57.9H118V58H122H126V57.9H122Z" fill="#0084DC"/>
<path d="M105 116C105 113.791 103.209 112 101 112C98.7909 112 97 113.791 97 116L105 116ZM101 116.1L97 116.1L97 116.26L97.0129 116.42L101 116.1ZM101.386 129.6L105.202 128.398L101.386 129.6ZM101.615 131.2L97.6169 131.083L101.615 131.2ZM101.232 134.4L97.4477 135.695L101.232 134.4ZM101.014 153.6L97.59 155.668L101.014 153.6ZM101.075 156.8L104.956 155.831L101.075 156.8ZM100.842 166.4L104.49 168.039L100.842 166.4ZM100.882 168.9L98.2913 171.947L99.4116 172.9L100.882 172.9L100.882 168.9ZM101 168.9L105 168.9L105 164.9L101 164.9L101 168.9ZM97 169C97 171.209 98.7909 173 101 173C103.209 173 105 171.209 105 169L97 169ZM101 116L97 116L97 116.1L101 116.1L105 116.1L105 116L101 116ZM101 116.1L97.0129 116.42C97.0246 116.567 97.028 116.682 97.0272 116.769C97.0264 116.856 97.0214 116.906 97.0192 116.924C97.0169 116.942 97.0187 116.917 97.0353 116.859C97.052 116.8 97.0862 116.699 97.1517 116.572L100.709 118.4L104.267 120.228C105.04 118.724 105.091 117.077 104.987 115.78L101 116.1ZM100.709 118.4L97.1517 116.572C96.5542 117.735 96.2514 119.073 96.4289 120.495L100.398 120L104.367 119.505C104.387 119.662 104.38 119.82 104.352 119.964C104.325 120.104 104.285 120.194 104.267 120.228L100.709 118.4ZM100.398 120L96.4289 120.495C96.5908 121.792 97.1057 122.928 97.7698 123.883L101.054 121.6L104.338 119.317C104.299 119.26 104.299 119.248 104.313 119.283C104.328 119.32 104.354 119.396 104.367 119.505L100.398 120ZM101.054 121.6L97.7698 123.883C97.5913 123.626 97.3303 123.109 97.3315 122.393C97.3327 121.678 97.595 121.163 97.7723 120.909L101.051 123.2L104.331 125.491C104.88 124.704 105.329 123.655 105.332 122.407C105.334 121.157 104.888 120.107 104.338 119.317L101.054 121.6ZM101.051 123.2L97.7723 120.909C97.2264 121.691 96.7793 122.729 96.7687 123.966C96.7581 125.206 97.1893 126.256 97.7321 127.052L101.038 124.8L104.343 122.548C104.523 122.811 104.774 123.328 104.768 124.034C104.762 124.738 104.504 125.243 104.331 125.491L101.051 123.2ZM101.038 124.8L97.7321 127.052C97.6111 126.875 97.4161 126.507 97.3659 125.977C97.3139 125.428 97.4413 124.957 97.6 124.634L101.189 126.4L104.778 128.166C105.741 126.21 105.433 124.147 104.343 122.548L101.038 124.8ZM101.189 126.4L97.6 124.634C96.9801 125.894 96.7361 127.338 97.0517 128.829L100.965 128L104.878 127.171C104.917 127.354 104.926 127.556 104.898 127.755C104.87 127.95 104.815 128.09 104.778 128.166L101.189 126.4ZM100.965 128L97.0517 128.829C97.192 129.491 97.3656 130.149 97.5714 130.802L101.386 129.6L105.202 128.398C105.071 127.984 104.964 127.576 104.878 127.171L100.965 128ZM101.386 129.6L97.5714 130.802C97.6116 130.93 97.6188 131.018 97.6169 131.083L101.615 131.2L105.613 131.317C105.643 130.315 105.497 129.337 105.202 128.398L101.386 129.6ZM101.615 131.2L97.6169 131.083C97.6159 131.118 97.6089 131.194 97.556 131.328L101.275 132.8L104.994 134.272C105.364 133.339 105.583 132.348 105.613 131.317L101.615 131.2ZM101.275 132.8L97.556 131.328C97.0011 132.729 96.951 134.244 97.4477 135.695L101.232 134.4L105.017 133.105C105.071 133.263 105.111 133.471 105.105 133.707C105.098 133.942 105.048 134.137 104.994 134.272L101.275 132.8ZM101.232 134.4L97.4477 135.695C97.4102 135.586 97.3777 135.435 97.3752 135.256C97.3727 135.077 97.401 134.921 97.4386 134.801L101.255 136L105.071 137.199C105.496 135.845 105.473 134.437 105.017 133.105L101.232 134.4ZM101.255 136L97.4386 134.801C97.1679 135.663 97.0095 136.554 96.9788 137.465L100.977 137.6L104.974 137.735C104.98 137.579 105.007 137.404 105.071 137.199L101.255 136ZM100.977 137.6L96.9788 137.465C96.952 138.262 97.0037 139.056 97.1318 139.843L101.08 139.2L105.028 138.557C104.982 138.278 104.965 138.005 104.974 137.735L100.977 137.6ZM101.08 139.2L97.1318 139.843C97.1497 139.953 97.1498 140.054 97.1321 140.164L101.081 140.8L105.03 141.436C105.184 140.479 105.184 139.514 105.028 138.557L101.08 139.2ZM101.081 140.8L97.1321 140.164C96.983 141.089 96.9726 142.023 97.1021 142.952L101.064 142.4L105.025 141.848C105.006 141.71 105.007 141.578 105.03 141.436L101.081 140.8ZM101.064 142.4L97.1021 142.952C97.078 142.78 97.0837 142.604 97.1147 142.443C97.145 142.286 97.1914 142.183 97.2137 142.14L100.755 144L104.297 145.86C104.917 144.678 105.229 143.306 105.025 141.848L101.064 142.4ZM100.755 144L97.2137 142.14C96.3222 143.838 96.3224 145.762 97.2141 147.46L100.755 145.6L104.297 143.74C104.418 143.972 104.545 144.339 104.545 144.8C104.545 145.261 104.418 145.628 104.297 145.86L100.755 144ZM100.755 145.6L97.2141 147.46C97.3682 147.753 97.4648 148.009 97.5236 148.23L101.389 147.2L105.254 146.17C105.028 145.324 104.703 144.513 104.297 143.74L100.755 145.6ZM101.389 147.2L97.5236 148.23C97.4453 147.936 97.4279 147.605 97.4875 147.28C97.5447 146.967 97.6545 146.758 97.7154 146.662L101.096 148.8L104.476 150.938C105.316 149.611 105.725 147.94 105.254 146.17L101.389 147.2ZM101.096 148.8L97.7154 146.662C96.6674 148.318 96.4817 150.361 97.4473 152.234L101.002 150.4L104.557 148.566C104.707 148.857 104.844 149.299 104.813 149.833C104.782 150.356 104.604 150.736 104.476 150.938L101.096 148.8ZM101.002 150.4L97.4473 152.234C97.3196 151.986 97.1932 151.602 97.202 151.126C97.2107 150.654 97.3493 150.287 97.4719 150.065L100.973 152L104.474 153.935C105.402 152.255 105.456 150.308 104.557 148.566L101.002 150.4ZM100.973 152L97.4719 150.065C96.4662 151.885 96.5489 153.944 97.59 155.668L101.014 153.6L104.438 151.532C104.575 151.759 104.747 152.161 104.761 152.697C104.775 153.238 104.621 153.669 104.474 153.935L100.973 152ZM101.014 153.6L97.59 155.668C97.4978 155.515 97.3648 155.229 97.3217 154.829C97.2773 154.417 97.3454 154.041 97.4577 153.752L101.186 155.2L104.915 156.648C105.615 154.845 105.335 153.018 104.438 151.532L101.014 153.6ZM101.186 155.2L97.4577 153.752C96.9644 155.022 96.8527 156.399 97.1946 157.769L101.075 156.8L104.956 155.831C104.988 155.96 105.005 156.113 104.994 156.277C104.983 156.439 104.947 156.566 104.915 156.648L101.186 155.2ZM101.075 156.8L97.1946 157.769C97.2991 158.187 97.383 158.603 97.4471 159.015L101.4 158.4L105.352 157.785C105.25 157.131 105.118 156.479 104.956 155.831L101.075 156.8ZM101.4 158.4L97.4471 159.015C97.4226 158.857 97.4238 158.692 97.4499 158.537C97.4753 158.386 97.5177 158.283 97.541 158.236L101.131 160L104.721 161.764C105.307 160.572 105.574 159.212 105.352 157.785L101.4 158.4ZM101.131 160L97.541 158.236C96.8666 159.608 96.6757 161.179 97.1458 162.748L100.977 161.6L104.809 160.452C104.872 160.661 104.903 160.913 104.878 161.182C104.852 161.445 104.78 161.645 104.721 161.764L101.131 160ZM100.977 161.6L97.1458 162.748C97.1977 162.921 97.215 163.064 97.2146 163.187L101.215 163.2L105.215 163.213C105.218 162.27 105.077 161.345 104.809 160.452L100.977 161.6ZM101.215 163.2L97.2146 163.187C97.2128 163.715 97.2101 164.244 97.2065 164.773L101.206 164.8L105.206 164.827C105.21 164.289 105.213 163.751 105.215 163.213L101.215 163.2ZM101.206 164.8L97.2065 164.773C97.2066 164.758 97.2075 164.745 97.2089 164.733C97.2102 164.722 97.2118 164.714 97.2126 164.711C97.2134 164.707 97.2132 164.709 97.2105 164.717C97.2078 164.725 97.2025 164.739 97.1929 164.761L100.842 166.4L104.49 168.039C104.936 167.048 105.199 165.968 105.206 164.827L101.206 164.8ZM100.842 166.4L97.1929 164.761C96.652 165.965 96.4394 167.309 96.6844 168.696L100.623 168L104.562 167.304C104.587 167.443 104.591 167.593 104.571 167.74C104.551 167.884 104.514 167.987 104.49 168.039L100.842 166.4ZM100.623 168L96.6844 168.696C96.7411 169.016 96.8147 169.383 96.9148 169.731C96.9635 169.9 97.045 170.16 97.1734 170.445C97.2486 170.613 97.5652 171.33 98.2913 171.947L100.882 168.9L103.473 165.853C103.864 166.185 104.1 166.518 104.217 166.7C104.345 166.899 104.426 167.067 104.471 167.167C104.558 167.361 104.597 167.5 104.603 167.519C104.617 167.567 104.6 167.517 104.562 167.304L100.623 168ZM100.882 168.9L100.882 172.9L101 172.9L101 168.9L101 164.9L100.883 164.9L100.882 168.9ZM101 168.9L97 168.9L97 169L101 169L105 169L105 168.9L101 168.9Z" fill="#0084DC"/>
<path d="M234 10C234 7.79086 232.209 6 230 6C227.791 6 226 7.79086 226 10L234 10ZM230 10.1L226 10.1L226 10.2605L226.013 10.4205L230 10.1ZM230.386 23.6L234.202 22.3978L230.386 23.6ZM230.615 25.2L226.617 25.0833L230.615 25.2ZM230.232 28.4L226.448 29.6952L230.232 28.4ZM230.014 47.6L226.59 49.668L230.014 47.6ZM230.075 50.8L233.956 49.8312L230.075 50.8ZM229.842 60.4L233.49 62.0393L229.842 60.4ZM229.882 62.9L227.291 65.9473L228.412 66.8999L229.882 66.9L229.882 62.9ZM230 62.9L234 62.9L234 58.9003L230 58.9L230 62.9ZM226 63C226 65.2091 227.791 67 230 67C232.209 67 234 65.2091 234 63L226 63ZM230 10L226 10L226 10.1L230 10.1L234 10.1L234 10L230 10ZM230 10.1L226.013 10.4205C226.025 10.5671 226.028 10.6822 226.027 10.7689C226.026 10.8561 226.021 10.9059 226.019 10.9237C226.017 10.9418 226.019 10.9169 226.035 10.8587C226.052 10.8001 226.086 10.6992 226.152 10.5717L229.709 12.4L233.267 14.2283C234.04 12.7242 234.091 11.0767 233.987 9.77954L230 10.1ZM229.709 12.4L226.152 10.5717C225.554 11.7345 225.251 13.0728 225.429 14.4953L229.398 14L233.367 13.5047C233.387 13.662 233.38 13.8203 233.352 13.9639C233.325 14.1038 233.285 14.1937 233.267 14.2283L229.709 12.4ZM229.398 14L225.429 14.4953C225.591 15.7921 226.106 16.928 226.77 17.8832L230.054 15.6L233.338 13.3168C233.299 13.2598 233.299 13.2481 233.313 13.2827C233.328 13.3197 233.354 13.3959 233.367 13.5047L229.398 14ZM230.054 15.6L226.77 17.8832C226.591 17.6264 226.33 17.1092 226.332 16.3932C226.333 15.6779 226.595 15.1631 226.772 14.9093L230.051 17.2L233.331 19.4907C233.88 18.7035 234.329 17.6555 234.332 16.4068C234.334 15.1574 233.888 14.1069 233.338 13.3168L230.054 15.6ZM230.051 17.2L226.772 14.9093C226.226 15.6907 225.779 16.7285 225.769 17.9656C225.758 19.2057 226.189 20.2558 226.732 21.0523L230.038 18.8L233.343 16.5477C233.523 16.8109 233.774 17.3276 233.768 18.0344C233.762 18.7381 233.504 19.2426 233.331 19.4907L230.051 17.2ZM230.038 18.8L226.732 21.0523C226.611 20.8748 226.416 20.5074 226.366 19.9771C226.314 19.4279 226.441 18.9568 226.6 18.6342L230.189 20.4L233.778 22.1658C234.741 20.2097 234.433 18.1468 233.343 16.5477L230.038 18.8ZM230.189 20.4L226.6 18.6342C225.98 19.8944 225.736 21.3379 226.052 22.8285L229.965 22L233.878 21.1715C233.917 21.354 233.926 21.5555 233.898 21.7551C233.87 21.9504 233.815 22.0904 233.778 22.1658L230.189 20.4ZM229.965 22L226.052 22.8285C226.192 23.4911 226.366 24.1491 226.571 24.8022L230.386 23.6L234.202 22.3978C234.071 21.9842 233.964 21.5756 233.878 21.1715L229.965 22ZM230.386 23.6L226.571 24.8022C226.612 24.9299 226.619 25.0179 226.617 25.0833L230.615 25.2L234.613 25.3167C234.643 24.3155 234.497 23.3368 234.202 22.3978L230.386 23.6ZM230.615 25.2L226.617 25.0833C226.616 25.1182 226.609 25.194 226.556 25.3277L230.275 26.8L233.994 28.2723C234.364 27.3393 234.583 26.3485 234.613 25.3167L230.615 25.2ZM230.275 26.8L226.556 25.3277C226.001 26.7293 225.951 28.2438 226.448 29.6952L230.232 28.4L234.017 27.1048C234.071 27.2634 234.111 27.4709 234.105 27.7072C234.098 27.9424 234.048 28.1366 233.994 28.2723L230.275 26.8ZM230.232 28.4L226.448 29.6952C226.41 29.5856 226.378 29.4348 226.375 29.2563C226.373 29.0775 226.401 28.921 226.439 28.8014L230.255 30L234.071 31.1986C234.496 29.8445 234.473 28.4375 234.017 27.1048L230.232 28.4ZM230.255 30L226.439 28.8014C226.168 29.6631 226.01 30.554 225.979 31.4654L229.977 31.6L233.974 31.7347C233.98 31.5793 234.007 31.4035 234.071 31.1986L230.255 30ZM229.977 31.6L225.979 31.4654C225.952 32.2621 226.004 33.0557 226.132 33.8427L230.08 33.2L234.028 32.5573C233.982 32.2776 233.965 32.0046 233.974 31.7347L229.977 31.6ZM230.08 33.2L226.132 33.8427C226.15 33.9526 226.15 34.0541 226.132 34.1637L230.081 34.8L234.03 35.4363C234.184 34.4793 234.184 33.5141 234.028 32.5573L230.08 33.2ZM230.081 34.8L226.132 34.1637C225.983 35.089 225.973 36.0229 226.102 36.9521L230.064 36.4L234.025 35.8479C234.006 35.7104 234.007 35.5777 234.03 35.4363L230.081 34.8ZM230.064 36.4L226.102 36.9521C226.078 36.7795 226.084 36.6037 226.115 36.4425C226.145 36.2856 226.191 36.1829 226.214 36.1405L229.755 38L233.297 39.8595C233.917 38.6778 234.229 37.3064 234.025 35.8479L230.064 36.4ZM229.755 38L226.214 36.1405C225.322 37.8384 225.322 39.7623 226.214 41.46L229.755 39.6L233.297 37.74C233.418 37.9718 233.545 38.3386 233.545 38.7997C233.545 39.2608 233.418 39.6277 233.297 39.8595L229.755 38ZM229.755 39.6L226.214 41.46C226.368 41.7534 226.465 42.0094 226.524 42.2301L230.389 41.2L234.254 40.17C234.028 39.3239 233.703 38.5133 233.297 37.74L229.755 39.6ZM230.389 41.2L226.524 42.2301C226.445 41.9362 226.428 41.6052 226.487 41.2798C226.545 40.9671 226.655 40.7578 226.715 40.6616L230.096 42.8L233.476 44.9384C234.316 43.6113 234.725 41.9398 234.254 40.17L230.389 41.2ZM230.096 42.8L226.715 40.6616C225.667 42.3184 225.482 44.3612 226.447 46.2335L230.002 44.4L233.557 42.5665C233.707 42.8567 233.844 43.299 233.813 43.8333C233.782 44.3565 233.604 44.7363 233.476 44.9384L230.096 42.8ZM230.002 44.4L226.447 46.2335C226.32 45.9858 226.193 45.6016 226.202 45.1262C226.211 44.6537 226.349 44.2871 226.472 44.0652L229.973 46L233.474 47.9348C234.402 46.2548 234.456 44.3081 233.557 42.5665L230.002 44.4ZM229.973 46L226.472 44.0652C225.466 45.8851 225.549 47.9442 226.59 49.668L230.014 47.6L233.438 45.532C233.575 45.759 233.747 46.1615 233.761 46.6974C233.775 47.2383 233.621 47.6687 233.474 47.9348L229.973 46ZM230.014 47.6L226.59 49.668C226.498 49.5154 226.365 49.2288 226.322 48.8288C226.277 48.4169 226.345 48.0413 226.458 47.752L230.186 49.2L233.915 50.6479C234.615 48.8452 234.335 47.0179 233.438 45.532L230.014 47.6ZM230.186 49.2L226.458 47.752C225.964 49.0224 225.853 50.3994 226.195 51.7688L230.075 50.8L233.956 49.8312C233.988 49.9598 234.005 50.1132 233.994 50.2767C233.983 50.4386 233.947 50.5659 233.915 50.6479L230.186 49.2ZM230.075 50.8L226.195 51.7688C226.299 52.1874 226.383 52.6026 226.447 53.0146L230.4 52.4L234.352 51.7853C234.25 51.1308 234.118 50.4793 233.956 49.8312L230.075 50.8ZM230.4 52.4L226.447 53.0146C226.423 52.8571 226.424 52.6925 226.45 52.5374C226.475 52.3859 226.518 52.2831 226.541 52.2358L230.131 54L233.721 55.7642C234.307 54.5718 234.574 53.2118 234.352 51.7853L230.4 52.4ZM230.131 54L226.541 52.2358C225.867 53.6079 225.676 55.1794 226.146 56.7483L229.977 55.6L233.809 54.4517C233.872 54.6608 233.903 54.9133 233.878 55.1818C233.852 55.4454 233.78 55.6446 233.721 55.7642L230.131 54ZM229.977 55.6L226.146 56.7483C226.198 56.9214 226.215 57.0637 226.215 57.1866L230.215 57.2L234.215 57.2134C234.218 56.2696 234.077 55.3452 233.809 54.4517L229.977 55.6ZM230.215 57.2L226.215 57.1866C226.213 57.7153 226.21 58.244 226.207 58.7727L230.206 58.8L234.206 58.8273C234.21 58.2893 234.213 57.7513 234.215 57.2134L230.215 57.2ZM230.206 58.8L226.207 58.7727C226.207 58.7582 226.208 58.7449 226.209 58.7334C226.21 58.722 226.212 58.7142 226.213 58.7106C226.213 58.7071 226.213 58.709 226.21 58.7169C226.208 58.7248 226.202 58.7393 226.193 58.7607L229.842 60.4L233.49 62.0393C233.936 61.0481 234.199 59.968 234.206 58.8273L230.206 58.8ZM229.842 60.4L226.193 58.7607C225.652 59.9646 225.439 61.3092 225.684 62.6959L229.623 62L233.562 61.3041C233.587 61.4431 233.591 61.5935 233.571 61.7402C233.551 61.8843 233.514 61.9865 233.49 62.0393L229.842 60.4ZM229.623 62L225.684 62.6959C225.741 63.0164 225.815 63.3832 225.915 63.731C225.964 63.9004 226.045 64.1597 226.173 64.4454C226.249 64.6128 226.565 65.3299 227.291 65.9473L229.882 62.9L232.473 59.8527C232.864 60.1848 233.1 60.5184 233.217 60.7005C233.345 60.8989 233.426 61.0671 233.471 61.167C233.558 61.3611 233.597 61.4996 233.603 61.5189C233.617 61.5668 233.6 61.5169 233.562 61.3041L229.623 62ZM229.882 62.9L229.882 66.9L230 66.9L230 62.9L230 58.9L229.883 58.9L229.882 62.9ZM230 62.9L226 62.9L226 63L230 63L234 63L234 62.9L230 62.9Z" fill="#0084DC"/>
<path d="M157 38C157 35.7909 155.209 34 153 34C150.791 34 149 35.7909 149 38L157 38ZM153 38.1L149 38.1L149 38.2605L149.013 38.4205L153 38.1ZM152.755 67.6L156.297 65.74L152.755 67.6ZM153.389 69.2L149.524 70.2301L153.389 69.2ZM152.938 78L152.938 82L155.162 82.0001L156.336 80.1105L152.938 78ZM153 77.9L157 77.9L157 63.8785L149.602 75.7895L153 77.9ZM149 78C149 80.2091 150.791 82 153 82C155.209 82 157 80.2091 157 78L149 78ZM153 38L149 38L149 38.1L153 38.1L157 38.1L157 38L153 38ZM153 38.1L149.013 38.4205C149.025 38.5671 149.028 38.6822 149.027 38.7689C149.026 38.8561 149.021 38.9059 149.019 38.9237C149.017 38.9418 149.019 38.9169 149.035 38.8587C149.052 38.8001 149.086 38.6992 149.152 38.5717L152.709 40.4L156.267 42.2283C157.04 40.7242 157.091 39.0767 156.987 37.7795L153 38.1ZM152.709 40.4L149.152 38.5717C148.554 39.7345 148.251 41.0728 148.429 42.4953L152.398 42L156.367 41.5047C156.387 41.662 156.38 41.8203 156.352 41.9639C156.325 42.1038 156.285 42.1937 156.267 42.2283L152.709 40.4ZM152.398 42L148.429 42.4953C148.591 43.7921 149.106 44.928 149.77 45.8832L153.054 43.6L156.338 41.3168C156.299 41.2598 156.299 41.2481 156.313 41.2827C156.328 41.3197 156.354 41.3959 156.367 41.5047L152.398 42ZM153.054 43.6L149.77 45.8832C149.591 45.6264 149.33 45.1092 149.332 44.3932C149.333 43.6779 149.595 43.1631 149.772 42.9093L153.051 45.2L156.331 47.4907C156.88 46.7035 157.329 45.6555 157.332 44.4068C157.334 43.1574 156.888 42.1069 156.338 41.3168L153.054 43.6ZM153.051 45.2L149.772 42.9093C149.226 43.6907 148.779 44.7285 148.769 45.9656C148.758 47.2057 149.189 48.2558 149.732 49.0523L153.038 46.8L156.343 44.5477C156.523 44.8109 156.774 45.3276 156.768 46.0344C156.762 46.7381 156.504 47.2426 156.331 47.4907L153.051 45.2ZM153.038 46.8L149.732 49.0523C149.611 48.8748 149.416 48.5074 149.366 47.9771C149.314 47.4279 149.441 46.9568 149.6 46.6342L153.189 48.4L156.778 50.1658C157.741 48.2097 157.433 46.1468 156.343 44.5477L153.038 46.8ZM153.189 48.4L149.6 46.6342C148.98 47.8944 148.736 49.3379 149.052 50.8285L152.965 50L156.878 49.1715C156.917 49.354 156.926 49.5555 156.898 49.7551C156.87 49.9504 156.815 50.0904 156.778 50.1658L153.189 48.4ZM152.965 50L149.052 50.8285C149.192 51.4911 149.366 52.1491 149.571 52.8022L153.386 51.6L157.202 50.3978C157.071 49.9842 156.964 49.5756 156.878 49.1715L152.965 50ZM153.386 51.6L149.571 52.8022C149.612 52.9299 149.619 53.0179 149.617 53.0833L153.615 53.2L157.613 53.3167C157.643 52.3155 157.497 51.3368 157.202 50.3978L153.386 51.6ZM153.615 53.2L149.617 53.0833C149.616 53.1182 149.609 53.194 149.556 53.3277L153.275 54.8L156.994 56.2723C157.364 55.3393 157.583 54.3485 157.613 53.3167L153.615 53.2ZM153.275 54.8L149.556 53.3277C149.001 54.7293 148.951 56.2438 149.448 57.6952L153.232 56.4L157.017 55.1048C157.071 55.2634 157.111 55.4709 157.105 55.7072C157.098 55.9424 157.048 56.1366 156.994 56.2723L153.275 54.8ZM153.232 56.4L149.448 57.6952C149.41 57.5856 149.378 57.4348 149.375 57.2563C149.373 57.0775 149.401 56.921 149.439 56.8014L153.255 58L157.071 59.1986C157.496 57.8445 157.473 56.4375 157.017 55.1048L153.232 56.4ZM153.255 58L149.439 56.8014C149.168 57.6631 149.01 58.554 148.979 59.4654L152.977 59.6L156.974 59.7347C156.98 59.5793 157.007 59.4035 157.071 59.1986L153.255 58ZM152.977 59.6L148.979 59.4654C148.952 60.2621 149.004 61.0557 149.132 61.8427L153.08 61.2L157.028 60.5573C156.982 60.2776 156.965 60.0046 156.974 59.7347L152.977 59.6ZM153.08 61.2L149.132 61.8427C149.15 61.9526 149.15 62.0541 149.132 62.1637L153.081 62.8L157.03 63.4363C157.184 62.4793 157.184 61.5141 157.028 60.5573L153.08 61.2ZM153.081 62.8L149.132 62.1637C148.983 63.089 148.973 64.0229 149.102 64.9521L153.064 64.4L157.025 63.8479C157.006 63.7104 157.007 63.5777 157.03 63.4363L153.081 62.8ZM153.064 64.4L149.102 64.9521C149.078 64.7795 149.084 64.6037 149.115 64.4425C149.145 64.2856 149.191 64.1829 149.214 64.1405L152.755 66L156.297 67.8595C156.917 66.6778 157.229 65.3064 157.025 63.8479L153.064 64.4ZM152.755 66L149.214 64.1405C148.322 65.8384 148.322 67.7623 149.214 69.46L152.755 67.6L156.297 65.74C156.418 65.9718 156.545 66.3386 156.545 66.7997C156.545 67.2608 156.418 67.6277 156.297 67.8595L152.755 66ZM152.755 67.6L149.214 69.46C149.368 69.7534 149.465 70.0094 149.524 70.2301L153.389 69.2L157.254 68.17C157.028 67.3239 156.703 66.5133 156.297 65.74L152.755 67.6ZM153.389 69.2L149.524 70.2301C149.445 69.9362 149.428 69.6052 149.487 69.2798C149.545 68.9671 149.655 68.7578 149.715 68.6616L153.096 70.8L156.476 72.9384C157.316 71.6113 157.725 69.9398 157.254 68.17L153.389 69.2ZM153.096 70.8L149.715 68.6616C148.667 70.3184 148.482 72.3612 149.447 74.2335L153.002 72.4L156.557 70.5665C156.707 70.8567 156.844 71.299 156.813 71.8333C156.782 72.3565 156.604 72.7363 156.476 72.9384L153.096 70.8ZM153.002 72.4L149.447 74.2335C149.32 73.9858 149.193 73.6016 149.202 73.1262C149.211 72.6537 149.349 72.2871 149.472 72.0652L152.973 74L156.474 75.9348C157.402 74.2548 157.456 72.3081 156.557 70.5665L153.002 72.4ZM152.973 74L149.472 72.0652C148.466 73.8851 148.549 75.9442 149.59 77.668L153.014 75.6L156.438 73.532C156.575 73.759 156.747 74.1615 156.761 74.6974C156.775 75.2383 156.621 75.6687 156.474 75.9348L152.973 74ZM153.014 75.6L149.59 77.668C149.498 77.5154 149.365 77.2288 149.322 76.8288C149.277 76.4169 149.345 76.0413 149.458 75.752L153.186 77.2L156.915 78.6479C157.615 76.8452 157.335 75.0179 156.438 73.532L153.014 75.6ZM153.186 77.2L149.458 75.752C149.348 76.0353 149.233 76.3416 149.149 76.6132C149.118 76.7134 149.03 76.9966 148.978 77.3357C148.962 77.4375 148.875 77.9558 148.975 78.6006C149.024 78.9142 149.176 79.6823 149.772 80.4494C150.514 81.4058 151.672 81.9999 152.938 82L152.938 78L152.938 74C154.199 74.0001 155.352 74.5921 156.091 75.5443C156.684 76.3073 156.834 77.0692 156.881 77.3744C156.978 78.0025 156.893 78.4958 156.883 78.5643C156.857 78.7275 156.827 78.8466 156.816 78.8901C156.802 78.944 156.791 78.9788 156.789 78.9868C156.787 78.9917 156.818 78.898 156.915 78.6479L153.186 77.2ZM152.938 78L156.336 80.1105L156.398 80.0105L153 77.9L149.602 75.7895L149.54 75.8895L152.938 78ZM153 77.9L149 77.9L149 78L153 78L157 78L157 77.9L153 77.9Z" fill="#0084DC"/>
<path d="M184 -1.74846e-07C184 -2.20914 182.209 -4 180 -4C177.791 -4 176 -2.20914 176 1.74846e-07L184 -1.74846e-07ZM180 0.1L176 0.1L176 0.260488L176.013 0.420459L180 0.1ZM180.253 19.6L183.311 22.1789L183.487 21.9696L183.633 21.7383L180.253 19.6ZM180 19.9L176.942 17.3211L176 18.4384L176 19.9L180 19.9ZM176 20C176 22.2091 177.791 24 180 24C182.209 24 184 22.2091 184 20L176 20ZM180 0L176 1.74846e-07L176 0.1L180 0.1L184 0.0999998L184 -1.74846e-07L180 0ZM180 0.1L176.013 0.420459C176.025 0.567078 176.028 0.682205 176.027 0.768946C176.026 0.8561 176.021 0.905872 176.019 0.92368C176.017 0.941769 176.019 0.916937 176.035 0.858748C176.052 0.800108 176.086 0.699219 176.152 0.571729L179.709 2.4L183.267 4.22827C184.04 2.7242 184.091 1.07672 183.987 -0.220459L180 0.1ZM179.709 2.4L176.152 0.571729C175.554 1.73452 175.251 3.07276 175.429 4.49527L179.398 4L183.367 3.50473C183.387 3.66204 183.38 3.82034 183.352 3.9639C183.325 4.10376 183.285 4.1937 183.267 4.22827L179.709 2.4ZM179.398 4L175.429 4.49527C175.591 5.79207 176.106 6.92801 176.77 7.8832L180.054 5.6L183.338 3.3168C183.299 3.25981 183.299 3.24812 183.313 3.28266C183.328 3.31973 183.354 3.39591 183.367 3.50473L179.398 4ZM180.054 5.6L176.77 7.8832C176.591 7.62642 176.33 7.10924 176.332 6.39324C176.333 5.67785 176.595 5.16313 176.772 4.90933L180.051 7.2L183.331 9.49066C183.88 8.70354 184.329 7.65548 184.332 6.40676C184.334 5.15742 183.888 4.10691 183.338 3.3168L180.054 5.6ZM180.051 7.2L176.772 4.90933C176.226 5.69073 175.779 6.72855 175.769 7.96562C175.758 9.20572 176.189 10.2558 176.732 11.0523L180.038 8.8L183.343 6.54767C183.523 6.81085 183.774 7.32761 183.768 8.03438C183.762 8.73812 183.504 9.24261 183.331 9.49066L180.051 7.2ZM180.038 8.8L176.732 11.0523C176.611 10.8748 176.416 10.5074 176.366 9.97711C176.314 9.42792 176.441 8.95679 176.6 8.63425L180.189 10.4L183.778 12.1658C184.741 10.2097 184.433 8.14683 183.343 6.54767L180.038 8.8ZM180.189 10.4L176.6 8.63425C175.98 9.89437 175.736 11.3379 176.052 12.8285L179.965 12L183.878 11.1715C183.917 11.354 183.926 11.5555 183.898 11.7551C183.87 11.9504 183.815 12.0904 183.778 12.1658L180.189 10.4ZM179.965 12L176.052 12.8285C176.192 13.4911 176.366 14.1491 176.571 14.8022L180.386 13.6L184.202 12.3978C184.071 11.9842 183.964 11.5756 183.878 11.1715L179.965 12ZM180.386 13.6L176.571 14.8022C176.612 14.9299 176.619 15.0179 176.617 15.0833L180.615 15.2L184.613 15.3167C184.643 14.3155 184.497 13.3368 184.202 12.3978L180.386 13.6ZM180.615 15.2L176.617 15.0833C176.616 15.1182 176.609 15.194 176.556 15.3277L180.275 16.8L183.994 18.2723C184.364 17.3393 184.583 16.3485 184.613 15.3167L180.615 15.2ZM180.275 16.8L176.556 15.3277C176.001 16.7293 175.951 18.2438 176.448 19.6952L180.232 18.4L184.017 17.1048C184.071 17.2634 184.111 17.4709 184.105 17.7072C184.098 17.9424 184.048 18.1366 183.994 18.2723L180.275 16.8ZM180.232 18.4L176.448 19.6952C176.447 19.6939 176.432 19.6507 176.416 19.5707C176.4 19.4918 176.378 19.3541 176.375 19.1692C176.368 18.7969 176.441 18.1443 176.873 17.4617L180.253 19.6L183.633 21.7383C184.814 19.8717 184.299 17.9294 184.017 17.1048L180.232 18.4ZM180.253 19.6L177.195 17.0211L176.942 17.3211L180 19.9L183.058 22.4789L183.311 22.1789L180.253 19.6ZM180 19.9L176 19.9L176 20L180 20L184 20L184 19.9L180 19.9Z" fill="#0084DC"/>
<g filter="url(#filter1_g_1208_10326)">
<path d="M86.4091 173.688L47.289 186.114C45.6282 186.642 44.5 188.184 44.5 189.926V199V238.317C44.5 239.678 45.1915 240.945 46.3356 241.681L108.011 281.364C108.657 281.779 109.408 282 110.176 282H229.776C230.876 282 231.928 281.547 232.684 280.746L280.594 230.018C281.74 228.804 282.015 227.011 281.277 225.515C276.5 215.836 268.6 200.1 267.5 199C266 197.5 263.5 195.5 261 195C259.513 194.703 257.749 193.834 256.531 193.134C255.847 192.74 255.079 192.5 254.289 192.5H252.321C250.886 192.5 249.56 191.731 248.848 190.485L244.919 183.608C244.336 182.588 243.334 181.876 242.179 181.661L214.863 176.568C214.622 176.523 214.376 176.5 214.13 176.5H138.47C138.158 176.5 137.847 176.537 137.543 176.609L128.541 178.752C127.859 178.915 127.146 178.895 126.474 178.695L109.558 173.666C109.188 173.556 108.804 173.5 108.418 173.5H87.62C87.2091 173.5 86.8007 173.563 86.4091 173.688Z" fill="#CED4DA"/>
</g>
<path d="M209.441 225.081C209.733 224.971 209.997 224.989 210.226 225.042C210.311 225.041 210.39 225.053 210.472 225.068C210.642 225.041 210.823 225.022 211.011 225.068C211.067 225.081 211.113 225.127 211.164 225.146L211.175 225.133C211.534 225.147 211.848 225.306 212.078 225.51C212.091 225.521 212.089 225.55 212.101 225.562C212.194 225.562 212.293 225.553 212.394 225.575L212.828 225.757L212.852 225.783C213.007 225.812 213.174 225.872 213.344 225.978C213.368 225.993 213.38 226.027 213.402 226.043C213.455 226.059 213.513 226.058 213.567 226.082C213.836 226.17 214.033 226.318 214.188 226.485L214.575 226.706L214.633 226.784H214.657C214.708 226.817 214.741 226.877 214.786 226.914C214.904 226.941 215.034 226.962 215.161 227.031H215.149C215.382 227.13 215.56 227.278 215.7 227.434C215.735 227.462 215.762 227.496 215.794 227.525C215.94 227.584 216.081 227.678 216.216 227.798C216.27 227.829 216.337 227.836 216.391 227.876C216.49 227.95 216.542 228.065 216.614 228.149C216.761 228.245 216.883 228.341 216.977 228.461C217.079 228.532 217.16 228.613 217.235 228.695C217.35 228.779 217.438 228.891 217.528 229.007C217.663 229.038 217.813 229.074 217.962 229.163C218.18 229.294 218.352 229.47 218.478 229.657L218.736 230.242L218.747 230.359C218.967 230.732 219.061 231.193 218.958 231.659C218.881 232.006 218.692 232.274 218.466 232.491L218.349 232.686L217.927 232.868C217.892 232.883 217.83 232.873 217.763 232.894C217.744 232.898 217.723 232.891 217.704 232.894C217.57 232.932 217.403 233.012 217.2 232.998C217.006 232.984 216.733 232.916 216.462 232.725C216.216 232.552 216.04 232.316 215.922 232.062C215.66 231.93 215.415 231.759 215.243 231.477C215.148 231.395 215.074 231.31 215.008 231.217C214.875 231.157 214.764 231.063 214.645 230.957C214.607 230.951 214.566 230.966 214.528 230.957L213.93 230.684C213.72 230.524 213.593 230.32 213.496 230.138C213.427 230.097 213.366 230.056 213.309 230.008C213.228 229.968 213.141 229.938 213.063 229.878C213.031 229.854 213.009 229.812 212.98 229.787C212.799 229.737 212.602 229.67 212.418 229.514C212.399 229.498 212.389 229.466 212.371 229.449C212.127 229.407 211.914 229.313 211.726 229.163C211.561 229.107 211.403 229.017 211.246 228.877C211.216 228.868 211.192 228.848 211.164 228.838C211.004 228.825 210.853 228.78 210.695 228.708C210.599 228.724 210.5 228.767 210.39 228.76C210.261 228.751 210.146 228.693 210.039 228.656C209.966 228.67 209.895 228.706 209.816 228.708C209.803 228.715 209.794 228.741 209.781 228.747C209.607 228.831 209.436 228.837 209.277 228.851C209.068 229.051 208.818 229.186 208.538 229.241C208.527 229.251 208.515 229.258 208.503 229.267V229.28C208.427 229.363 208.339 229.416 208.257 229.475C208.166 229.587 208.067 229.673 207.964 229.748L207.753 230.125C207.561 230.356 207.342 230.474 207.143 230.554L207.12 230.58C207.055 231.173 206.739 231.64 206.335 231.88C206.072 232.035 205.825 232.053 205.678 232.062L205.69 232.088H205.608L205.596 232.075V232.088L205.585 232.075C204.771 232.126 204.064 231.459 204.002 230.554C203.991 230.38 204.026 230.209 204.061 230.047C204.064 229.977 204.036 229.901 204.049 229.826C204.095 229.552 204.226 229.306 204.389 229.085C204.462 228.886 204.565 228.698 204.717 228.526C204.728 228.508 204.74 228.491 204.752 228.474C204.762 228.464 204.765 228.445 204.776 228.435C204.785 228.425 204.801 228.418 204.811 228.409L204.834 228.383C204.93 228.105 205.081 227.814 205.362 227.59L205.608 227.473C205.683 227.365 205.751 227.256 205.842 227.174L205.854 227.135C206.07 226.726 206.388 226.53 206.686 226.42C206.737 226.349 206.783 226.267 206.85 226.199C207.069 225.979 207.332 225.867 207.589 225.809C207.875 225.586 208.188 225.544 208.48 225.549L208.503 225.536C208.708 225.392 208.923 225.317 209.136 225.289C209.23 225.223 209.317 225.127 209.441 225.081ZM215.219 231.451C215.203 231.428 215.199 231.396 215.184 231.373C215.168 231.343 215.14 231.314 215.125 231.282L215.219 231.451ZM206.452 231.139C206.368 231.179 206.29 231.212 206.22 231.237C206.288 231.214 206.367 231.185 206.452 231.139ZM206.417 231.022C206.325 231.048 206.244 231.071 206.176 231.086C206.242 231.073 206.324 231.054 206.417 231.022ZM216.579 230.957C216.53 230.997 216.464 231.028 216.391 231.074C216.422 231.06 216.454 231.065 216.462 231.061C216.518 231.031 216.555 230.983 216.591 230.957H216.579ZM206.03 230.879H206.042C206.126 230.886 206.252 230.899 206.405 230.866L206.428 230.853C206.26 230.881 206.123 230.887 206.042 230.879L206.03 230.814V230.879ZM217.856 230.502L217.845 230.658C217.846 230.654 217.863 230.635 217.868 230.606C217.872 230.586 217.863 230.546 217.868 230.502C217.87 230.482 217.878 230.461 217.88 230.437C217.881 230.414 217.88 230.381 217.88 230.346C217.873 230.406 217.866 230.457 217.856 230.502ZM217.341 229.761C217.33 229.89 217.329 229.993 217.317 230.047C217.322 230.026 217.335 229.986 217.341 229.93C217.344 229.896 217.341 229.834 217.341 229.761ZM214.61 229.982H214.633C214.653 229.973 214.666 229.951 214.68 229.943C214.66 229.955 214.637 229.967 214.61 229.982ZM215.231 229.917V229.93C215.243 229.921 215.259 229.923 215.266 229.917C215.288 229.899 215.298 229.881 215.301 229.878L215.231 229.917ZM207.167 229.826L207.179 229.787C207.177 229.764 207.158 229.744 207.155 229.722H207.143C207.15 229.757 207.162 229.788 207.167 229.826ZM217.013 229.722C217.004 229.768 217.017 229.806 217.013 229.826C217.013 229.822 217.021 229.809 217.024 229.787C217.026 229.774 217.022 229.749 217.024 229.722H217.013ZM217.833 229.553C217.866 229.591 217.897 229.628 217.927 229.67C217.939 229.674 217.95 229.679 217.962 229.683C217.913 229.616 217.867 229.546 217.81 229.488L217.833 229.553ZM204.752 229.332C204.761 229.432 204.806 229.51 204.823 229.579C204.793 229.477 204.767 229.354 204.752 229.202C204.753 229.251 204.749 229.295 204.752 229.332ZM204.612 229.332C204.609 229.415 204.628 229.487 204.635 229.553C204.626 229.486 204.614 229.415 204.612 229.332ZM216.262 229.28C216.24 229.386 216.248 229.471 216.239 229.501C216.244 229.479 216.257 229.438 216.262 229.384C216.264 229.364 216.261 229.326 216.262 229.28ZM207.081 229.363C207.083 229.397 207.084 229.436 207.097 229.475H207.108L207.097 229.462L207.081 229.363ZM204.483 229.228L204.471 229.241H204.483C204.485 229.228 204.492 229.216 204.494 229.202L204.483 229.228ZM213.742 228.955C213.722 228.978 213.653 229.001 213.59 229.059C213.622 229.038 213.654 229.034 213.672 229.02C213.715 228.986 213.742 228.955 213.742 228.955ZM213.133 228.864C213.096 228.896 213.04 228.914 212.98 228.955C212.95 228.976 212.922 228.999 212.887 229.02C212.913 229.009 212.938 229.004 212.957 228.994H212.98C213.048 228.959 213.096 228.905 213.133 228.877V228.864ZM212.195 228.513C212.131 228.563 212.045 228.592 211.949 228.643L211.961 228.669C212.062 228.626 212.136 228.568 212.195 228.526V228.513ZM215.641 228.37C215.647 228.463 215.657 228.542 215.653 228.617L215.676 228.604H215.665C215.663 228.561 215.682 228.511 215.676 228.461C215.674 228.438 215.648 228.41 215.641 228.37ZM215.372 228.591C215.375 228.559 215.394 228.521 215.395 228.474C215.395 228.463 215.384 228.445 215.383 228.422C215.379 228.488 215.378 228.545 215.372 228.591ZM208.14 228.474C208.173 228.501 208.21 228.535 208.257 228.565V228.539C208.219 228.51 208.182 228.488 208.151 228.461L208.14 228.474ZM212.699 228.422V228.513C212.705 228.421 212.704 228.348 212.711 228.305C212.708 228.32 212.702 228.362 212.699 228.422ZM205.479 228.474C205.573 228.468 205.657 228.465 205.725 228.465L205.655 228.461C205.636 228.461 205.616 228.46 205.596 228.461C205.568 228.463 205.528 228.466 205.479 228.474ZM214.868 228.253C214.837 228.275 214.825 228.301 214.821 228.305C214.858 228.272 214.92 228.228 214.997 228.175C214.934 228.207 214.889 228.238 214.868 228.253ZM208.924 227.735C208.927 227.826 208.928 227.956 208.925 228.11C208.931 228.044 208.948 227.989 208.948 227.954C208.948 227.927 208.938 227.901 208.937 227.876L208.924 227.735ZM208.433 227.824L208.444 227.85C208.454 227.866 208.467 227.883 208.48 227.902C208.496 227.928 208.516 227.963 208.538 227.993C208.555 228.016 208.589 228.05 208.632 228.097V228.071C208.578 227.999 208.524 227.946 208.491 227.889C208.48 227.869 208.465 227.854 208.456 227.837C208.435 227.797 208.406 227.776 208.398 227.759L208.433 227.824ZM214.645 227.707C214.65 227.859 214.676 227.984 214.668 228.058C214.671 228.037 214.681 227.984 214.68 227.915C214.679 227.872 214.659 227.798 214.645 227.707ZM214.071 227.746C214.061 227.835 214.07 227.911 214.059 227.967C214.061 227.948 214.08 227.928 214.082 227.902C214.084 227.87 214.072 227.814 214.071 227.746ZM210.191 227.421C210.184 227.501 210.117 227.649 210.05 227.85C210.072 227.796 210.121 227.758 210.132 227.72C210.173 227.584 210.186 227.475 210.191 227.421ZM206.804 227.07C206.704 227.065 206.551 227.067 206.37 227.122C206.547 227.077 206.7 227.065 206.804 227.07ZM213.496 226.914C213.385 226.952 213.301 227 213.25 227.031C213.318 226.989 213.412 226.97 213.508 226.927L213.496 226.914ZM212.992 226.888C212.928 226.929 212.877 226.973 212.84 227.005C212.883 226.964 212.947 226.926 213.016 226.875L212.992 226.888ZM212.57 226.797C212.547 226.815 212.529 226.834 212.512 226.849L212.5 226.862C212.527 226.835 212.568 226.817 212.605 226.784C212.594 226.792 212.577 226.792 212.57 226.797ZM206.721 226.823C206.691 226.828 206.661 226.841 206.628 226.849C206.756 226.831 206.863 226.827 206.956 226.836L206.968 226.823C206.9 226.819 206.815 226.809 206.721 226.823ZM206.991 226.823V226.836C207.007 226.838 207.023 226.834 207.038 226.836L207.12 226.823C207.091 226.817 207.046 226.827 206.991 226.823ZM212.652 226.745C212.648 226.721 212.65 226.689 212.641 226.654L212.629 226.628C212.635 226.672 212.649 226.71 212.652 226.745ZM208.398 226.485C208.386 226.524 208.378 226.555 208.374 226.576C208.379 226.544 208.4 226.506 208.409 226.459C208.405 226.472 208.398 226.483 208.398 226.485ZM207.929 226.355C208.035 226.391 208.127 226.395 208.175 226.42C208.157 226.411 208.07 226.378 207.94 226.342L207.929 226.355ZM211.129 225.913C211.045 225.969 210.99 226.033 210.953 226.069C211.002 226.019 211.078 225.967 211.164 225.9C211.153 225.907 211.137 225.907 211.129 225.913ZM210.074 225.614C209.996 225.685 209.947 225.76 209.91 225.809C209.953 225.748 210.036 225.681 210.132 225.588C210.265 225.683 210.386 225.739 210.437 225.796C210.412 225.768 210.357 225.702 210.273 225.64C210.243 225.618 210.191 225.615 210.144 225.588C210.175 225.559 210.202 225.526 210.238 225.497C210.169 225.543 210.11 225.581 210.074 225.614ZM209.874 225.068C209.795 225.08 209.724 225.107 209.663 225.133C209.762 225.09 209.868 225.1 209.968 225.081L209.874 225.068Z" fill="#9B9FA4"/>
<path d="M90.5593 224.081C90.2667 223.971 90.0033 223.989 89.7739 224.042C89.6894 224.041 89.6105 224.053 89.5278 224.068C89.3579 224.041 89.1771 224.022 88.9886 224.068C88.9332 224.081 88.8866 224.127 88.8363 224.146L88.8245 224.133C88.4658 224.147 88.1518 224.306 87.922 224.51C87.9094 224.521 87.9107 224.55 87.8986 224.562C87.8056 224.562 87.7073 224.553 87.6056 224.575L87.1719 224.757L87.1484 224.783C86.9928 224.812 86.8258 224.872 86.6561 224.978C86.6324 224.993 86.6199 225.027 86.5975 225.043C86.5448 225.059 86.4874 225.058 86.4334 225.082C86.1642 225.17 85.9673 225.318 85.8122 225.485L85.4254 225.706L85.3668 225.784H85.3434C85.2919 225.817 85.2592 225.877 85.2145 225.914C85.0958 225.941 84.9664 225.962 84.8394 226.031H84.8511C84.6182 226.13 84.4403 226.278 84.3002 226.434C84.2652 226.462 84.2377 226.496 84.2065 226.525C84.0601 226.584 83.9192 226.678 83.7845 226.798C83.7304 226.829 83.6628 226.836 83.6087 226.876C83.5101 226.95 83.4579 227.065 83.386 227.149C83.2391 227.245 83.1173 227.341 83.0226 227.461C82.9207 227.532 82.84 227.613 82.7648 227.695C82.6499 227.779 82.5623 227.891 82.4717 228.007C82.3368 228.038 82.1869 228.074 82.0381 228.163C81.8203 228.294 81.6482 228.47 81.5223 228.657L81.2645 229.242L81.2527 229.359C81.0332 229.732 80.9386 230.193 81.0418 230.659C81.1191 231.006 81.3075 231.274 81.5341 231.491L81.6513 231.686L82.0732 231.868C82.1081 231.883 82.1698 231.873 82.2373 231.894C82.2564 231.898 82.2766 231.891 82.2959 231.894C82.4296 231.932 82.5972 232.012 82.7999 231.998C82.9944 231.984 83.2673 231.916 83.5384 231.725C83.7841 231.552 83.9597 231.316 84.0775 231.062C84.3404 230.93 84.5853 230.759 84.7573 230.477C84.8516 230.395 84.9261 230.31 84.9918 230.217C85.1245 230.157 85.2363 230.063 85.3551 229.957C85.3927 229.951 85.4336 229.966 85.4723 229.957L86.0701 229.684C86.2799 229.524 86.4067 229.32 86.5038 229.138C86.5732 229.097 86.6335 229.056 86.6913 229.008C86.7721 228.968 86.8592 228.938 86.9375 228.878C86.9687 228.854 86.9911 228.812 87.0195 228.787C87.2014 228.737 87.3982 228.67 87.5821 228.514C87.6008 228.498 87.6114 228.466 87.629 228.449C87.8731 228.407 88.0864 228.313 88.2737 228.163C88.439 228.107 88.5971 228.017 88.7542 227.877C88.7837 227.868 88.8083 227.848 88.8363 227.838C88.9965 227.825 89.1468 227.78 89.3051 227.708C89.4013 227.724 89.5004 227.767 89.6099 227.76C89.7385 227.751 89.8538 227.693 89.9615 227.656C90.0341 227.67 90.1046 227.706 90.1842 227.708C90.197 227.715 90.2061 227.741 90.2193 227.747C90.3928 227.831 90.5638 227.837 90.7234 227.851C90.9322 228.051 91.1824 228.186 91.4618 228.241C91.4732 228.251 91.4854 228.258 91.4969 228.267V228.28C91.5726 228.363 91.6614 228.416 91.7431 228.475C91.834 228.587 91.9329 228.673 92.0361 228.748L92.2471 229.125C92.4388 229.356 92.6577 229.474 92.8566 229.554L92.88 229.58C92.9447 230.173 93.2609 230.64 93.6653 230.88C93.9276 231.035 94.1754 231.053 94.3217 231.062L94.31 231.088H94.392L94.4038 231.075V231.088L94.4155 231.075C95.2295 231.126 95.9362 230.459 95.9978 229.554C96.0092 229.38 95.9739 229.209 95.9392 229.047C95.9358 228.977 95.9636 228.901 95.9509 228.826C95.9046 228.552 95.774 228.306 95.611 228.085C95.538 227.886 95.4347 227.698 95.2828 227.526C95.2716 227.508 95.2597 227.491 95.2477 227.474C95.2377 227.464 95.2345 227.445 95.2242 227.435C95.2145 227.425 95.1988 227.418 95.1891 227.409L95.1656 227.383C95.0702 227.105 94.9192 226.814 94.6382 226.59L94.392 226.473C94.3169 226.365 94.2492 226.256 94.1576 226.174L94.1459 226.135C93.9297 225.726 93.6115 225.53 93.3137 225.42C93.2634 225.349 93.2171 225.267 93.1496 225.199C92.9314 224.979 92.6676 224.867 92.4112 224.809C92.1248 224.586 91.8119 224.544 91.5204 224.549L91.4969 224.536C91.2919 224.392 91.0774 224.317 90.864 224.289C90.7698 224.223 90.6827 224.127 90.5593 224.081ZM84.7808 230.451C84.797 230.428 84.8012 230.396 84.8159 230.373C84.832 230.343 84.8599 230.314 84.8746 230.282L84.7808 230.451ZM93.5481 230.139C93.6321 230.179 93.7099 230.212 93.7803 230.237C93.7122 230.214 93.633 230.185 93.5481 230.139ZM93.5833 230.022C93.675 230.048 93.7559 230.071 93.8243 230.086C93.7579 230.073 93.6761 230.054 93.5833 230.022ZM83.4211 229.957C83.4701 229.997 83.5365 230.028 83.6087 230.074C83.5775 230.06 83.5462 230.065 83.5384 230.061C83.4819 230.031 83.445 229.983 83.4094 229.957H83.4211ZM93.9701 229.879H93.9584C93.8739 229.886 93.7475 229.899 93.595 229.866L93.5716 229.853C93.7404 229.881 93.8768 229.887 93.9584 229.879L93.9701 229.814V229.879ZM82.1435 229.502L82.1553 229.658C82.1542 229.654 82.1374 229.635 82.1318 229.606C82.128 229.586 82.1365 229.546 82.1318 229.502C82.1297 229.482 82.1215 229.461 82.1201 229.437C82.1187 229.414 82.1201 229.381 82.1201 229.346C82.1275 229.406 82.1343 229.457 82.1435 229.502ZM82.6593 228.761C82.6703 228.89 82.6706 228.993 82.6827 229.047C82.6782 229.026 82.6652 228.986 82.6593 228.93C82.6557 228.896 82.6588 228.834 82.6593 228.761ZM85.3903 228.982H85.3668C85.3467 228.973 85.3337 228.951 85.32 228.943C85.3395 228.955 85.3631 228.967 85.3903 228.982ZM84.7691 228.917V228.93C84.7568 228.921 84.741 228.923 84.7339 228.917C84.7118 228.899 84.7017 228.881 84.6987 228.878L84.7691 228.917ZM92.8331 228.826L92.8214 228.787C92.8232 228.764 92.8423 228.744 92.8449 228.722H92.8566C92.8499 228.757 92.8382 228.788 92.8331 228.826ZM82.9875 228.722C82.9958 228.768 82.9831 228.806 82.9875 228.826C82.9865 228.822 82.9789 228.809 82.9757 228.787C82.9738 228.774 82.978 228.749 82.9757 228.722H82.9875ZM82.167 228.553C82.134 228.591 82.1035 228.628 82.0732 228.67C82.0613 228.674 82.0498 228.679 82.0381 228.683C82.0866 228.616 82.1326 228.546 82.1904 228.488L82.167 228.553ZM95.2477 228.332C95.2391 228.432 95.1943 228.51 95.1774 228.579C95.2067 228.477 95.2328 228.354 95.2477 228.202C95.2472 228.251 95.2508 228.295 95.2477 228.332ZM95.3883 228.332C95.3905 228.415 95.3717 228.487 95.3649 228.553C95.374 228.486 95.3861 228.415 95.3883 228.332ZM83.7376 228.28C83.7595 228.386 83.7524 228.471 83.7611 228.501C83.7564 228.479 83.7428 228.438 83.7376 228.384C83.7358 228.364 83.7387 228.326 83.7376 228.28ZM92.9189 228.363C92.9174 228.397 92.9164 228.436 92.9035 228.475H92.8917L92.9035 228.462L92.9189 228.363ZM95.5173 228.228L95.529 228.241H95.5173C95.5152 228.228 95.508 228.216 95.5055 228.202L95.5173 228.228ZM86.2576 227.955C86.2784 227.978 86.3474 228.001 86.41 228.059C86.3784 228.038 86.3457 228.034 86.328 228.02C86.2853 227.986 86.2576 227.955 86.2576 227.955ZM86.8671 227.864C86.9037 227.896 86.9601 227.914 87.0195 227.955C87.0496 227.976 87.0777 227.999 87.1133 228.02C87.0868 228.009 87.0623 228.004 87.0429 227.994H87.0195C86.9524 227.959 86.9042 227.905 86.8671 227.877V227.864ZM87.8048 227.513C87.8689 227.563 87.9552 227.592 88.051 227.643L88.0392 227.669C87.9383 227.626 87.864 227.568 87.8048 227.526V227.513ZM84.3588 227.37C84.353 227.463 84.3433 227.542 84.3471 227.617L84.3237 227.604H84.3354C84.3367 227.561 84.318 227.511 84.3237 227.461C84.3263 227.438 84.3516 227.41 84.3588 227.37ZM84.6284 227.591C84.6252 227.559 84.6059 227.521 84.605 227.474C84.6048 227.463 84.6164 227.445 84.6167 227.422C84.6213 227.488 84.6216 227.545 84.6284 227.591ZM91.8603 227.474C91.8267 227.501 91.7901 227.535 91.7431 227.565V227.539C91.7813 227.51 91.8176 227.488 91.8486 227.461L91.8603 227.474ZM87.3008 227.422V227.513C87.2947 227.421 87.296 227.348 87.2891 227.305C87.2915 227.32 87.2976 227.362 87.3008 227.422ZM94.521 227.474C94.4268 227.468 94.3429 227.465 94.2748 227.465L94.3452 227.461C94.3636 227.461 94.3837 227.46 94.4038 227.461C94.4319 227.463 94.4716 227.466 94.521 227.474ZM85.1324 227.253C85.1632 227.275 85.1749 227.301 85.1793 227.305C85.1416 227.272 85.0799 227.228 85.0035 227.175C85.0657 227.207 85.1113 227.238 85.1324 227.253ZM91.0764 226.735C91.0727 226.826 91.0719 226.956 91.075 227.11C91.0689 227.044 91.0516 226.989 91.0515 226.954C91.0516 226.927 91.0621 226.901 91.0633 226.876L91.0764 226.735ZM91.5673 226.824L91.5555 226.85C91.5461 226.866 91.5327 226.883 91.5204 226.902C91.5037 226.928 91.4839 226.963 91.4618 226.993C91.4446 227.016 91.4106 227.05 91.368 227.097V227.071C91.4222 226.999 91.4763 226.946 91.5087 226.889C91.5201 226.869 91.5349 226.854 91.5438 226.837C91.5648 226.797 91.5944 226.776 91.6024 226.759L91.5673 226.824ZM85.3551 226.707C85.3497 226.859 85.324 226.984 85.3317 227.058C85.3295 227.037 85.319 226.984 85.32 226.915C85.3207 226.872 85.3412 226.798 85.3551 226.707ZM85.9294 226.746C85.9393 226.835 85.93 226.911 85.9412 226.967C85.9389 226.948 85.9195 226.928 85.9177 226.902C85.9156 226.87 85.9276 226.814 85.9294 226.746ZM89.8091 226.421C89.8163 226.501 89.8829 226.649 89.9498 226.85C89.9276 226.796 89.8791 226.758 89.8677 226.72C89.8269 226.584 89.8141 226.475 89.8091 226.421ZM93.1965 226.07C93.2958 226.065 93.4495 226.067 93.6302 226.122C93.4528 226.077 93.2997 226.065 93.1965 226.07ZM86.5038 225.914C86.6152 225.952 86.6989 226 86.7499 226.031C86.6815 225.989 86.5878 225.97 86.4921 225.927L86.5038 225.914ZM87.0078 225.888C87.0717 225.929 87.1234 225.973 87.1602 226.005C87.117 225.964 87.0531 225.926 86.9843 225.875L87.0078 225.888ZM87.4297 225.797C87.4534 225.815 87.4714 225.834 87.4883 225.849L87.5001 225.862C87.4728 225.835 87.4322 225.817 87.3946 225.784C87.4059 225.792 87.4225 225.792 87.4297 225.797ZM93.2785 225.823C93.3086 225.828 93.3388 225.841 93.3723 225.849C93.244 225.831 93.1371 225.827 93.0441 225.836L93.0324 225.823C93.0997 225.819 93.1849 225.809 93.2785 225.823ZM93.009 225.823V225.836C92.9925 225.838 92.9769 225.834 92.9621 225.836L92.88 225.823C92.9088 225.817 92.9537 225.827 93.009 225.823ZM87.3477 225.745C87.352 225.721 87.3503 225.689 87.3594 225.654L87.3711 225.628C87.3647 225.672 87.3511 225.71 87.3477 225.745ZM91.6024 225.485C91.6137 225.524 91.6216 225.555 91.6259 225.576C91.621 225.544 91.5999 225.506 91.5907 225.459C91.5947 225.472 91.6018 225.483 91.6024 225.485ZM92.0713 225.355C91.9653 225.391 91.8731 225.395 91.8251 225.42C91.8428 225.411 91.9297 225.378 92.0596 225.342L92.0713 225.355ZM88.8714 224.913C88.955 224.969 89.0103 225.033 89.0472 225.069C88.9983 225.019 88.9224 224.967 88.8363 224.9C88.8471 224.907 88.8627 224.907 88.8714 224.913ZM89.9263 224.614C90.0045 224.685 90.0535 224.76 90.0904 224.809C90.0468 224.748 89.9643 224.681 89.8677 224.588C89.7351 224.683 89.6139 224.739 89.563 224.796C89.5877 224.768 89.6426 224.702 89.7271 224.64C89.7573 224.618 89.8089 224.615 89.856 224.588C89.8253 224.559 89.7983 224.526 89.7622 224.497C89.8307 224.543 89.8904 224.581 89.9263 224.614ZM90.1256 224.068C90.2049 224.08 90.2763 224.107 90.3366 224.133C90.2382 224.09 90.1322 224.1 90.0318 224.081L90.1256 224.068Z" fill="#9B9FA4"/>
<path d="M119.372 198.543C119.683 198.516 119.932 198.604 120.139 198.717C120.22 198.739 120.293 198.772 120.369 198.808C120.54 198.828 120.719 198.858 120.888 198.953C120.938 198.981 120.97 199.038 121.014 199.069L121.029 199.06C121.37 199.171 121.63 199.407 121.796 199.666C121.805 199.68 121.796 199.708 121.805 199.722C121.894 199.747 121.992 199.765 122.083 199.814L122.452 200.106L122.468 200.137C122.61 200.207 122.754 200.31 122.889 200.458C122.908 200.478 122.911 200.515 122.928 200.536C122.975 200.566 123.03 200.58 123.076 200.618C123.311 200.775 123.461 200.971 123.566 201.173L123.879 201.49L123.914 201.581L123.937 201.587C123.977 201.633 123.993 201.7 124.026 201.747C124.133 201.805 124.252 201.861 124.355 201.961L124.344 201.958C124.542 202.116 124.673 202.307 124.766 202.494C124.793 202.53 124.81 202.571 124.832 202.607C124.957 202.703 125.067 202.832 125.165 202.984C125.209 203.028 125.272 203.053 125.313 203.106C125.388 203.203 125.407 203.329 125.454 203.429C125.57 203.561 125.661 203.686 125.72 203.827C125.799 203.923 125.855 204.023 125.905 204.122C125.993 204.234 126.048 204.366 126.104 204.502C126.225 204.568 126.36 204.643 126.479 204.769C126.654 204.953 126.772 205.169 126.843 205.383L126.934 206.016L126.914 206.132C127.025 206.55 126.992 207.019 126.767 207.441C126.599 207.754 126.345 207.961 126.069 208.11L125.903 208.266L125.448 208.328C125.41 208.332 125.354 208.306 125.283 208.308C125.263 208.307 125.246 208.295 125.226 208.293C125.087 208.293 124.904 208.325 124.713 208.257C124.529 208.191 124.285 208.052 124.075 207.795C123.885 207.562 123.78 207.288 123.735 207.012C123.517 206.813 123.327 206.583 123.237 206.265C123.169 206.161 123.12 206.059 123.082 205.952C122.97 205.858 122.888 205.737 122.802 205.603C122.767 205.588 122.724 205.591 122.689 205.572L122.187 205.148C122.028 204.938 121.96 204.707 121.916 204.505C121.86 204.447 121.813 204.391 121.77 204.33C121.703 204.269 121.628 204.216 121.568 204.138C121.545 204.107 121.534 204.06 121.514 204.028C121.352 203.931 121.181 203.814 121.045 203.614C121.032 203.593 121.03 203.559 121.018 203.539C120.794 203.432 120.614 203.285 120.474 203.09C120.33 202.991 120.202 202.862 120.088 202.685C120.062 202.668 120.044 202.643 120.02 202.625C119.869 202.57 119.736 202.486 119.603 202.374C119.506 202.363 119.399 202.378 119.296 202.342C119.174 202.299 119.079 202.211 118.985 202.147C118.911 202.141 118.834 202.157 118.756 202.137C118.742 202.14 118.727 202.162 118.712 202.165C118.522 202.199 118.356 202.159 118.199 202.13C117.944 202.266 117.666 202.329 117.383 202.306C117.369 202.313 117.355 202.316 117.342 202.322L117.338 202.334C117.243 202.394 117.143 202.421 117.049 202.456C116.931 202.539 116.813 202.595 116.693 202.64L116.388 202.946C116.141 203.117 115.899 203.172 115.686 203.195L115.656 203.214C115.434 203.768 115.004 204.132 114.55 204.255C114.256 204.333 114.012 204.283 113.869 204.253L113.873 204.282L113.794 204.259L113.786 204.244L113.783 204.256L113.775 204.241C112.977 204.07 112.476 203.237 112.66 202.35C112.696 202.179 112.777 202.023 112.853 201.877C112.876 201.81 112.869 201.73 112.902 201.661C113.02 201.41 113.212 201.208 113.429 201.039C113.552 200.867 113.703 200.714 113.895 200.589C113.911 200.575 113.927 200.562 113.943 200.548C113.955 200.541 113.963 200.524 113.976 200.517C113.988 200.51 114.005 200.508 114.017 200.502L114.046 200.483C114.213 200.241 114.437 200.001 114.768 199.861L115.037 199.815C115.138 199.731 115.233 199.644 115.343 199.59L115.365 199.555C115.683 199.22 116.042 199.117 116.359 199.091C116.426 199.036 116.493 198.97 116.576 198.922C116.845 198.77 117.13 198.732 117.392 198.745C117.728 198.608 118.041 198.652 118.32 198.735L118.346 198.729C118.583 198.645 118.809 198.63 119.022 198.661C119.131 198.623 119.24 198.554 119.372 198.543ZM123.222 206.234C123.212 206.207 123.217 206.175 123.209 206.149C123.202 206.115 123.182 206.08 123.177 206.046L123.222 206.234ZM114.862 203.573C114.771 203.588 114.687 203.599 114.612 203.604C114.684 203.601 114.768 203.594 114.862 203.573ZM114.86 203.451C114.765 203.451 114.68 203.451 114.611 203.447C114.678 203.453 114.762 203.456 114.86 203.451ZM124.664 206.124C124.606 206.149 124.534 206.161 124.452 206.186C124.486 206.181 124.515 206.195 124.523 206.193C124.586 206.179 124.634 206.142 124.675 206.127L124.664 206.124ZM114.526 203.209L114.537 203.212C114.616 203.242 114.735 203.288 114.891 203.297L114.917 203.291C114.747 203.272 114.614 203.241 114.537 203.212L114.543 203.146L114.526 203.209ZM126.017 206.03L125.964 206.177C125.966 206.174 125.987 206.159 126 206.133C126.009 206.115 126.012 206.074 126.028 206.033C126.036 206.014 126.049 205.996 126.057 205.974C126.065 205.951 126.072 205.92 126.082 205.886C126.059 205.941 126.038 205.988 126.017 206.03ZM125.72 205.177C125.674 205.299 125.647 205.397 125.62 205.446C125.63 205.427 125.654 205.392 125.674 205.34C125.687 205.308 125.701 205.248 125.72 205.177ZM123.03 204.655L123.053 204.661C123.075 204.658 123.093 204.64 123.109 204.636C123.086 204.642 123.06 204.648 123.03 204.655ZM123.646 204.759L123.643 204.772C123.657 204.766 123.672 204.773 123.68 204.769C123.706 204.757 123.721 204.743 123.724 204.741L123.646 204.759ZM115.904 202.501L115.926 202.466C115.931 202.443 115.918 202.419 115.921 202.397L115.91 202.394C115.907 202.429 115.91 202.463 115.904 202.501ZM125.414 205.051C125.394 205.093 125.396 205.134 125.386 205.151C125.389 205.147 125.399 205.137 125.408 205.117C125.414 205.105 125.416 205.08 125.426 205.054L125.414 205.051ZM126.25 205.109C126.272 205.155 126.291 205.199 126.309 205.247C126.319 205.254 126.329 205.262 126.339 205.269C126.311 205.192 126.285 205.112 126.245 205.041L126.25 205.109ZM113.712 201.375C113.693 201.474 113.715 201.561 113.713 201.632C113.712 201.526 113.72 201.399 113.747 201.249C113.734 201.297 113.719 201.338 113.712 201.375ZM113.576 201.337C113.552 201.416 113.551 201.49 113.54 201.556C113.549 201.489 113.556 201.417 113.576 201.337ZM124.811 204.424C124.761 204.52 124.745 204.603 124.729 204.63C124.739 204.61 124.763 204.575 124.783 204.524C124.79 204.505 124.798 204.468 124.811 204.424ZM115.946 202.031C115.939 202.064 115.929 202.103 115.931 202.144L115.942 202.147L115.935 202.131L115.946 202.031ZM113.48 201.202L113.466 201.211L113.477 201.214C113.483 201.202 113.493 201.193 113.499 201.18L113.48 201.202ZM122.472 203.432C122.445 203.449 122.373 203.453 122.297 203.491C122.333 203.48 122.365 203.484 122.386 203.476C122.437 203.455 122.472 203.432 122.472 203.432ZM121.909 203.18C121.865 203.201 121.806 203.204 121.738 203.227C121.703 203.239 121.67 203.254 121.63 203.264C121.658 203.261 121.683 203.262 121.705 203.258L121.727 203.265C121.801 203.249 121.862 203.21 121.906 203.193L121.909 203.18ZM121.1 202.59C121.025 202.621 120.934 202.625 120.828 202.649L120.833 202.677C120.941 202.663 121.029 202.626 121.097 202.602L121.1 202.59ZM124.458 203.38C124.438 203.471 124.426 203.55 124.403 203.621L124.429 203.615L124.417 203.612C124.428 203.57 124.459 203.526 124.467 203.477C124.471 203.454 124.454 203.42 124.458 203.38ZM124.139 203.52C124.15 203.49 124.179 203.458 124.193 203.414C124.196 203.403 124.189 203.383 124.195 203.361C124.173 203.423 124.158 203.477 124.139 203.52ZM117.205 201.46C117.23 201.495 117.256 201.538 117.294 201.58L117.301 201.555C117.272 201.516 117.242 201.486 117.22 201.451L117.205 201.46ZM121.61 202.638L121.586 202.726C121.617 202.639 121.635 202.568 121.653 202.528C121.647 202.543 121.63 202.581 121.61 202.638ZM114.643 200.744C114.735 200.764 114.817 200.783 114.882 200.802L114.816 200.779C114.798 200.774 114.779 200.767 114.759 200.763C114.732 200.757 114.692 200.75 114.643 200.744ZM123.744 203.059C123.709 203.072 123.69 203.094 123.685 203.096C123.73 203.075 123.801 203.049 123.889 203.019C123.821 203.033 123.769 203.05 123.744 203.059ZM118.159 200.959C118.138 201.048 118.104 201.174 118.06 201.321C118.083 201.259 118.115 201.211 118.124 201.177C118.132 201.151 118.128 201.123 118.134 201.099L118.159 200.959ZM117.662 200.913L117.667 200.941C117.671 200.96 117.68 200.979 117.687 201.001C117.696 201.031 117.705 201.07 117.719 201.104C117.729 201.131 117.752 201.173 117.781 201.23L117.788 201.205C117.755 201.121 117.717 201.055 117.701 200.992C117.696 200.969 117.686 200.951 117.682 200.932C117.672 200.888 117.649 200.86 117.646 200.841L117.662 200.913ZM123.677 202.473C123.641 202.621 123.632 202.748 123.605 202.818C123.613 202.798 123.637 202.75 123.655 202.683C123.665 202.641 123.666 202.564 123.677 202.473ZM123.113 202.356C123.08 202.439 123.068 202.515 123.042 202.566C123.05 202.548 123.074 202.534 123.082 202.509C123.093 202.48 123.097 202.422 123.113 202.356ZM119.464 200.998C119.436 201.073 119.332 201.198 119.213 201.374C119.249 201.327 119.306 201.304 119.327 201.271C119.403 201.151 119.445 201.049 119.464 200.998ZM116.296 199.748C116.202 199.717 116.054 199.678 115.865 199.682C116.048 199.686 116.198 199.716 116.296 199.748ZM122.784 201.4C122.666 201.407 122.573 201.431 122.515 201.447C122.593 201.424 122.688 201.432 122.792 201.416L122.784 201.4ZM122.306 201.239C122.233 201.261 122.171 201.29 122.127 201.311C122.18 201.283 122.252 201.264 122.332 201.233L122.306 201.239ZM121.924 201.038C121.896 201.049 121.874 201.063 121.853 201.072L121.839 201.082C121.872 201.063 121.916 201.057 121.961 201.035C121.948 201.04 121.932 201.035 121.924 201.038ZM116.284 199.488C116.254 199.485 116.221 199.49 116.187 199.488C116.315 199.506 116.419 199.53 116.506 199.564L116.521 199.555C116.457 199.533 116.378 199.5 116.284 199.488ZM116.544 199.561L116.54 199.573C116.555 199.58 116.572 199.58 116.585 199.586L116.668 199.596C116.642 199.582 116.596 199.58 116.544 199.561ZM122.017 201.01C122.019 200.986 122.029 200.955 122.03 200.919L122.026 200.891C122.02 200.935 122.023 200.976 122.017 201.01ZM117.989 199.614C117.968 199.649 117.952 199.677 117.942 199.695C117.955 199.666 117.986 199.635 118.007 199.592C118 199.604 117.99 199.612 117.989 199.614ZM117.573 199.363C117.665 199.425 117.753 199.454 117.792 199.492C117.778 199.478 117.703 199.423 117.587 199.353L117.573 199.363ZM120.773 199.799C120.678 199.83 120.607 199.876 120.562 199.901C120.623 199.866 120.71 199.837 120.811 199.795C120.798 199.799 120.783 199.795 120.773 199.799ZM119.838 199.227C119.743 199.274 119.676 199.333 119.627 199.37C119.686 199.323 119.783 199.281 119.901 199.217C120.003 199.345 120.105 199.431 120.139 199.5C120.122 199.466 120.087 199.388 120.023 199.305C120 199.276 119.951 199.259 119.913 199.22C119.95 199.201 119.985 199.176 120.027 199.158C119.949 199.184 119.881 199.205 119.838 199.227ZM119.793 198.647C119.713 198.638 119.637 198.644 119.572 198.653C119.678 198.638 119.778 198.677 119.88 198.685L119.793 198.647Z" fill="#9B9FA4"/>
<g filter="url(#filter2_dg_1208_10326)">
<path d="M136.762 235.399L105.869 244.504C104.168 245.006 103 246.568 103 248.341V276C103 278.209 104.791 280 107 280H209.871C212.08 280 213.871 278.21 213.871 276.001V260.064C213.871 259.854 213.885 259.645 213.93 259.439C214.544 256.606 216.997 255.333 211.446 255.254C211.058 255.248 210.67 255.31 210.296 255.413C206.329 256.511 205.953 255.406 197.316 248.95C194.807 247.15 195.309 248.5 186.279 245.35C177.249 242.2 181.764 243.55 175.744 239.95C169.856 236.43 170.686 238.503 165.565 239.859C165.331 239.921 165.098 240.004 164.87 240.087C163.011 240.762 161.27 240.154 154.171 243.55C146.646 247.15 149.656 243.55 148.151 243.55C146.646 243.55 147.649 242.2 146.144 239.95C145.145 238.456 141.771 236.651 139.41 235.567C138.58 235.185 137.639 235.141 136.762 235.399Z" fill="#9B9FA4"/>
</g>
<g filter="url(#filter3_g_1208_10326)">
<path d="M6.72208 177.475C2.37146 164.422 -13.8667 165.053 -22.2691 167.191C-22.7037 167.302 -23 167.696 -23 168.145V282.886C-23 283.439 -22.5523 283.886 -22 283.886H126.877C126.959 283.886 127.039 283.897 127.118 283.914C129.824 284.502 135.106 282.711 135.5 270.886C135.874 259.669 128.412 255.442 123.898 254.53C123.392 254.428 123.011 253.98 123.002 253.464C122.704 235.865 102.804 233.335 92.1368 234.322C91.7449 234.358 91.3684 234.158 91.1581 233.826C84.6374 223.515 73.2345 226.54 65.4312 231.026C64.4526 231.589 62.8621 230.155 63.3228 229.125C70.4712 213.135 62.3075 201.873 56.4367 197.688C56.1645 197.493 56.0031 197.179 55.9872 196.845C55.4663 185.933 39.1825 183.646 30.5072 183.87C30.1852 183.878 29.8839 183.733 29.676 183.487C24.2633 177.081 13.5088 177.205 7.9246 178.203C7.40219 178.297 6.88989 177.979 6.72208 177.475Z" fill="#228E30"/>
</g>
<g filter="url(#filter4_g_1208_10326)">
<path d="M318.792 177.475C323.142 164.422 339.38 165.053 347.783 167.191C348.217 167.302 348.514 167.696 348.514 168.145V282.886C348.514 283.439 348.066 283.886 347.514 283.886H198.637C198.555 283.886 198.475 283.897 198.395 283.914C195.69 284.502 190.408 282.711 190.014 270.886C189.64 259.669 197.101 255.442 201.616 254.53C202.122 254.428 202.503 253.98 202.511 253.464C202.809 235.865 222.71 233.335 233.377 234.322C233.769 234.358 234.145 234.158 234.356 233.826C240.876 223.515 252.279 226.54 260.082 231.026C261.061 231.589 262.652 230.155 262.191 229.125C255.042 213.135 263.206 201.873 269.077 197.688C269.349 197.493 269.511 197.179 269.526 196.845C270.047 185.933 286.331 183.646 295.006 183.87C295.328 183.878 295.63 183.733 295.838 183.487C301.25 177.081 312.005 177.205 317.589 178.203C318.111 178.297 318.624 177.979 318.792 177.475Z" fill="#228E30"/>
</g>
<g filter="url(#filter5_g_1208_10326)">
<path d="M239.864 252.919C249.672 274.116 270.951 289.688 280.67 294.955L278.603 302.67L230.055 285.328C229.614 285.17 229.761 284.531 230.227 284.579C258.031 287.444 266.815 295.005 256.365 283.849C248.093 275.018 240.956 261.035 239.245 253.092C239.15 252.649 239.674 252.508 239.864 252.919Z" fill="#16471D"/>
</g>
<g filter="url(#filter6_g_1208_10326)">
<path d="M31.0746 199.919C21.2674 221.116 -0.0121064 236.688 -9.731 241.955L-7.66375 249.67L40.8839 232.328C41.3253 232.17 41.1781 231.531 40.7119 231.579C12.9079 234.444 4.12386 242.005 14.5735 230.849C22.8455 222.018 29.9825 208.035 31.6938 200.092C31.7892 199.649 31.2649 199.508 31.0746 199.919Z" fill="#16471D"/>
</g>
<g filter="url(#filter7_g_1208_10326)">
<path d="M71.127 245.542C71.2191 245.082 71.8715 245.135 71.8917 245.603C73.0851 273.529 66.8772 283.316 76.4015 271.36C83.9409 261.896 96.7432 252.809 104.354 249.965C104.778 249.806 104.994 250.305 104.614 250.553C86.2893 262.525 74.312 283.753 69.7491 294.916L73.9913 316.09L66.0587 317.017C62.2546 306.638 49.93 283.327 30.378 270.553C29.9987 270.305 30.2143 269.806 30.6388 269.965C38.2492 272.809 51.0514 281.896 58.5909 291.36C59.6877 292.737 60.5772 293.824 61.2921 294.63L63.3184 284.516C63.0062 279.646 62.7701 273.316 63.0997 265.603C63.1199 265.135 63.7733 265.082 63.8653 265.542L65.4923 273.665L71.127 245.542Z" fill="#16471D"/>
</g>
<g filter="url(#filter8_g_1208_10326)">
<path d="M303.724 241.172C303.464 240.782 303.963 240.358 304.308 240.674C324.899 259.577 327.429 270.887 325.71 255.698C324.349 243.675 326.976 228.197 330.346 220.804C330.535 220.392 331.039 220.592 330.947 221.036C326.455 242.459 332.996 265.939 337.663 277.059L355.634 289.031L350.681 295.296C340.652 290.647 315.454 282.878 292.596 287.671C292.152 287.764 291.952 287.259 292.364 287.071C299.757 283.7 315.235 281.074 327.258 282.435C329.007 282.632 330.405 282.772 331.48 282.836L325.761 274.252C322.097 271.029 317.455 266.721 312.234 261.033C311.917 260.688 312.342 260.189 312.732 260.449L319.626 265.042L303.724 241.172Z" fill="#16471D"/>
</g>
<g filter="url(#filter9_g_1208_10326)">
<path d="M96.875 157C101.582 157 105.776 158.713 108.501 161.385C110.731 160.341 113.338 159.741 116.125 159.741C122.929 159.741 128.66 163.319 130.431 168.203C132.696 164.034 137.975 161.111 144.125 161.111C152.34 161.111 159 166.326 159 172.759C159 179.192 152.34 184.407 144.125 184.407C142.26 184.407 140.477 184.137 138.832 183.646C136.736 188.09 131.279 191.259 124.875 191.259C118.964 191.259 113.857 188.559 111.458 184.648C110.096 189.981 104.086 194 96.875 194C88.9448 194 82.4641 189.141 82.0239 183.017C74.2047 182.672 68 177.598 68 171.389C68 164.956 74.6598 159.741 82.875 159.741C84.2062 159.741 85.4958 159.88 86.7236 160.137C89.3818 158.192 92.95 157 96.875 157Z" fill="white"/>
</g>
<g filter="url(#filter10_g_1208_10326)">
<path d="M245.5 169.714C240.889 168.769 236.437 169.606 233.23 171.676C231.256 170.206 228.822 169.094 226.092 168.535C219.427 167.169 213.093 169.524 210.379 173.952C208.997 169.414 204.412 165.491 198.387 164.256C190.339 162.607 182.768 166.379 181.476 172.682C180.185 178.984 185.662 185.429 193.71 187.079C195.537 187.453 197.339 187.545 199.048 187.395C200.209 192.17 204.92 196.37 211.193 197.655C216.984 198.842 222.529 197.222 225.664 193.872C225.928 199.37 231.009 204.513 238.073 205.961C245.842 207.553 253.166 204.093 254.827 198.182C262.556 199.414 268.754 206.083 270 200C271.291 193.698 266.713 176.858 258.665 175.209C257.361 174.942 256.07 174.819 254.815 174.825C252.602 172.386 249.345 170.502 245.5 169.714Z" fill="white"/>
</g>
<path d="M214.816 148.613C209.527 171.232 198.475 179.128 192.825 180.532C192.259 180.672 191.731 180.942 191.339 181.373L182.626 190.957C181.555 192.136 181.843 194 183.22 194.799L186.883 196.923C187.283 197.155 187.732 197.274 188.193 197.249C198.701 196.675 221.201 188.966 232.616 161.933C244.292 134.284 235.18 127.595 230.244 125.903C220.753 122.651 216.004 139.688 214.816 148.613Z" fill="#FFE5C0"/>
<mask id="mask0_1208_10326" style="mask-type:alpha" maskUnits="userSpaceOnUse" x="181" y="125" width="58" height="73">
<path d="M214.816 148.613C209.527 171.232 198.475 179.128 192.825 180.532C192.259 180.672 191.731 180.942 191.339 181.373L182.626 190.957C181.555 192.136 181.843 194 183.22 194.799L186.883 196.923C187.283 197.155 187.732 197.274 188.193 197.249C198.701 196.675 221.201 188.966 232.616 161.933C244.292 134.284 235.18 127.595 230.244 125.903C220.753 122.651 216.004 139.688 214.816 148.613Z" fill="#F99F51"/>
</mask>
<g mask="url(#mask0_1208_10326)">
<path d="M237.6 150.614C231.226 146.56 218.632 144.053 213.132 143.307C215.402 135.821 220.069 120.858 220.578 120.891C221.087 120.925 236.078 123.8 243.51 125.233L237.6 150.614Z" fill="#FFAA33"/>
<path d="M208.457 160.713L210.955 151.414C221.209 152.213 231.133 158.129 234.814 160.987L229.347 172.176C222.519 165.955 212.575 161.942 208.457 160.713Z" fill="#FFAA33"/>
<path d="M206.294 167.802L200.387 175.807C206.684 180.148 212.085 186.6 213.999 189.284L222.547 181.091C220.768 176.527 210.97 170.33 206.294 167.802Z" fill="#FFAA33"/>
</g>
<path d="M125.231 169.202C124.213 160.92 129.694 145.872 133.091 138.166C133.406 137.45 134.116 137 134.898 137H199.181C199.841 137 200.463 137.321 200.807 137.885C205.606 145.743 208.938 161.782 210.117 169.562C210.17 169.914 210.317 170.242 210.534 170.524C218.795 181.262 216.045 193.77 212.938 200.252C212.432 201.306 212.93 202.609 213.411 203.674C214.372 205.8 212.977 209.018 211.913 210.692C209.904 213.934 199.141 214.005 192.671 213.559C191.687 213.491 190.692 214.142 189.883 214.707C187.669 216.254 182.699 217.406 179.975 217.857C173.236 218.813 170.046 214.777 168.974 211.85C168.733 211.191 168.138 210.692 167.437 210.692C166.597 210.692 165.952 211.405 165.778 212.226C164.788 216.918 158.098 217.96 154.562 217.857C149.58 217.857 146.694 216.215 145.198 214.585C144.318 213.627 142.772 212.945 141.502 213.226C137.328 214.15 130.955 213.793 127.776 213.422C120.513 212.675 120.879 206.769 122.215 203.146C122.445 202.521 122.412 201.82 122.093 201.235C115.532 189.216 120.844 176.467 124.838 170.817C125.17 170.348 125.302 169.772 125.231 169.202Z" fill="#FFE5C0"/>
<path d="M127.418 210.838C126.724 208.593 126.66 204.8 129.051 202" stroke="#FFAA33" stroke-width="2.7" stroke-linecap="round"/>
<path d="M149.418 214.838C148.724 212.593 148.66 208.8 151.051 206" stroke="#FFAA33" stroke-width="2.7" stroke-linecap="round"/>
<path d="M208.08 210.838C208.775 208.593 208.838 204.8 206.448 202" stroke="#FFAA33" stroke-width="2.7" stroke-linecap="round"/>
<path d="M186.08 214.838C186.775 212.593 186.838 208.8 184.448 206" stroke="#FFAA33" stroke-width="2.7" stroke-linecap="round"/>
<path d="M133.418 211.838C132.724 209.593 132.66 205.8 135.051 203" stroke="#FFAA33" stroke-width="2.7" stroke-linecap="round"/>
<path d="M158.418 215.838C157.724 213.593 157.66 209.8 160.051 207" stroke="#FFAA33" stroke-width="2.7" stroke-linecap="round"/>
<path d="M200.863 211.981C201.881 209.861 202.501 206.119 200.548 203" stroke="#FFAA33" stroke-width="2.7" stroke-linecap="round"/>
<path d="M176.863 215.981C177.881 213.861 178.501 210.119 176.548 207" stroke="#FFAA33" stroke-width="2.7" stroke-linecap="round"/>
<path d="M140 188C140 188 141.5 191.5 142 199.5C142.5 207.5 142 212 142 212" stroke="#FFAA33" stroke-width="3" stroke-linecap="round"/>
<path d="M195.222 188C195.222 188 193.722 191.5 193.222 199.5C192.722 207.5 193.222 212 193.222 212" stroke="#FFAA33" stroke-width="3" stroke-linecap="round"/>
<path d="M167 189.5V210" stroke="#FFAA33" stroke-width="2.7" stroke-linecap="round"/>
<mask id="mask1_1208_10326" style="mask-type:alpha" maskUnits="userSpaceOnUse" x="128" y="76" width="80" height="80">
<rect x="128" y="76" width="80" height="80" fill="#D9D9D9"/>
</mask>
<g mask="url(#mask1_1208_10326)">
<ellipse cx="168" cy="120.775" rx="40" ry="32.7882" fill="#FFE5C0"/>
<mask id="mask2_1208_10326" style="mask-type:alpha" maskUnits="userSpaceOnUse" x="128" y="87" width="80" height="67">
<ellipse cx="168" cy="120.775" rx="40" ry="32.7882" fill="#FFF2E0"/>
</mask>
<g mask="url(#mask2_1208_10326)">
<path d="M166.626 116.826C147.553 128.617 131.296 121.273 126.093 111.359C125.712 110.633 125.685 109.782 125.937 109.002L135.343 79.8897C135.795 78.4928 137.095 77.546 138.563 77.546L200.31 77.546C201.768 77.546 203.062 78.4806 203.52 79.865L214.267 112.366C214.646 113.513 214.396 114.791 213.524 115.629C200.994 127.668 180.653 121.928 170.218 116.668C169.076 116.093 167.714 116.153 166.626 116.826Z" fill="#FFAA33"/>
</g>
<path d="M148.198 80.0713C143.935 80.8738 141.012 90.5302 139.768 96.7317C139.546 97.8409 140.285 98.9083 141.402 99.0615C152.352 100.564 159.046 95.5827 161.716 91.9944C162.199 91.346 162.153 90.4668 161.668 89.8199C158.565 85.6773 152.557 79.2508 148.198 80.0713Z" fill="#FFAA33"/>
<path d="M187.722 81.3322C191.985 82.1348 194.908 91.7912 196.152 97.9927C196.374 99.1019 195.635 100.169 194.518 100.323C183.568 101.825 176.874 96.8437 174.204 93.2554C173.721 92.607 173.767 91.7277 174.252 91.0809C177.355 86.9383 183.363 80.5118 187.722 81.3322Z" fill="#FFAA33"/>
<path d="M168.696 118.05C162.413 118.376 165.45 122.517 167.23 123.41C168.571 124.082 169.534 123.568 169.848 123.41C170.895 122.884 171.628 122.149 172.152 120.993C173.128 118.838 169.953 118.05 168.696 118.05Z" fill="#292A2B"/>
<path d="M169.85 122.5V128.5H167.15V122.5H169.85Z" fill="#292A2B"/>
<path d="M162 126.65H175C175.746 126.65 176.35 127.254 176.35 128C176.35 128.746 175.746 129.35 175 129.35H162C161.254 129.35 160.65 128.746 160.65 128C160.65 127.254 161.254 126.65 162 126.65Z" fill="#292A2B"/>
<path d="M156 112.65H161C161.746 112.65 162.35 113.254 162.35 114C162.35 114.699 161.819 115.274 161.138 115.343L161 115.35H156L155.862 115.343C155.181 115.274 154.65 114.699 154.65 114C154.65 113.301 155.181 112.726 155.862 112.657L156 112.65Z" fill="#292A2B"/>
<path d="M175 112.65H180C180.746 112.65 181.35 113.254 181.35 114C181.35 114.699 180.819 115.274 180.138 115.343L180 115.35H175L174.862 115.343C174.181 115.274 173.65 114.699 173.65 114C173.65 113.301 174.181 112.726 174.862 112.657L175 112.65Z" fill="#292A2B"/>
</g>
<g filter="url(#filter11_g_1208_10326)">
<path d="M179.5 74C183.712 74 187.205 75.8024 187.88 78.167C188.581 78.0578 189.306 78 190.048 78C196.096 78 201 81.8056 201 86.5C201 87.4942 200.777 88.4472 200.373 89.334C200.571 89.4344 200.769 89.5389 200.966 89.6504C205.049 91.9654 207.256 95.7891 205.895 98.1914C204.533 100.594 200.118 100.665 196.034 98.3496C194.323 97.3798 192.943 96.1443 192.016 94.8604C191.377 94.9503 190.72 95 190.048 95C188.675 95 187.362 94.8023 186.151 94.4443C184.608 97.6875 180.59 100 175.875 100C171.523 100 167.762 98.0299 165.996 95.1758C164.993 99.0674 160.569 102 155.26 102C152.187 102 149.411 101.016 147.422 99.4346C146.248 99.7943 144.915 100 143.5 100C138.806 100 135 97.7614 135 95C135 93.6768 135.874 92.4744 137.301 91.5801C135.265 90.0369 134 87.8835 134 85.5C134 80.8056 138.904 77 144.952 77C145.932 77 146.881 77.1017 147.785 77.2891C149.742 75.8698 152.37 75 155.26 75C158.725 75 161.813 76.2504 163.819 78.2002C165.461 77.4382 167.381 77 169.433 77C170.172 77 170.894 77.0576 171.592 77.166C172.836 75.3124 175.907 74 179.5 74Z" fill="white"/>
</g>
</g>
<defs>
<filter id="filter0_g_1208_10326" x="87" y="-5" width="168" height="228" filterUnits="userSpaceOnUse" color-interpolation-filters="sRGB">
<feFlood flood-opacity="0" result="BackgroundImageFix"/>
<feBlend mode="normal" in="SourceGraphic" in2="BackgroundImageFix" result="shape"/>
<feTurbulence type="fractalNoise" baseFrequency="0.25 0.25" numOctaves="3" seed="8986" />
<feDisplacementMap in="shape" scale="4" xChannelSelector="R" yChannelSelector="G" result="displacedImage" width="100%" height="100%" />
<feMerge result="effect1_texture_1208_10326">
<feMergeNode in="displacedImage"/>
</feMerge>
</filter>
<filter id="filter1_g_1208_10326" x="43.5" y="172.5" width="239.188" height="110.5" filterUnits="userSpaceOnUse" color-interpolation-filters="sRGB">
<feFlood flood-opacity="0" result="BackgroundImageFix"/>
<feBlend mode="normal" in="SourceGraphic" in2="BackgroundImageFix" result="shape"/>
<feTurbulence type="fractalNoise" baseFrequency="0.25 0.25" numOctaves="3" seed="8986" />
<feDisplacementMap in="shape" scale="2" xChannelSelector="R" yChannelSelector="G" result="displacedImage" width="100%" height="100%" />
<feMerge result="effect1_texture_1208_10326">
<feMergeNode in="displacedImage"/>
</feMerge>
</filter>
<filter id="filter2_dg_1208_10326" x="99" y="234.236" width="120" height="53.7635" filterUnits="userSpaceOnUse" color-interpolation-filters="sRGB">
<feFlood flood-opacity="0" result="BackgroundImageFix"/>
<feColorMatrix in="SourceAlpha" type="matrix" values="0 0 0 0 0 0 0 0 0 0 0 0 0 0 0 0 0 0 127 0" result="hardAlpha"/>
<feOffset dy="4"/>
<feGaussianBlur stdDeviation="2"/>
<feComposite in2="hardAlpha" operator="out"/>
<feColorMatrix type="matrix" values="0 0 0 0 0 0 0 0 0 0 0 0 0 0 0 0 0 0 0.25 0"/>
<feBlend mode="normal" in2="BackgroundImageFix" result="effect1_dropShadow_1208_10326"/>
<feBlend mode="normal" in="SourceGraphic" in2="effect1_dropShadow_1208_10326" result="shape"/>
<feTurbulence type="fractalNoise" baseFrequency="0.25 0.25" numOctaves="3" seed="8986" />
<feDisplacementMap in="shape" scale="2" xChannelSelector="R" yChannelSelector="G" result="displacedImage" width="100%" height="100%" />
<feMerge result="effect2_texture_1208_10326">
<feMergeNode in="displacedImage"/>
</feMerge>
</filter>
<filter id="filter3_g_1208_10326" x="-24" y="165" width="160.514" height="120.012" filterUnits="userSpaceOnUse" color-interpolation-filters="sRGB">
<feFlood flood-opacity="0" result="BackgroundImageFix"/>
<feBlend mode="normal" in="SourceGraphic" in2="BackgroundImageFix" result="shape"/>
<feTurbulence type="fractalNoise" baseFrequency="0.25 0.25" numOctaves="3" seed="8986" />
<feDisplacementMap in="shape" scale="2" xChannelSelector="R" yChannelSelector="G" result="displacedImage" width="100%" height="100%" />
<feMerge result="effect1_texture_1208_10326">
<feMergeNode in="displacedImage"/>
</feMerge>
</filter>
<filter id="filter4_g_1208_10326" x="189" y="165" width="160.514" height="120.012" filterUnits="userSpaceOnUse" color-interpolation-filters="sRGB">
<feFlood flood-opacity="0" result="BackgroundImageFix"/>
<feBlend mode="normal" in="SourceGraphic" in2="BackgroundImageFix" result="shape"/>
<feTurbulence type="fractalNoise" baseFrequency="0.25 0.25" numOctaves="3" seed="8986" />
<feDisplacementMap in="shape" scale="2" xChannelSelector="R" yChannelSelector="G" result="displacedImage" width="100%" height="100%" />
<feMerge result="effect1_texture_1208_10326">
<feMergeNode in="displacedImage"/>
</feMerge>
</filter>
<filter id="filter5_g_1208_10326" x="228.791" y="251.675" width="52.8794" height="51.9955" filterUnits="userSpaceOnUse" color-interpolation-filters="sRGB">
<feFlood flood-opacity="0" result="BackgroundImageFix"/>
<feBlend mode="normal" in="SourceGraphic" in2="BackgroundImageFix" result="shape"/>
<feTurbulence type="fractalNoise" baseFrequency="0.25 0.25" numOctaves="3" seed="8986" />
<feDisplacementMap in="shape" scale="2" xChannelSelector="R" yChannelSelector="G" result="displacedImage" width="100%" height="100%" />
<feMerge result="effect1_texture_1208_10326">
<feMergeNode in="displacedImage"/>
</feMerge>
</filter>
<filter id="filter6_g_1208_10326" x="-10.731" y="198.675" width="52.8794" height="51.9955" filterUnits="userSpaceOnUse" color-interpolation-filters="sRGB">
<feFlood flood-opacity="0" result="BackgroundImageFix"/>
<feBlend mode="normal" in="SourceGraphic" in2="BackgroundImageFix" result="shape"/>
<feTurbulence type="fractalNoise" baseFrequency="0.25 0.25" numOctaves="3" seed="8986" />
<feDisplacementMap in="shape" scale="2" xChannelSelector="R" yChannelSelector="G" result="displacedImage" width="100%" height="100%" />
<feMerge result="effect1_texture_1208_10326">
<feMergeNode in="displacedImage"/>
</feMerge>
</filter>
<filter id="filter7_g_1208_10326" x="29.1816" y="244.224" width="76.6289" height="73.7939" filterUnits="userSpaceOnUse" color-interpolation-filters="sRGB">
<feFlood flood-opacity="0" result="BackgroundImageFix"/>
<feBlend mode="normal" in="SourceGraphic" in2="BackgroundImageFix" result="shape"/>
<feTurbulence type="fractalNoise" baseFrequency="0.25 0.25" numOctaves="3" seed="8986" />
<feDisplacementMap in="shape" scale="2" xChannelSelector="R" yChannelSelector="G" result="displacedImage" width="100%" height="100%" />
<feMerge result="effect1_texture_1208_10326">
<feMergeNode in="displacedImage"/>
</feMerge>
</filter>
<filter id="filter8_g_1208_10326" x="291.139" y="219.58" width="65.4951" height="76.7168" filterUnits="userSpaceOnUse" color-interpolation-filters="sRGB">
<feFlood flood-opacity="0" result="BackgroundImageFix"/>
<feBlend mode="normal" in="SourceGraphic" in2="BackgroundImageFix" result="shape"/>
<feTurbulence type="fractalNoise" baseFrequency="0.25 0.25" numOctaves="3" seed="8986" />
<feDisplacementMap in="shape" scale="2" xChannelSelector="R" yChannelSelector="G" result="displacedImage" width="100%" height="100%" />
<feMerge result="effect1_texture_1208_10326">
<feMergeNode in="displacedImage"/>
</feMerge>
</filter>
<filter id="filter9_g_1208_10326" x="67" y="156" width="93" height="39" filterUnits="userSpaceOnUse" color-interpolation-filters="sRGB">
<feFlood flood-opacity="0" result="BackgroundImageFix"/>
<feBlend mode="normal" in="SourceGraphic" in2="BackgroundImageFix" result="shape"/>
<feTurbulence type="fractalNoise" baseFrequency="0.5 0.5" numOctaves="3" seed="8986" />
<feDisplacementMap in="shape" scale="2" xChannelSelector="R" yChannelSelector="G" result="displacedImage" width="100%" height="100%" />
<feMerge result="effect1_texture_1208_10326">
<feMergeNode in="displacedImage"/>
</feMerge>
</filter>
<filter id="filter10_g_1208_10326" x="180.288" y="162.869" width="90.9282" height="44.4784" filterUnits="userSpaceOnUse" color-interpolation-filters="sRGB">
<feFlood flood-opacity="0" result="BackgroundImageFix"/>
<feBlend mode="normal" in="SourceGraphic" in2="BackgroundImageFix" result="shape"/>
<feTurbulence type="fractalNoise" baseFrequency="0.5 0.5" numOctaves="3" seed="8986" />
<feDisplacementMap in="shape" scale="2" xChannelSelector="R" yChannelSelector="G" result="displacedImage" width="100%" height="100%" />
<feMerge result="effect1_texture_1208_10326">
<feMergeNode in="displacedImage"/>
</feMerge>
</filter>
<filter id="filter11_g_1208_10326" x="131" y="71" width="78.2969" height="34" filterUnits="userSpaceOnUse" color-interpolation-filters="sRGB">
<feFlood flood-opacity="0" result="BackgroundImageFix"/>
<feBlend mode="normal" in="SourceGraphic" in2="BackgroundImageFix" result="shape"/>
<feTurbulence type="fractalNoise" baseFrequency="0.25 0.25" numOctaves="3" seed="8986" />
<feDisplacementMap in="shape" scale="6" xChannelSelector="R" yChannelSelector="G" result="displacedImage" width="100%" height="100%" />
<feMerge result="effect1_texture_1208_10326">
<feMergeNode in="displacedImage"/>
</feMerge>
</filter>
<clipPath id="clip0_1208_10326">
<rect width="335" height="280" fill="white"/>
</clipPath>
</defs>
</svg>
