<svg width="100" height="100" viewBox="0 0 100 100" fill="none" xmlns="http://www.w3.org/2000/svg">
<path d="M74.2346 49.539C72.4005 64.7995 65.8215 71.0168 62.0652 72.5761C61.5269 72.7996 61.028 73.123 60.6857 73.5947L56.2855 79.6587C55.3501 80.9479 55.8413 82.7697 57.2975 83.4119L58.8041 84.0764C59.2269 84.2629 59.6929 84.3327 60.148 84.251C67.2674 82.9726 81.6022 76.047 87.2193 57.1874C93.0265 37.6895 86.3893 33.8612 82.9377 33.0891C76.3008 31.6045 74.3702 43.4371 74.2346 49.539Z" fill="#FFE5C0"/>
<mask id="mask0_4440_40443" style="mask-type:alpha" maskUnits="userSpaceOnUse" x="55" y="32" width="35" height="53">
<path d="M74.2346 49.539C72.4005 64.7995 65.8215 71.0168 62.0652 72.5761C61.5269 72.7996 61.028 73.123 60.6857 73.5947L56.2855 79.6587C55.3501 80.9479 55.8413 82.7697 57.2975 83.4119L58.8041 84.0764C59.2269 84.2629 59.6929 84.3327 60.148 84.251C67.2674 82.9726 81.6022 76.047 87.2193 57.1874C93.0265 37.6895 86.3893 33.8612 82.9377 33.0891C76.3008 31.6045 74.3702 43.4371 74.2346 49.539Z" fill="#F99F51"/>
</mask>
<g mask="url(#mask0_4440_40443)">
<path d="M89.7338 49.1904C85.1376 46.9331 76.4658 46.1825 72.7045 46.0894C73.6762 40.8766 75.706 30.4473 76.0515 30.4322C76.3971 30.4171 86.7114 31.2372 91.8254 31.6492L89.7338 49.1904Z" fill="#FFAA33"/>
<path d="M70.851 58.1651L71.8412 51.7137C78.8093 51.4882 85.9366 54.7348 88.6293 56.3862L85.7794 64.332C80.7155 60.6491 73.7172 58.6862 70.851 58.1651Z" fill="#FFAA33"/>
<path d="M69.9212 63.1022L66.5374 68.9352C71.1031 71.391 75.2228 75.3364 76.712 77.0021L81.8616 70.8455C80.3225 67.9026 73.26 64.4571 69.9212 63.1022Z" fill="#FFAA33"/>
</g>
<path d="M83.4238 81.7615C83.4238 102.579 80.8814 99.8863 49.8661 99.8863C17.7458 99.8863 15.6272 102.579 15.6272 81.7615C15.6272 60.9439 30.804 44.0679 49.5255 44.0679C68.247 44.0679 83.4238 60.9439 83.4238 81.7615Z" fill="#FFE5C0"/>
<mask id="mask1_4440_40443" style="mask-type:alpha" maskUnits="userSpaceOnUse" x="13" y="0" width="73" height="73">
<rect x="13.0847" width="72.8814" height="72.8814" fill="#D9D9D9"/>
</mask>
<g mask="url(#mask1_4440_40443)">
<mask id="mask2_4440_40443" style="mask-type:alpha" maskUnits="userSpaceOnUse" x="19" y="6" width="61" height="61">
<rect x="19.1582" y="6.07324" width="60.7345" height="60.7345" fill="#D9D9D9"/>
</mask>
<g mask="url(#mask2_4440_40443)">
<ellipse cx="49.5254" cy="40.0655" rx="30.3672" ry="24.8922" fill="#FFE5C0"/>
<mask id="mask3_4440_40443" style="mask-type:alpha" maskUnits="userSpaceOnUse" x="19" y="15" width="61" height="50">
<ellipse cx="49.5254" cy="40.0655" rx="30.3672" ry="24.8922" fill="#FFF2E0"/>
</mask>
<g mask="url(#mask3_4440_40443)">
<path d="M49.3746 36.4995C34.1388 46.4913 21.1018 40.3051 17.4239 32.3359C17.338 32.1498 17.3297 31.9395 17.3928 31.7444L25.1186 7.83339C25.2315 7.48415 25.5567 7.24745 25.9236 7.24745L75.2985 7.24745C75.6631 7.24745 75.9865 7.48111 76.1009 7.8272L84.9626 34.6263C85.0575 34.9132 84.9898 35.2335 84.783 35.454C74.9643 45.9221 58.0244 40.6555 50.2656 36.4556C49.9845 36.3034 49.642 36.3242 49.3746 36.4995Z" fill="#FFAA33"/>
</g>
<path d="M34.4919 9.16414C31.2552 9.77346 29.036 17.1044 28.0918 21.8124C27.9229 22.6545 28.484 23.4648 29.332 23.5812C37.6453 24.7218 42.727 20.9402 44.7544 18.216C45.1207 17.7237 45.0858 17.0562 44.7179 16.5651C42.3622 13.4202 37.8007 8.54128 34.4919 9.16414Z" fill="#FFAA33"/>
<path d="M64.4976 10.1212C67.7343 10.7305 69.9535 18.0614 70.8977 22.7695C71.0666 23.6116 70.5055 24.4219 69.6575 24.5382C61.3442 25.6788 56.2625 21.8972 54.2351 19.173C53.8688 18.6807 53.9037 18.0132 54.2716 17.5221C56.6273 14.3772 61.1888 9.49831 64.4976 10.1212Z" fill="#FFAA33"/>
<path d="M50.9404 41.762C50.9756 42.3377 51.096 43.0082 51.492 43.574C51.8617 44.102 52.5653 44.671 54.0424 44.8907C54.6138 44.9759 55.0075 45.5084 54.9232 46.0798C54.8381 46.6518 54.3059 47.0485 53.734 46.9636C51.7917 46.6748 50.5425 45.8556 49.7928 44.7987C49.4463 45.2274 49.0495 45.5889 48.6303 45.8812C47.5174 46.6568 46.2075 47.0081 45.2466 46.9725C44.6686 46.951 44.2168 46.465 44.2383 45.8871C44.2603 45.3098 44.7463 44.8605 45.3237 44.8818C45.7934 44.8992 46.6614 44.701 47.4322 44.1641C48.1682 43.651 48.7565 42.8726 48.8527 41.7383L50.9404 41.762Z" fill="#292A2B"/>
<path d="M50.0549 37.9976C45.2852 38.2448 47.5906 41.3883 48.942 42.0665C49.9596 42.5771 50.6909 42.1861 50.9294 42.0665C51.7243 41.6676 52.2808 41.1091 52.6783 40.2315C53.4193 38.5952 51.0089 37.9976 50.0549 37.9976Z" fill="#292A2B"/>
<ellipse cx="41.9347" cy="35.1087" rx="2.38486" ry="2.95195" fill="#292A2B"/>
<ellipse cx="58.2309" cy="35.1082" rx="2.30537" ry="2.95195" fill="#292A2B"/>
</g>
</g>
<path d="M65.2693 58.2655C67.8117 58.2655 73.5744 57.3333 76.2862 53.6045" stroke="#FFAA33" stroke-width="2.5" stroke-linecap="round"/>
<path d="M14.1121 59.0374C14.1121 58.2584 14.7435 57.627 15.5225 57.627H20.6943C21.4732 57.627 22.1047 58.2584 22.1047 59.0374V94.5345H14.1121V59.0374Z" fill="#A5AAAE"/>
<path d="M78.6411 59.0374C78.6411 58.2584 79.2726 57.627 80.0516 57.627H85.2233C86.0023 57.627 86.6338 58.2584 86.6338 59.0374V94.5345H78.6411V59.0374Z" fill="#A5AAAE"/>
<path d="M8 66.5603C8 65.262 9.05248 64.2095 10.3508 64.2095H90.395C91.6933 64.2095 92.7458 65.262 92.7458 66.5603V80.0773C92.7458 81.3757 91.6933 82.4281 90.395 82.4281H10.3508C9.05248 82.4281 8 81.3757 8 80.0773V66.5603Z" fill="white"/>
<path d="M9.64575 96.1802C9.64575 95.2714 10.3825 94.5347 11.2913 94.5347H24.9258C25.8347 94.5347 26.5714 95.2714 26.5714 96.1802V98.2959C26.5714 99.2048 25.8347 99.9415 24.9258 99.9415H11.2913C10.3825 99.9415 9.64575 99.2048 9.64575 98.2959V96.1802Z" fill="#5D5F62"/>
<path d="M74.1748 96.1802C74.1748 95.2714 74.9115 94.5347 75.8204 94.5347H89.4549C90.3637 94.5347 91.1004 95.2714 91.1004 96.1802V98.2959C91.1004 99.2048 90.3637 99.9415 89.4549 99.9415H75.8204C74.9115 99.9415 74.1748 99.2048 74.1748 98.2959V96.1802Z" fill="#5D5F62"/>
<mask id="mask4_4440_40443" style="mask-type:alpha" maskUnits="userSpaceOnUse" x="8" y="64" width="85" height="19">
<path d="M8 66.5603C8 65.262 9.05248 64.2095 10.3508 64.2095H90.395C91.6933 64.2095 92.7458 65.262 92.7458 66.5603V80.0773C92.7458 81.3757 91.6933 82.4281 90.395 82.4281H10.3508C9.05248 82.4281 8 81.3757 8 80.0773V66.5603Z" fill="#D9D9D9"/>
</mask>
<g mask="url(#mask4_4440_40443)">
<rect width="54.3033" height="9.87332" transform="matrix(0.707105 -0.707109 0.707105 0.707109 -10.2185 85.917)" fill="#FFAA33"/>
<rect width="54.3033" height="9.87332" transform="matrix(0.707105 -0.707109 0.707105 0.707109 15.0522 85.917)" fill="#FFAA33"/>
<rect width="54.3033" height="9.87332" transform="matrix(0.707105 -0.707109 0.707105 0.707109 40.3235 85.917)" fill="#FFAA33"/>
<rect width="54.3033" height="9.87332" transform="matrix(0.707105 -0.707109 0.707105 0.707109 65.594 85.917)" fill="#FFAA33"/>
</g>
<path d="M38.3982 56.6684C39.6732 55.3935 41.4052 54.8477 43.0891 55.0246C43.7117 55.09 43.8938 55.8334 43.451 56.2761L41.6414 58.0858C40.6328 59.0944 40.6498 60.747 41.6794 61.7766C42.709 62.8063 44.3616 62.8232 45.3703 61.8147L47.1799 60.005C47.6226 59.5623 48.366 59.7443 48.4315 60.367C48.6084 62.0509 48.0625 63.7828 46.7876 65.0579C45.4174 66.428 43.5192 66.9569 41.7202 66.6511C41.0704 66.5406 40.3789 66.6726 39.9128 67.1387L31.5923 75.4592C30.765 76.2865 29.4235 76.2865 28.5961 75.4592C27.7687 74.6318 27.7687 73.2903 28.5961 72.463L36.5577 64.5014C37.0904 63.9687 37.1825 63.1534 36.9681 62.4313C36.3766 60.4395 36.8496 58.217 38.3982 56.6684Z" fill="#CED4DA"/>
<path d="M21.6182 75.0721C15.1415 69.0727 22.2696 55.8576 26.6432 50L30.6074 63.5434C31.9474 65.1104 34.1808 67.2557 35.13 68.1325C41.428 72.9678 39.3175 76.8256 37.475 78.1501C31.1769 81.9557 24.2796 77.6837 21.6182 75.0721Z" fill="#FFE5C0"/>
</svg>
