<svg width="100" height="100" viewBox="0 0 100 100" fill="none" xmlns="http://www.w3.org/2000/svg">
<mask id="mask0_1403_22588" style="mask-type:alpha" maskUnits="userSpaceOnUse" x="0" y="0" width="100" height="100">
<rect width="100" height="100" fill="#D9D9D9"/>
</mask>
<g mask="url(#mask0_1403_22588)">
<path d="M81.8466 52.6054C77.7604 70.0805 69.2126 76.1584 64.8638 77.2236C64.4437 77.3265 64.0519 77.5266 63.7609 77.8467L56.9653 85.322C56.17 86.1968 56.3839 87.5809 57.4058 88.1734L60.3254 89.8664C60.6221 90.0385 60.9546 90.1272 61.2973 90.1089C69.3905 89.6751 86.762 83.7382 95.5718 62.8758C104.575 41.5566 97.5487 36.3986 93.7427 35.0942C86.4242 32.5861 82.7626 45.7233 81.8466 52.6054Z" fill="#FFE5C0"/>
<mask id="mask1_1403_22588" style="mask-type:alpha" maskUnits="userSpaceOnUse" x="56" y="34" width="44" height="57">
<path d="M81.8466 52.6054C77.7604 70.0805 69.2126 76.1584 64.8638 77.2236C64.4437 77.3265 64.0519 77.5266 63.7609 77.8467L56.9653 85.322C56.17 86.1968 56.3839 87.5809 57.4058 88.1734L60.3254 89.8664C60.6221 90.0385 60.9546 90.1272 61.2973 90.1089C69.3905 89.6751 86.762 83.7382 95.5718 62.8758C104.575 41.5566 97.5487 36.3986 93.7427 35.0942C86.4242 32.5861 82.7626 45.7233 81.8466 52.6054Z" fill="#F99F51"/>
</mask>
<g mask="url(#mask1_1403_22588)">
<path d="M99.4139 54.1484C94.4994 51.0218 84.7885 49.0893 80.5474 48.5139C82.2976 42.7416 85.896 31.2034 86.2886 31.2295C86.6812 31.2557 98.2406 33.472 103.971 34.577L99.4139 54.1484Z" fill="#FFAA33"/>
<path d="M76.9426 61.9356L78.8685 54.7651C86.775 55.381 94.4278 59.9425 97.2658 62.1463L93.0505 70.7738C87.7853 65.977 80.1181 62.883 76.9426 61.9356Z" fill="#FFAA33"/>
<path d="M75.2749 67.4015L70.7201 73.5736C75.5754 76.9209 79.7402 81.8966 81.2157 83.9661L87.8076 77.6488C86.4352 74.129 78.8807 69.3507 75.2749 67.4015Z" fill="#FFAA33"/>
</g>
<path d="M75.2116 54.2703C35.1778 31.2347 15.3356 44.2237 10.0004 54.2703C11.8296 68.6313 9.54254 103.065 8.00037 108C28.7808 115.946 79.5973 124.032 96.2994 100C97.3793 74.7846 82.5717 58.5625 75.2116 54.2703Z" fill="#FFE5C0"/>
<ellipse cx="40.6881" cy="37.285" rx="36.8327" ry="29.9818" fill="#FFE5C0"/>
<mask id="mask2_1403_22588" style="mask-type:alpha" maskUnits="userSpaceOnUse" x="3" y="7" width="75" height="61">
<ellipse cx="40.6881" cy="37.285" rx="36.8327" ry="29.9818" fill="#FFD58D"/>
</mask>
<g mask="url(#mask2_1403_22588)">
<path d="M36.5151 37.2361C20.1642 49.6237 3.87041 38.8011 -1.92715 29.875C-2.33611 29.2454 -2.43905 28.474 -2.26735 27.7434L3.19176 4.51278C3.48888 3.24841 4.57369 2.32434 5.86948 2.23183L63.5385 -1.88555C64.7725 -1.97366 65.9322 -1.28743 66.449 -0.163288L79.6328 28.515C80.0784 29.4843 79.981 30.6288 79.297 31.4469C69.0108 43.7501 49.6905 40.517 39.6247 36.7655C38.5788 36.3757 37.4045 36.5623 36.5151 37.2361Z" fill="#FFAA33"/>
</g>
<path d="M22.4537 0.0653771C18.5278 0.799279 15.8361 9.6291 14.6909 15.2998C14.4861 16.3141 15.1666 17.2901 16.1952 17.4302C26.2785 18.804 32.4421 14.2492 34.9011 10.968C35.3455 10.3751 35.303 9.57112 34.8569 8.9796C31.9996 5.19161 26.4669 -0.684845 22.4537 0.0653771Z" fill="#FFAA33"/>
<path d="M58.8475 1.21845C62.7734 1.95235 65.465 10.7822 66.6103 16.4529C66.8151 17.4672 66.1346 18.4432 65.106 18.5833C55.0227 19.9571 48.8591 15.4023 46.4001 12.1211C45.9557 11.5282 45.9981 10.7242 46.4443 10.1327C49.3015 6.34469 54.8343 0.468231 58.8475 1.21845Z" fill="#FFAA33"/>
<path d="M33.5264 48.1233C35.2467 47.8851 38.6065 46.5055 38.2829 42.8936C38.6504 44.4226 40.4376 47.4511 44.6465 47.3335" stroke="#292A2B" stroke-width="2.59781" stroke-linecap="round"/>
<path d="M37.6714 38.3175C33.6999 39.1154 35.437 42.8586 37.193 43.3784C38.5153 43.7697 39.3071 43.1519 39.5669 42.9598C40.433 42.3192 40.9809 41.5395 41.2721 40.4148C41.8151 38.3178 38.8108 38.1166 37.6714 38.3175Z" fill="#292A2B"/>
<ellipse cx="27.7496" cy="35.7809" rx="2.89262" ry="3.55553" transform="rotate(-3 27.7496 35.7809)" fill="#292A2B"/>
<ellipse cx="47.4765" cy="34.5403" rx="2.7962" ry="3.55553" transform="rotate(-3 47.4765 34.5403)" fill="#292A2B"/>
<path d="M23.9697 83.264L12.8123 97.3795C11.3904 99.1785 12.6114 101.831 14.9026 101.92L52.956 103.407C54.0016 103.448 54.9831 102.904 55.5014 101.995L63.4031 88.1367C64.4383 86.3211 63.1949 84.0519 61.1076 83.9472L26.3099 82.2023C25.404 82.1568 24.5321 82.5524 23.9697 83.264Z" fill="#FFF7EB"/>
<path d="M3.45176 87.0977C-5.14224 78.9876 4.3161 61.1233 10.1195 53.2048L15.3796 71.5131C17.1577 73.6314 20.1211 76.5314 21.3806 77.7167C29.7375 84.2531 26.9371 89.4682 24.4922 91.2587C16.1353 96.4031 6.98319 90.6282 3.45176 87.0977Z" fill="#FFE5C0"/>
<path d="M79.0538 87.0977C87.6478 78.9876 78.1894 61.1233 72.386 53.2048L67.1259 71.5131C65.3479 73.6314 62.3844 76.5314 61.1249 77.7167C52.768 84.2531 55.5685 89.4682 58.0133 91.2587C66.3702 96.4031 75.5223 90.6282 79.0538 87.0977Z" fill="#FFE5C0"/>
<path d="M56.567 73.2006C56.7874 72.3779 57.6331 71.8896 58.4557 72.1101L59.9454 72.5092C60.7681 72.7297 61.2563 73.5753 61.0358 74.398L56.4457 91.5286C56.115 92.7626 54.8466 93.495 53.6126 93.1643Lnan nanL53.6126 93.1643C52.3785 92.8336 51.6462 91.5652 51.9768 90.3312L56.567 73.2006Z" fill="#FFAA33"/>
<path d="M56.567 73.2006C56.7874 72.3779 57.6331 71.8896 58.4557 72.1101L59.9454 72.5092C60.7681 72.7297 61.2563 73.5753 61.0358 74.398L60.6367 75.8876L56.1678 74.6902L56.567 73.2006Z" fill="#593B12"/>
<path d="M51.8763 90.7036L56.3451 91.901L55.6734 92.9185L53.8784 94.7737C53.4577 95.2085 52.7231 95.0116 52.5762 94.4248L51.9493 91.9206L51.8763 90.7036Z" fill="#292A2B"/>
<path d="M56.3451 91.901L51.8763 90.7036L51.9493 91.9206L55.6734 92.9185L56.3451 91.901Z" fill="#FFE5C0"/>
<path d="M16.6184 69.0915C16.7728 68.5262 17.3335 68.1583 17.9241 68.2566C18.5144 68.3552 18.9251 68.8848 18.8879 69.4695L18.8743 69.5876C18.8435 69.7727 18.874 70.1427 19.0667 70.7097C19.2506 71.251 19.5465 71.8668 19.9153 72.491C20.6202 73.6839 21.5003 74.7583 22.1643 75.3162L22.2952 75.4207L22.3137 75.4353L22.3313 75.4509C24.8233 77.5388 27.4969 80.898 28.5286 84.3425C29.0492 86.081 29.1757 87.9268 28.5501 89.6531C27.9156 91.4031 26.5632 92.8784 24.4202 93.9499L24.4075 93.9558L24.3948 93.9626C23.9341 94.1794 23.3017 94.4416 22.5403 94.6941C22.4527 94.7431 22.3581 94.7828 22.2561 94.8083C22.2025 94.8217 22.1484 94.8301 22.095 94.8357C20.9865 95.173 19.65 95.4697 18.1917 95.573C15.5394 95.7608 12.4271 95.3141 9.594 93.2664L9.32056 93.0632L9.22974 92.9861C8.80289 92.5847 8.74111 91.9177 9.10474 91.4421C9.46849 90.9666 10.129 90.8519 10.6282 91.1589L10.7258 91.2263L10.9456 91.3894C13.2272 93.0394 15.7569 93.4262 18.0286 93.2654C18.9556 93.1997 19.8297 93.0423 20.6106 92.8474C20.5718 92.6376 20.5387 92.4414 20.5081 92.2595C20.4248 91.7659 20.3696 91.4287 20.2903 91.1374C20.2169 90.868 20.1361 90.6938 20.0325 90.5515C19.9545 90.4445 19.8402 90.3228 19.6536 90.1863L19.4407 90.0447L19.343 89.9783C18.8776 89.6221 18.7481 88.9638 19.0618 88.4539C19.3756 87.944 20.0214 87.7633 20.5491 88.0183L20.6536 88.0749L20.842 88.196C21.2715 88.4837 21.6227 88.8071 21.9006 89.1882C22.2185 89.6241 22.4002 90.0802 22.5227 90.53C22.6393 90.9582 22.7144 91.4306 22.7893 91.8748C22.8029 91.9554 22.8169 92.037 22.8313 92.1199C23.0439 92.0325 23.2345 91.9503 23.3977 91.8738C23.8861 91.6287 24.3055 91.3653 24.6663 91.0906L24.595 90.7888C24.4935 90.3268 24.4236 89.9171 24.3635 89.5613C24.2803 89.0677 24.225 88.7304 24.1458 88.4392C24.0723 88.1693 23.9908 87.9947 23.887 87.8523C23.809 87.7454 23.6953 87.6243 23.509 87.488L23.2961 87.3464L23.1985 87.279C22.7331 86.923 22.6037 86.2655 22.9172 85.7556C23.2311 85.2457 23.8769 85.0641 24.4045 85.3191L24.5081 85.3767L24.6975 85.4978C25.1269 85.7854 25.4782 86.108 25.7561 86.489C26.0739 86.9249 26.2547 87.382 26.3772 87.8318C26.4287 88.0209 26.4721 88.2186 26.511 88.4187C26.7641 87.4014 26.6843 86.2473 26.3127 85.0066C25.4497 82.1251 23.1153 79.1255 20.8547 77.2292C19.8672 76.4588 18.7507 75.0667 17.9241 73.6677C17.4994 72.9491 17.1252 72.1864 16.8762 71.4539C16.6362 70.7475 16.4697 69.947 16.593 69.2068L16.6184 69.0915Z" fill="#FFAA33"/>
<path d="M66.7144 69.0918C66.5601 68.5264 65.9993 68.1586 65.4088 68.2568C64.8184 68.3554 64.4077 68.885 64.4449 69.4697L64.4586 69.5879C64.4893 69.773 64.4588 70.143 64.2662 70.7099C64.0822 71.2512 63.7864 71.867 63.4176 72.4912C62.7126 73.6842 61.8326 74.7585 61.1685 75.3164L61.0377 75.4209L61.0191 75.4355L61.0006 75.4512C58.5086 77.5391 55.8359 80.8984 54.8043 84.3428C54.2836 86.0812 54.1571 87.9271 54.7828 89.6533C55.4172 91.4034 56.7697 92.8786 58.9127 93.9502L58.9254 93.956L58.9381 93.9629C59.3994 94.1799 60.0328 94.4425 60.7955 94.6953C60.8825 94.7438 60.9765 94.7832 61.0777 94.8086C61.1311 94.8219 61.1846 94.8303 61.2379 94.8359C62.3463 95.1732 63.6829 95.47 65.1412 95.5732C67.7934 95.761 70.9058 95.3143 73.7388 93.2666L74.0123 93.0635L74.1031 92.9863C74.5299 92.5849 74.5917 91.9179 74.2281 91.4424C73.8644 90.9668 73.2039 90.8521 72.7047 91.1592L72.607 91.2256L72.3873 91.3896C70.1056 93.0396 67.5759 93.4264 65.3043 93.2656C64.3776 93.2 63.5038 93.0425 62.7232 92.8476C62.7621 92.6378 62.7941 92.4416 62.8248 92.2598C62.908 91.7661 62.9633 91.4289 63.0426 91.1377C63.116 90.868 63.1976 90.6941 63.3013 90.5517C63.3793 90.4448 63.4936 90.323 63.6802 90.1865L63.8922 90.0449L63.9898 89.9785C64.4553 89.6223 64.5849 88.964 64.2711 88.4541C63.9572 87.9442 63.3115 87.7634 62.7838 88.0185L62.6802 88.0752L62.4908 88.1963C62.0613 88.484 61.7101 88.8073 61.4322 89.1885C61.1144 89.6243 60.9336 90.0805 60.8111 90.5303C60.6945 90.9585 60.6194 91.4308 60.5445 91.875C60.5309 91.9556 60.5159 92.0372 60.5015 92.1201C60.2889 92.0327 60.0983 91.9506 59.9351 91.874C59.4467 91.6289 59.0273 91.3656 58.6666 91.0908L58.7379 90.789C58.8394 90.3271 58.9093 89.9174 58.9693 89.5615C59.0526 89.0679 59.1078 88.7306 59.1871 88.4394C59.2606 88.1696 59.342 87.9949 59.4459 87.8525C59.5238 87.7457 59.6375 87.6245 59.8238 87.4883L60.0367 87.3467L60.1344 87.2793C60.5997 86.9232 60.7291 86.2657 60.4156 85.7558C60.1018 85.246 59.456 85.0643 58.9283 85.3193L58.8238 85.3769L58.6353 85.498C58.206 85.7857 57.8546 86.1082 57.5767 86.4892C57.259 86.925 57.0781 87.3814 56.9556 87.831C56.9041 88.0203 56.8607 88.2187 56.8219 88.4189C56.5687 87.4016 56.6486 86.2475 57.0201 85.0068C57.8831 82.1254 60.2175 79.1258 62.4781 77.2295C63.4656 76.459 64.5821 75.0669 65.4088 73.668C65.8334 72.9493 66.2077 72.1866 66.4566 71.4541C66.6966 70.7478 66.8632 69.9473 66.7398 69.207L66.7144 69.0918Z" fill="#FFAA33"/>
</g>
</svg>
