<svg width="96" height="100" viewBox="0 0 96 100" fill="none" xmlns="http://www.w3.org/2000/svg">
<path d="M72.9111 90.2211C59.64 96.1418 52.0163 102.908 36.2045 98.6793C20.3926 94.4502 -1.34942 96.9876 4.01539 90.2211C4.01539 88.0235 -3.07689 85.5223 2.88608 84.0183C5.12307 83.4542 13.617 80.7612 16.4394 80.3531C19.706 79.8808 23.6007 82.2219 27.4514 82.0049C30.2564 81.8467 33.188 81.7629 36.2045 81.7629C56.477 81.7629 86.1821 84.3004 72.9111 90.2211Z" fill="#95CFFF"/>
<path d="M8.46709 40.6709C2.13995 51.1275 4.93632 73.0902 7.1254 82.7644C2.88847 94.5703 17.1528 91.9702 19.13 90.8458C20.7118 89.9464 21.8605 90.4711 22.2371 90.8458C23.0313 91.6362 23.6635 93.3616 28.2394 93.5865C32.8153 93.8114 35.5599 91.8531 36.3602 90.8458C37.4335 89.3842 40.4046 89.5983 40.8796 89.9323C45.1165 92.9119 49.6359 92.6729 51.7543 92.6729C67.0072 92.6729 72.0209 84.5213 72.0209 72.1532C72.8118 53.7136 62.2289 42.8259 56.8386 39.6871C27.5191 22.8415 12.3745 33.324 8.46709 40.6709Z" fill="#FFE5C0"/>
<path d="M8.91421 84.6345C9.3274 84.2402 9.98163 84.2154 10.4258 84.5949C10.8997 84.9999 10.9551 85.7124 10.5507 86.1855L10.372 86.4139C9.5906 87.5056 9.55022 88.9269 9.7928 89.9012L9.84855 90.1038L9.87745 90.2154C9.99064 90.7757 9.66318 91.3417 9.1053 91.5137C8.54734 91.6857 7.9565 91.4027 7.73305 90.8762L7.69348 90.7675L7.61229 90.4751C7.22772 88.951 7.257 86.5644 8.83491 84.7186L8.91421 84.6345Z" fill="#FFAA33"/>
<path d="M25.861 86.8835C26.2742 86.4892 26.9284 86.4644 27.3726 86.844C27.8465 87.2489 27.9019 87.9614 27.4974 88.4345L27.3187 88.6629C26.5374 89.7546 26.497 91.1759 26.7396 92.1503L26.7953 92.3528L26.8242 92.4644C26.9374 93.0247 26.61 93.5907 26.0521 93.7627C25.4941 93.9347 24.9033 93.6517 24.6798 93.1252L24.6403 93.0166L24.5591 92.7241C24.1745 91.2 24.2038 88.8134 25.7817 86.9677L25.861 86.8835Z" fill="#FFAA33"/>
<path d="M13.3688 85.3547C13.782 84.9604 14.4362 84.9356 14.8804 85.3152C15.3543 85.7201 15.4097 86.4326 15.0053 86.9057L14.8266 87.1341C14.0452 88.2258 14.0048 89.6471 14.2474 90.6214L14.3031 90.824L14.332 90.9356C14.4452 91.4959 14.1178 92.0619 13.5599 92.2339C13.0019 92.4059 12.4111 92.1229 12.1876 91.5964L12.1481 91.4878L12.0669 91.1953C11.6823 89.6712 11.7116 87.2846 13.2895 85.4389L13.3688 85.3547Z" fill="#FFAA33"/>
<path d="M30.709 87.1006C31.0395 86.5742 31.7355 86.4155 32.2638 86.7463C32.7924 87.0774 32.953 87.7737 32.6226 88.3007C31.844 89.543 32.009 91.0933 32.4202 92.0882L32.5048 92.2792L32.5499 92.3853C32.7445 92.923 32.5037 93.5304 31.9769 93.782C31.45 94.0336 30.8238 93.8401 30.5253 93.352L30.4701 93.2503L30.3467 92.9729C29.742 91.5216 29.4201 89.1565 30.709 87.1006Z" fill="#FFAA33"/>
<ellipse cx="31.5552" cy="27.266" rx="26.9751" ry="21.9252" fill="#FFE5C0"/>
<mask id="mask0_1968_25354" style="mask-type:alpha" maskUnits="userSpaceOnUse" x="4" y="5" width="55" height="45">
<ellipse cx="31.5552" cy="27.266" rx="26.9751" ry="21.9252" fill="#FFD58D"/>
</mask>
<g mask="url(#mask0_1968_25354)">
<path d="M27.9346 25.2378C15.0371 32.9429 4.03801 23.7711 0.531689 16.8183C0.284768 16.3287 0.271532 15.7604 0.4547 15.2438L6.28984 -1.21317C6.60619 -2.10538 7.46574 -2.6882 8.41197 -2.6521L50.7379 -1.03735C51.6394 -1.00296 52.4255 -0.413333 52.7109 0.44256L60.0161 22.3484C60.2625 23.0873 60.1004 23.9101 59.5385 24.449C51.0636 32.5755 37.25 28.6767 30.2238 25.1445C29.4973 24.7793 28.6322 24.821 27.9346 25.2378Z" fill="#FFAA33"/>
<path d="M23.6778 22.4843C22.2876 23.7459 20.3055 23.84 19.3201 23.6919C19.2822 23.6863 19.2433 23.6934 19.2101 23.7125C16.737 25.1395 17.8547 28.4856 18.4155 29.8855C18.9802 31.2952 17.0037 31.0133 17.2861 33.8327C17.5684 36.6521 21.2391 36.3702 22.9332 34.6785C24.6274 32.9869 21.8038 33.5508 23.7803 31.5772C25.7568 29.6036 24.345 28.1939 23.7803 27.0661C23.4175 26.3416 23.7588 24.2353 24.1023 22.7037C24.1441 22.517 23.8196 22.3556 23.6778 22.4843Z" fill="#95CFFF"/>
<path d="M35.6308 22.4843C37.021 23.7459 39.0031 23.84 39.9885 23.6919C40.0264 23.6863 40.0653 23.6934 40.0984 23.7125C42.5716 25.1395 41.4539 28.4856 40.8931 29.8855C40.3284 31.2952 42.3049 31.0133 42.0225 33.8327C41.7402 36.6521 38.0695 36.3702 36.3753 34.6785C34.6812 32.9869 37.5048 33.5508 35.5283 31.5772C33.5518 29.6036 34.9636 28.1939 35.5283 27.0661C35.8911 26.3416 35.5498 24.2353 35.2063 22.7037C35.1645 22.517 35.489 22.3556 35.6308 22.4843Z" fill="#95CFFF"/>
</g>
<path d="M18.2007 0.0478092C15.3255 0.5845 13.3542 7.0416 12.5154 11.1885C12.3654 11.9303 12.8638 12.644 13.6171 12.7464C21.0018 13.7511 25.5159 10.4202 27.3168 8.02072C27.6422 7.58715 27.6111 6.99921 27.2844 6.56664C25.1918 3.79654 21.1398 -0.500816 18.2007 0.0478092Z" fill="#FFAA33"/>
<path d="M44.854 0.891071C47.7292 1.42776 49.7005 7.88487 50.5392 12.0318C50.6893 12.7735 50.1909 13.4872 49.4376 13.5897C42.0529 14.5943 37.5388 11.2635 35.7379 8.86399C35.4125 8.43041 35.4436 7.84247 35.7703 7.4099C37.8629 4.63981 41.9149 0.342445 44.854 0.891071Z" fill="#FFAA33"/>
<path d="M30.2817 28.7516C30.3333 29.591 31.0164 31.4804 33.4649 31.8414L33.5641 31.8612C34.0497 31.9839 34.3729 32.4566 34.2981 32.962C34.2184 33.501 33.7163 33.8735 33.1764 33.7941C31.1843 33.5004 29.9451 32.4954 29.2146 31.4069C28.8899 31.7602 28.5154 32.0441 28.121 32.2638C27.0899 32.8381 25.933 32.9887 25.1634 32.9604C24.6181 32.9403 24.1921 32.4829 24.2121 31.9383C24.2322 31.3937 24.6908 30.9684 25.2362 30.9884C25.7376 31.0069 26.5157 30.8981 27.1581 30.5402C27.7539 30.2083 28.2298 29.6739 28.3107 28.7285L30.2817 28.7516Z" fill="#292A2B"/>
<path d="M29.4366 25.439C26.4707 25.5092 27.2475 28.4256 28.448 29.0229C29.3519 29.4726 30.0015 29.1283 30.2133 29.0229C30.9195 28.6715 31.4138 28.1796 31.7669 27.4066C32.4252 25.9654 30.284 25.439 29.4366 25.439Z" fill="#292A2B"/>
<path d="M23.7939 20.8976C24.087 20.4379 24.6979 20.3022 25.1583 20.5948C25.6188 20.8873 25.7546 21.4973 25.4616 21.9571C24.5064 23.4559 23.1134 24.2109 21.8114 24.5469C20.6076 24.8575 19.4393 24.8237 18.6448 24.6785L18.4915 24.6477L18.3933 24.6218C17.9168 24.4681 17.625 23.9759 17.7321 23.4764C17.8393 22.9769 18.3075 22.6469 18.8052 22.7016L18.9051 22.7181L19.1207 22.7567C19.6635 22.8385 20.4803 22.8518 21.3167 22.6361C22.2547 22.394 23.1679 21.8799 23.7939 20.8976Z" fill="#292A2B"/>
<path d="M35.3437 20.8976C35.0507 20.4379 34.4398 20.3022 33.9794 20.5948C33.5189 20.8873 33.3831 21.4973 33.6761 21.9571C34.6313 23.4559 36.0243 24.2109 37.3263 24.5469C38.5301 24.8575 39.6984 24.8237 40.4929 24.6785L40.6462 24.6477L40.7444 24.6218C41.2209 24.4681 41.5127 23.9759 41.4056 23.4764C41.2984 22.9769 40.8302 22.6469 40.3324 22.7016L40.2326 22.7181L40.017 22.7567C39.4742 22.8385 38.6574 22.8518 37.821 22.6361C36.883 22.394 35.9698 21.8799 35.3437 20.8976Z" fill="#292A2B"/>
<path d="M79.9303 50.9815C76.9371 63.7633 70.6751 68.2071 67.4908 68.9848C67.1842 69.0597 66.8984 69.2055 66.6859 69.4389L61.7055 74.9094C61.1246 75.5475 61.2802 76.5574 62.0261 76.9892L64.1706 78.2309C64.3867 78.356 64.6289 78.4206 64.8786 78.4073C70.805 78.091 83.5294 73.7502 89.9822 58.4921C96.5755 42.9016 91.43 39.1297 88.6426 38.1759C83.2828 36.3417 80.6012 45.9487 79.9303 50.9815Z" fill="#FFE5C0"/>
<mask id="mask1_1968_25354" style="mask-type:alpha" maskUnits="userSpaceOnUse" x="61" y="37" width="33" height="42">
<path d="M79.9303 50.9815C76.9371 63.7633 70.6751 68.2071 67.4908 68.9848C67.1842 69.0597 66.8984 69.2055 66.6859 69.4389L61.7055 74.9094C61.1246 75.5475 61.2802 76.5574 62.0261 76.9892L64.1706 78.2309C64.3867 78.356 64.6289 78.4206 64.8786 78.4073C70.805 78.091 83.5294 73.7502 89.9822 58.4921C96.5755 42.9016 91.43 39.1297 88.6426 38.1759C83.2828 36.3417 80.6012 45.9487 79.9303 50.9815Z" fill="#F99F51"/>
</mask>
<g mask="url(#mask1_1968_25354)">
<path d="M92.7968 52.1098C89.1976 49.8233 82.0856 48.4102 78.9796 47.9894C80.2613 43.7682 82.8967 35.3305 83.1843 35.3496C83.4718 35.3687 91.9375 36.9895 96.1344 37.7975L92.7968 52.1098Z" fill="#FFAA33"/>
<path d="M76.3395 57.8044L77.75 52.5608C83.5405 53.0112 89.1451 56.3469 91.2236 57.9585L88.1364 64.2677C84.2804 60.7598 78.6652 58.4973 76.3395 57.8044Z" fill="#FFAA33"/>
<path d="M75.1173 61.8018L71.7815 66.3154C75.3373 68.7632 78.3875 72.4019 79.4682 73.9152L84.2958 69.2955C83.2908 66.7215 77.7581 63.2272 75.1173 61.8018Z" fill="#FFAA33"/>
</g>
</svg>
