<svg width="100" height="100" viewBox="0 0 100 100" fill="none" xmlns="http://www.w3.org/2000/svg">
<g clip-path="url(#clip0_3427_32653)">
<path d="M76.1567 53.4562C73.9683 71.665 66.0549 78.9628 61.6494 80.6997C61.1072 80.9135 60.6067 81.2389 60.2644 81.7106L54.6497 89.4484C53.7143 90.7376 54.2055 92.5594 55.6617 93.2016L58.0651 94.2617C58.4879 94.4481 58.9521 94.5177 59.4077 94.4387C67.7639 92.9902 84.817 84.8484 91.4788 62.4813C98.3313 39.4738 90.4993 34.9564 86.4264 34.0454C78.5949 32.2935 76.3168 46.256 76.1567 53.4562Z" fill="#FFE5C0"/>
<mask id="mask0_3427_32653" style="mask-type:alpha" maskUnits="userSpaceOnUse" x="54" y="33" width="41" height="62">
<path d="M76.1567 53.4562C73.9683 71.665 66.0549 78.9628 61.6494 80.6997C61.1072 80.9135 60.6067 81.2389 60.2644 81.7106L54.6497 89.4484C53.7143 90.7376 54.2055 92.5594 55.6617 93.2016L58.0651 94.2617C58.4879 94.4481 58.9521 94.5177 59.4077 94.4387C67.7639 92.9902 84.817 84.8484 91.4788 62.4813C98.3313 39.4738 90.4993 34.9564 86.4264 34.0454C78.5949 32.2935 76.3168 46.256 76.1567 53.4562Z" fill="#F99F51"/>
</mask>
<g mask="url(#mask0_3427_32653)">
<path d="M94.4458 53.0448C89.0223 50.3811 78.7896 49.4954 74.3512 49.3856C75.4979 43.2345 77.893 30.9279 78.3008 30.91C78.7085 30.8922 90.8795 31.86 96.914 32.3461L94.4458 53.0448Z" fill="#FFAA33"/>
<path d="M72.1642 63.6349L73.3326 56.0222C81.5549 55.7561 89.9652 59.5871 93.1426 61.5358L89.7797 70.9118C83.8043 66.566 75.5463 64.2498 72.1642 63.6349Z" fill="#FFAA33"/>
<path d="M71.0671 69.4606L67.0743 76.3436C72.4618 79.2414 77.3231 83.897 79.0803 85.8625L85.1569 78.5977C83.3407 75.125 75.007 71.0594 71.0671 69.4606Z" fill="#FFAA33"/>
</g>
<path d="M86.5771 85.5076C86.5771 106.579 69.0705 103.854 46.9791 103.854C24.8877 103.854 6.57715 106.579 6.57715 85.5076C6.57715 64.4358 24.4858 47.3538 46.5771 47.3538C68.6685 47.3538 86.5771 64.4358 86.5771 85.5076Z" fill="#FFE5C0"/>
<mask id="mask1_3427_32653" style="mask-type:alpha" maskUnits="userSpaceOnUse" x="3" y="-5" width="87" height="87">
<rect x="3.57715" y="-4.64648" width="86" height="86" fill="#D9D9D9"/>
</mask>
<g mask="url(#mask1_3427_32653)">
<mask id="mask2_3427_32653" style="mask-type:alpha" maskUnits="userSpaceOnUse" x="10" y="2" width="73" height="73">
<rect x="10.7439" y="2.52026" width="71.6667" height="71.6667" fill="#D9D9D9"/>
</mask>
<g mask="url(#mask2_3427_32653)">
<ellipse cx="46.5772" cy="42.6308" rx="35.8333" ry="29.3727" fill="#FFE5C0"/>
<mask id="mask3_3427_32653" style="mask-type:alpha" maskUnits="userSpaceOnUse" x="10" y="13" width="73" height="60">
<ellipse cx="46.5772" cy="42.6308" rx="35.8333" ry="29.3727" fill="#FFE5C0"/>
</mask>
<g mask="url(#mask3_3427_32653)">
<path d="M45.3461 39.0935C28.2599 49.656 13.6961 43.0771 9.03549 34.1958C8.69426 33.5456 8.66968 32.7835 8.89554 32.0844L17.3221 6.0049C17.7264 4.75345 18.8916 3.90529 20.2065 3.90529L75.5217 3.90529C76.828 3.90529 77.9868 4.74258 78.3969 5.98272L88.0244 35.0978C88.3644 36.126 88.1398 37.271 87.3586 38.0216C76.1346 48.8066 57.9125 43.6642 48.564 38.9523C47.5413 38.4368 46.3207 38.491 45.3461 39.0935Z" fill="#FFAA33"/>
</g>
<path d="M57.2861 35.7588C61.608 35.7588 67.5822 35.7587 65.1113 40.3564C62.6401 44.9544 63.052 44.8193 57.2861 44.8193C53.4977 44.8193 50.3377 44.9236 49.6152 41.8525C49.585 41.858 49.5544 41.863 49.5234 41.8662L49.3965 41.873H44.5176C44.3809 41.873 44.2498 41.8496 44.127 41.8086C43.4242 44.9241 40.2545 44.8193 36.4482 44.8193C30.682 44.8193 31.0933 44.9545 28.6221 40.3564C26.1515 35.7589 32.1264 35.7588 36.4482 35.7588C40.4611 35.7588 43.7652 35.7592 44.2178 39.4395C44.3138 39.4155 44.4141 39.4014 44.5176 39.4014H49.3965L49.5195 39.4072C49.9874 35.7591 53.285 35.7588 57.2861 35.7588Z" fill="#292A2B"/>
<path d="M28.8374 6.16756C25.018 6.88656 22.3994 15.537 21.2852 21.0925C21.0859 22.0862 21.748 23.0424 22.7487 23.1797C32.5584 24.5255 38.5548 20.0633 40.9471 16.8487C41.3794 16.2679 41.3381 15.4802 40.904 14.9007C38.1243 11.1897 32.7417 5.43258 28.8374 6.16756Z" fill="#FFAA33"/>
<path d="M64.2444 7.29696C68.0638 8.01595 70.6824 16.6664 71.7966 22.2219C71.9959 23.2156 71.3338 24.1718 70.3331 24.3091C60.5234 25.6549 54.527 21.1927 52.1347 17.9781C51.7024 17.3973 51.7437 16.6096 52.1778 16.0301C54.9575 12.3191 60.3401 6.56198 64.2444 7.29696Z" fill="#FFAA33"/>
<path d="M41.573 49.5471C43.2615 49.6098 46.7135 48.249 47.0137 44.7092C47.1075 46.2469 47.6718 48.9446 51.7241 49.5471" stroke="#292A2B" stroke-width="2.47126" stroke-linecap="round"/>
<path d="M47.2017 40.1907C41.5734 40.4824 44.2938 44.1918 45.8884 44.992C47.0891 45.5945 47.9521 45.1332 48.2335 44.992C49.1716 44.5213 49.8282 43.8623 50.2972 42.8267C51.1717 40.8959 48.3273 40.1907 47.2017 40.1907Z" fill="#292A2B" stroke="#292A2B" stroke-width="0.189369"/>
<path d="M66.327 31.1253C66.4678 30.7128 67.0513 30.7128 67.1922 31.1253L67.5599 32.202C67.6056 32.3359 67.7108 32.4411 67.8448 32.4869L68.9214 32.8545C69.334 32.9954 69.334 33.5789 68.9214 33.7198L67.8448 34.0875C67.7108 34.1332 67.6056 34.2384 67.5599 34.3724L67.1922 35.449C67.0513 35.8616 66.4678 35.8616 66.327 35.449L65.9593 34.3724C65.9136 34.2384 65.8083 34.1332 65.6744 34.0875L64.5978 33.7198C64.1852 33.5789 64.1852 32.9954 64.5978 32.8545L65.6744 32.4869C65.8083 32.4411 65.9136 32.3359 65.9593 32.202L66.327 31.1253Z" fill="white"/>
<path d="M21.844 41.8343C21.9849 41.4218 22.5684 41.4218 22.7093 41.8343L23.077 42.911C23.1227 43.0449 23.2279 43.1501 23.3619 43.1959L24.4385 43.5635C24.8511 43.7044 24.8511 44.2879 24.4385 44.4288L23.3619 44.7965C23.2279 44.8422 23.1227 44.9474 23.077 45.0814L22.7093 46.158C22.5684 46.5706 21.9849 46.5706 21.844 46.158L21.4764 45.0814C21.4306 44.9474 21.3254 44.8422 21.1915 44.7965L20.1148 44.4288C19.7023 44.2879 19.7023 43.7044 20.1148 43.5635L21.1915 43.1959C21.3254 43.1501 21.4306 43.0449 21.4764 42.911L21.844 41.8343Z" fill="white"/>
<path d="M70.946 35.7353C71.1502 35.5568 71.4645 35.7383 71.4121 36.0044L71.2753 36.6987C71.2583 36.7851 71.2823 36.8744 71.3402 36.9407L71.8058 37.4736C71.9842 37.6778 71.8028 37.9921 71.5367 37.9397L70.8424 37.8029C70.756 37.7859 70.6666 37.8099 70.6003 37.8678L70.0674 38.3334C69.8632 38.5118 69.5489 38.3304 69.6013 38.0643L69.7381 37.37C69.7551 37.2836 69.7312 37.1942 69.6733 37.1279L69.2077 36.5951C69.0292 36.3909 69.2107 36.0765 69.4768 36.129L70.1711 36.2657C70.2574 36.2828 70.3468 36.2588 70.4131 36.2009L70.946 35.7353Z" fill="white"/>
</g>
</g>
<path d="M32.1399 59.0495C30.3723 54.8892 31.9628 53.9739 33.7286 53.5008C35.7624 52.9561 36.8018 54.6644 37.2219 56.4717C39.6863 55.7245 42.0207 55.5555 43.2522 55.6051C46.4991 55.6881 52.7185 57.2548 51.622 62.8562C50.525 68.4581 43.7743 67.1945 40.536 65.8624C41.2904 69.7381 36.1175 75.6748 33.4368 78.1585C30.2322 81.1277 22.7418 83.5304 17.8136 76.0663" stroke="#FFAA33" stroke-width="2.5" stroke-linecap="round" stroke-linejoin="round"/>
<path d="M65.5774 63.7534C68.5774 63.7534 75.3774 62.6534 78.5774 58.2534" stroke="#FFAA33" stroke-width="2.5" stroke-linecap="round"/>
</g>
<defs>
<clipPath id="clip0_3427_32653">
<rect width="100" height="100" fill="white"/>
</clipPath>
</defs>
</svg>
