<svg width="100" height="100" viewBox="0 0 100 100" fill="none" xmlns="http://www.w3.org/2000/svg">
<mask id="mask0_1968_25247" style="mask-type:alpha" maskUnits="userSpaceOnUse" x="0" y="0" width="100" height="100">
<rect width="100" height="100" fill="#D9D9D9"/>
</mask>
<g mask="url(#mask0_1968_25247)">
<path d="M81.8464 52.6054C77.7602 70.0805 69.2123 76.1584 64.8636 77.2236C64.4434 77.3265 64.0517 77.5266 63.7607 77.8467L56.965 85.322C56.1698 86.1968 56.3836 87.5809 57.4055 88.1734L60.3251 89.8664C60.6218 90.0385 60.9544 90.1272 61.2971 90.1089C69.3903 89.6751 86.7618 83.7382 95.5716 62.8758C104.574 41.5566 97.5484 36.3986 93.7425 35.0942C86.424 32.5861 82.7624 45.7233 81.8464 52.6054Z" fill="#FFE5C0"/>
<mask id="mask1_1968_25247" style="mask-type:alpha" maskUnits="userSpaceOnUse" x="56" y="34" width="44" height="57">
<path d="M81.8464 52.6054C77.7602 70.0805 69.2123 76.1584 64.8636 77.2236C64.4434 77.3265 64.0517 77.5266 63.7607 77.8467L56.965 85.322C56.1698 86.1968 56.3836 87.5809 57.4055 88.1734L60.3251 89.8664C60.6218 90.0385 60.9544 90.1272 61.2971 90.1089C69.3903 89.6751 86.7618 83.7382 95.5716 62.8758C104.574 41.5566 97.5484 36.3986 93.7425 35.0942C86.424 32.5861 82.7624 45.7233 81.8464 52.6054Z" fill="#F99F51"/>
</mask>
<g mask="url(#mask1_1968_25247)">
<path d="M99.4138 54.1484C94.4993 51.0218 84.7884 49.0893 80.5473 48.5139C82.2975 42.7416 85.8959 31.2034 86.2885 31.2295C86.6811 31.2557 98.2404 33.472 103.971 34.577L99.4138 54.1484Z" fill="#FFAA33"/>
<path d="M76.9425 61.9356L78.8684 54.7651C86.7749 55.381 94.4277 59.9425 97.2657 62.1463L93.0504 70.7738C87.7852 65.977 80.118 62.883 76.9425 61.9356Z" fill="#FFAA33"/>
<path d="M75.2748 67.4013L70.72 73.5734C75.5753 76.9207 79.7401 81.8964 81.2156 83.9658L87.8075 77.6485C86.4351 74.1287 78.8806 69.3505 75.2748 67.4013Z" fill="#FFAA33"/>
</g>
<path d="M75.2112 54.2703C35.1774 31.2347 15.4077 43.9535 10.0724 54.0001C11.9016 68.3611 9.54217 103.065 8 108C28.7804 115.946 79.597 124.032 96.299 100C97.3789 74.7846 82.5713 58.5626 75.2112 54.2703Z" fill="#FFE5C0"/>
<ellipse cx="40.6877" cy="37.285" rx="36.8327" ry="29.9818" fill="#FFE5C0"/>
<mask id="mask2_1968_25247" style="mask-type:alpha" maskUnits="userSpaceOnUse" x="3" y="7" width="75" height="61">
<ellipse cx="40.6877" cy="37.285" rx="36.8327" ry="29.9818" fill="#FFD58D"/>
</mask>
<g mask="url(#mask2_1968_25247)">
<path d="M36.5146 37.2364C20.1637 49.6239 3.86989 38.8013 -1.92766 29.8753C-2.33662 29.2456 -2.43957 28.4743 -2.26786 27.7436L3.19124 4.51303C3.48837 3.24866 4.57318 2.32459 5.86897 2.23207L63.538 -1.88531C64.772 -1.97341 65.9317 -1.28719 66.4485 -0.163044L79.6323 28.5152C80.0779 29.4845 79.9805 30.629 79.2965 31.4472C69.0103 43.7504 49.69 40.5172 39.6242 36.7658C38.5783 36.376 37.4039 36.5626 36.5146 37.2364Z" fill="#FFAA33"/>
</g>
<path d="M22.4535 0.0653771C18.5276 0.799279 15.836 9.6291 14.6907 15.2998C14.4859 16.3141 15.1664 17.2901 16.195 17.4302C26.2783 18.804 32.4419 14.2492 34.9009 10.968C35.3453 10.3751 35.3029 9.57112 34.8567 8.9796C31.9995 5.19161 26.4667 -0.684845 22.4535 0.0653771Z" fill="#FFAA33"/>
<path d="M58.8473 1.2187C62.7732 1.9526 65.4648 10.7824 66.6101 16.4531C66.8149 17.4674 66.1344 18.4434 65.1058 18.5835C55.0225 19.9573 48.8588 15.4025 46.3998 12.1213C45.9555 11.5284 45.9979 10.7244 46.4441 10.1329C49.3013 6.34493 54.8341 0.468475 58.8473 1.2187Z" fill="#FFAA33"/>
<path d="M33.5263 48.1233C35.2466 47.8851 38.6064 46.5055 38.2828 42.8936C38.6503 44.4226 40.4376 47.4511 44.6465 47.3335" stroke="#292A2B" stroke-width="2.59781" stroke-linecap="round"/>
<path d="M37.6712 38.3178C33.6998 39.1156 35.4368 42.8588 37.1929 43.3786C38.5151 43.7699 39.3069 43.1522 39.5668 42.96C40.4329 42.3194 40.9808 41.5398 41.272 40.415C41.8149 38.3181 38.8107 38.1169 37.6712 38.3178Z" fill="#292A2B"/>
<ellipse cx="27.7495" cy="35.7806" rx="2.89262" ry="3.55553" transform="rotate(-3 27.7495 35.7806)" fill="#292A2B"/>
<ellipse cx="47.4765" cy="34.5401" rx="2.7962" ry="3.55553" transform="rotate(-3 47.4765 34.5401)" fill="#292A2B"/>
<path d="M12.634 53.3236C5.18411 53.4147 1.65595 60.8345 0.823107 64.5331C-0.916282 71.336 7.15715 78.5723 13.9477 82.2297C15.8329 83.2451 17.6417 84.0686 19.1492 84.6607L14.8015 69.6911C15.0826 67.6103 15.8069 64.5468 16.1339 63.2751C18.8428 55.6894 14.9293 53.48 12.634 53.3236Z" fill="#FFE5C0"/>
<path d="M79.0546 87.0975C87.6486 78.9874 78.1903 61.123 72.3868 53.2046L67.1267 71.5128C65.3487 73.6311 62.3852 76.5312 61.1258 77.7164C52.7688 84.2529 55.5693 89.468 58.0141 91.2584C66.3711 96.4029 75.5232 90.628 79.0546 87.0975Z" fill="#FFE5C0"/>
<path d="M66.7156 69.0915C66.5612 68.5262 66.0004 68.1584 65.4099 68.2566C64.8196 68.3552 64.4089 68.8848 64.446 69.4695L64.4597 69.5876C64.4904 69.7727 64.46 70.1427 64.2673 70.7097C64.0833 71.2509 63.7875 71.8668 63.4187 72.491C62.7138 73.6839 61.8337 74.7582 61.1697 75.3161L61.0388 75.4206L61.0203 75.4353L61.0017 75.4509C58.5098 77.5388 55.8371 80.8981 54.8054 84.3425C54.2848 86.081 54.1583 87.9268 54.7839 89.6531C55.4184 91.4031 56.7708 92.8784 58.9138 93.9499L58.9265 93.9558L58.9392 93.9626C59.4005 94.1797 60.0339 94.4423 60.7966 94.6951C60.8836 94.7435 60.9776 94.783 61.0788 94.8083C61.1322 94.8217 61.1858 94.83 61.239 94.8357C62.3474 95.173 63.684 95.4697 65.1423 95.573C67.7945 95.7607 70.9069 95.3141 73.74 93.2663L74.0134 93.0632L74.1042 92.9861C74.5311 92.5847 74.5929 91.9176 74.2292 91.4421C73.8655 90.9665 73.205 90.8518 72.7058 91.1589L72.6081 91.2253L72.3884 91.3894C70.1068 93.0394 67.5771 93.4262 65.3054 93.2654C64.3787 93.1997 63.505 93.0422 62.7244 92.8474C62.7632 92.6376 62.7952 92.4414 62.8259 92.2595C62.9092 91.7658 62.9644 91.4287 63.0437 91.1374C63.1171 90.8677 63.1987 90.6939 63.3025 90.5515C63.3805 90.4445 63.4948 90.3227 63.6814 90.1863L63.8933 90.0447L63.991 89.9783C64.4565 89.6221 64.586 88.9638 64.2722 88.4538C63.9584 87.9439 63.3126 87.7632 62.7849 88.0183L62.6814 88.0749L62.4919 88.196C62.0624 88.4838 61.7113 88.8071 61.4333 89.1882C61.1155 89.6241 60.9347 90.0803 60.8122 90.53C60.6957 90.9582 60.6206 91.4306 60.5456 91.8747C60.532 91.9554 60.5171 92.037 60.5027 92.1199C60.29 92.0324 60.0995 91.9503 59.9363 91.8738C59.4478 91.6287 59.0285 91.3653 58.6677 91.0906L58.739 90.7888C58.8405 90.3268 58.9104 89.9171 58.9704 89.5613C59.0537 89.0677 59.109 88.7304 59.1882 88.4392C59.2617 88.1693 59.3432 87.9947 59.447 87.8523C59.525 87.7454 59.6386 87.6243 59.8249 87.488L60.0378 87.3464L60.1355 87.279C60.6008 86.923 60.7302 86.2655 60.4167 85.7556C60.1029 85.2457 59.4571 85.0641 58.9294 85.3191L58.8249 85.3767L58.6365 85.4978C58.2071 85.7854 57.8558 86.108 57.5779 86.489C57.2602 86.9247 57.0793 87.3812 56.9568 87.8308C56.9053 88.02 56.8619 88.2184 56.823 88.4187C56.5698 87.4014 56.6497 86.2473 57.0212 85.0066C57.8843 82.1251 60.2187 79.1255 62.4792 77.2292C63.4668 76.4588 64.5832 75.0667 65.4099 73.6677C65.8346 72.9491 66.2088 72.1864 66.4578 71.4538C66.6978 70.7475 66.8643 69.947 66.741 69.2068L66.7156 69.0915Z" fill="#FFAA33"/>
<rect x="4" y="82" width="18" height="18" rx="3" fill="#734C17"/>
<rect x="24" y="82" width="18" height="18" rx="3" fill="#593B12"/>
<rect x="14" y="66" width="15" height="15" rx="2" fill="#CC8829"/>
<path d="M9.162 63.2238C9.33316 62.65 9.90991 62.3079 10.4857 62.4178L10.6009 62.4461L10.8148 62.5143C11.3041 62.6811 11.727 62.902 12.0941 63.1982C12.514 63.537 12.8068 63.9308 13.0415 64.3336C13.265 64.7171 13.4597 65.154 13.6471 65.5637C13.7937 65.8842 13.9501 66.2214 14.1396 66.587L14.3408 66.9627L14.3935 67.0693C14.6246 67.6079 14.4147 68.2447 13.8914 68.5354C13.3678 68.8261 12.7162 68.6673 12.3813 68.1862L12.3187 68.086L12.0854 67.6519C11.8676 67.2317 11.6936 66.854 11.5435 66.5257C11.3353 66.0703 11.1949 65.759 11.0429 65.4982C10.9021 65.2566 10.7788 65.1092 10.6416 64.9985C10.5386 64.9153 10.397 64.828 10.1814 64.7445L9.93966 64.6627L9.82776 64.6233C9.28595 64.3997 8.99086 63.7976 9.162 63.2238Z" fill="#FFAA33"/>
<path d="M12.4462 60.5851C12.6173 60.0113 13.1941 59.6693 13.7699 59.7791L13.885 59.8075L14.099 59.8757C14.5883 60.0424 15.0112 60.2633 15.3783 60.5596C15.7981 60.8983 16.091 61.2922 16.3257 61.6949C16.5491 62.0784 16.7439 62.5153 16.9312 62.925C17.0778 63.2455 17.2343 63.5827 17.4237 63.9483L17.625 64.324L17.6777 64.4307C17.9088 64.9692 17.6989 65.606 17.1756 65.8967C16.652 66.1874 16.0004 66.0286 15.6655 65.5475L15.6028 65.4474L15.3696 65.0133C15.1518 64.5931 14.9778 64.2153 14.8277 63.887C14.6195 63.4316 14.4791 63.1204 14.3271 62.8596C14.1862 62.6179 14.0629 62.4705 13.9258 62.3598C13.8228 62.2767 13.6812 62.1893 13.4656 62.1058L13.2238 62.024L13.1119 61.9846C12.5701 61.7611 12.275 61.1589 12.4462 60.5851Z" fill="#FFAA33"/>
<path d="M16.8862 61.5969C16.9197 61.0913 17.3313 60.683 17.8486 60.6647C18.366 60.6466 18.8055 61.0251 18.8744 61.5272L18.8834 61.629C18.9921 64.7317 17.3626 66.8201 15.3964 68.1148C13.5867 69.3064 11.4432 69.8708 9.90498 70.0482L9.60558 70.0779L9.50356 70.082C8.9967 70.0749 8.56795 69.6848 8.52289 69.1689C8.4779 68.6531 8.83256 68.1951 9.33046 68.1003L9.43185 68.0862L9.95339 68.0254C11.2329 67.8413 12.9119 67.3558 14.2966 66.444C15.8428 65.4258 16.9623 63.9299 16.8843 61.6995L16.8862 61.5969Z" fill="#FFAA33"/>
</g>
</svg>
