<svg width="101" height="100" viewBox="0 0 101 100" fill="none" xmlns="http://www.w3.org/2000/svg">
<mask id="mask0_1409_9226" style="mask-type:alpha" maskUnits="userSpaceOnUse" x="0" y="0" width="101" height="100">
<rect x="0.5" width="100" height="100" fill="#D9D9D9"/>
</mask>
<g mask="url(#mask0_1409_9226)">
<ellipse cx="50.1078" cy="56.0892" rx="38.8099" ry="31.8126" fill="#FFE5C0"/>
<mask id="mask1_1409_9226" style="mask-type:alpha" maskUnits="userSpaceOnUse" x="11" y="24" width="78" height="64">
<ellipse cx="50.1078" cy="56.0892" rx="38.8099" ry="31.8126" fill="#FFF2E0"/>
</mask>
<g mask="url(#mask1_1409_9226)">
<path d="M48.7223 52.2901C30.2607 63.6714 14.5269 56.5799 9.46503 46.9868C9.08248 46.2618 9.05545 45.411 9.30757 44.6307L18.3999 16.4906C18.8513 15.0936 20.152 14.1468 21.6198 14.1468L81.3838 14.1468C82.842 14.1468 84.1356 15.0815 84.5933 16.4658L94.9795 47.8752C95.359 49.0229 95.1083 50.302 94.2343 51.1377C82.0971 62.7433 62.446 57.2231 52.316 52.1335C51.1736 51.5595 49.8111 51.6189 48.7223 52.2901Z" fill="#FFAA33"/>
</g>
<path d="M30.8951 16.597C26.7585 17.3757 23.9223 26.7447 22.7156 32.7617C22.4998 33.8379 23.2168 34.8735 24.3006 35.0222C34.9252 36.4799 41.4197 31.6469 44.0107 28.1654C44.4789 27.5363 44.4342 26.6832 43.9641 26.0555C40.9535 22.0362 35.1237 15.8009 30.8951 16.597Z" fill="#FFAA33"/>
<path d="M69.2423 17.8203C73.379 18.5991 76.2151 27.9681 77.4218 33.9851C77.6377 35.0613 76.9206 36.0969 75.8368 36.2456C65.2122 37.7033 58.7177 32.8703 56.1267 29.3887C55.6585 28.7596 55.7032 27.9066 56.1733 27.2789C59.1839 23.2596 65.0137 17.0243 69.2423 17.8203Z" fill="#FFAA33"/>
<path d="M50.7832 53.446C44.6874 53.762 47.6338 57.7795 49.3609 58.6462C50.6613 59.2988 51.596 58.7991 51.9008 58.6462C52.9168 58.1364 53.6279 57.4226 54.1359 56.301C55.083 54.2098 52.0024 53.446 50.7832 53.446Z" fill="#292A2B"/>
<path d="M51.8755 58.1974C51.913 58.9132 52.0428 59.785 52.4876 60.5254C52.8786 61.1761 53.5579 61.8025 54.8564 62.0888L55.1245 62.1419L55.2211 62.1637C55.6948 62.2961 56.0005 62.7687 55.9147 63.2637C55.8288 63.7586 55.382 64.1 54.8914 64.0653L54.7929 64.054L54.4252 63.981C52.6291 63.5812 51.4963 62.6437 50.8238 61.5241C50.8179 61.5144 50.8125 61.5045 50.8067 61.4947C50.4626 62.0011 50.0588 62.4291 49.6261 62.7805C48.5829 63.6278 47.3466 64.0555 46.3752 64.0701L46.1848 64.0672L46.0853 64.0577C45.5989 63.9868 45.2357 63.5578 45.2572 63.0562C45.2803 62.521 45.7329 62.1056 46.2682 62.1286L46.4586 62.1239C46.9433 62.0852 47.7034 61.8421 48.4029 61.274C49.1665 60.6536 49.8304 59.6662 49.9388 58.1785L51.8755 58.1974Z" fill="#292A2B"/>
<path d="M43.071 48.2717C43.4891 47.9476 44.0914 48.0237 44.4163 48.4416C44.741 48.8596 44.6655 49.4612 44.2474 49.7852C42.8844 50.8415 41.3648 51.0752 40.0657 50.9559C38.8645 50.8455 37.8084 50.4323 37.1303 50.0396L37.0004 49.9613L36.9192 49.9055C36.5343 49.6091 36.4289 49.0641 36.6901 48.6429C36.9515 48.2217 37.4872 48.0736 37.924 48.2865L38.0097 48.3343L38.1941 48.44C38.663 48.6925 39.4047 48.972 40.2393 49.0487C41.1753 49.1346 42.1777 48.9639 43.071 48.2717Z" fill="#292A2B"/>
<path d="M62.4538 48.2717C62.8719 47.9476 63.4743 48.0237 63.7991 48.4416C64.1239 48.8596 64.0483 49.4612 63.6303 49.7852C62.2672 50.8415 60.7477 51.0752 59.4485 50.9559C58.2474 50.8455 57.1913 50.4323 56.5132 50.0396L56.3833 49.9613L56.3021 49.9055C55.9171 49.6091 55.8117 49.0641 56.073 48.6429C56.3344 48.2217 56.8701 48.0736 57.3068 48.2865L57.3926 48.3343L57.5769 48.44C58.0459 48.6925 58.7876 48.972 59.6222 49.0487C60.5581 49.1346 61.5605 48.9639 62.4538 48.2717Z" fill="#292A2B"/>
<path d="M8.63732 117.145C7.65285 105.495 12.9506 84.3252 16.2328 73.4847C16.5378 72.4774 17.2235 71.8447 17.9797 71.8447H80.1059C80.7444 71.8447 81.3451 72.2962 81.6779 73.0895C86.3158 84.1447 88.7838 105.917 89.9226 116.862C90.0368 117.959 89.3511 119.167 88.2474 119.17L10.5881 119.41C9.51243 119.414 8.7279 118.217 8.63732 117.145Z" fill="#FFE5C0"/>
<path d="M49.4656 0C66.906 0 80.9782 14.3811 80.9782 32.0388H76.2036C76.2036 16.9485 64.1961 4.78192 49.4656 4.78192C34.735 4.78192 22.7275 16.9485 22.7275 32.0388H17.9529C17.9529 14.3811 32.0251 0 49.4656 0Z" fill="#9B9FA4"/>
<path d="M9.22629 42.7185C9.22629 50.2252 13.5674 56.3107 18.9225 56.3107V29.1262C13.5674 29.1262 9.22629 35.2117 9.22629 42.7185Z" fill="#292A2B"/>
<path d="M17.9528 29.6118C17.9528 28.2713 19.0381 27.1846 20.3768 27.1846C21.7156 27.1846 22.8009 28.2713 22.8009 29.6118V54.8545C22.8009 56.195 21.7156 57.2817 20.3768 57.2817C19.0381 57.2817 17.9528 56.195 17.9528 54.8545V29.6118Z" fill="#9B9FA4"/>
<path d="M89.7052 42.7185C89.7052 50.2252 85.364 56.3107 80.009 56.3107V29.1262C85.364 29.1262 89.7052 35.2117 89.7052 42.7185Z" fill="#292A2B"/>
<path d="M80.9787 29.6118C80.9787 28.2713 79.8934 27.1846 78.5546 27.1846C77.2159 27.1846 76.1306 28.2713 76.1306 29.6118V54.8545C76.1306 56.195 77.2159 57.2817 78.5546 57.2817C79.8934 57.2817 80.9787 56.195 80.9787 54.8545V29.6118Z" fill="#9B9FA4"/>
<path d="M85.0143 68.3605C85.3761 71.4389 79.2821 69.2658 78.227 68.3604L83.6536 93.7125C108.978 78.1391 100.085 53.9391 93.1501 50.9308C82.1054 46.1397 84.4113 61.0415 85.0143 68.3605Z" fill="#FFE5C0"/>
<path d="M15.9854 69.8168C15.6236 72.8952 21.7175 70.7221 22.7727 69.8167L17.3461 95.1688C-7.97804 79.5954 0.914833 55.3954 7.84955 52.3871C18.8942 47.596 16.5883 62.4978 15.9854 69.8168Z" fill="#FFE5C0"/>
<path d="M17.433 60.9347C18.0956 61.0295 18.5569 61.6441 18.4623 62.3075L18.4054 62.7295C18.1366 64.8991 18.0544 67.9598 18.5948 70.5799C19.0294 72.6866 19.7858 74.1917 20.8977 74.9573V72.3301C20.8977 71.66 21.4405 71.1167 22.1097 71.1165C22.7791 71.1165 23.3217 71.6599 23.3217 72.3301V76.699C23.3217 77.0509 23.1696 77.3854 22.9041 77.6159C22.6387 77.8464 22.2861 77.9501 21.9383 77.9003C18.4008 77.3941 16.8526 74.1378 16.22 71.071C15.5683 67.9112 15.7267 64.3138 16.0619 61.9643L16.0855 61.842C16.2335 61.2453 16.812 60.846 17.433 60.9347Z" fill="#FFAA33"/>
<path d="M83.9585 60.9347C83.2959 61.0295 82.8346 61.6441 82.9293 62.3075L82.9861 62.7295C83.2549 64.8991 83.3371 67.9598 82.7967 70.5799C82.3621 72.6866 81.6057 74.1917 80.4938 74.9573V72.3301C80.4938 71.66 79.951 71.1167 79.2818 71.1165C78.6124 71.1165 78.0698 71.6599 78.0698 72.3301V76.699C78.0698 77.0509 78.2219 77.3854 78.4874 77.6159C78.7528 77.8464 79.1054 77.9501 79.4532 77.9003C82.9907 77.3941 84.5389 74.1378 85.1715 71.071C85.8232 67.9112 85.6648 64.3138 85.3296 61.9643L85.306 61.842C85.158 61.2453 84.5795 60.846 83.9585 60.9347Z" fill="#FFAA33"/>
</g>
</svg>
