<svg width="24" height="24" viewBox="0 0 24 24" fill="none" xmlns="http://www.w3.org/2000/svg">
<path d="M4 13.06C4 16.341 6.196 20.11 8.419 20.907C9.189 21.183 9.986 20.802 10.648 20.327C11.15 19.967 11.758 19.624 12.25 19.624C12.74 19.624 13.35 19.967 13.851 20.327C14.513 20.802 15.31 21.183 16.081 20.907C17.66 20.341 19.226 18.274 20 15.947C18.5 15.517 17.406 14.161 17.406 12.554C17.406 11.082 18.325 9.82 19.632 9.289C18.79 7.793 17.414 7 15.859 7C15.055 7 14.315 7.324 13.719 7.713C12.765 8.333 11.734 8.333 10.781 7.713C10.184 7.324 9.445 7 8.641 7C6.077 7 4 9.155 4 13.06Z" fill="white"/>
<path d="M15.177 5.17684C14.094 6.26084 12.037 5.96184 12.037 5.96184C12.037 5.96184 11.739 3.90584 12.823 2.82184C13.906 1.73884 15.963 2.03784 15.963 2.03784C15.963 2.03784 16.261 4.09284 15.177 5.17684Z" fill="white"/>
</svg>
