<svg width="24" height="24" viewBox="0 0 24 24" fill="none" xmlns="http://www.w3.org/2000/svg">
<mask id="mask0_2004_35216" style="mask-type:alpha" maskUnits="userSpaceOnUse" x="0" y="0" width="24" height="24">
<rect width="24" height="24" fill="#D9D9D9"/>
</mask>
<g mask="url(#mask0_2004_35216)">
<mask id="mask1_2004_35216" style="mask-type:alpha" maskUnits="userSpaceOnUse" x="2" y="2" width="20" height="20">
<path d="M2 2H22V22H2V2Z" fill="#484A4C"/>
<path d="M2 2H22V22H2V2Z" fill="#484A4C"/>
</mask>
<g mask="url(#mask1_2004_35216)">
<path fill-rule="evenodd" clip-rule="evenodd" d="M12.0002 4.99919C16.4181 4.99945 19.9999 8.58224 20.0002 13.0002C20.0001 14.796 19.4086 16.4541 18.4093 17.7892L19.714 19.0939C20.1046 19.4844 20.1046 20.1175 19.714 20.508C19.3235 20.8985 18.6905 20.8985 18.3 20.508L17.0197 19.2277C15.647 20.3356 13.9014 21 12.0002 21.0002C10.1021 21.0001 8.35927 20.3381 6.98747 19.2336L5.71403 20.508C5.32351 20.8985 4.69049 20.8985 4.29997 20.508C3.90982 20.1174 3.90957 19.4843 4.29997 19.0939L5.59587 17.797C4.59316 16.4606 3.9993 14.7993 3.99919 13.0002C3.99941 8.58221 7.58221 4.99941 12.0002 4.99919ZM8.39763 12.1017L8.30485 12.1056C7.85255 12.1521 7.50056 12.5347 7.50016 12.9992C7.50016 13.464 7.85232 13.8472 8.30485 13.8937L8.39763 13.8966L15.5978 13.8986L15.6896 13.8927C16.1425 13.8465 16.4963 13.4642 16.4963 12.9992C16.4959 12.5345 16.1422 12.1528 15.6896 12.1066L15.5978 12.1008L8.39763 12.1017Z" fill="#484A4C"/>
<path d="M3.62907 4.04899C4.6807 2.99736 6.31868 2.88945 7.4904 3.72575C7.71504 3.8862 7.71297 4.20728 7.51774 4.40251L3.98259 7.93766C3.78736 8.13289 3.46628 8.13496 3.30583 7.91032C2.46953 6.7386 2.57744 5.10062 3.62907 4.04899Z" fill="#484A4C"/>
<path d="M16.5197 3.72575C17.6914 2.88946 19.3294 2.9974 20.381 4.04899C21.4327 5.10062 21.5406 6.7386 20.7043 7.91032C20.5438 8.13492 20.2227 8.13288 20.0275 7.93766L16.4924 4.40251C16.2971 4.2073 16.2951 3.88622 16.5197 3.72575Z" fill="#484A4C"/>
</g>
</g>
</svg>
