<svg width="96" height="96" viewBox="0 0 96 96" fill="none" xmlns="http://www.w3.org/2000/svg">
  <rect x="16" y="16" width="64" height="64" rx="32" fill="#FFAA33" shape-rendering="crispEdges" />
  <path
    fill-rule="evenodd"
    clip-rule="evenodd"
    d="M48.0004 34.1335C56.2472 34.134 62.9333 40.82 62.9337 49.0668C62.9335 52.419 61.8295 55.5141 59.9642 58.0064L62.3996 60.4418C63.1286 61.1708 63.1286 62.3524 62.3996 63.0814C61.6706 63.8104 60.489 63.8104 59.76 63.0814L57.3702 60.6915C54.8078 62.7596 51.5493 63.9999 48.0004 64.0001C44.4574 64 41.2041 62.7643 38.6434 60.7025L36.2663 63.0814C35.5373 63.8104 34.3557 63.8104 33.6267 63.0814C32.8985 62.3523 32.898 61.1705 33.6267 60.4418L36.0457 58.021C34.174 55.5264 33.0654 52.4251 33.0652 49.0668C33.0657 40.82 39.7536 34.1339 48.0004 34.1335ZM47.9931 40.6668C47.1257 40.6674 46.4098 41.3315 46.3233 42.1762L46.316 42.3439L46.3124 47.3897H41.2757L41.1025 47.397C40.258 47.4838 39.6008 48.1994 39.6004 49.0668C39.6009 49.9341 40.2581 50.6479 41.1025 50.7348L41.2757 50.7421H46.3124L46.316 55.7879L46.327 55.9592C46.4135 56.8039 47.1258 57.4661 47.9931 57.4668C48.861 57.4668 49.5727 56.8043 49.6593 55.9592L49.672 55.7879L49.6684 50.7421L54.716 50.7439L54.8874 50.7329C55.7324 50.6466 56.3927 49.9345 56.3931 49.0668C56.3927 48.1991 55.7324 47.4852 54.8874 47.3988L54.716 47.3879L49.6684 47.3897L49.672 42.3439L49.6629 42.1762C49.5763 41.3312 48.861 40.6668 47.9931 40.6668Z"
    fill="white"
  />
  <path
    d="M32.3744 32.3579C34.3374 30.3949 37.395 30.1935 39.5822 31.7546C40.0015 32.0541 39.9976 32.6534 39.6332 33.0178L33.0343 39.6168C32.6698 39.9812 32.0705 39.9851 31.771 39.5658C30.2099 37.3785 30.4113 34.321 32.3744 32.3579Z"
    fill="white"
  />
  <path
    d="M56.4369 31.7546C58.624 30.1935 61.6816 30.395 63.6447 32.3579C65.6077 34.321 65.8092 37.3785 64.2481 39.5658C63.9485 39.985 63.3492 39.9812 62.9848 39.6168L56.3858 33.0178C56.0214 32.6535 56.0176 32.0541 56.4369 31.7546Z"
    fill="white"
  />
</svg>
