<svg width="64" height="64" viewBox="0 0 64 64" fill="none" xmlns="http://www.w3.org/2000/svg">
<rect width="64" height="64" rx="32" fill="#FFAA33"/>
<mask id="mask0_2129_33674" style="mask-type:alpha" maskUnits="userSpaceOnUse" x="9" y="8" width="46" height="46">
<rect x="9.6001" y="8.79999" width="44.8" height="44.8" fill="#D9D9D9"/>
</mask>
<g mask="url(#mask0_2129_33674)">
<mask id="mask1_2129_33674" style="mask-type:alpha" maskUnits="userSpaceOnUse" x="13" y="12" width="38" height="38">
<path d="M13.3335 12.5333H50.6668V49.8667H13.3335V12.5333Z" fill="#484A4C"/>
<path d="M13.3335 12.5333H50.6668V49.8667H13.3335V12.5333Z" fill="#484A4C"/>
</mask>
<g mask="url(#mask1_2129_33674)">
<path fill-rule="evenodd" clip-rule="evenodd" d="M32.0004 18.1335C40.2472 18.134 46.9333 24.82 46.9337 33.0668C46.9335 36.419 45.8295 39.5141 43.9642 42.0064L46.3996 44.4418C47.1286 45.1708 47.1286 46.3524 46.3996 47.0814C45.6706 47.8104 44.489 47.8104 43.76 47.0814L41.3702 44.6915C38.8078 46.7596 35.5493 47.9999 32.0004 48.0001C28.4574 48 25.2041 46.7643 22.6434 44.7025L20.2663 47.0814C19.5373 47.8104 18.3557 47.8104 17.6267 47.0814C16.8985 46.3523 16.898 45.1705 17.6267 44.4418L20.0457 42.021C18.174 39.5264 17.0654 36.4251 17.0652 33.0668C17.0657 24.82 23.7536 18.1339 32.0004 18.1335ZM31.9931 24.6668C31.1257 24.6674 30.4098 25.3315 30.3233 26.1762L30.316 26.3439L30.3124 31.3897H25.2757L25.1025 31.397C24.258 31.4838 23.6008 32.1994 23.6004 33.0668C23.6009 33.9341 24.2581 34.6479 25.1025 34.7348L25.2757 34.7421H30.3124L30.316 39.7879L30.327 39.9592C30.4135 40.8039 31.1258 41.4661 31.9931 41.4668C32.861 41.4668 33.5727 40.8043 33.6593 39.9592L33.672 39.7879L33.6684 34.7421L38.716 34.7439L38.8874 34.7329C39.7324 34.6466 40.3927 33.9345 40.3931 33.0668C40.3927 32.1991 39.7324 31.4852 38.8874 31.3988L38.716 31.3879L33.6684 31.3897L33.672 26.3439L33.6629 26.1762C33.5763 25.3312 32.861 24.6668 31.9931 24.6668Z" fill="white"/>
<path d="M16.3744 16.3579C18.3374 14.3949 21.395 14.1935 23.5822 15.7546C24.0015 16.0541 23.9976 16.6534 23.6332 17.0178L17.0343 23.6168C16.6698 23.9812 16.0705 23.9851 15.771 23.5658C14.2099 21.3785 14.4113 18.321 16.3744 16.3579Z" fill="white"/>
<path d="M40.4369 15.7546C42.624 14.1935 45.6816 14.395 47.6447 16.3579C49.6077 18.321 49.8092 21.3785 48.2481 23.5658C47.9485 23.985 47.3492 23.9812 46.9848 23.6168L40.3858 17.0178C40.0214 16.6535 40.0176 16.0541 40.4369 15.7546Z" fill="white"/>
</g>
</g>
</svg>
