<svg width="24" height="24" viewBox="0 0 24 24" fill="none" xmlns="http://www.w3.org/2000/svg">
<mask id="mask0_2004_35408" style="mask-type:alpha" maskUnits="userSpaceOnUse" x="0" y="0" width="24" height="24">
<rect width="24" height="24" fill="#D9D9D9"/>
</mask>
<g mask="url(#mask0_2004_35408)">
<mask id="mask1_2004_35408" style="mask-type:alpha" maskUnits="userSpaceOnUse" x="2" y="2" width="20" height="20">
<path d="M2 2H22V22H2V2Z" fill="#484A4C"/>
<path d="M2 2H22V22H2V2Z" fill="#484A4C"/>
</mask>
<g mask="url(#mask1_2004_35408)">
<path fill-rule="evenodd" clip-rule="evenodd" d="M12.0005 4.99951C16.4186 4.99978 20.0005 8.58237 20.0005 13.0005C20.0003 17.4184 16.4184 21.0002 12.0005 21.0005C7.58241 21.0005 3.99981 17.4185 3.99955 13.0005C3.99955 8.58221 7.58225 4.99951 12.0005 4.99951ZM15.9908 10.2769C15.6379 9.9146 15.0577 9.90685 14.6949 10.2593L11.5591 13.3052L9.55619 11.3589C9.19313 11.0062 8.61215 11.0146 8.25931 11.3774C7.90663 11.7405 7.91504 12.3215 8.27787 12.6743L10.9204 15.2407C11.2762 15.5863 11.842 15.5863 12.1978 15.2407L15.9732 11.5737C16.3359 11.2209 16.3434 10.6399 15.9908 10.2769Z" fill="#FFAA33"/>
<path d="M7.71439 18.5084L5.71439 20.5084C5.32387 20.8989 4.69085 20.8989 4.30033 20.5084C3.9098 20.1179 3.9098 19.4848 4.30033 19.0943L6.30033 17.0943L7.71439 18.5084ZM19.7144 19.0943L19.7828 19.1705C20.1031 19.5633 20.0805 20.1423 19.7144 20.5084C19.3483 20.8745 18.7693 20.8971 18.3765 20.5767L18.3003 20.5084L16.3003 18.5084L17.7144 17.0943L19.7144 19.0943Z" fill="#FFAA33"/>
<path d="M3.62868 4.0486C2.57705 5.10023 2.46939 6.73837 3.30569 7.91009C3.46611 8.13485 3.78697 8.13295 3.98223 7.93769L7.51777 4.40215C7.71303 4.20689 7.71493 3.88603 7.49017 3.72561C6.31844 2.88931 4.68031 2.99697 3.62868 4.0486Z" fill="#FFAA33"/>
<path d="M20.3814 4.04864C21.433 5.10027 21.5407 6.7384 20.7044 7.91012C20.544 8.13489 20.2231 8.13299 20.0278 7.93772L16.4923 4.40219C16.2971 4.20693 16.2951 3.88607 16.5199 3.72565C17.6916 2.88934 19.3298 2.99701 20.3814 4.04864Z" fill="#FFAA33"/>
</g>
</g>
</svg>
