<svg width="41" height="41" viewBox="0 0 41 41" fill="none" xmlns="http://www.w3.org/2000/svg">
<rect width="41" height="41" rx="6" fill="#FFE5C0"/>
<mask id="mask0_1229_8587" style="mask-type:alpha" maskUnits="userSpaceOnUse" x="0" y="0" width="41" height="41">
<rect width="41" height="41" fill="#D9D9D9"/>
</mask>
<g mask="url(#mask0_1229_8587)">
<mask id="mask1_1229_8587" style="mask-type:alpha" maskUnits="userSpaceOnUse" x="3" y="3" width="35" height="35">
<rect x="3.4165" y="3.41667" width="34.1667" height="34.1667" fill="#D9D9D9"/>
</mask>
<g mask="url(#mask1_1229_8587)">
<path d="M17.969 10.25C6.327 10.25 3.4165 17.6827 3.4165 21.3991C3.4165 27.8728 13.8563 30.6301 17.969 30.75C25.5352 30.75 29.2645 27.8082 30.8806 25.5638C31.0959 25.2649 31.5143 25.1821 31.8271 25.3767C36.4138 28.2289 37.5832 23.7078 37.5832 18.5219C37.5832 13.1152 36.6341 12.0482 35.0523 11.6886C33.1247 11.4451 31.3633 12.9015 30.4199 14.009C30.1761 14.2952 29.7415 14.3521 29.4439 14.1224C25.4474 11.0384 20.1862 10.25 17.969 10.25Z" fill="#FFAA33"/>
<circle cx="8.16196" cy="20.5001" r="0.949074" fill="#FFE5C0"/>
<path d="M11.4517 14.5146C11.7662 14.2526 12.2237 14.2758 12.5101 14.556L12.5651 14.616L12.7319 14.8248C14.4107 17.0237 15.5233 21.3938 12.7807 26.3459L12.6429 26.59C12.4246 26.9682 11.9405 27.0981 11.5623 26.8798C11.184 26.6614 11.0542 26.1774 11.2725 25.7991L11.5128 25.3653C13.8021 21.0541 12.7482 17.4566 11.4776 15.7887L11.3503 15.6281L11.3015 15.5638C11.0772 15.2315 11.137 14.7768 11.4517 14.5146Z" fill="#FFE5C0"/>
<path d="M33.4392 17.4954C33.8399 17.4789 34.1957 17.7683 34.2536 18.1738C34.3115 18.5791 34.0513 18.9565 33.6623 19.0531L33.5826 19.0685L31.3681 19.3849C30.9357 19.4466 30.5352 19.1462 30.4734 18.7138C30.4116 18.2814 30.712 17.8809 31.1444 17.8191L33.3589 17.5028L33.4392 17.4954Z" fill="#FFE5C0"/>
<path d="M33.7556 20.3426C34.1563 20.3261 34.5121 20.6155 34.57 21.021C34.6279 21.4263 34.3677 21.8037 33.9787 21.9003L33.899 21.9157L31.6845 22.2321C31.2521 22.2938 30.8516 21.9935 30.7898 21.5611C30.728 21.1286 31.0284 20.7281 31.4608 20.6664L33.6753 20.35L33.7556 20.3426Z" fill="#FFE5C0"/>
</g>
</g>
</svg>
