<svg width="41" height="41" viewBox="0 0 41 41" fill="none" xmlns="http://www.w3.org/2000/svg">
<rect width="41" height="41" rx="6" fill="#F8F9F9"/>
<mask id="mask0_1229_8583" style="mask-type:alpha" maskUnits="userSpaceOnUse" x="9" y="9" width="24" height="24">
<rect x="9" y="9" width="24" height="24" fill="#484A4C"/>
</mask>
<g mask="url(#mask0_1229_8583)">
<mask id="mask1_1229_8583" style="mask-type:alpha" maskUnits="userSpaceOnUse" x="11" y="11" width="21" height="20">
<path d="M11.0005 11H31.0005V31H11.0005V11Z" fill="#484A4C"/>
<path d="M11.0005 11H31.0005V31H11.0005V11Z" fill="#484A4C"/>
</mask>
<g mask="url(#mask1_1229_8583)">
<path d="M19.4073 14.4353C19.4894 13.6299 20.1706 12.9972 20.9977 12.9972C21.8248 12.9972 22.5059 13.6299 22.5881 14.4353L22.5965 14.5961L22.5937 19.4039L27.4016 19.4011L27.5652 19.4124C28.3706 19.4945 29.0005 20.1729 29.0005 21C29.0005 21.8271 28.3706 22.5055 27.5652 22.5876L27.4016 22.5989L22.5937 22.5961L22.5965 27.4039L22.5853 27.5675C22.5028 28.3726 21.8246 29.0028 20.9977 29.0028C20.1708 29.0028 19.4925 28.3726 19.4101 27.5675L19.3988 27.4039L19.396 22.5961H14.5965L14.433 22.5904C13.6275 22.5083 13.0005 21.8271 13.0005 21C13.0005 20.1729 13.6275 19.4917 14.433 19.4096L14.5965 19.4039H19.396L19.3988 14.5961L19.4073 14.4353Z" fill="#7C7F83"/>
</g>
</g>
</svg>
