<svg width="147" height="14" viewBox="0 0 147 14" fill="none" xmlns="http://www.w3.org/2000/svg">
<path d="M0.430439 3.9453C0.340347 4.27581 0.130133 4.63636 0.130133 4.99692C0.130133 5.49769 0.350357 5.49769 0.410419 5.98844C0.47048 6.4792 0 6.49923 0 7C0 7.50077 0.640654 7.50077 0.640654 8.00154C0.640654 8.50231 0.4905 8.50231 0.4905 9.00308C0.4905 9.36364 -0.0700715 9.82435 0.0200204 10.1649C0.110112 10.5054 0.390398 10.886 0.560572 11.1864C0.730746 11.4869 0.970991 11.8675 1.22125 12.1179C1.4715 12.3683 1.88192 12.5586 2.18223 12.7388C2.48253 12.9191 2.93299 12.9391 3.26333 13.0293C3.59367 13.1194 3.98407 13.2196 4.34443 13.2196C4.86496 13.2196 4.86496 13.49 5.3855 13.49C5.90603 13.49 5.90603 12.5686 6.42656 12.5686C6.94709 12.5686 6.94709 13.1895 7.46762 13.1895C7.98815 13.1895 7.99816 13.3798 8.50868 13.3798C9.0192 13.3798 9.0192 12.7689 9.53973 12.7689C10.0603 12.7689 10.0703 13.2496 10.5808 13.2496C11.0913 13.2496 11.0913 13.3398 11.6118 13.3398C12.1324 13.3398 12.1424 13.2196 12.6529 13.2196C13.1634 13.2196 13.1734 13.3998 13.684 13.3998C14.1945 13.3998 14.1945 12.7889 14.715 12.7889C15.2355 12.7889 15.2456 13.3898 15.7561 13.3898C16.2666 13.3898 16.2666 13.2897 16.7871 13.2897C17.3077 13.2897 17.3077 13.1895 17.8182 13.1895C18.3287 13.1895 18.3387 12.6587 18.8492 12.6587C19.3598 12.6587 19.3698 12.879 19.8803 12.879C20.3908 12.879 20.4008 12.5786 20.9113 12.5786C21.4219 12.5786 21.4319 12.9291 21.9424 12.9291C22.4529 12.9291 22.4629 12.6988 22.9734 12.6988C23.484 12.6988 23.494 13.3297 24.0045 13.3297C24.515 13.3297 24.525 13.3698 25.0355 13.3698H26.0666C26.5771 13.3698 26.5871 12.6086 27.0976 12.6086C27.6082 12.6086 27.6182 12.7188 28.1287 12.7188C28.6392 12.7188 28.6492 12.6988 29.1598 12.6988C29.6703 12.6988 29.6803 13.49 30.1908 13.49C30.7013 13.49 30.7013 12.5285 31.2219 12.5285C31.7424 12.5285 31.7424 13.0293 32.2529 13.0293C32.7634 13.0293 32.7734 12.6687 33.284 12.6687C33.7945 12.6687 33.8045 13.4599 34.315 13.4599C34.8255 13.4599 34.8355 12.6287 35.3461 12.6287C35.8566 12.6287 35.8566 12.7288 36.3771 12.7288C36.8976 12.7288 36.8876 12.9091 37.4082 12.9091C37.9287 12.9091 37.9187 13.1795 38.4392 13.1795C38.9598 13.1795 38.9497 12.7789 39.4703 12.7789C39.9908 12.7789 39.9808 13.0894 40.5013 13.0894C41.0219 13.0894 41.0118 13.3698 41.5324 13.3698C42.0529 13.3698 42.0429 12.6888 42.5634 12.6888C43.084 12.6888 43.084 13.0894 43.5945 13.0894C44.105 13.0894 44.115 12.9492 44.6255 12.9492C45.1361 12.9492 45.1461 13.48 45.6566 13.48C46.1671 13.48 46.1671 13.2596 46.6876 13.2596C47.2082 13.2596 47.1982 12.5786 47.7187 12.5786C48.2392 12.5786 48.2292 13.2096 48.7497 13.2096C49.2703 13.2096 49.2603 13.3698 49.7808 13.3698C50.3013 13.3698 50.3013 12.6787 50.8118 12.6787C51.3224 12.6787 51.3224 12.6086 51.8329 12.6086C52.3434 12.6086 52.3434 13.3498 52.8539 13.3498C53.3645 13.3498 53.3745 12.6988 53.885 12.6988C54.3955 12.6988 54.4055 13.2696 54.916 13.2696H55.9471C56.4676 13.2696 56.4576 13.3097 56.9781 13.3097C57.4987 13.3097 57.4887 12.9592 58.0092 12.9592C58.5297 12.9592 58.5197 13.3197 59.0402 13.3197C59.5608 13.3197 59.5508 12.6287 60.0713 12.6287C60.5918 12.6287 60.5918 13.2396 61.1023 13.2396C61.6129 13.2396 61.6229 13.0393 62.1334 13.0393C62.6439 13.0393 62.6539 12.5986 63.1644 12.5986C63.675 12.5986 63.685 12.879 64.1955 12.879C64.706 12.879 64.706 13.1895 65.2266 13.1895C65.7471 13.1895 65.7371 13.5 66.2576 13.5C66.7781 13.5 66.7681 13.2396 67.2887 13.2396C67.8092 13.2396 67.7992 13.1094 68.3197 13.1094C68.8402 13.1094 68.8302 13.3698 69.3508 13.3698C69.8713 13.3698 69.8613 12.6086 70.3818 12.6086C70.9024 12.6086 70.8923 12.9992 71.4129 12.9992C71.9334 12.9992 71.9234 13.0493 72.4439 13.0493C72.9645 13.0493 72.9544 13.0092 73.475 13.0092C73.9955 13.0092 73.9855 13.47 74.506 13.47C75.0266 13.47 75.0266 13.0293 75.5371 13.0293C76.0476 13.0293 76.0576 13.3197 76.5681 13.3197C77.0787 13.3197 77.0887 12.5385 77.5992 12.5385C78.1097 12.5385 78.1097 13.5 78.6302 13.5C79.1508 13.5 79.1408 13.3598 79.6613 13.3598C80.1818 13.3598 80.1718 12.7288 80.6923 12.7288C81.2129 12.7288 81.2029 13.1194 81.7234 13.1194C82.2439 13.1194 82.2339 13.3498 82.7544 13.3498C83.275 13.3498 83.265 12.9091 83.7855 12.9091C84.306 12.9091 84.296 12.7789 84.8165 12.7789C85.3371 12.7789 85.3271 12.9291 85.8476 12.9291C86.3681 12.9291 86.3581 13.4599 86.8786 13.4599C87.3992 13.4599 87.3892 13.3898 87.9097 13.3898C88.4302 13.3898 88.4202 13.2897 88.9408 13.2897C89.4613 13.2897 89.4513 12.7589 89.9718 12.7589C90.4923 12.7589 90.4823 12.819 91.0029 12.819C91.5234 12.819 91.5134 13.1394 92.0339 13.1394C92.5544 13.1394 92.5444 13.2696 93.065 13.2696C93.5855 13.2696 93.5755 12.9592 94.096 12.9592C94.6165 12.9592 94.6165 12.5385 95.1271 12.5385C95.6376 12.5385 95.6376 12.7589 96.1581 12.7589C96.6786 12.7589 96.6686 12.5986 97.1892 12.5986C97.7097 12.5986 97.6997 13.2797 98.2202 13.2797C98.7408 13.2797 98.7307 13.0994 99.2513 13.0994C99.7718 13.0994 99.7618 13.0693 100.282 13.0693C100.803 13.0693 100.793 13.0994 101.313 13.0994C101.834 13.0994 101.824 12.9091 102.344 12.9091C102.865 12.9091 102.855 12.9892 103.375 12.9892C103.896 12.9892 103.886 12.9592 104.407 12.9592C104.927 12.9592 104.917 13.2696 105.438 13.2696C105.958 13.2696 105.948 12.9792 106.469 12.9792C106.989 12.9792 106.979 13.2997 107.5 13.2997C108.02 13.2997 108.01 12.7689 108.531 12.7689C109.051 12.7689 109.041 13.3798 109.562 13.3798C110.082 13.3798 110.072 13.0493 110.593 13.0493C111.113 13.0493 111.103 13.2196 111.624 13.2196C112.144 13.2196 112.134 12.7488 112.655 12.7488C113.175 12.7488 113.165 13.0693 113.686 13.0693C114.207 13.0693 114.197 12.6086 114.717 12.6086C115.238 12.6086 115.228 12.9291 115.748 12.9291C116.269 12.9291 116.259 13.2496 116.779 13.2496C117.3 13.2496 117.29 13.4199 117.81 13.4199H118.841C119.362 13.4199 119.352 12.839 119.872 12.839C120.393 12.839 120.383 13.1895 120.903 13.1895C121.424 13.1895 121.414 13.3398 121.934 13.3398C122.455 13.3398 122.445 13.4299 122.965 13.4299C123.486 13.4299 123.476 12.5786 123.997 12.5786C124.517 12.5786 124.507 13.3698 125.028 13.3698C125.548 13.3698 125.538 13.3297 126.059 13.3297C126.579 13.3297 126.569 13.2596 127.09 13.2596C127.61 13.2596 127.6 12.8991 128.121 12.8991C128.641 12.8991 128.631 13.3698 129.152 13.3698C129.672 13.3698 129.662 12.6587 130.183 12.6587C130.703 12.6587 130.693 12.9792 131.214 12.9792C131.734 12.9792 131.724 12.6888 132.245 12.6888C132.765 12.6888 132.765 13.3698 133.276 13.3698C133.786 13.3698 133.787 12.6988 134.297 12.6988C134.808 12.6988 134.808 13.0693 135.318 13.0693C135.829 13.0693 135.829 13.2797 136.339 13.2797C136.85 13.2797 136.85 12.7689 137.36 12.7689C137.871 12.7689 137.871 12.6387 138.381 12.6387C138.892 12.6387 138.892 13.4399 139.402 13.4399C139.913 13.4399 139.913 13.4599 140.423 13.4599C140.934 13.4599 140.934 12.9792 141.444 12.9792C141.955 12.9792 141.955 13.3898 142.465 13.3898C142.976 13.3898 142.976 13.2596 143.486 13.2596C143.997 13.2596 143.997 13.0794 144.507 13.0794C145.018 13.0794 145.018 13.1394 145.528 13.1394H147V0.660246H145.498C144.978 0.660246 144.978 0.710323 144.457 0.710323C143.937 0.710323 143.937 0.590139 143.416 0.590139C142.896 0.590139 142.886 0.730354 142.375 0.730354C141.865 0.730354 141.865 0.650231 141.344 0.650231C140.824 0.650231 140.814 0.530047 140.303 0.530047C139.793 0.530047 139.793 1.32126 139.272 1.32126C138.752 1.32126 138.742 1.27119 138.231 1.27119C137.721 1.27119 137.71 0.580123 137.2 0.580123C136.689 0.580123 136.689 0.85054 136.169 0.85054C135.648 0.85054 135.638 1.32126 135.128 1.32126C134.617 1.32126 134.617 1.46148 134.097 1.46148C133.576 1.46148 133.576 0.840524 133.066 0.840524C132.555 0.840524 132.545 1.45146 132.035 1.45146C131.524 1.45146 131.514 1.12095 131.004 1.12095C130.493 1.12095 130.483 0.710323 129.973 0.710323C129.462 0.710323 129.452 1.12095 128.942 1.12095C128.431 1.12095 128.421 0.940679 127.911 0.940679C127.4 0.940679 127.39 1.13097 126.879 1.13097C126.369 1.13097 126.359 0.970724 125.848 0.970724C125.338 0.970724 125.328 0.660246 124.817 0.660246C124.307 0.660246 124.297 1.06086 123.786 1.06086C123.276 1.06086 123.266 0.580123 122.755 0.580123C122.245 0.580123 122.235 1.23112 121.724 1.23112C121.214 1.23112 121.204 1.38136 120.693 1.38136C120.183 1.38136 120.183 1.24114 119.662 1.24114C119.142 1.24114 119.142 0.620184 118.631 0.620184C118.121 0.620184 118.111 1.07088 117.6 1.07088C117.089 1.07088 117.079 0.700307 116.569 0.700307H115.538C115.027 0.700307 115.027 1.11094 114.507 1.11094C113.986 1.11094 113.996 1.33128 113.476 1.33128C112.955 1.33128 112.965 1.48151 112.445 1.48151C111.924 1.48151 111.934 1.40139 111.414 1.40139C110.893 1.40139 110.903 1.31125 110.383 1.31125C109.862 1.31125 109.872 0.930663 109.352 0.930663C108.831 0.930663 108.841 0.990755 108.321 0.990755C107.8 0.990755 107.8 1.13097 107.289 1.13097H106.258C105.748 1.13097 105.738 1.01079 105.227 1.01079C104.717 1.01079 104.717 1.38136 104.196 1.38136C103.676 1.38136 103.686 1.00077 103.165 1.00077C102.645 1.00077 102.655 1.18105 102.134 1.18105H101.103C100.583 1.18105 100.583 1.50154 100.072 1.50154C99.5616 1.50154 99.5616 0.620184 99.0511 0.620184C98.5406 0.620184 98.5405 0.990755 98.03 0.990755C97.5195 0.990755 97.5095 1.07088 96.999 1.07088C96.4884 1.07088 96.4784 1.34129 95.9679 1.34129C95.4574 1.34129 95.4574 1.20108 94.9369 1.20108C94.4163 1.20108 94.4264 0.920647 93.9058 0.920647C93.3853 0.920647 93.3953 1.19106 92.8748 1.19106C92.3542 1.19106 92.3642 1.32126 91.8437 1.32126C91.3232 1.32126 91.3332 0.970724 90.8127 0.970724C90.2921 0.970724 90.2921 1.17103 89.7816 1.17103C89.2711 1.17103 89.2611 1.10092 88.7506 1.10092C88.24 1.10092 88.23 1.51156 87.7195 1.51156C87.209 1.51156 87.199 1.05085 86.6885 1.05085C86.1779 1.05085 86.1779 1.16102 85.6574 1.16102C85.1369 1.16102 85.1469 0.960708 84.6264 0.960708C84.1058 0.960708 84.1158 0.940679 83.5953 0.940679C83.0748 0.940679 83.0848 1.29122 82.5642 1.29122C82.0437 1.29122 82.0537 0.900616 81.5332 0.900616C81.0127 0.900616 81.0227 1.47149 80.5021 1.47149C79.9816 1.47149 79.9916 1.151 79.4711 1.151C78.9506 1.151 78.9606 0.900616 78.44 0.900616C77.9195 0.900616 77.9295 1.43143 77.409 1.43143C76.8885 1.43143 76.8985 1.11094 76.3779 1.11094H75.3469C74.8364 1.11094 74.8264 0.800462 74.3158 0.800462C73.8053 0.800462 73.7953 1.18105 73.2848 1.18105C72.7743 1.18105 72.7743 1.10092 72.2537 1.10092C71.7332 1.10092 71.7432 0.920647 71.2227 0.920647C70.7021 0.920647 70.7122 1.39137 70.1916 1.39137C69.6711 1.39137 69.6811 1.20108 69.1606 1.20108C68.64 1.20108 68.6501 0.5 68.1295 0.5C67.609 0.5 67.619 0.8906 67.0985 0.8906C66.5779 0.8906 66.5879 1.36133 66.0674 1.36133C65.5469 1.36133 65.5569 1.08089 65.0364 1.08089C64.5158 1.08089 64.5258 1.18105 64.0053 1.18105C63.4848 1.18105 63.4948 0.860555 62.9743 0.860555C62.4537 0.860555 62.4637 0.640215 61.9432 0.640215C61.4227 0.640215 61.4327 0.540061 60.9122 0.540061C60.3916 0.540061 60.4016 0.980739 59.8811 0.980739C59.3606 0.980739 59.3706 1.25116 58.85 1.25116C58.3295 1.25116 58.3395 0.980739 57.819 0.980739C57.2985 0.980739 57.3085 0.570108 56.7879 0.570108C56.2674 0.570108 56.2674 0.770416 55.7569 0.770416C55.2464 0.770416 55.2464 0.540061 54.7258 0.540061C54.2053 0.540061 54.2153 1.11094 53.6948 1.11094C53.1743 1.11094 53.1843 1.01079 52.6637 1.01079C52.1432 1.01079 52.1532 0.830508 51.6327 0.830508C51.1122 0.830508 51.1222 0.920647 50.6016 0.920647C50.0811 0.920647 50.0911 1.18105 49.5706 1.18105C49.05 1.18105 49.0601 0.550076 48.5395 0.550076C48.019 0.550076 48.029 1.17103 47.5085 1.17103C46.9879 1.17103 46.998 0.620184 46.4774 0.620184C45.9569 0.620184 45.9669 1.35131 45.4464 1.35131C44.9258 1.35131 44.9359 0.930663 44.4153 0.930663C43.8948 0.930663 43.9048 1.17103 43.3843 1.17103C42.8637 1.17103 42.8737 0.690293 42.3532 0.690293C41.8327 0.690293 41.8427 1.16102 41.3222 1.16102C40.8016 1.16102 40.8116 1.37134 40.2911 1.37134C39.7706 1.37134 39.7806 1.2812 39.2601 1.2812C38.7395 1.2812 38.7495 0.830508 38.229 0.830508C37.7085 0.830508 37.7185 0.680278 37.198 0.680278C36.6774 0.680278 36.6874 1.07088 36.1669 1.07088C35.6464 1.07088 35.6564 1.151 35.1358 1.151C34.6153 1.151 34.6253 0.990755 34.1048 0.990755C33.5843 0.990755 33.5943 0.930663 33.0737 0.930663C32.5532 0.930663 32.5632 0.680278 32.0427 0.680278C31.5222 0.680278 31.5322 0.770416 31.0116 0.770416C30.4911 0.770416 30.5011 1.2812 29.9806 1.2812C29.4601 1.2812 29.4701 0.730354 28.9495 0.730354C28.429 0.730354 28.439 0.720338 27.9185 0.720338C27.398 0.720338 27.408 1.17103 26.8874 1.17103C26.3669 1.17103 26.3769 1.00077 25.8564 1.00077C25.3359 1.00077 25.3459 1.31125 24.8253 1.31125C24.3048 1.31125 24.3148 0.710323 23.7943 0.710323C23.2737 0.710323 23.2838 1.18105 22.7632 1.18105C22.2427 1.18105 22.2527 1.23112 21.7322 1.23112C21.2116 1.23112 21.2217 0.880585 20.7011 0.880585C20.1806 0.880585 20.1906 1.12095 19.6701 1.12095C19.1495 1.12095 19.1595 0.830508 18.639 0.830508C18.1185 0.830508 18.1185 0.980739 17.608 0.980739C17.0974 0.980739 17.0974 0.700307 16.5869 0.700307C16.0764 0.700307 16.0764 0.830508 15.5659 0.830508H14.5448C14.0343 0.830508 14.0343 1.10092 13.5238 1.10092C13.0133 1.10092 13.0133 1.49153 12.5028 1.49153C11.9922 1.49153 11.9922 1.22111 11.4817 1.22111C10.9712 1.22111 10.9712 0.800462 10.4607 0.800462C9.95015 0.800462 9.95015 1.06086 9.43963 1.06086C8.92911 1.06086 8.92911 0.900616 8.41859 0.900616C7.90807 0.900616 7.90807 0.560092 7.39755 0.560092C6.88703 0.560092 6.88703 0.620184 6.37651 0.620184C5.86599 0.620184 5.86599 0.920647 5.35546 0.920647C4.84494 0.920647 4.84494 1.06086 4.33442 1.06086C3.97405 1.06086 3.61369 0.930663 3.27334 1.0208C2.93299 1.11094 2.44249 1.00077 2.14219 1.18105C1.84188 1.36133 2.02206 2.18259 1.78182 2.43297C1.54157 2.68336 0.720735 2.50308 0.550561 2.80354C0.380388 3.10401 0.520531 3.61479 0.430439 3.9453Z" fill="#BB8C47"/>
</svg>
