<svg width="100" height="100" viewBox="0 0 100 100" fill="none" xmlns="http://www.w3.org/2000/svg">
<mask id="mask0_3594_39763" style="mask-type:alpha" maskUnits="userSpaceOnUse" x="0" y="0" width="100" height="100">
<rect width="100" height="100" fill="#D9D9D9"/>
</mask>
<g mask="url(#mask0_3594_39763)">
<path d="M92 38C92 27.5066 83.4934 19 73 19H36V54H90.5C91.3284 54 92 53.3284 92 52.5V38Z" fill="#F15F5F"/>
<path d="M14 41C14 28.8497 23.8497 19 36 19C48.1503 19 58 28.8497 58 41V50.7184C58 51.4262 57.4262 52 56.7184 52H15.2816C14.5738 52 14 51.4262 14 50.7184V41Z" fill="#6B2121"/>
<rect x="9" y="52" width="48" height="2" rx="1" fill="#F15F5F"/>
<path d="M74 49C74 50.6569 72.6569 52 71 52C69.3431 52 68 50.6569 68 49V9.39648C68 9.17776 68.1778 9 68.3965 9H84C86.2091 9 88 10.7909 88 13C88 15.2091 86.2091 17 84 17H75C74.4477 17 74 17.4477 74 18V49Z" fill="#FA8282"/>
<ellipse cx="73" cy="46" rx="3" ry="4" fill="#292A2B"/>
<mask id="mask1_3594_39763" style="mask-type:alpha" maskUnits="userSpaceOnUse" x="14" y="19" width="44" height="33">
<path d="M14 41C14 28.8497 23.8497 19 36 19C48.1503 19 58 28.8497 58 41V50.7184C58 51.4262 57.4262 52 56.7184 52H15.2816C14.5738 52 14 51.4262 14 50.7184V41Z" fill="#6B2121"/>
</mask>
<g mask="url(#mask1_3594_39763)">
<path opacity="0.4" d="M58.0776 51.9814L58.1704 51.9735C58.3816 51.9345 58.5494 51.7624 58.5762 51.5422L60.2076 38.1318C60.2407 37.8579 60.0453 37.6081 59.7714 37.5747C59.4974 37.5413 59.2478 37.737 59.2142 38.0109L59.1482 38.5502C58.3696 39.3617 56.9532 40.3283 56.0102 40.4008C55.0515 40.4743 54.1638 40.2816 53.6578 40.0899C53.5641 40.0544 53.4659 40.0492 53.3744 40.069L53.0248 39.2751C52.9133 39.0228 52.6186 38.9085 52.3661 39.0197C52.1136 39.1311 51.9995 39.4257 52.1107 39.6783L52.7047 41.0269C51.2926 43.7499 49.3653 44.2205 48.6672 44.1659L47.9476 43.6691C47.7203 43.5127 47.4084 43.5707 47.2517 43.7977C47.0953 44.0251 47.153 44.337 47.3803 44.4936L48.2028 45.0607C48.3785 45.907 48.2221 46.9602 47.8968 48.0073C47.5435 49.1442 47.0191 50.1901 46.6495 50.7963C46.6227 50.8401 46.6057 50.8874 46.5937 50.9347L45.5416 50.9293C45.2657 50.9283 45.0414 51.1512 45.0401 51.4271C45.039 51.7031 45.2617 51.9275 45.5378 51.9286L58.0776 51.9814ZM53.8739 41.2018C54.4786 41.3563 55.2588 41.4603 56.086 41.397C57.0236 41.3251 58.0439 41.0352 58.9299 40.34L58.6886 42.3199C58.3096 42.8505 57.5005 43.7107 56.9156 44.008C56.3928 44.2738 55.8305 44.4794 55.3788 44.6146L53.8739 41.2018ZM49.8575 44.9855C50.8964 44.6564 52.1597 43.8344 53.2049 42.1627L54.5437 45.1979C54.3218 45.5925 53.9492 45.9637 53.5204 46.2819C53.194 46.5241 52.856 46.7178 52.5762 46.858L49.8575 44.9855ZM57.3877 47.5259C57.0976 47.5356 56.7892 47.4545 56.5949 47.3739L55.7836 45.5336C56.2621 45.3847 56.8309 45.1732 57.3688 44.8998C57.7386 44.7118 58.1243 44.4799 58.4594 44.2028L58.1062 47.1052C58.061 47.1409 58.0201 47.1835 57.9884 47.2355C57.874 47.4229 57.6786 47.5161 57.3877 47.5259ZM53.4969 47.4922C53.6987 47.3725 53.91 47.2378 54.1163 47.0847C54.4249 46.8557 54.7404 46.5789 55.0119 46.2595L55.6686 47.7476C55.4429 47.9106 55.2573 48.02 55.1126 48.0899C54.8684 48.2075 54.7896 48.194 54.8437 48.1985C54.7549 48.1911 54.6672 48.208 54.5889 48.2447L53.4969 47.4922ZM47.7213 50.9395C48.0943 50.2664 48.5356 49.3211 48.8518 48.3034C49.0982 47.5103 49.2758 46.6361 49.2708 45.7965L51.8403 47.5663L50.6848 50.9519L47.7213 50.9395ZM57.0985 48.5149C57.2043 48.5247 57.3129 48.5292 57.422 48.5255C57.5897 48.5198 57.7675 48.494 57.9437 48.441L57.7535 50.0009L57.0985 48.5149ZM52.6962 48.1558L54.4607 49.3717C54.535 49.9329 54.406 50.5321 54.165 50.9276C54.1574 50.9401 54.1524 50.9542 54.146 50.9671L51.7409 50.9566L52.6962 48.1558ZM55.618 48.9537C55.7577 48.8821 55.9108 48.7908 56.0783 48.6779L56.4544 49.5308L55.618 48.9537ZM55.2481 50.9718C55.355 50.6916 55.4287 50.3819 55.4611 50.0606L56.793 50.9784L55.2481 50.9718Z" fill="white"/>
<g opacity="0.4">
<path d="M22.0753 14.7916C22.258 14.7749 22.4354 14.8597 22.5372 15.0124C24.8634 18.5016 28.6797 18.7289 30.2754 18.4098C30.4305 18.3788 30.5917 18.423 30.709 18.529C30.8264 18.6349 30.8861 18.7905 30.8712 18.9479C30.4808 23.0478 32.9933 25.8648 34.2676 26.7409C34.4002 26.832 34.481 26.9814 34.4844 27.1422C34.4878 27.3031 34.4129 27.4558 34.2842 27.5524C31.1753 29.8841 30.709 33.7345 30.8712 35.3561C30.8847 35.4928 30.8419 35.6292 30.752 35.7331C30.662 35.8369 30.5329 35.8989 30.3956 35.9049C25.8134 36.1042 23.2283 38.477 22.5421 39.5446C22.453 39.683 22.3013 39.7689 22.1368 39.7741C21.9723 39.7791 21.8152 39.7026 21.7178 39.57C20.6581 38.1249 19.1402 37.2053 17.6456 36.6471C16.1497 36.0886 14.7131 35.9059 13.8682 35.9059C13.7196 35.9058 13.5784 35.8396 13.4835 35.7252C13.3885 35.6108 13.3496 35.4593 13.377 35.3131C13.6546 33.8323 13.1387 32.2399 12.3135 30.8063C11.4932 29.381 10.4075 28.1844 9.66803 27.527C9.55518 27.4267 9.49399 27.2803 9.50104 27.1295C9.50812 26.9787 9.58246 26.839 9.70416 26.7497C11.1533 25.6869 12.0713 24.208 12.628 22.7692C13.1856 21.3275 13.3682 19.9568 13.3682 19.1579C13.3684 18.8893 13.5813 18.6692 13.8497 18.6588C19.0746 18.4578 21.2406 16.0737 21.6612 15.0924L21.6924 15.0319C21.7738 14.8966 21.9155 14.8064 22.0753 14.7916ZM22.1641 16.1969C21.1567 17.5771 18.7285 19.3538 14.3497 19.6334C14.2913 20.5501 14.0694 21.8166 13.5616 23.1295C13.0171 24.5371 12.1355 26.0219 10.7618 27.1852C11.5176 27.9321 12.4453 29.0313 13.1797 30.3073C13.9653 31.6721 14.5619 33.2962 14.4327 34.9284C15.3822 34.9928 16.6696 35.2156 17.9952 35.7106C19.432 36.2472 20.9415 37.1131 22.1094 38.4616C23.2533 37.1287 25.8317 35.2488 29.8477 34.9362C29.806 33.0291 30.4186 29.5573 33.1827 27.1598C31.7399 25.9208 29.7139 23.2235 29.8379 19.4772C27.9016 19.6544 24.5225 19.1721 22.1641 16.1969Z" fill="white"/>
<path d="M22.0137 20.3362C22.1994 20.3196 22.379 20.4078 22.4796 20.5647C23.6114 22.3332 25.4618 22.4424 26.2159 22.2855C26.3711 22.2531 26.5331 22.2971 26.6514 22.4026C26.7694 22.508 26.8308 22.6631 26.8165 22.8206C26.6238 24.9282 27.8661 26.3715 28.4727 26.806C28.6007 26.8976 28.6783 27.0441 28.6817 27.2015C28.685 27.359 28.6135 27.5097 28.4893 27.6067C26.9734 28.7913 26.7354 30.7678 26.8155 31.6019C26.8285 31.7381 26.7851 31.8735 26.6954 31.9769C26.6056 32.0802 26.4777 32.1425 26.3409 32.1487C24.0637 32.2519 22.8006 33.4794 22.4844 33.9915C22.3963 34.1344 22.2421 34.2236 22.0743 34.2288C21.9064 34.2339 21.7472 34.1541 21.6505 34.0169C21.1376 33.2883 20.3983 32.8195 19.6583 32.5315C18.916 32.2428 18.2056 32.1488 17.7999 32.1487C17.6519 32.1487 17.5111 32.0835 17.4161 31.97C17.3211 31.8564 17.2815 31.7066 17.3077 31.5608C17.4381 30.8362 17.1966 30.0343 16.7823 29.2845C16.3721 28.5422 15.8285 27.9179 15.463 27.5794C15.3547 27.4792 15.2968 27.3361 15.3038 27.1888C15.3108 27.0414 15.3819 26.9043 15.4991 26.8147C16.2007 26.2788 16.654 25.5265 16.9317 24.7786C17.21 24.0292 17.2998 23.3184 17.2999 22.9144C17.2999 22.646 17.5112 22.4251 17.7794 22.4144C20.3982 22.3094 21.4208 21.0716 21.5968 20.6438L21.627 20.5823C21.7078 20.4438 21.8513 20.3509 22.0137 20.3362ZM22.0831 21.7015C21.4543 22.4259 20.2365 23.2058 18.2745 23.3831C18.2268 23.8722 18.1055 24.4898 17.8692 25.1263C17.6025 25.8446 17.1795 26.6096 16.5313 27.2405C16.9001 27.6444 17.3181 28.1854 17.6583 28.8011C18.0404 29.4928 18.3497 30.3245 18.3419 31.1829C18.8228 31.2374 19.4149 31.3633 20.0206 31.5989C20.716 31.8694 21.4511 32.2924 22.0548 32.9349C22.7268 32.2301 23.9782 31.3915 25.8048 31.1878C25.8278 30.1383 26.1717 28.4636 27.4249 27.2151C26.6961 26.4867 25.8187 25.1405 25.7969 23.3313C24.7697 23.3608 23.2407 23.0424 22.0831 21.7015Z" fill="white"/>
<path d="M21.6211 42.5V18C21.6211 17.7239 21.845 17.5 22.1211 17.5C22.3972 17.5 22.6211 17.7239 22.6211 18V42.5L22.6113 42.6006C22.5648 42.8286 22.3628 43 22.1211 43C21.8794 43 21.6774 42.8286 21.6309 42.6006L21.6211 42.5Z" fill="white"/>
<path d="M37.3735 27.9106L12.8735 27.9106C12.5974 27.9106 12.3735 27.6868 12.3735 27.4106C12.3735 27.1345 12.5974 26.9106 12.8735 26.9106L37.3735 26.9106L37.4741 26.9204C37.7021 26.9669 37.8735 27.1689 37.8735 27.4106C37.8735 27.6524 37.7021 27.8544 37.4741 27.9009L37.3735 27.9106Z" fill="white"/>
<path d="M34.4483 15.7942L10.7222 39.5202C10.5269 39.7155 10.2104 39.7155 10.0151 39.5202C9.81984 39.325 9.81984 39.0084 10.0151 38.8131L33.7412 15.0871C33.9364 14.8918 34.253 14.8918 34.4483 15.0871C34.6435 15.2823 34.6435 15.5989 34.4483 15.7942Z" fill="white"/>
<path d="M10.7226 15.0835L34.4487 38.8095C34.644 39.0048 34.644 39.3214 34.4487 39.5166C34.2534 39.7119 33.9368 39.7119 33.7416 39.5166L10.0155 15.7906C9.82027 15.5953 9.82027 15.2787 10.0155 15.0835C10.2108 14.8882 10.5274 14.8882 10.7226 15.0835Z" fill="white"/>
</g>
</g>
<path d="M74.561 74C76.6454 74 78.4464 75.2023 79.3006 76.9461C79.8751 76.7327 80.4969 76.6154 81.1463 76.6154C83.6723 76.6154 85.781 78.3808 86.2937 80.7364C86.7509 80.6079 87.2331 80.5385 87.7317 80.5385C90.6413 80.5385 93 82.8804 93 85.7692C93 88.6581 90.6413 91 87.7317 91H44.2683C41.3587 91 39 88.6581 39 85.7692C39 82.8804 41.3587 80.5385 44.2683 80.5385C44.8908 80.5385 45.4876 80.6469 46.042 80.8437C46.6145 79.8793 47.6689 79.2308 48.878 79.2308C49.2152 79.2308 49.5403 79.2816 49.8466 79.3751C50.7926 78.4761 52.0749 77.9231 53.4878 77.9231C53.5429 77.9231 53.5978 77.9252 53.6524 77.9269C54.2359 75.6689 56.2999 74 58.7561 74C60.4055 74 61.8777 74.7527 62.8437 75.9309C63.5869 75.5329 64.4378 75.3077 65.3415 75.3077C67.0931 75.3077 68.6435 76.1575 69.6014 77.4633C70.3314 75.4442 72.2762 74 74.561 74Z" fill="#55C463"/>
<rect x="52" y="54" width="6" height="37" fill="#593B12"/>
<path d="M26.8049 73C24.5661 73 22.6317 74.273 21.7141 76.1194C21.0971 75.8935 20.4293 75.7692 19.7317 75.7692C17.0187 75.7692 14.7538 77.6385 14.203 80.1327C13.712 79.9966 13.1941 79.9231 12.6585 79.9231C9.53341 79.9231 7 82.4027 7 85.4615C7 88.5203 9.53341 91 12.6585 91H59.3415C62.4666 91 65 88.5203 65 85.4615C65 82.4027 62.4666 79.9231 59.3415 79.9231C58.6729 79.9231 58.0318 80.0379 57.4364 80.2462C56.8214 79.2251 55.6889 78.5385 54.3902 78.5385C54.0281 78.5385 53.6789 78.5923 53.35 78.6913C52.3338 77.7394 50.9566 77.1538 49.439 77.1538C49.3799 77.1538 49.3209 77.1561 49.2622 77.1579C48.6355 74.767 46.4187 73 43.7805 73C42.0089 73 40.4277 73.797 39.3902 75.0445C38.5919 74.623 37.6779 74.3846 36.7073 74.3846C34.826 74.3846 33.1607 75.2844 32.1319 76.6671C31.3478 74.5292 29.2589 73 26.8049 73Z" fill="#228E30"/>
</g>
</svg>
