<svg width="24" height="24" viewBox="0 0 24 24" fill="currentColor" xmlns="http://www.w3.org/2000/svg">
<path d="M12.0005 4.99951C16.4185 4.99978 20.0005 8.58237 20.0005 13.0005C20.0002 17.4184 16.4184 21.0002 12.0005 21.0005C7.58237 21.0005 3.99978 17.4185 3.99951 13.0005C3.99951 8.58221 7.58221 4.99951 12.0005 4.99951ZM12.0073 8.50049C11.5164 8.50049 11.1187 8.89824 11.1187 9.38916V13.3892C11.1187 13.7066 11.288 14 11.563 14.1587L15.1187 16.2114L15.1987 16.2524C15.6097 16.4374 16.1023 16.2848 16.3325 15.8862C16.5626 15.4877 16.4489 14.9847 16.0835 14.7212L16.0073 14.6724L12.896 12.8755V9.38916C12.896 8.89825 12.4982 8.5005 12.0073 8.50049Z"/>
<path d="M4.30022 19.0942C3.90969 19.4847 3.90969 20.1179 4.30022 20.5084C4.69074 20.8989 5.32391 20.8989 5.71443 20.5084L4.30022 19.0942ZM5.00732 19.8013L5.71443 20.5084L7.71443 18.5084L7.00732 17.8013L6.30022 17.0942L4.30022 19.0942L5.00732 19.8013Z" />
<path d="M19.7144 19.0942C20.105 19.4847 20.105 20.1179 19.7144 20.5084C19.3239 20.8989 18.6907 20.8989 18.3002 20.5084L19.7144 19.0942ZM19.0073 19.8013L18.3002 20.5084L16.3002 18.5084L17.0073 17.8013L17.7144 17.0942L19.7144 19.0942L19.0073 19.8013Z" />
<path d="M3.62868 4.0486C2.57705 5.10023 2.46939 6.73837 3.30569 7.91009C3.46611 8.13485 3.78697 8.13295 3.98223 7.93769L7.51777 4.40215C7.71303 4.20689 7.71493 3.88603 7.49017 3.72561C6.31844 2.88931 4.68031 2.99697 3.62868 4.0486Z"/>
<path d="M20.3813 4.0486C21.433 5.10023 21.5406 6.73837 20.7043 7.91009C20.5439 8.13485 20.223 8.13295 20.0278 7.93769L16.4922 4.40215C16.297 4.20689 16.2951 3.88603 16.5198 3.72561C17.6916 2.88931 19.3297 2.99697 20.3813 4.0486Z"/>
</svg>
