<svg width="24" height="24" viewBox="0 0 24 24" fill="currentColor" xmlns="http://www.w3.org/2000/svg">
<path d="M10.8457 3.81667C11.5377 3.32739 12.4623 3.32739 13.1543 3.81667L20.1543 8.76589C20.6844 9.14074 21 9.74942 21 10.3987V19.9993C21 21.1039 20.1046 21.9993 19 21.9993H5C3.89543 21.9993 3 21.1039 3 19.9993V10.3987C3 9.74942 3.31556 9.14074 3.8457 8.76589L10.8457 3.81667ZM9.03027 9.01003C8.39075 9.13005 7.95121 10.5749 7.76465 11.5022C7.74997 11.5756 7.72887 11.6528 7.67188 11.7013C6.63647 12.5823 6.00009 13.779 6 15.0969C6.0001 17.8046 8.68636 20.0003 12 20.0003C15.3136 20.0003 17.9999 17.8046 18 15.0969C17.9999 13.7497 17.3341 12.5301 16.2577 11.644C16.222 11.6146 16.197 11.5744 16.1871 11.5293C15.9845 10.6049 15.5613 9.31293 14.958 9.19948C14.4488 9.1042 13.7903 9.66653 13.3038 10.2123C13.2572 10.2646 13.1873 10.2897 13.1181 10.2791C12.7558 10.2234 12.3821 10.1946 12 10.1946C11.6637 10.1946 11.334 10.2178 11.0128 10.2613C10.9425 10.2709 10.8723 10.2437 10.8267 10.1893C10.3333 9.59932 9.59113 8.90553 9.03027 9.01003Z"/>
</svg>
