<svg width="24" height="24" viewBox="0 0 24 24" fill="currentColor" xmlns="http://www.w3.org/2000/svg">
<path d="M7.29731 3.01738C8.2302 2.83698 9.47944 4.09816 10.2568 5.09053C10.8219 5.002 11.4045 4.9548 12 4.9548C12.6674 4.9548 13.3188 5.01245 13.9473 5.12303C14.7265 4.1894 15.836 3.16161 16.6841 3.3261C17.6636 3.51644 18.3429 5.73451 18.6537 7.25257C20.4098 8.7083 21.4999 10.7347 21.5 12.9769C21.5 17.4078 17.2467 21 12 21C6.75329 21 2.5 17.4078 2.5 12.9769C2.50014 10.756 3.56847 8.74534 5.29526 7.29272C5.28215 7.22966 5.28123 7.16251 5.29434 7.09486C5.58972 5.57743 6.28474 3.21376 7.29731 3.01738Z"/>
</svg>
