<svg width="24" height="24" viewBox="0 0 24 24" fill="currentColor" xmlns="http://www.w3.org/2000/svg">
<path d="M10.5186 6C11.8165 6.00001 14.896 6.4615 17.2354 8.2666C17.4096 8.40104 17.6639 8.36771 17.8066 8.2002C18.3589 7.55192 19.3902 6.69927 20.5186 6.8418C21.4445 7.05232 22 7.67716 22 10.8418C22 13.8774 21.3157 16.524 18.6309 14.8545C18.4478 14.7406 18.2022 14.7889 18.0762 14.9639C17.1302 16.2776 14.9475 18 10.5186 18C8.11116 17.9298 2.00006 16.3158 2 12.5264C2 10.3509 3.70374 6 10.5186 6ZM7.32324 8.52051C7.15566 8.3566 6.88818 8.34296 6.7041 8.49609C6.51993 8.64957 6.4849 8.91582 6.61621 9.11035L6.64453 9.14844L6.71875 9.24219C7.4625 10.2185 8.07931 12.3241 6.73926 14.8477L6.59863 15.1016C6.47085 15.323 6.54715 15.6065 6.76855 15.7344C6.98997 15.8621 7.27354 15.7859 7.40137 15.5645L7.48145 15.4219C9.08685 12.5231 8.43585 9.96487 7.45312 8.67773L7.35547 8.55566L7.32324 8.52051ZM19.7119 11.9121L18.416 12.0977C18.1629 12.1339 17.9873 12.368 18.0234 12.6211C18.0596 12.8742 18.2938 13.0498 18.5469 13.0137L19.8438 12.8291L19.8896 12.8193C20.1173 12.7628 20.2702 12.5419 20.2363 12.3047C20.2023 12.0676 19.9941 11.8988 19.7598 11.9082L19.7119 11.9121ZM4.77734 11.4443C4.47074 11.4445 4.22273 11.6934 4.22266 12C4.22266 12.3067 4.47069 12.5555 4.77734 12.5557C5.08417 12.5557 5.33301 12.3068 5.33301 12C5.33293 11.6932 5.08412 11.4443 4.77734 11.4443ZM19.5273 10.2451L18.2305 10.4307C17.9776 10.4669 17.8019 10.7012 17.8379 10.9541C17.874 11.2071 18.1083 11.3827 18.3613 11.3467L19.6582 11.1621L19.7051 11.1533C19.9325 11.0967 20.0844 10.8757 20.0508 10.6387C20.0169 10.4014 19.8087 10.2316 19.5742 10.2412L19.5273 10.2451Z"/>
</svg>
