<svg width="24" height="24" viewBox="0 0 24 24" fill="currentColor" xmlns="http://www.w3.org/2000/svg">
<path d="M16.4658 3.99996C17.1909 3.99381 17.9106 4.12902 18.583 4.39742C19.2554 4.66585 19.8686 5.06268 20.3848 5.56636C20.9008 6.06997 21.3101 6.67053 21.5879 7.33296C21.8657 7.99567 22.0064 8.70728 22 9.42476C21.9936 10.1421 21.8403 10.8511 21.5508 11.5087C21.2636 12.1609 20.8471 12.749 20.3281 13.2412L20.3291 13.2421L12.6699 20.7158C12.2815 21.0944 11.6618 21.0946 11.2734 20.7158L3.61523 13.2421C2.58417 12.2358 2.00012 10.8654 2 9.4316C2 7.99769 2.58417 6.62749 3.61523 5.62105C4.64582 4.61587 6.0385 4.05468 7.48535 4.05464C8.93219 4.05464 10.3249 4.61496 11.3555 5.62007L11.9717 6.22066L12.5889 5.62007C13.0935 5.1137 13.6945 4.71102 14.3564 4.43355C15.024 4.15377 15.7408 4.00614 16.4658 3.99996ZM13.0459 8.24996C12.7557 8.24998 12.496 8.41719 12.3721 8.67183L12.3271 8.78609L11.2598 12.371L10.6689 10.3857C10.5852 10.1048 10.3449 9.89843 10.0547 9.85738C9.80065 9.82146 9.54887 9.91832 9.38379 10.1084L9.31836 10.1953L8.25684 11.8496H6C5.58598 11.8496 5.25032 12.1856 5.25 12.5996C5.25 13.0138 5.58579 13.3496 6 13.3496H8.66699C8.92232 13.3495 9.15998 13.2198 9.29785 13.0048L9.69727 12.3818L10.541 15.2138L10.585 15.3281C10.7088 15.583 10.9693 15.75 11.2598 15.75C11.5915 15.7499 11.8839 15.5318 11.9785 15.2138L13.0449 11.6279L13.875 14.414C13.9696 14.7319 14.2621 14.95 14.5938 14.9502C14.9255 14.9502 15.2178 14.7319 15.3125 14.414L15.6299 13.3496H18L18.0771 13.3457C18.4551 13.307 18.75 12.9877 18.75 12.5996C18.7497 12.2117 18.4549 11.8921 18.0771 11.8535L18 11.8496H15.0703C14.939 11.8496 14.8142 11.8852 14.7051 11.9462L13.7646 8.78609C13.6699 8.4682 13.3776 8.24996 13.0459 8.24996Z"/>
</svg>
