<svg width="24" height="24" viewBox="0 0 24 24" fill="currentColor" xmlns="http://www.w3.org/2000/svg">

<g mask="url(#mask0_975_3578)">

<g mask="url(#mask1_975_3578)">
<mask id="mask2_975_3578" style="mask-type:alpha" maskUnits="userSpaceOnUse" x="2" y="2" width="20" height="20">
<path d="M2 2H22V22H2V2Z" fill="#484A4C"/>
<path d="M2 2H22V22H2V2Z" fill="#484A4C"/>
</mask>
<g mask="url(#mask2_975_3578)">
<path d="M16.4658 3.99976C17.1908 3.99361 17.9107 4.12885 18.583 4.39722C19.2553 4.66562 19.8686 5.06257 20.3848 5.56616C20.9008 6.0697 21.3101 6.67044 21.5879 7.33276C21.8657 7.99536 22.0063 8.70719 22 9.42456C21.9936 10.1419 21.8402 10.8509 21.5508 11.5085C21.2636 12.1607 20.847 12.7488 20.3281 13.241L20.3291 13.2419L12.6699 20.7156C12.2815 21.0943 11.6618 21.0945 11.2734 20.7156L3.61523 13.2419C2.58427 12.2356 2.00009 10.8652 2 9.4314C2.00011 7.99762 2.58424 6.6272 3.61523 5.62085C4.6458 4.6158 6.03859 4.05448 7.48535 4.05444C8.93209 4.05444 10.3249 4.61488 11.3555 5.61987L11.9717 6.22046L12.5889 5.61987C13.0935 5.11358 13.6945 4.71079 14.3564 4.43335C15.0239 4.15361 15.7409 4.00594 16.4658 3.99976ZM16.4385 9.22534C16.1011 8.91374 15.5665 8.9265 15.2451 9.25366L11.5693 12.9958L9.1543 10.5369L9.0918 10.4792C8.76715 10.2097 8.27816 10.2167 7.96191 10.5085C7.64567 10.8007 7.61403 11.2747 7.87598 11.6023L7.93262 11.6658L10.959 14.7458C11.1181 14.9078 11.3387 14.9997 11.5693 14.9998C11.8002 14.9998 12.0214 14.9079 12.1807 14.7458L16.4668 10.3826C16.7881 10.0554 16.7759 9.537 16.4385 9.22534Z"/>
</g>
</g>
</g>
</svg>
