<svg width="24" height="24" viewBox="0 0 24 24" fill="none" xmlns="http://www.w3.org/2000/svg">
<mask id="mask0_1048_3114" style="mask-type:alpha" maskUnits="userSpaceOnUse" x="0" y="0" width="24" height="24">
<rect width="24" height="24" fill="#484A4C"/>
</mask>
<g mask="url(#mask0_1048_3114)">
<mask id="mask1_1048_3114" style="mask-type:alpha" maskUnits="userSpaceOnUse" x="2" y="2" width="20" height="20">
<path d="M2 2H22V22H2V2Z" fill="#484A4C"/>
<path d="M2 2H22V22H2V2Z" fill="#484A4C"/>
</mask>
<g mask="url(#mask1_1048_3114)">
<path d="M14.8816 6.01172C15.765 6.10469 16.4467 6.75734 16.658 7.57617C16.9742 7.79758 17.2354 8.08804 17.4285 8.42285C17.9206 8.59391 18.3631 8.86684 18.7322 9.21582L18.9236 9.41016L18.9246 9.41211C19.189 9.70259 19.2711 10.0779 19.197 10.4199C19.8372 10.7324 20.3348 11.3178 20.4548 12.085L20.9753 15.4189C21.2034 16.8801 19.9722 18 18.6335 18H5.36987C4.03163 17.9998 2.80004 16.8801 3.02808 15.4189L3.54858 12.085C3.66853 11.3185 4.16574 10.7326 4.80542 10.4199C4.73127 10.0769 4.81601 9.70106 5.08081 9.41113V9.41016C5.1156 9.37209 5.15287 9.33641 5.18921 9.2998C5.37722 8.24525 6.17457 7.37658 7.23315 7.16211C7.89208 6.45412 8.82534 6.00008 9.8728 6L10.199 6.01465C10.7108 6.06162 11.1894 6.22029 11.616 6.45996C12.0273 6.17422 12.5246 6 13.0671 6L13.2351 6.00586C13.4703 6.02134 13.6972 6.06983 13.9119 6.14551C14.1438 6.05243 14.3976 6.00003 14.6638 6L14.8816 6.01172Z" fill="#593B12" stroke="white" stroke-width="2"/>
<path d="M4.53693 12.1039C4.63322 11.4705 5.21048 11 5.89136 11H18.1121C18.7929 11 19.3702 11.4705 19.4665 12.1039L19.9877 15.5325C20.1054 16.307 19.4659 17 18.6333 17H5.37015C4.53754 17 3.89797 16.307 4.01572 15.5325L4.53693 12.1039Z" fill="#F15F5F"/>
<path d="M14.5685 7C15.1355 7 15.5952 7.44772 15.5952 8C15.5952 8.05066 15.628 8.09724 15.6815 8.11929C16.0612 8.27581 16.3628 8.57588 16.5144 8.95027C16.536 9.00365 16.5878 9.04447 16.6521 9.05799C17.1629 9.16541 17.6163 9.42134 17.9641 9.77645C18.0539 9.86816 17.9722 10 17.8321 10H6.17129C6.03124 10 5.94954 9.86825 6.0393 9.77658C6.13582 9.67799 6.24051 9.58713 6.35253 9.50484C6.35418 9.50363 6.35513 9.50186 6.35513 9.5C6.35513 8.67157 7.04462 8 7.89514 8C7.89702 8 7.89877 7.99919 7.89981 7.99785C8.36824 7.3927 9.11044 7 9.94849 7C10.5565 7 11.1137 7.20732 11.5531 7.55177C11.6418 7.6213 11.787 7.60668 11.8593 7.52449C12.1417 7.20353 12.5605 7 13.0285 7C13.2926 7 13.5414 7.06455 13.7586 7.17859C13.8343 7.21832 13.9326 7.21202 14.0035 7.16623C14.1655 7.06145 14.3594 7 14.5685 7Z" fill="#99661F"/>
</g>
</g>
</svg>
