<svg width="24" height="24" viewBox="0 0 24 24" fill="none" xmlns="http://www.w3.org/2000/svg">
<mask id="mask0_2141_32462" style="mask-type:alpha" maskUnits="userSpaceOnUse" x="0" y="0" width="24" height="24">
<rect width="24" height="24" fill="#484A4C"/>
</mask>
<g mask="url(#mask0_2141_32462)">
<mask id="mask1_2141_32462" style="mask-type:alpha" maskUnits="userSpaceOnUse" x="2" y="2" width="20" height="20">
<path d="M2 2H22V22H2V2Z" fill="#484A4C"/>
<path d="M2 2H22V22H2V2Z" fill="#484A4C"/>
</mask>
<g mask="url(#mask1_2141_32462)">
<path d="M18.2227 6C19.7096 6.00023 21 7.15975 21 8.69238V16.3076C21 17.8402 19.7096 18.9998 18.2227 19H5.77734C4.2904 18.9998 3 17.8402 3 16.3076V8.69238C3 7.15975 4.2904 6.00023 5.77734 6H18.2227Z" fill="#FFD3F8" stroke="white" stroke-width="2"/>
<path d="M13.3933 12.5041C12.6517 11.832 11.3483 11.832 10.6067 12.5041L5.0949 17.5C4.88118 17.6938 5.05186 18 5.37356 18L18.6264 18C18.9481 18 19.1188 17.6938 18.9051 17.5L13.3933 12.5041Z" fill="#FFAFF3"/>
<path d="M13.3933 12.4959C12.6517 13.168 11.3483 13.168 10.6067 12.4959L5.0949 7.49996C4.88118 7.30624 5.05186 7 5.37356 7L18.6264 7C18.9481 7 19.1188 7.30624 18.9051 7.49996L13.3933 12.4959Z" fill="#FF92EF"/>
<path d="M13.3397 10.0001C13.5572 9.99825 13.7731 10.038 13.9749 10.117C14.1766 10.1959 14.3605 10.3126 14.5154 10.4608C14.6702 10.6089 14.793 10.7855 14.8763 10.9803C14.9597 11.1753 15.0019 11.3845 14.9999 11.5956C14.998 11.8066 14.952 12.0151 14.8652 12.2085C14.779 12.4003 14.6541 12.5733 14.4984 12.718L12.2009 14.9164C12.0844 15.0278 11.8985 15.0279 11.782 14.9164L9.48457 12.7183C9.17524 12.4223 9.00003 12.0193 9 11.5976C9 11.1758 9.17524 10.7729 9.48457 10.4768C9.79374 10.1812 10.2115 10.0162 10.6456 10.0161C11.0796 10.0161 11.4974 10.1809 11.8066 10.4766L11.9915 10.6532L12.1766 10.4766C12.328 10.3276 12.5083 10.2092 12.7069 10.1276C12.9071 10.0453 13.1222 10.0019 13.3397 10.0001Z" fill="#F15F5F"/>
<path d="M14.25 11.5C14.25 11.1815 14.1225 11.007 13.9785 10.9033C13.8218 10.7905 13.6266 10.75 13.5 10.75C13.3619 10.75 13.25 10.6381 13.25 10.5C13.25 10.3619 13.3619 10.25 13.5 10.25C13.7067 10.25 14.0115 10.3099 14.2715 10.4971C14.5441 10.6934 14.75 11.0187 14.75 11.5C14.75 11.6381 14.6381 11.75 14.5 11.75C14.3619 11.75 14.25 11.6381 14.25 11.5Z" fill="white"/>
</g>
</g>
</svg>
