<svg width="24" height="24" viewBox="0 0 24 24" fill="none" xmlns="http://www.w3.org/2000/svg">
<mask id="mask0_2141_32462" style="mask-type:alpha" maskUnits="userSpaceOnUse" x="0" y="0" width="24" height="24">
<rect width="24" height="24" fill="#484A4C"/>
</mask>
<g mask="url(#mask0_2141_32462)">
<mask id="mask1_2141_32462" style="mask-type:alpha" maskUnits="userSpaceOnUse" x="0" y="0" width="24" height="24">
<path d="M0 0H24V24H0V0Z" fill="#484A4C"/>
<path d="M0 0H24V24H0V0Z" fill="#484A4C"/>
</mask>
<g mask="url(#mask1_2141_32462)">
<path d="M3.2002 8.06149C3.2002 7.03339 4.07573 6.19995 5.15575 6.19995H18.8446C19.9247 6.19995 20.8002 7.03339 20.8002 8.06149V16.4384C20.8002 17.4665 19.9247 18.3 18.8446 18.3H5.15575C4.07573 18.3 3.2002 17.4665 3.2002 16.4384V8.06149Z" fill="#FFD3F8"/>
<path d="M3.2 16.4384C3.2 17.4663 4.07527 18.2998 5.15508 18.3H18.8449L19.0447 18.2903C20.0307 18.1949 20.8 17.4021 20.8 16.4384V8.06162C20.8 7.09789 20.0307 6.30515 19.0447 6.20967L18.8449 6.2V4C21.0364 4.00025 23 5.71778 23 8.06162V16.4384C23 18.7822 21.0364 20.4997 18.8449 20.5H5.15508C2.96362 20.4997 1 18.7822 1 16.4384V8.06162C1 5.71778 2.96362 4.00025 5.15508 4V6.2C4.07527 6.20025 3.2 7.03367 3.2 8.06162V16.4384ZM18.8449 4V6.2H5.15508V4H18.8449Z" fill="white"/>
<path d="M13.5326 12.2454C12.7169 12.9848 11.283 12.9848 10.4673 12.2454L4.85002 6.74991C4.29987 6.19995 4.80267 6.19995 5.15654 6.19995L18.8433 6.19995C19.1971 6.19995 19.8041 6.19995 19.1498 6.74991L13.5326 12.2454Z" fill="#FF92EF"/>
<path d="M13.5326 12.2546C12.7169 11.5152 11.283 11.5152 10.4673 12.2546L4.85002 17.7501C4.29987 18.3 4.80267 18.3 5.15654 18.3L18.8433 18.3C19.1971 18.3 19.8041 18.3 19.1498 17.7501L13.5326 12.2546Z" fill="#FF92EF"/>
<path d="M13.4739 9.50006C13.7131 9.49808 13.9507 9.54182 14.1725 9.62865C14.3944 9.7155 14.5968 9.84388 14.7671 10.0068C14.9374 10.1698 15.0725 10.3641 15.1641 10.5784C15.2558 10.7928 15.3022 11.023 15.3001 11.2551C15.298 11.4872 15.2474 11.7166 15.1519 11.9294C15.0571 12.1404 14.9197 12.3306 14.7484 12.4898L12.2212 14.9081C12.093 15.0306 11.8886 15.0307 11.7604 14.9081L9.23322 12.4902C8.89296 12.1646 8.70023 11.7212 8.7002 11.2573C8.7002 10.7934 8.89296 10.3501 9.23322 10.0245C9.57331 9.69933 10.0329 9.51777 10.5103 9.51776C10.9878 9.51776 11.4474 9.69903 11.7875 10.0242L11.9908 10.2185L12.1945 10.0242C12.361 9.86039 12.5593 9.73011 12.7778 9.64034C12.9981 9.54983 13.2346 9.50206 13.4739 9.50006Z" fill="#F15F5F"/>
<path d="M14.4745 11.1497C14.4745 10.7993 14.3342 10.6073 14.1759 10.4933C14.0035 10.3692 13.7888 10.3247 13.6495 10.3247C13.4976 10.3247 13.3745 10.2015 13.3745 10.0497C13.3745 9.89778 13.4976 9.77466 13.6495 9.77466C13.8769 9.77466 14.2122 9.84055 14.4981 10.0464C14.798 10.2624 15.0245 10.6202 15.0245 11.1497C15.0245 11.3015 14.9014 11.4247 14.7495 11.4247C14.5976 11.4247 14.4745 11.3015 14.4745 11.1497Z" fill="white"/>
</g>
</g>
</svg>
