<svg width="24" height="24" viewBox="0 0 24 24" fill="none" xmlns="http://www.w3.org/2000/svg">
<mask id="mask0_1190_3105" style="mask-type:alpha" maskUnits="userSpaceOnUse" x="0" y="0" width="24" height="24">
<rect width="24" height="24" fill="#D9D9D9"/>
</mask>
<g mask="url(#mask0_1190_3105)">
<mask id="mask1_1190_3105" style="mask-type:alpha" maskUnits="userSpaceOnUse" x="2" y="2" width="20" height="20">
<rect x="2" y="2" width="20" height="20" fill="#D9D9D9"/>
</mask>
<g mask="url(#mask1_1190_3105)">
<path d="M3.42847 7.78585C3.42847 6.2079 4.70765 4.92871 6.28561 4.92871H17.7142C19.2921 4.92871 20.5713 6.2079 20.5713 7.78585V16.3573C20.5713 17.9352 19.2921 19.2144 17.7142 19.2144H6.28561C4.70765 19.2144 3.42847 17.9352 3.42847 16.3573V7.78585Z" fill="#FFDB58"/>
<path d="M2 16.3571V7.78571C2 5.41878 3.91878 3.5 6.28571 3.5V4.92857L6.13876 4.93229C4.6291 5.00878 3.42857 6.25704 3.42857 7.78571V16.3571L3.43229 16.5041C3.50631 17.9651 4.67777 19.1365 6.13876 19.2106L6.28571 19.2143H17.7143L17.8612 19.2106C19.3222 19.1365 20.4937 17.9651 20.5677 16.5041L20.5714 16.3571V7.78571C20.5714 6.25704 19.3709 5.00878 17.8612 4.93229L17.7143 4.92857V3.5C20.0812 3.5 22 5.41878 22 7.78571V16.3571C22 18.7241 20.0812 20.6429 17.7143 20.6429H6.28571C3.91878 20.6429 2 18.7241 2 16.3571ZM17.7143 3.5V4.92857H6.28571V3.5H17.7143Z" fill="white"/>
<path d="M3.42847 8.73828H20.5713V16.3573C20.5713 17.9353 19.2921 19.2145 17.7142 19.2145H6.28561C4.70765 19.2145 3.42847 17.9353 3.42847 16.3573V8.73828Z" fill="#FFDB58"/>
<path d="M3.42847 7.78585C3.42847 6.2079 4.70765 4.92871 6.28561 4.92871H17.7142C19.2921 4.92871 20.5713 6.2079 20.5713 7.78585V10.643H3.42847V7.78585Z" fill="#FF4747"/>
<mask id="mask2_1190_3105" style="mask-type:alpha" maskUnits="userSpaceOnUse" x="3" y="4" width="18" height="7">
<path d="M3.42847 7.78585C3.42847 6.2079 4.70765 4.92871 6.28561 4.92871H17.7142C19.2921 4.92871 20.5713 6.2079 20.5713 7.78585V9.69062C20.5713 10.2166 20.1449 10.643 19.6189 10.643H4.38085C3.85486 10.643 3.42847 10.2166 3.42847 9.69062V7.78585Z" fill="#FF8E8E"/>
</mask>
<g mask="url(#mask2_1190_3105)">
<path d="M10.5715 3.02393H13.4287V12.5477H10.5715V3.02393Z" fill="white"/>
<path d="M15.8093 3.02393H18.6665V12.5477H15.8093V3.02393Z" fill="white"/>
<path d="M5.33325 3.02393H8.19039V12.5477H5.33325V3.02393Z" fill="white"/>
</g>
<path d="M7.23828 16.3571C7.23828 14.7792 8.51747 13.5 10.0954 13.5C11.6734 13.5 12.9526 14.7792 12.9526 16.3571V19.2143H7.23828V16.3571Z" fill="#BEA139"/>
<path d="M4.38085 11.5954C4.90683 11.5954 5.33323 11.1691 5.33323 10.6431H3.42847C3.42847 11.1691 3.85486 11.5954 4.38085 11.5954Z" fill="#FF4747"/>
<path d="M19.6191 11.5954C20.1451 11.5954 20.5715 11.1691 20.5715 10.6431H18.6667C18.6667 11.1691 19.0931 11.5954 19.6191 11.5954Z" fill="#FF4747"/>
<path d="M9.38115 11.5954C10.0386 11.5954 10.5716 11.1691 10.5716 10.6431H8.19067C8.19067 11.1691 8.72367 11.5954 9.38115 11.5954Z" fill="#FF4747"/>
<path d="M14.6189 11.5954C15.2764 11.5954 15.8094 11.1691 15.8094 10.6431H13.4285C13.4285 11.1691 13.9615 11.5954 14.6189 11.5954Z" fill="#FF4747"/>
<path d="M6.76182 11.5954C7.5508 11.5954 8.19039 11.1691 8.19039 10.6431H5.33325C5.33325 11.1691 5.97285 11.5954 6.76182 11.5954Z" fill="white"/>
<path d="M12.0001 11.5954C12.7891 11.5954 13.4287 11.1691 13.4287 10.6431H10.5715C10.5715 11.1691 11.2111 11.5954 12.0001 11.5954Z" fill="white"/>
<path d="M17.2379 11.5954C18.0269 11.5954 18.6665 11.1691 18.6665 10.6431H15.8093C15.8093 11.1691 16.4489 11.5954 17.2379 11.5954Z" fill="white"/>
</g>
</g>
</svg>
