<svg width="40" height="40" viewBox="0 0 40 40" fill="none" xmlns="http://www.w3.org/2000/svg">
    <mask id="mask0_4494_40324" style="mask-type:alpha" maskUnits="userSpaceOnUse" x="0" y="0" width="40" height="40">
        <rect width="40" height="40" fill="#484A4C"/>
    </mask>
    <g mask="url(#mask0_4494_40324)">
        <mask id="mask1_4494_40324" style="mask-type:alpha" maskUnits="userSpaceOnUse" x="3" y="3" width="34" height="34">
            <path d="M3.33325 3.33325H36.6666V36.6666H3.33325V3.33325Z" fill="#484A4C"/>
            <path d="M3.33325 3.33325H36.6666V36.6666H3.33325V3.33325Z" fill="#484A4C"/>
        </mask>
        <g mask="url(#mask1_4494_40324)">
            <path d="M31.8521 7.49951C33.5505 7.49971 34.9995 8.85327 34.9995 10.6108V14.9438C34.9995 16.0747 34.3984 17.0362 33.5181 17.5796V28.6665C33.5181 30.8231 31.7371 32.4995 29.6294 32.4995H10.3706C8.26286 32.4995 6.48096 30.8231 6.48096 28.6665V17.5786C5.60116 17.0351 4.99951 16.0743 4.99951 14.9438V10.6108C4.99957 8.85316 6.44936 7.49953 8.14795 7.49951H31.8521Z" stroke="white" stroke-width="3.33333"/>
            <path d="M6.6665 10.6109C6.6665 9.8132 7.32979 9.1665 8.14799 9.1665H31.8517C32.6699 9.1665 33.3332 9.8132 33.3332 10.6109V14.9443C33.3332 15.742 32.6699 16.3887 31.8517 16.3887H8.14799C7.32979 16.3887 6.6665 15.742 6.6665 14.9443V10.6109Z" fill="#FFAA33"/>
            <path fill-rule="evenodd" clip-rule="evenodd" d="M31.8517 28.6665C31.8517 29.8631 30.8568 30.8332 29.6295 30.8332H10.3702C9.14291 30.8332 8.14799 29.8631 8.14799 28.6665L8.14799 16.3887H31.8517V28.6665ZM15.5554 17.8332C14.7372 17.8332 14.0739 18.4799 14.0739 19.2776C14.0739 20.0754 14.7372 20.7221 15.5554 20.7221H24.4443C25.2625 20.7221 25.9258 20.0754 25.9258 19.2776C25.9258 18.4799 25.2625 17.8332 24.4443 17.8332H15.5554Z" fill="#E6992E"/>
        </g>
    </g>
</svg>
