<svg width="110" height="104" viewBox="0 0 110 104" fill="none" xmlns="http://www.w3.org/2000/svg">
<g filter="url(#filter0_d_1858_19279)">
<circle cx="55" cy="52" r="32" fill="#FFAA33"/>
</g>
<path d="M37.9375 57.1562C35.3203 57.1562 33.7812 55.0469 33.7812 51.3438C33.7812 47.6641 35.3359 45.5312 37.9375 45.5312C40.5312 45.5312 42.0859 47.6641 42.0938 51.3438C42.0859 55.0469 40.5547 57.1562 37.9375 57.1562ZM35.5 51.3438C35.4922 54.1641 36.4062 55.6719 37.9375 55.6719C39.4609 55.6719 40.375 54.1641 40.375 51.3438C40.375 48.5312 39.4531 46.9922 37.9375 46.9844C36.4141 46.9922 35.5 48.5312 35.5 51.3438ZM43.625 54.7969V53.4062L48.625 45.6875H50.75V53.3438H52.2969V54.7969H50.75V57H49.125V54.7969H43.625ZM45.4375 53.3438H49.125V47.7344H49L45.4375 53.25V53.3438ZM55.1406 55.5469C54.5312 55.5391 54.0234 55.0469 54.0312 54.4375C54.0234 53.8281 54.5312 53.3281 55.1406 53.3281C55.7422 53.3281 56.2422 53.8281 56.25 54.4375C56.2422 55.0469 55.7422 55.5391 55.1406 55.5469ZM54.0312 48.2656C54.0234 47.6562 54.5312 47.1562 55.1406 47.1562C55.7422 47.1562 56.2422 47.6562 56.25 48.2656C56.2422 48.875 55.7422 49.3672 55.1406 49.375C54.5312 49.3672 54.0234 48.875 54.0312 48.2656ZM62.1875 57.1562C59.5703 57.1562 58.0312 55.0469 58.0312 51.3438C58.0312 47.6641 59.5859 45.5312 62.1875 45.5312C64.7812 45.5312 66.3359 47.6641 66.3438 51.3438C66.3359 55.0469 64.8047 57.1562 62.1875 57.1562ZM59.75 51.3438C59.7422 54.1641 60.6562 55.6719 62.1875 55.6719C63.7109 55.6719 64.625 54.1641 64.625 51.3438C64.625 48.5312 63.7031 46.9922 62.1875 46.9844C60.6641 46.9922 59.75 48.5312 59.75 51.3438ZM72.0625 57.1562C69.4453 57.1562 67.9062 55.0469 67.9062 51.3438C67.9062 47.6641 69.4609 45.5312 72.0625 45.5312C74.6562 45.5312 76.2109 47.6641 76.2188 51.3438C76.2109 55.0469 74.6797 57.1562 72.0625 57.1562ZM69.625 51.3438C69.6172 54.1641 70.5312 55.6719 72.0625 55.6719C73.5859 55.6719 74.5 54.1641 74.5 51.3438C74.5 48.5312 73.5781 46.9922 72.0625 46.9844C70.5391 46.9922 69.625 48.5312 69.625 51.3438Z" fill="white"/>
<defs>
<filter id="filter0_d_1858_19279" x="0.142859" y="-2.85714" width="109.714" height="109.714" filterUnits="userSpaceOnUse" color-interpolation-filters="sRGB">
<feFlood flood-opacity="0" result="BackgroundImageFix"/>
<feColorMatrix in="SourceAlpha" type="matrix" values="0 0 0 0 0 0 0 0 0 0 0 0 0 0 0 0 0 0 127 0" result="hardAlpha"/>
<feOffset/>
<feGaussianBlur stdDeviation="11.4286"/>
<feComposite in2="hardAlpha" operator="out"/>
<feColorMatrix type="matrix" values="0 0 0 0 0 0 0 0 0 0 0 0 0 0 0 0 0 0 0.08 0"/>
<feBlend mode="normal" in2="BackgroundImageFix" result="effect1_dropShadow_1858_19279"/>
<feBlend mode="normal" in="SourceGraphic" in2="effect1_dropShadow_1858_19279" result="shape"/>
</filter>
</defs>
</svg>
