<svg width="24" height="24" viewBox="0 0 24 24" fill="none" xmlns="http://www.w3.org/2000/svg">
<ellipse cx="12" cy="13.2659" rx="10" ry="8.19704" fill="#FFE5C0"/>
<mask id="mask0_1208_7300" style="mask-type:alpha" maskUnits="userSpaceOnUse" x="2" y="5" width="20" height="17">
<ellipse cx="12" cy="13.2659" rx="10" ry="8.19704" fill="#FFF2E0"/>
</mask>
<g mask="url(#mask0_1208_7300)">
<path d="M11.6565 12.27C6.88825 15.2177 2.82391 13.3817 1.52328 10.9032C1.42805 10.7217 1.42119 10.5091 1.48422 10.314L3.83582 3.03597C3.94866 2.68673 4.27384 2.45003 4.64078 2.45003L20.0776 2.45003C20.4421 2.45003 20.7655 2.68369 20.8799 3.02978L23.5667 11.1549C23.6616 11.4418 23.5989 11.7614 23.3809 11.9709C20.2486 14.9806 15.1634 13.5455 12.5545 12.2306C12.2691 12.0867 11.9284 12.1019 11.6565 12.27Z" fill="#FFAA33"/>
<path d="M4.09451 12.0919C4.26697 12.0457 4.44396 12.1389 4.50602 12.3023L4.51702 12.3357L4.79405 13.3702L4.80145 13.4048C4.82943 13.5773 4.72272 13.7465 4.55024 13.7927C4.37779 13.8389 4.20077 13.7457 4.13874 13.5823L4.12796 13.5489L3.85071 12.5144L3.8433 12.4798C3.81534 12.3073 3.92209 12.1381 4.09451 12.0919Z" fill="#F15F5F"/>
<path d="M5.12894 12.0919C5.3014 12.0457 5.47838 12.1389 5.54044 12.3023L5.55144 12.3357L5.82847 13.3702L5.83588 13.4048C5.86386 13.5773 5.75714 13.7465 5.58467 13.7927C5.41221 13.8389 5.23519 13.7457 5.17316 13.5823L5.16239 13.5489L4.88513 12.5144L4.87772 12.4798C4.84976 12.3073 4.95651 12.1381 5.12894 12.0919Z" fill="#F15F5F"/>
<path d="M18.0027 12.0919C18.1752 12.0457 18.3522 12.1389 18.4142 12.3023L18.4252 12.3357L18.7022 13.3702L18.7097 13.4048C18.7376 13.5773 18.6309 13.7465 18.4584 13.7927C18.286 13.8389 18.109 13.7457 18.0469 13.5823L18.0362 13.5489L17.7589 12.5144L17.7515 12.4798C17.7235 12.3073 17.8303 12.1381 18.0027 12.0919Z" fill="#F15F5F"/>
<path d="M19.1521 12.0919C19.3246 12.0457 19.5016 12.1389 19.5636 12.3023L19.5746 12.3357L19.8517 13.3702L19.8591 13.4048C19.8871 13.5773 19.7803 13.7465 19.6079 13.7927C19.4354 13.8389 19.2584 13.7457 19.1964 13.5823L19.1856 13.5489L18.9083 12.5144L18.9009 12.4798C18.873 12.3073 18.9797 12.1381 19.1521 12.0919Z" fill="#F15F5F"/>
</g>
<path d="M7.04935 3.01787C5.98348 3.21852 5.2527 5.6326 4.94177 7.18298C4.88616 7.4603 5.07092 7.72713 5.35018 7.76544C8.08777 8.14103 9.7612 6.89575 10.4288 5.99866C10.5494 5.83656 10.5379 5.61675 10.4168 5.45503C9.64107 4.41939 8.13893 2.81276 7.04935 3.01787Z" fill="#FFAA33"/>
<path d="M16.9304 3.33282C17.9963 3.53346 18.727 5.94754 19.038 7.49793C19.0936 7.77524 18.9088 8.04207 18.6296 8.08038C15.892 8.45597 14.2185 7.21069 13.5509 6.3136C13.4303 6.1515 13.4418 5.93169 13.5629 5.76997C14.3387 4.73433 15.8408 3.1277 16.9304 3.33282Z" fill="#FFAA33"/>
<path d="M9.70117 14.724C9.97703 15.0918 10.6036 15.1235 10.6036 15.1235C11.0748 15.141 12.0381 14.7613 12.1219 13.7734C12.1481 14.2026 12.3056 14.9554 13.4365 15.1235C13.6473 15.1436 13.954 15.1235 14.4138 14.724" stroke="#292A2B" stroke-width="0.689655" stroke-linecap="round"/>
<path d="M12.1743 12.5122C10.6036 12.5936 11.3628 13.6288 11.8078 13.8521C12.1429 14.0203 12.3837 13.8915 12.4622 13.8521C12.724 13.7207 12.9073 13.5368 13.0382 13.2478C13.2822 12.709 12.4884 12.5122 12.1743 12.5122Z" fill="#292A2B"/>
<ellipse cx="9.50043" cy="11.5614" rx="0.78534" ry="0.972085" fill="#292A2B"/>
<ellipse cx="14.8668" cy="11.5614" rx="0.759162" ry="0.972085" fill="#292A2B"/>
</svg>
