<svg width="24" height="24" viewBox="0 0 24 24" fill="none" xmlns="http://www.w3.org/2000/svg">
    <mask id="mask0_1208_7297" style="mask-type:alpha" maskUnits="userSpaceOnUse" x="0" y="0" width="24" height="24">
        <rect width="24" height="24" fill="#D9D9D9"/>
    </mask>
    <g mask="url(#mask0_1208_7297)">
        <mask id="mask1_1208_7297" style="mask-type:alpha" maskUnits="userSpaceOnUse" x="2" y="2" width="20" height="20">
        <rect x="2" y="2" width="20" height="20" fill="#D9D9D9"/>
        </mask>
        <g mask="url(#mask1_1208_7297)">
            <ellipse cx="12" cy="13.1936" rx="10" ry="8.19704" fill="#FFE5C0"/>
            <mask id="mask2_1208_7297" style="mask-type:alpha" maskUnits="userSpaceOnUse" x="2" y="4" width="20" height="18">
                <ellipse cx="12" cy="13.1936" rx="10" ry="8.19704" fill="#FFE5C0"/>
            </mask>
            <g mask="url(#mask2_1208_7297)">
                <path d="M11.6565 12.2065C6.88825 15.1542 2.82391 13.3182 1.52328 10.8397C1.42805 10.6583 1.42119 10.4456 1.48422 10.2505L3.83582 2.97249C3.94866 2.62325 4.27384 2.38655 4.64078 2.38655L20.0776 2.38655C20.4421 2.38655 20.7655 2.62022 20.8799 2.9663L23.5667 11.0915C23.6616 11.3784 23.5989 11.6979 23.3809 11.9074C20.2486 14.9171 15.1634 13.4821 12.5545 12.1671C12.2691 12.0232 11.9284 12.0384 11.6565 12.2065Z" fill="#FFAA33"/>
            </g>
            <path d="M14.9881 11.2759C16.1943 11.2759 17.8624 11.2759 17.1727 12.5591C16.483 13.8423 16.5973 13.8042 14.9881 13.8042C13.9302 13.8042 13.0481 13.8333 12.8475 12.9741C12.839 12.9756 12.8308 12.9791 12.8221 12.98L12.787 12.9819H11.4256C11.3873 12.9819 11.3507 12.974 11.3163 12.9624C11.1209 13.8335 10.2364 13.8042 9.17368 13.8042C7.56448 13.8042 7.67876 13.8423 6.98911 12.5591C6.29962 11.276 7.96758 11.2759 9.17368 11.2759C10.2934 11.2759 11.2144 11.2762 11.3407 12.3032C11.3678 12.2964 11.3964 12.2925 11.4256 12.2925H12.787L12.8221 12.2944C12.9525 11.2761 13.8716 11.2759 14.9881 11.2759Z" fill="#292A2B"/>
            <path d="M7.04935 3.01787C5.98348 3.21852 5.2527 5.6326 4.94177 7.18298C4.88616 7.4603 5.07092 7.72713 5.35018 7.76544C8.08777 8.14103 9.7612 6.89575 10.4288 5.99866C10.5494 5.83656 10.5379 5.61675 10.4168 5.45503C9.64107 4.41939 8.13893 2.81276 7.04935 3.01787Z" fill="#FFAA33"/>
            <path d="M16.9304 3.3333C17.9963 3.53395 18.727 5.94803 19.038 7.49841C19.0936 7.77572 18.9088 8.04256 18.6296 8.08087C15.892 8.45646 14.2185 7.21118 13.5509 6.31409C13.4303 6.15199 13.4418 5.93218 13.5629 5.77046C14.3387 4.73482 15.8408 3.12819 16.9304 3.3333Z" fill="#FFAA33"/>
            <path d="M10.6035 15.1235C11.0747 15.141 12.0381 14.7613 12.1218 13.7734C12.148 14.2026 12.3055 14.9554 13.4364 15.1235" stroke="#292A2B" stroke-width="0.689655" stroke-linecap="round"/>
            <path d="M12.1743 12.5122C10.6036 12.5936 11.3628 13.6288 11.8078 13.8521C12.1429 14.0203 12.3837 13.8915 12.4622 13.8521C12.724 13.7207 12.9073 13.5368 13.0382 13.2478C13.2822 12.709 12.4884 12.5122 12.1743 12.5122Z" fill="#292A2B" stroke="#292A2B" stroke-width="0.0528471"/>
            <path d="M17.5115 9.98284C17.5509 9.8677 17.7137 9.8677 17.753 9.98284L17.8556 10.2833C17.8684 10.3207 17.8977 10.35 17.9351 10.3628L18.2356 10.4654C18.3507 10.5047 18.3507 10.6676 18.2356 10.7069L17.9351 10.8095C17.8977 10.8222 17.8684 10.8516 17.8556 10.889L17.753 11.1894C17.7137 11.3046 17.5509 11.3046 17.5115 11.1894L17.4089 10.889C17.3962 10.8516 17.3668 10.8222 17.3294 10.8095L17.029 10.7069C16.9138 10.6676 16.9138 10.5047 17.029 10.4654L17.3294 10.3628C17.3668 10.35 17.3962 10.3207 17.4089 10.2833L17.5115 9.98284Z" fill="white"/>
            <path d="M5.09773 12.9711C5.13704 12.856 5.29988 12.856 5.3392 12.9711L5.4418 13.2716C5.45457 13.309 5.48393 13.3383 5.52131 13.3511L5.82177 13.4537C5.9369 13.493 5.9369 13.6558 5.82177 13.6952L5.52131 13.7978C5.48393 13.8105 5.45457 13.8399 5.4418 13.8773L5.3392 14.1777C5.29988 14.2929 5.13705 14.2929 5.09773 14.1777L4.99513 13.8773C4.98236 13.8399 4.953 13.8105 4.91562 13.7978L4.61516 13.6952C4.50002 13.6558 4.50002 13.493 4.61516 13.4537L4.91562 13.3511C4.953 13.3383 4.98236 13.309 4.99513 13.2716L5.09773 12.9711Z" fill="white"/>
            <path d="M18.8006 11.2693C18.8576 11.2196 18.9453 11.2702 18.9307 11.3444L18.8925 11.5382C18.8878 11.5623 18.8944 11.5873 18.9106 11.6058L19.0405 11.7545C19.0903 11.8115 19.0397 11.8992 18.9654 11.8845L18.7717 11.8464C18.7476 11.8416 18.7226 11.8483 18.7041 11.8645L18.5554 11.9944C18.4984 12.0442 18.4107 11.9936 18.4253 11.9193L18.4635 11.7256C18.4683 11.7015 18.4616 11.6765 18.4454 11.658L18.3155 11.5093C18.2657 11.4523 18.3163 11.3646 18.3906 11.3792L18.5843 11.4174C18.6084 11.4221 18.6334 11.4155 18.6519 11.3993L18.8006 11.2693Z" fill="white"/>
        </g>
    </g>
</svg>
