<svg width="24" height="24" viewBox="0 0 24 24" fill="none" xmlns="http://www.w3.org/2000/svg">
<mask id="mask0_1208_7299" style="mask-type:alpha" maskUnits="userSpaceOnUse" x="0" y="0" width="24" height="24">
<rect width="24" height="24" fill="#D9D9D9"/>
</mask>
<g mask="url(#mask0_1208_7299)">
<mask id="mask1_1208_7299" style="mask-type:alpha" maskUnits="userSpaceOnUse" x="2" y="2" width="20" height="20">
<rect x="2" y="2" width="20" height="20" fill="#D9D9D9"/>
</mask>
<g mask="url(#mask1_1208_7299)">
<ellipse cx="12" cy="13.1936" rx="10" ry="8.19704" fill="#FFE5C0"/>
<mask id="mask2_1208_7299" style="mask-type:alpha" maskUnits="userSpaceOnUse" x="2" y="4" width="20" height="18">
<ellipse cx="12" cy="13.1936" rx="10" ry="8.19704" fill="#FFF2E0"/>
</mask>
<g mask="url(#mask2_1208_7299)">
<path d="M11.6565 12.2065C6.88825 15.1542 2.82391 13.3182 1.52328 10.8397C1.42805 10.6583 1.42119 10.4456 1.48422 10.2505L3.83582 2.97249C3.94866 2.62325 4.27384 2.38655 4.64078 2.38655L20.0776 2.38655C20.4421 2.38655 20.7655 2.62022 20.8799 2.9663L23.5667 11.0915C23.6616 11.3784 23.5989 11.6979 23.3809 11.9074C20.2486 14.9171 15.1634 13.4821 12.5545 12.1671C12.2691 12.0232 11.9284 12.0384 11.6565 12.2065Z" fill="#FFAA33"/>
</g>
<path d="M7.04935 3.01787C5.98348 3.21852 5.2527 5.6326 4.94177 7.18298C4.88616 7.4603 5.07092 7.72713 5.35018 7.76544C8.08777 8.14103 9.7612 6.89575 10.4288 5.99866C10.5494 5.83656 10.5379 5.61675 10.4168 5.45503C9.64107 4.41939 8.13893 2.81276 7.04935 3.01787Z" fill="#FFAA33"/>
<path d="M16.9304 3.3333C17.9963 3.53395 18.727 5.94803 19.038 7.49841C19.0936 7.77572 18.9088 8.04256 18.6296 8.08087C15.892 8.45646 14.2185 7.21118 13.5509 6.31409C13.4303 6.15199 13.4418 5.93218 13.5629 5.77046C14.3387 4.73482 15.8408 3.12819 16.9304 3.3333Z" fill="#FFAA33"/>
<path d="M10.6035 15.1235C11.0747 15.141 12.0381 14.7613 12.1218 13.7734C12.148 14.2026 12.3055 14.9554 13.4364 15.1235" stroke="#292A2B" stroke-width="0.689655" stroke-linecap="round"/>
<path d="M12.1743 12.5122C10.6036 12.5936 11.3628 13.6288 11.8078 13.8521C12.1429 14.0203 12.3837 13.8915 12.4622 13.8521C12.724 13.7207 12.9073 13.5368 13.0382 13.2478C13.2822 12.709 12.4884 12.5122 12.1743 12.5122Z" fill="#292A2B"/>
<ellipse cx="9.50043" cy="11.5614" rx="0.78534" ry="0.972085" fill="#292A2B"/>
<ellipse cx="14.8668" cy="11.5614" rx="0.759162" ry="0.972085" fill="#292A2B"/>
</g>
</g>
</svg>
