<svg width="40" height="40" viewBox="0 0 40 40" fill="none" xmlns="http://www.w3.org/2000/svg">
<mask id="mask0_2813_40414" style="mask-type:alpha" maskUnits="userSpaceOnUse" x="0" y="0" width="40" height="40">
<rect width="40" height="40" fill="#D9D9D9"/>
</mask>
<g mask="url(#mask0_2813_40414)">
<mask id="path-2-outside-1_2813_40414" maskUnits="userSpaceOnUse" x="1.33325" y="3.00055" width="37" height="35" fill="black">
<rect fill="white" x="1.33325" y="3.00055" width="37" height="35"/>
<path d="M11.7493 5.03029C13.3859 4.72244 15.5797 6.86758 16.9436 8.55763C17.9345 8.40709 18.9562 8.32814 20.0002 8.32814C21.1693 8.32815 22.3102 8.42653 23.4114 8.61427C24.7784 7.02401 26.7285 5.2757 28.217 5.55568C29.9356 5.87919 31.1297 9.655 31.675 12.2402C34.7555 14.7192 36.6662 18.1712 36.6663 21.9893C36.6663 29.5344 29.2049 35.6513 20.0002 35.6514C10.7955 35.6514 3.33325 29.5344 3.33325 21.9893C3.33329 18.2069 5.20855 14.7834 8.23853 12.3096C8.21535 12.2018 8.21338 12.0874 8.23657 11.9717C8.75479 9.38772 9.97282 5.3647 11.7493 5.03029Z"/>
</mask>
<path d="M11.7493 5.03029C13.3859 4.72244 15.5797 6.86758 16.9436 8.55763C17.9345 8.40709 18.9562 8.32814 20.0002 8.32814C21.1693 8.32815 22.3102 8.42653 23.4114 8.61427C24.7784 7.02401 26.7285 5.2757 28.217 5.55568C29.9356 5.87919 31.1297 9.655 31.675 12.2402C34.7555 14.7192 36.6662 18.1712 36.6663 21.9893C36.6663 29.5344 29.2049 35.6513 20.0002 35.6514C10.7955 35.6514 3.33325 29.5344 3.33325 21.9893C3.33329 18.2069 5.20855 14.7834 8.23853 12.3096C8.21535 12.2018 8.21338 12.0874 8.23657 11.9717C8.75479 9.38772 9.97282 5.3647 11.7493 5.03029Z" fill="#FFAA33"/>
<path d="M11.7493 5.03029L11.4412 3.39234L11.4409 3.39239L11.7493 5.03029ZM16.9436 8.55763L15.6466 9.60435L16.2477 10.3492L17.1939 10.2054L16.9436 8.55763ZM20.0002 8.32814L20.0003 6.66147H20.0002V8.32814ZM23.4114 8.61427L23.1313 10.2572L24.0607 10.4157L24.6753 9.70071L23.4114 8.61427ZM28.217 5.55568L28.5254 3.91778L28.5251 3.91773L28.217 5.55568ZM31.675 12.2402L30.0443 12.5842L30.167 13.166L30.6301 13.5387L31.675 12.2402ZM36.6663 21.9893H38.3329V21.9893L36.6663 21.9893ZM20.0002 35.6514V37.318H20.0003L20.0002 35.6514ZM3.33325 21.9893L1.66659 21.9893V21.9893H3.33325ZM8.23853 12.3096L9.29257 13.6006L10.0822 12.9559L9.86796 11.9593L8.23853 12.3096ZM8.23657 11.9717L6.60244 11.644L6.60244 11.644L8.23657 11.9717ZM11.7493 5.03029L12.0574 6.66823C12.0525 6.66914 12.1618 6.64903 12.4366 6.75975C12.7073 6.86887 13.0447 7.06801 13.4337 7.3667C14.2132 7.96515 15.0089 8.81409 15.6466 9.60435L16.9436 8.55763L18.2406 7.51091C17.5144 6.61112 16.5313 5.54246 15.4637 4.72279C14.4978 3.98115 13.0207 3.09525 11.4412 3.39234L11.7493 5.03029ZM16.9436 8.55763L17.1939 10.2054C18.1022 10.0674 19.0402 9.99481 20.0002 9.99481V8.32814V6.66147C18.8722 6.66147 17.7668 6.74678 16.6933 6.90987L16.9436 8.55763ZM20.0002 8.32814L20.0002 9.99481C21.0758 9.99482 22.123 10.0853 23.1313 10.2572L23.4114 8.61427L23.6915 6.97131C22.4975 6.76773 21.2628 6.66149 20.0003 6.66147L20.0002 8.32814ZM23.4114 8.61427L24.6753 9.70071C25.3136 8.95809 26.0432 8.23378 26.7349 7.74163C27.079 7.49675 27.3694 7.34144 27.5967 7.25936C27.8246 7.17701 27.9143 7.19463 27.909 7.19362L28.217 5.55568L28.5251 3.91773C27.0744 3.64487 25.7208 4.37217 24.8024 5.02564C23.8051 5.73521 22.8761 6.68019 22.1475 7.52784L23.4114 8.61427ZM28.217 5.55568L27.9087 7.19358C27.7921 7.17163 27.8746 7.13555 28.119 7.4324C28.3486 7.71128 28.6042 8.14493 28.8631 8.72709C29.3782 9.88522 29.7838 11.3495 30.0443 12.5842L31.675 12.2402L33.3058 11.8963C33.021 10.5458 32.5568 8.82949 31.9088 7.37253C31.5862 6.64715 31.1871 5.91461 30.6924 5.31374C30.2125 4.73085 29.5012 4.10148 28.5254 3.91778L28.217 5.55568ZM31.675 12.2402L30.6301 13.5387C33.3875 15.7576 34.9996 18.7592 34.9996 21.9893L36.6663 21.9893L38.3329 21.9893C38.3329 17.5831 36.1236 13.6809 32.7199 10.9418L31.675 12.2402ZM36.6663 21.9893H34.9996C34.9996 28.3195 28.6094 33.9846 20.0002 33.9847L20.0002 35.6514L20.0003 37.318C29.8003 37.3179 38.3329 30.7493 38.3329 21.9893H36.6663ZM20.0002 35.6514V33.9847C11.3908 33.9847 4.99992 28.3194 4.99992 21.9893H3.33325H1.66659C1.66659 30.7495 10.2002 37.318 20.0002 37.318V35.6514ZM3.33325 21.9893L4.99992 21.9893C4.99995 18.789 6.58225 15.8134 9.29257 13.6006L8.23853 12.3096L7.18448 11.0186C3.83485 13.7533 1.66663 17.6247 1.66659 21.9893L3.33325 21.9893ZM8.23853 12.3096L9.86796 11.9593C9.89195 12.0709 9.8932 12.1872 9.8707 12.2994L8.23657 11.9717L6.60244 11.644C6.53355 11.9875 6.53875 12.3327 6.60909 12.6599L8.23853 12.3096ZM8.23657 11.9717L9.8707 12.2994C10.1177 11.0679 10.5237 9.54064 11.0514 8.31767C11.3168 7.70263 11.5823 7.2371 11.8247 6.93452C12.0845 6.61016 12.1764 6.64581 12.0576 6.66819L11.7493 5.03029L11.4409 3.39239C10.4339 3.58197 9.70741 4.2459 9.22301 4.85066C8.72117 5.4772 8.31675 6.24163 7.99078 6.99714C7.33576 8.51528 6.87369 10.2915 6.60244 11.644L8.23657 11.9717Z" fill="white" mask="url(#path-2-outside-1_2813_40414)"/>
<mask id="mask1_2813_40414" style="mask-type:alpha" maskUnits="userSpaceOnUse" x="3" y="3" width="34" height="34">
<rect x="3.33325" y="3.33331" width="33.3333" height="33.3333" fill="#D9D9D9"/>
</mask>
<g mask="url(#mask1_2813_40414)">
<ellipse cx="19.9999" cy="21.9894" rx="16.6667" ry="13.6617" fill="#FFE5C0"/>
<mask id="mask2_2813_40414" style="mask-type:alpha" maskUnits="userSpaceOnUse" x="3" y="8" width="34" height="28">
<ellipse cx="19.9999" cy="21.9894" rx="16.6667" ry="13.6617" fill="#F0F2F4"/>
</mask>
<g mask="url(#mask2_2813_40414)">
<path d="M19.4275 20.3441C11.4805 25.2569 4.7066 22.197 2.53888 18.0661C2.38017 17.7637 2.36874 17.4092 2.47379 17.0841L6.39312 4.95407C6.58119 4.372 7.12314 3.97751 7.73471 3.97751L33.4627 3.97751C34.0703 3.97751 34.6093 4.36694 34.8 4.94375L39.2779 18.4857C39.4361 18.9639 39.3316 19.4965 38.9683 19.8456C33.7478 24.8618 25.2724 22.47 20.9243 20.2784C20.4485 20.0387 19.8808 20.0639 19.4275 20.3441Z" fill="#FFAA33"/>
</g>
<path d="M11.7488 5.02967C9.97239 5.36408 8.75442 9.38755 8.23621 11.9715C8.14352 12.4337 8.45146 12.8784 8.91689 12.9423C13.4795 13.5683 16.2686 11.4928 17.3813 9.99765C17.5823 9.72748 17.5631 9.36113 17.3612 9.0916C16.0684 7.36553 13.5648 4.68782 11.7488 5.02967Z" fill="#FFAA33"/>
<path d="M28.2172 5.55512C29.9937 5.88954 31.2116 9.913 31.7299 12.497C31.8225 12.9592 31.5146 13.4039 31.0492 13.4677C26.4865 14.0937 23.6975 12.0182 22.5848 10.5231C22.3837 10.2529 22.4029 9.88658 22.6048 9.61705C23.8977 7.89098 26.4013 5.21327 28.2172 5.55512Z" fill="#FFAA33"/>
<path d="M17.6726 25.2065C18.4579 25.2356 20.0635 24.6027 20.2031 22.9563C20.2468 23.6715 20.5093 24.9262 22.3941 25.2065" stroke="#292A2B" stroke-width="1.14943" stroke-linecap="round"/>
<path d="M20.2906 20.8544C17.6728 20.99 18.9381 22.7153 19.6798 23.0875C20.2382 23.3678 20.6396 23.1532 20.7705 23.0875C21.2068 22.8686 21.5122 22.5621 21.7304 22.0804C22.1371 21.1824 20.8141 20.8544 20.2906 20.8544Z" fill="#292A2B"/>
<path d="M17.1429 19.2689C17.1429 20.1637 16.5569 20.8891 15.834 20.8891C15.1112 20.8891 14.5251 20.1637 14.5251 19.2689C14.5251 18.3742 14.5251 17.6488 14.5251 17.6488C14.5251 17.6488 17.1429 18.3742 17.1429 19.2689Z" fill="#292A2B"/>
<path d="M26.0432 19.2689C26.0432 20.1637 25.4768 20.889 24.778 20.889C24.0792 20.889 23.5127 20.1637 23.5127 19.2689C23.5127 18.3741 26.0432 17.6487 26.0432 17.6487C26.0432 17.6487 26.0432 18.3741 26.0432 19.2689Z" fill="#292A2B"/>
<path fill-rule="evenodd" clip-rule="evenodd" d="M30.4091 16.0837C30.7691 15.918 31.1614 15.9013 31.4324 15.9321L31.4351 15.9325L31.483 15.9385L31.4901 15.9392L31.5237 15.9463L31.5286 15.9471L31.5335 15.9486C31.7653 16.0088 31.9018 16.2412 31.8736 16.4717L31.8665 16.5147C31.821 16.7269 31.6381 16.894 31.41 16.8862H31.4055L31.4006 16.8859L31.3741 16.8836L31.3715 16.8832H31.3685L31.3004 16.8754C31.1395 16.8624 30.9346 16.8812 30.7724 16.9558L30.7126 16.9869C30.6565 17.0201 30.6113 17.0597 30.5764 17.1077C30.5301 17.1713 30.4932 17.2617 30.4828 17.3973L30.4768 17.4434C30.4401 17.6552 30.2664 17.8309 30.0413 17.8351L29.9923 17.8332L29.944 17.8265C29.7249 17.7824 29.5822 17.5807 29.5785 17.3667L29.58 17.3206C29.6271 16.7052 29.9512 16.3234 30.332 16.1215L30.4091 16.0837ZM29.7715 17.3929C29.7767 17.44 29.7939 17.4833 29.8179 17.5208C29.7844 17.4683 29.7655 17.4039 29.7708 17.3352L29.7715 17.3929ZM29.8221 17.0378C29.8052 17.0981 29.7919 17.1619 29.7824 17.2293L29.8 17.1291C29.8065 17.0978 29.8138 17.0673 29.8221 17.0378ZM31.5114 16.679C31.4966 16.6847 31.4812 16.689 31.4654 16.6917C31.4971 16.6862 31.5272 16.6743 31.5544 16.6573L31.5114 16.679Z" fill="#F15F5F"/>
<path fill-rule="evenodd" clip-rule="evenodd" d="M27.9337 14.7131C28.0467 14.5177 28.2881 14.4433 28.4897 14.5339L28.4945 14.5358L28.4986 14.5376L28.5207 14.5492L28.5267 14.5522L28.5323 14.5556L28.5712 14.5792L28.5731 14.5799C28.7895 14.7134 29.0714 14.9486 29.2515 15.2672L29.2881 15.3372C29.4648 15.693 29.5096 16.1487 29.2122 16.609L29.186 16.6449C29.0572 16.8058 28.8319 16.8546 28.6483 16.7609L28.6094 16.7384C28.42 16.616 28.357 16.371 28.4575 16.1742L28.4796 16.1357C28.5389 16.0438 28.557 15.9682 28.5563 15.9048C28.5556 15.8559 28.5437 15.8051 28.52 15.7514L28.4919 15.6964C28.4117 15.5545 28.2715 15.4255 28.1458 15.3421L28.0882 15.3062L28.0841 15.3032L28.0631 15.2893L28.0594 15.2871L28.056 15.2845C27.8881 15.1631 27.8281 14.9389 27.9146 14.7502L27.9337 14.7131ZM28.6749 16.5469C28.6864 16.5582 28.6993 16.5684 28.7134 16.5776L28.7576 16.6004C28.7716 16.6058 28.7861 16.6093 28.8006 16.612C28.7704 16.6063 28.7408 16.5952 28.7134 16.5776C28.6851 16.5592 28.6617 16.5361 28.6438 16.5098L28.6749 16.5469ZM28.6404 16.2393C28.6221 16.2676 28.6107 16.2986 28.6053 16.3299L28.618 16.2838C28.6239 16.2687 28.6316 16.2539 28.6408 16.2397C28.6477 16.2291 28.6538 16.2184 28.6599 16.2079L28.6404 16.2393ZM28.1335 15.0992C28.1438 15.1102 28.1553 15.1204 28.1679 15.1296C28.1429 15.1114 28.1222 15.0889 28.1061 15.0641L28.1335 15.0992ZM28.4115 14.7086L28.3737 14.6951C28.3728 14.6949 28.3719 14.6946 28.3711 14.6944C28.3847 14.6978 28.3983 14.7027 28.4115 14.7086Z" fill="#F15F5F"/>
<path fill-rule="evenodd" clip-rule="evenodd" d="M31.0444 13.499C31.1732 13.3382 31.3985 13.2893 31.5821 13.383L31.621 13.4054C31.8104 13.5279 31.8734 13.7729 31.7729 13.9696L31.7509 14.0082C31.6914 14.1001 31.6733 14.176 31.6742 14.2394C31.6748 14.2883 31.6868 14.3388 31.7104 14.3925L31.7385 14.4478C31.8187 14.5897 31.959 14.7187 32.0846 14.8022L32.1422 14.8381L32.1463 14.8407L32.1673 14.8545L32.171 14.8568L32.1744 14.8594C32.3423 14.9807 32.4023 15.205 32.3158 15.3937L32.2964 15.4308C32.1834 15.6261 31.9423 15.7008 31.7408 15.6103L31.7359 15.6081L31.7318 15.6062L31.7093 15.5946L31.7037 15.5916L31.6981 15.5883L31.6592 15.5651L31.6573 15.564C31.4409 15.4304 31.159 15.1953 30.979 14.8766L30.9419 14.807C30.7652 14.4512 30.7204 13.9952 31.0179 13.5349L31.0444 13.499ZM31.612 13.8604C31.6062 13.8754 31.5987 13.8901 31.5896 13.9042C31.5893 13.9046 31.5891 13.9052 31.5888 13.9057L31.5896 13.9042C31.6079 13.8758 31.6197 13.8453 31.6251 13.814L31.612 13.8604ZM31.4729 13.5439L31.4324 13.5319C31.4308 13.5316 31.4292 13.5314 31.4276 13.5311C31.4429 13.5339 31.458 13.5381 31.4729 13.5439Z" fill="#F15F5F"/>
<path fill-rule="evenodd" clip-rule="evenodd" d="M30.31 12.8554L30.35 12.8599C30.5369 12.889 30.724 13.0313 30.7279 13.2486L30.726 13.2965C30.6745 13.8009 30.3231 14.0923 29.9538 14.239L29.8797 14.2664C29.5274 14.3879 29.1438 14.4001 28.8792 14.3775H28.8773L28.8294 14.373L28.8238 14.3722L28.8185 14.3715L28.792 14.3674L28.7882 14.367L28.7845 14.3663C28.5887 14.3281 28.3944 14.1547 28.4339 13.9117L28.4433 13.8694C28.5001 13.6651 28.7104 13.5613 28.8945 13.5659H28.9016L28.9286 13.5678L28.9327 13.5682L29.0068 13.5742C29.1729 13.5838 29.3834 13.5689 29.5515 13.5109L29.614 13.4866C29.6718 13.4609 29.7158 13.4314 29.7476 13.3987C29.7868 13.3583 29.8159 13.3046 29.8243 13.2221L29.8314 13.1761C29.8808 12.9541 30.112 12.8419 30.31 12.8554ZM29.8172 14.0853C29.7004 14.1256 29.5788 14.1522 29.4595 14.1695C29.5381 14.1581 29.6178 14.1432 29.6963 14.1223L29.8172 14.0853ZM28.7946 13.7691C28.735 13.7864 28.6846 13.8213 28.6535 13.8668L28.6805 13.8346C28.7206 13.795 28.7775 13.7679 28.841 13.7597L28.7946 13.7691ZM29.7236 13.6453C29.6889 13.6626 29.6526 13.6787 29.614 13.692L29.6915 13.6617C29.7026 13.6568 29.7129 13.6506 29.7236 13.6453ZM30.5352 13.2771C30.527 13.3571 30.5095 13.4307 30.4843 13.4986C30.5009 13.4537 30.5146 13.4065 30.524 13.3564L30.5352 13.2771ZM29.9803 13.3833C29.9823 13.3784 29.9849 13.3738 29.9867 13.3687L29.9882 13.3639C29.9859 13.3706 29.9829 13.3769 29.9803 13.3833Z" fill="#F15F5F"/>
</g>
</g>
</svg>
