<svg width="40" height="40" viewBox="0 0 40 40" fill="none" xmlns="http://www.w3.org/2000/svg">
<mask id="mask0_2813_40406" style="mask-type:alpha" maskUnits="userSpaceOnUse" x="0" y="0" width="40" height="40">
<rect width="40" height="40" fill="#D9D9D9"/>
</mask>
<g mask="url(#mask0_2813_40406)">
<mask id="path-2-outside-1_2813_40406" maskUnits="userSpaceOnUse" x="1.3335" y="3.00049" width="37" height="35" fill="black">
<rect fill="white" x="1.3335" y="3.00049" width="37" height="35"/>
<path d="M11.7485 5.03028C13.3853 4.72215 15.5799 6.86743 16.9438 8.55762C17.9346 8.4071 18.9565 8.32813 20.0005 8.32813C21.1692 8.32815 22.3098 8.42661 23.4106 8.61426C24.7776 7.02399 26.7278 5.27569 28.2163 5.55567C29.9348 5.87917 31.129 9.65499 31.6743 12.2402C34.7551 14.7192 36.6665 18.171 36.6665 21.9893C36.6665 29.5343 29.205 35.6512 20.0005 35.6514C10.7957 35.6514 3.3335 29.5344 3.3335 21.9893C3.33354 18.2072 5.20836 14.7843 8.23779 12.3105C8.21445 12.2025 8.21259 12.0876 8.23584 11.9717C8.75405 9.38775 9.97212 5.36479 11.7485 5.03028Z"/>
</mask>
<path d="M11.7485 5.03028C13.3853 4.72215 15.5799 6.86743 16.9438 8.55762C17.9346 8.4071 18.9565 8.32813 20.0005 8.32813C21.1692 8.32815 22.3098 8.42661 23.4106 8.61426C24.7776 7.02399 26.7278 5.27569 28.2163 5.55567C29.9348 5.87917 31.129 9.65499 31.6743 12.2402C34.7551 14.7192 36.6665 18.171 36.6665 21.9893C36.6665 29.5343 29.205 35.6512 20.0005 35.6514C10.7957 35.6514 3.3335 29.5344 3.3335 21.9893C3.33354 18.2072 5.20836 14.7843 8.23779 12.3105C8.21445 12.2025 8.21259 12.0876 8.23584 11.9717C8.75405 9.38775 9.97212 5.36479 11.7485 5.03028Z" fill="#FFAA33"/>
<path d="M11.7485 5.03028L11.4402 3.39238L11.4401 3.39239L11.7485 5.03028ZM16.9438 8.55762L15.6468 9.60431L16.2479 10.3491L17.1942 10.2054L16.9438 8.55762ZM20.0005 8.32813L20.0005 6.66146H20.0005V8.32813ZM23.4106 8.61426L23.1306 10.2572L24.06 10.4157L24.6745 9.7007L23.4106 8.61426ZM28.2163 5.55567L28.5246 3.91777L28.5244 3.91772L28.2163 5.55567ZM31.6743 12.2402L30.0435 12.5842L30.1662 13.166L30.6295 13.5387L31.6743 12.2402ZM36.6665 21.9893H38.3332V21.9892L36.6665 21.9893ZM20.0005 35.6514V37.318H20.0005L20.0005 35.6514ZM3.3335 21.9893L1.66683 21.9892V21.9893H3.3335ZM8.23779 12.3105L9.29194 13.6015L10.0824 12.956L9.86684 11.9585L8.23779 12.3105ZM8.23584 11.9717L6.60171 11.644L6.60169 11.644L8.23584 11.9717ZM11.7485 5.03028L12.0569 6.66817C12.052 6.66908 12.1614 6.64895 12.4362 6.75968C12.7071 6.86879 13.0445 7.06794 13.4336 7.36664C14.2133 7.96511 15.0091 8.8141 15.6468 9.60431L16.9438 8.55762L18.2409 7.51093C17.5146 6.61095 16.5312 5.54221 15.4633 4.72252C14.4972 3.98087 13.0198 3.09502 11.4402 3.39238L11.7485 5.03028ZM16.9438 8.55762L17.1942 10.2054C18.1023 10.0674 19.0406 9.99479 20.0005 9.99479V8.32813V6.66146C18.8725 6.66146 17.7669 6.74679 16.6935 6.90986L16.9438 8.55762ZM20.0005 8.32813L20.0005 9.99479C21.0756 9.99482 22.1225 10.0854 23.1306 10.2572L23.4106 8.61426L23.6907 6.97129C22.4971 6.76783 21.2628 6.66149 20.0005 6.66146L20.0005 8.32813ZM23.4106 8.61426L24.6745 9.7007C25.3129 8.95808 26.0424 8.23377 26.7341 7.74162C27.0783 7.49674 27.3687 7.34143 27.5959 7.25935C27.8239 7.177 27.9136 7.19461 27.9082 7.19361L28.2163 5.55567L28.5244 3.91772C27.0737 3.64486 25.7201 4.37216 24.8016 5.02562C23.8044 5.7352 22.8754 6.68018 22.1467 7.52782L23.4106 8.61426ZM28.2163 5.55567L27.908 7.19356C27.7914 7.17162 27.8738 7.13554 28.1182 7.43239C28.3478 7.71127 28.6035 8.14491 28.8624 8.72708C29.3775 9.88521 29.7831 11.3495 30.0435 12.5842L31.6743 12.2402L33.3051 11.8962C33.0202 10.5457 32.5561 8.82948 31.9081 7.37252C31.5855 6.64713 31.1863 5.91459 30.6916 5.31373C30.2117 4.73084 29.5005 4.10147 28.5246 3.91777L28.2163 5.55567ZM31.6743 12.2402L30.6295 13.5387C33.3872 15.7578 34.9998 18.7592 34.9998 21.9893L36.6665 21.9893L38.3332 21.9892C38.3331 17.5827 36.123 13.6807 32.7192 10.9418L31.6743 12.2402ZM36.6665 21.9893H34.9998C34.9998 28.3194 28.6096 33.9845 20.0005 33.9847L20.0005 35.6514L20.0005 37.318C29.8004 37.3178 38.3332 30.7492 38.3332 21.9893H36.6665ZM20.0005 35.6514V33.9847C11.3911 33.9847 5.00016 28.3194 5.00016 21.9893H3.3335H1.66683C1.66683 30.7494 10.2004 37.318 20.0005 37.318V35.6514ZM3.3335 21.9893L5.00016 21.9893C5.0002 18.7894 6.5821 15.8143 9.29194 13.6015L8.23779 12.3105L7.18365 11.0196C3.83461 13.7543 1.66688 17.6251 1.66683 21.9892L3.3335 21.9893ZM8.23779 12.3105L9.86684 11.9585C9.89144 12.0723 9.89215 12.1888 9.86999 12.2993L8.23584 11.9717L6.60169 11.644C6.53303 11.9865 6.53745 12.3328 6.60874 12.6626L8.23779 12.3105ZM8.23584 11.9717L9.86997 12.2994C10.1169 11.068 10.523 9.54068 11.0507 8.31772C11.316 7.70268 11.5816 7.23714 11.824 6.93455C12.0838 6.61017 12.1758 6.64579 12.057 6.66816L11.7485 5.03028L11.4401 3.39239C10.4331 3.58202 9.70667 4.24595 9.22229 4.85071C8.72045 5.47724 8.31604 6.24167 7.99006 6.99717C7.33504 8.5153 6.87295 10.2915 6.60171 11.644L8.23584 11.9717Z" fill="white" mask="url(#path-2-outside-1_2813_40406)"/>
<mask id="mask1_2813_40406" style="mask-type:alpha" maskUnits="userSpaceOnUse" x="3" y="3" width="34" height="34">
<rect x="3.3335" y="3.33331" width="33.3333" height="33.3333" fill="#D9D9D9"/>
</mask>
<g mask="url(#mask1_2813_40406)">
<ellipse cx="20.0002" cy="21.9894" rx="16.6667" ry="13.6617" fill="#FFE5C0"/>
<mask id="mask2_2813_40406" style="mask-type:alpha" maskUnits="userSpaceOnUse" x="3" y="8" width="34" height="28">
<ellipse cx="20.0002" cy="21.9894" rx="16.6667" ry="13.6617" fill="#FFF2E0"/>
</mask>
<g mask="url(#mask2_2813_40406)">
<path d="M19.4273 20.3441C11.4802 25.2569 4.70635 22.197 2.53864 18.0661C2.37993 17.7637 2.36849 17.4092 2.47354 17.0841L6.39287 4.95407C6.58094 4.372 7.1229 3.97751 7.73447 3.97751L33.4625 3.97751C34.07 3.97751 34.609 4.36694 34.7998 4.94375L39.2777 18.4857C39.4358 18.9639 39.3313 19.4965 38.968 19.8456C33.7475 24.8618 25.2721 22.47 20.924 20.2784C20.4483 20.0387 19.8806 20.0639 19.4273 20.3441Z" fill="#FFAA33"/>
</g>
<path d="M11.7493 5.02967C9.97288 5.36408 8.75491 9.38755 8.2367 11.9715C8.14401 12.4337 8.45195 12.8784 8.91738 12.9423C13.48 13.5683 16.2691 11.4928 17.3818 9.99765C17.5828 9.72748 17.5636 9.36113 17.3617 9.0916C16.0688 7.36553 13.5653 4.68782 11.7493 5.02967Z" fill="#FFAA33"/>
<path d="M28.2175 5.55512C29.9939 5.88954 31.2119 9.913 31.7301 12.497C31.8228 12.9592 31.5148 13.4039 31.0494 13.4677C26.4868 14.0937 23.6977 12.0182 22.585 10.5231C22.384 10.2529 22.4032 9.88658 22.6051 9.61705C23.8979 7.89098 26.4015 5.21327 28.2175 5.55512Z" fill="#FFAA33"/>
<path d="M20.2901 20.8542C17.6723 20.9899 18.9376 22.7152 19.6793 23.0874C20.2377 23.3677 20.6391 23.1531 20.77 23.0874C21.2063 22.8685 21.5117 22.562 21.7299 22.0803C22.1366 21.1823 20.8136 20.8542 20.2901 20.8542Z" fill="#292A2B"/>
<path d="M20.1914 22.6246V23.7741" stroke="#292A2B" stroke-width="1.14943" stroke-linecap="round"/>
<path d="M18.0845 25.3065C18.0845 25.3065 18.807 24.1571 20.1918 24.1571C21.5765 24.1571 22.299 25.3065 22.299 25.3065" stroke="#292A2B" stroke-width="1.14943" stroke-linecap="round"/>
<circle cx="15.7853" cy="19.3676" r="1.341" fill="#292A2B"/>
<circle cx="24.5969" cy="19.3677" r="1.341" fill="#292A2B"/>
</g>
</g>
</svg>
