<svg width="40" height="40" viewBox="0 0 40 40" fill="none" xmlns="http://www.w3.org/2000/svg">
<mask id="path-1-outside-1_2813_40398" maskUnits="userSpaceOnUse" x="1.3335" y="3.00049" width="37" height="35" fill="black">
<rect fill="white" x="1.3335" y="3.00049" width="37" height="35"/>
<path d="M11.7485 5.03028C13.3853 4.72215 15.5799 6.86743 16.9438 8.55762C17.9346 8.4071 18.9565 8.32813 20.0005 8.32813C21.1692 8.32815 22.3098 8.42661 23.4106 8.61426C24.7776 7.02399 26.7278 5.27569 28.2163 5.55567C29.9348 5.87917 31.129 9.65499 31.6743 12.2402C34.7551 14.7192 36.6665 18.171 36.6665 21.9893C36.6665 29.5343 29.205 35.6512 20.0005 35.6514C10.7957 35.6514 3.3335 29.5344 3.3335 21.9893C3.33354 18.2072 5.20836 14.7843 8.23779 12.3105C8.21445 12.2025 8.21259 12.0876 8.23584 11.9717C8.75405 9.38775 9.97212 5.36479 11.7485 5.03028Z"/>
</mask>
<path d="M11.7485 5.03028C13.3853 4.72215 15.5799 6.86743 16.9438 8.55762C17.9346 8.4071 18.9565 8.32813 20.0005 8.32813C21.1692 8.32815 22.3098 8.42661 23.4106 8.61426C24.7776 7.02399 26.7278 5.27569 28.2163 5.55567C29.9348 5.87917 31.129 9.65499 31.6743 12.2402C34.7551 14.7192 36.6665 18.171 36.6665 21.9893C36.6665 29.5343 29.205 35.6512 20.0005 35.6514C10.7957 35.6514 3.3335 29.5344 3.3335 21.9893C3.33354 18.2072 5.20836 14.7843 8.23779 12.3105C8.21445 12.2025 8.21259 12.0876 8.23584 11.9717C8.75405 9.38775 9.97212 5.36479 11.7485 5.03028Z" fill="#FFAA33"/>
<path d="M11.7485 5.03028L11.4402 3.39238L11.4401 3.39239L11.7485 5.03028ZM16.9438 8.55762L15.6468 9.60431L16.2479 10.3491L17.1942 10.2054L16.9438 8.55762ZM20.0005 8.32813L20.0005 6.66146H20.0005V8.32813ZM23.4106 8.61426L23.1306 10.2572L24.06 10.4157L24.6745 9.7007L23.4106 8.61426ZM28.2163 5.55567L28.5246 3.91777L28.5244 3.91772L28.2163 5.55567ZM31.6743 12.2402L30.0435 12.5842L30.1662 13.166L30.6295 13.5387L31.6743 12.2402ZM36.6665 21.9893H38.3332V21.9892L36.6665 21.9893ZM20.0005 35.6514V37.318H20.0005L20.0005 35.6514ZM3.3335 21.9893L1.66683 21.9892V21.9893H3.3335ZM8.23779 12.3105L9.29194 13.6015L10.0824 12.956L9.86684 11.9585L8.23779 12.3105ZM8.23584 11.9717L6.60171 11.644L6.60169 11.644L8.23584 11.9717ZM11.7485 5.03028L12.0569 6.66817C12.052 6.66908 12.1614 6.64895 12.4362 6.75968C12.7071 6.86879 13.0445 7.06794 13.4336 7.36664C14.2133 7.96511 15.0091 8.8141 15.6468 9.60431L16.9438 8.55762L18.2409 7.51093C17.5146 6.61095 16.5312 5.54221 15.4633 4.72252C14.4972 3.98087 13.0198 3.09502 11.4402 3.39238L11.7485 5.03028ZM16.9438 8.55762L17.1942 10.2054C18.1023 10.0674 19.0406 9.99479 20.0005 9.99479V8.32813V6.66146C18.8725 6.66146 17.7669 6.74679 16.6935 6.90986L16.9438 8.55762ZM20.0005 8.32813L20.0005 9.99479C21.0756 9.99482 22.1225 10.0854 23.1306 10.2572L23.4106 8.61426L23.6907 6.97129C22.4971 6.76783 21.2628 6.66149 20.0005 6.66146L20.0005 8.32813ZM23.4106 8.61426L24.6745 9.7007C25.3129 8.95808 26.0424 8.23377 26.7341 7.74162C27.0783 7.49674 27.3687 7.34143 27.5959 7.25935C27.8239 7.177 27.9136 7.19461 27.9082 7.19361L28.2163 5.55567L28.5244 3.91772C27.0737 3.64486 25.7201 4.37216 24.8016 5.02562C23.8044 5.7352 22.8754 6.68018 22.1467 7.52782L23.4106 8.61426ZM28.2163 5.55567L27.908 7.19356C27.7914 7.17162 27.8738 7.13554 28.1182 7.43239C28.3478 7.71127 28.6035 8.14491 28.8624 8.72708C29.3775 9.88521 29.7831 11.3495 30.0435 12.5842L31.6743 12.2402L33.3051 11.8962C33.0202 10.5457 32.5561 8.82948 31.9081 7.37252C31.5855 6.64713 31.1863 5.91459 30.6916 5.31373C30.2117 4.73084 29.5005 4.10147 28.5246 3.91777L28.2163 5.55567ZM31.6743 12.2402L30.6295 13.5387C33.3872 15.7578 34.9998 18.7592 34.9998 21.9893L36.6665 21.9893L38.3332 21.9892C38.3331 17.5827 36.123 13.6807 32.7192 10.9418L31.6743 12.2402ZM36.6665 21.9893H34.9998C34.9998 28.3194 28.6096 33.9845 20.0005 33.9847L20.0005 35.6514L20.0005 37.318C29.8004 37.3178 38.3332 30.7492 38.3332 21.9893H36.6665ZM20.0005 35.6514V33.9847C11.3911 33.9847 5.00016 28.3194 5.00016 21.9893H3.3335H1.66683C1.66683 30.7494 10.2004 37.318 20.0005 37.318V35.6514ZM3.3335 21.9893L5.00016 21.9893C5.0002 18.7894 6.5821 15.8143 9.29194 13.6015L8.23779 12.3105L7.18365 11.0196C3.83461 13.7543 1.66688 17.6251 1.66683 21.9892L3.3335 21.9893ZM8.23779 12.3105L9.86684 11.9585C9.89144 12.0723 9.89215 12.1888 9.86999 12.2993L8.23584 11.9717L6.60169 11.644C6.53303 11.9865 6.53745 12.3328 6.60874 12.6626L8.23779 12.3105ZM8.23584 11.9717L9.86997 12.2994C10.1169 11.068 10.523 9.54068 11.0507 8.31772C11.316 7.70268 11.5816 7.23714 11.824 6.93455C12.0838 6.61017 12.1758 6.64579 12.057 6.66816L11.7485 5.03028L11.4401 3.39239C10.4331 3.58202 9.70667 4.24595 9.22229 4.85071C8.72045 5.47724 8.31604 6.24167 7.99006 6.99717C7.33504 8.5153 6.87295 10.2915 6.60171 11.644L8.23584 11.9717Z" fill="white" mask="url(#path-1-outside-1_2813_40398)"/>
<ellipse cx="20.0002" cy="22.1097" rx="16.6667" ry="13.6617" fill="#FFE5C0"/>
<mask id="mask0_2813_40398" style="mask-type:alpha" maskUnits="userSpaceOnUse" x="3" y="8" width="34" height="28">
<ellipse cx="20.0002" cy="22.1097" rx="16.6667" ry="13.6617" fill="#FFF2E0"/>
</mask>
<g mask="url(#mask0_2813_40398)">
<path d="M19.4273 20.4496C11.4802 25.3624 4.70635 22.3024 2.53864 18.1716C2.37993 17.8692 2.36849 17.5147 2.47354 17.1896L6.39287 5.05954C6.58094 4.47747 7.1229 4.08298 7.73447 4.08298L33.4625 4.08298C34.07 4.08298 34.609 4.47241 34.7998 5.04922L39.2777 18.5911C39.4358 19.0693 39.3313 19.6019 38.968 19.951C33.7475 24.9673 25.2721 22.5755 20.924 20.3839C20.4483 20.1441 19.8806 20.1694 19.4273 20.4496Z" fill="#FFAA33"/>
<path d="M6.82402 20.1533C7.11146 20.0762 7.40644 20.2315 7.50986 20.5038L7.5282 20.5596L7.98991 22.2837L8.00226 22.3414C8.04889 22.6289 7.87103 22.9109 7.58357 22.9879C7.29615 23.0649 7.00112 22.9097 6.89773 22.6373L6.87978 22.5816L6.41769 20.8574L6.40534 20.7998C6.35874 20.5123 6.53665 20.2303 6.82402 20.1533Z" fill="#F15F5F"/>
<path d="M8.54863 20.1533C8.83607 20.0762 9.13104 20.2315 9.23447 20.5038L9.25281 20.5596L9.71452 22.2837L9.72687 22.3414C9.7735 22.6289 9.59564 22.9109 9.30818 22.9879C9.02076 23.0649 8.72573 22.9097 8.62234 22.6373L8.60438 22.5816L8.14229 20.8574L8.12995 20.7998C8.08335 20.5123 8.26126 20.2303 8.54863 20.1533Z" fill="#F15F5F"/>
<path d="M30.0047 20.1533C30.2921 20.0762 30.5871 20.2315 30.6905 20.5038L30.7089 20.5596L31.1706 22.2837L31.1829 22.3414C31.2296 22.6289 31.0517 22.9109 30.7642 22.9879C30.4768 23.0649 30.1818 22.9097 30.0784 22.6373L30.0604 22.5816L29.5983 20.8574L29.586 20.7998C29.5394 20.5123 29.7173 20.2303 30.0047 20.1533Z" fill="#F15F5F"/>
<path d="M31.9202 20.1533C32.2077 20.0762 32.5026 20.2315 32.6061 20.5038L32.6244 20.5596L33.0861 22.2837L33.0985 22.3414C33.1451 22.6289 32.9672 22.9109 32.6798 22.9879C32.3923 23.0649 32.0973 22.9097 31.9939 22.6373L31.976 22.5816L31.5139 20.8574L31.5015 20.7998C31.4549 20.5123 31.6328 20.2303 31.9202 20.1533Z" fill="#F15F5F"/>
</g>
<path d="M11.7493 5.02949C9.97288 5.3639 8.75491 9.38737 8.2367 11.9713C8.14401 12.4335 8.45195 12.8782 8.91738 12.9421C13.48 13.5681 16.2691 11.4926 17.3818 9.99746C17.5828 9.7273 17.5636 9.36095 17.3617 9.09141C16.0688 7.36535 13.5653 4.68763 11.7493 5.02949Z" fill="#FFAA33"/>
<path d="M28.2175 5.55469C29.9939 5.88911 31.2119 9.91257 31.7301 12.4965C31.8228 12.9587 31.5148 13.4034 31.0494 13.4673C26.4868 14.0933 23.6977 12.0178 22.585 10.5227C22.384 10.2525 22.4032 9.88616 22.6051 9.61662C23.8979 7.89055 26.4015 5.21284 28.2175 5.55469Z" fill="#FFAA33"/>
<path d="M16.1685 24.5402C16.6282 25.1532 17.6725 25.2061 17.6725 25.2061C18.4578 25.2353 20.0634 24.6023 20.203 22.9559C20.2466 23.6711 20.5091 24.9259 22.3939 25.2061C22.7453 25.2396 23.2566 25.2061 24.0229 24.5402" stroke="#292A2B" stroke-width="1.14943" stroke-linecap="round"/>
<path d="M20.2901 20.8541C17.6723 20.9898 18.9376 22.7151 19.6793 23.0873C20.2377 23.3675 20.6391 23.153 20.77 23.0873C21.2063 22.8684 21.5117 22.5618 21.7299 22.0802C22.1366 21.1821 20.8136 20.8541 20.2901 20.8541Z" fill="#292A2B"/>
<ellipse cx="15.8338" cy="19.2688" rx="1.3089" ry="1.62014" fill="#292A2B"/>
<ellipse cx="24.7775" cy="19.2685" rx="1.26527" ry="1.62014" fill="#292A2B"/>
</svg>
