<svg width="40" height="40" viewBox="0 0 40 40" fill="none" xmlns="http://www.w3.org/2000/svg">
<mask id="mask0_2813_40410" style="mask-type:alpha" maskUnits="userSpaceOnUse" x="0" y="0" width="40" height="40">
<rect width="40" height="40" fill="#D9D9D9"/>
</mask>
<g mask="url(#mask0_2813_40410)">
<mask id="path-2-outside-1_2813_40410" maskUnits="userSpaceOnUse" x="1.33325" y="3.00055" width="37" height="35" fill="black">
<rect fill="white" x="1.33325" y="3.00055" width="37" height="35"/>
<path d="M11.7493 5.03029C13.3859 4.72244 15.5797 6.86758 16.9436 8.55763C17.9345 8.40709 18.9562 8.32814 20.0002 8.32814C21.1693 8.32815 22.3102 8.42653 23.4114 8.61427C24.7784 7.02401 26.7285 5.2757 28.217 5.55568C29.9356 5.87919 31.1297 9.655 31.675 12.2402C34.7555 14.7192 36.6662 18.1712 36.6663 21.9893C36.6663 29.5344 29.2049 35.6513 20.0002 35.6514C10.7955 35.6514 3.33325 29.5344 3.33325 21.9893C3.33329 18.2069 5.20855 14.7834 8.23853 12.3096C8.21535 12.2018 8.21338 12.0874 8.23657 11.9717C8.75479 9.38772 9.97282 5.3647 11.7493 5.03029Z"/>
</mask>
<path d="M11.7493 5.03029C13.3859 4.72244 15.5797 6.86758 16.9436 8.55763C17.9345 8.40709 18.9562 8.32814 20.0002 8.32814C21.1693 8.32815 22.3102 8.42653 23.4114 8.61427C24.7784 7.02401 26.7285 5.2757 28.217 5.55568C29.9356 5.87919 31.1297 9.655 31.675 12.2402C34.7555 14.7192 36.6662 18.1712 36.6663 21.9893C36.6663 29.5344 29.2049 35.6513 20.0002 35.6514C10.7955 35.6514 3.33325 29.5344 3.33325 21.9893C3.33329 18.2069 5.20855 14.7834 8.23853 12.3096C8.21535 12.2018 8.21338 12.0874 8.23657 11.9717C8.75479 9.38772 9.97282 5.3647 11.7493 5.03029Z" fill="#FFAA33"/>
<path d="M11.7493 5.03029L11.4412 3.39234L11.4409 3.39239L11.7493 5.03029ZM16.9436 8.55763L15.6466 9.60435L16.2477 10.3492L17.1939 10.2054L16.9436 8.55763ZM20.0002 8.32814L20.0003 6.66147H20.0002V8.32814ZM23.4114 8.61427L23.1313 10.2572L24.0607 10.4157L24.6753 9.70071L23.4114 8.61427ZM28.217 5.55568L28.5254 3.91778L28.5251 3.91773L28.217 5.55568ZM31.675 12.2402L30.0443 12.5842L30.167 13.166L30.6301 13.5387L31.675 12.2402ZM36.6663 21.9893H38.3329V21.9893L36.6663 21.9893ZM20.0002 35.6514V37.318H20.0003L20.0002 35.6514ZM3.33325 21.9893L1.66659 21.9893V21.9893H3.33325ZM8.23853 12.3096L9.29257 13.6006L10.0822 12.9559L9.86796 11.9593L8.23853 12.3096ZM8.23657 11.9717L6.60244 11.644L6.60244 11.644L8.23657 11.9717ZM11.7493 5.03029L12.0574 6.66823C12.0525 6.66914 12.1618 6.64903 12.4366 6.75975C12.7073 6.86887 13.0447 7.06801 13.4337 7.3667C14.2132 7.96515 15.0089 8.81409 15.6466 9.60435L16.9436 8.55763L18.2406 7.51091C17.5144 6.61112 16.5313 5.54246 15.4637 4.72279C14.4978 3.98115 13.0207 3.09525 11.4412 3.39234L11.7493 5.03029ZM16.9436 8.55763L17.1939 10.2054C18.1022 10.0674 19.0402 9.99481 20.0002 9.99481V8.32814V6.66147C18.8722 6.66147 17.7668 6.74678 16.6933 6.90987L16.9436 8.55763ZM20.0002 8.32814L20.0002 9.99481C21.0758 9.99482 22.123 10.0853 23.1313 10.2572L23.4114 8.61427L23.6915 6.97131C22.4975 6.76773 21.2628 6.66149 20.0003 6.66147L20.0002 8.32814ZM23.4114 8.61427L24.6753 9.70071C25.3136 8.95809 26.0432 8.23378 26.7349 7.74163C27.079 7.49675 27.3694 7.34144 27.5967 7.25936C27.8246 7.17701 27.9143 7.19463 27.909 7.19362L28.217 5.55568L28.5251 3.91773C27.0744 3.64487 25.7208 4.37217 24.8024 5.02564C23.8051 5.73521 22.8761 6.68019 22.1475 7.52784L23.4114 8.61427ZM28.217 5.55568L27.9087 7.19358C27.7921 7.17163 27.8746 7.13555 28.119 7.4324C28.3486 7.71128 28.6042 8.14493 28.8631 8.72709C29.3782 9.88522 29.7838 11.3495 30.0443 12.5842L31.675 12.2402L33.3058 11.8963C33.021 10.5458 32.5568 8.82949 31.9088 7.37253C31.5862 6.64715 31.1871 5.91461 30.6924 5.31374C30.2125 4.73085 29.5012 4.10148 28.5254 3.91778L28.217 5.55568ZM31.675 12.2402L30.6301 13.5387C33.3875 15.7576 34.9996 18.7592 34.9996 21.9893L36.6663 21.9893L38.3329 21.9893C38.3329 17.5831 36.1236 13.6809 32.7199 10.9418L31.675 12.2402ZM36.6663 21.9893H34.9996C34.9996 28.3195 28.6094 33.9846 20.0002 33.9847L20.0002 35.6514L20.0003 37.318C29.8003 37.3179 38.3329 30.7493 38.3329 21.9893H36.6663ZM20.0002 35.6514V33.9847C11.3908 33.9847 4.99992 28.3194 4.99992 21.9893H3.33325H1.66659C1.66659 30.7495 10.2002 37.318 20.0002 37.318V35.6514ZM3.33325 21.9893L4.99992 21.9893C4.99995 18.789 6.58225 15.8134 9.29257 13.6006L8.23853 12.3096L7.18448 11.0186C3.83485 13.7533 1.66663 17.6247 1.66659 21.9893L3.33325 21.9893ZM8.23853 12.3096L9.86796 11.9593C9.89195 12.0709 9.8932 12.1872 9.8707 12.2994L8.23657 11.9717L6.60244 11.644C6.53355 11.9875 6.53875 12.3327 6.60909 12.6599L8.23853 12.3096ZM8.23657 11.9717L9.8707 12.2994C10.1177 11.0679 10.5237 9.54064 11.0514 8.31767C11.3168 7.70263 11.5823 7.2371 11.8247 6.93452C12.0845 6.61016 12.1764 6.64581 12.0576 6.66819L11.7493 5.03029L11.4409 3.39239C10.4339 3.58197 9.70741 4.2459 9.22301 4.85066C8.72117 5.4772 8.31675 6.24163 7.99078 6.99714C7.33576 8.51528 6.87369 10.2915 6.60244 11.644L8.23657 11.9717Z" fill="white" mask="url(#path-2-outside-1_2813_40410)"/>
<mask id="mask1_2813_40410" style="mask-type:alpha" maskUnits="userSpaceOnUse" x="3" y="3" width="34" height="34">
<rect x="3.33325" y="3.33331" width="33.3333" height="33.3333" fill="#D9D9D9"/>
</mask>
<g mask="url(#mask1_2813_40410)">
<ellipse cx="19.9999" cy="21.9894" rx="16.6667" ry="13.6617" fill="#FFE5C0"/>
<mask id="mask2_2813_40410" style="mask-type:alpha" maskUnits="userSpaceOnUse" x="3" y="8" width="34" height="28">
<ellipse cx="19.9999" cy="21.9894" rx="16.6667" ry="13.6617" fill="#FFF2E0"/>
</mask>
<g mask="url(#mask2_2813_40410)">
<path d="M19.4275 20.3441C11.4805 25.2569 4.7066 22.197 2.53888 18.0661C2.38017 17.7637 2.36874 17.4092 2.47379 17.0841L6.39312 4.95407C6.58119 4.372 7.12314 3.97751 7.73471 3.97751L33.4627 3.97751C34.0703 3.97751 34.6093 4.36694 34.8 4.94375L39.2779 18.4857C39.436 18.9639 39.3316 19.4965 38.9683 19.8456C33.7478 24.8618 25.2724 22.47 20.9243 20.2784C20.4485 20.0387 19.8808 20.0639 19.4275 20.3441Z" fill="#FFAA33"/>
</g>
<path d="M11.7488 5.02967C9.97239 5.36408 8.75442 9.38755 8.23621 11.9715C8.14352 12.4337 8.45146 12.8784 8.91689 12.9423C13.4795 13.5683 16.2686 11.4928 17.3813 9.99765C17.5823 9.72748 17.5631 9.36113 17.3612 9.0916C16.0684 7.36553 13.5648 4.68782 11.7488 5.02967Z" fill="#FFAA33"/>
<path d="M28.2172 5.55512C29.9937 5.88954 31.2116 9.913 31.7299 12.497C31.8225 12.9592 31.5146 13.4039 31.0492 13.4677C26.4865 14.0937 23.6975 12.0182 22.5848 10.5231C22.3837 10.2529 22.4029 9.88658 22.6048 9.61705C23.8977 7.89098 26.4013 5.21327 28.2172 5.55512Z" fill="#FFAA33"/>
<path d="M20.2906 20.8542C17.6728 20.9899 18.9381 22.7152 19.6798 23.0874C20.2382 23.3677 20.6396 23.1531 20.7705 23.0874C21.2068 22.8685 21.5122 22.562 21.7304 22.0803C22.1371 21.1823 20.8141 20.8542 20.2906 20.8542Z" fill="#292A2B"/>
<path d="M20.1917 22.6246V23.7741" stroke="#292A2B" stroke-width="1.14943" stroke-linecap="round"/>
<path d="M18.0842 25.3065C18.0842 25.3065 18.8067 24.1571 20.1915 24.1571C21.5763 24.1571 22.2988 25.3065 22.2988 25.3065" stroke="#292A2B" stroke-width="1.14943" stroke-linecap="round"/>
<circle cx="15.7856" cy="19.3676" r="1.341" fill="#292A2B"/>
<circle cx="24.5978" cy="19.3677" r="1.341" fill="#292A2B"/>
<path d="M27.4714 24.5402C27.4714 25.3866 26.7852 26.0728 25.9388 26.0728C25.0924 26.0728 24.4062 25.3866 24.4062 24.5402C24.4062 23.9429 25.1695 22.4714 25.6187 21.657C25.7597 21.4013 26.1179 21.4013 26.2589 21.657C26.7082 22.4714 27.4714 23.9429 27.4714 24.5402Z" fill="#95CFFF"/>
</g>
</g>
</svg>
