<svg width="40" height="40" viewBox="0 0 40 40" fill="none" xmlns="http://www.w3.org/2000/svg">
<mask id="mask0_2813_40402" style="mask-type:alpha" maskUnits="userSpaceOnUse" x="0" y="0" width="40" height="40">
<rect width="40" height="40" fill="#D9D9D9"/>
</mask>
<g mask="url(#mask0_2813_40402)">
<mask id="path-2-outside-1_2813_40402" maskUnits="userSpaceOnUse" x="1.3335" y="3.00049" width="37" height="35" fill="black">
<rect fill="white" x="1.3335" y="3.00049" width="37" height="35"/>
<path d="M11.7485 5.02979C13.3851 4.72172 15.5788 6.86707 16.9429 8.55713C17.9339 8.40653 18.9562 8.32764 20.0005 8.32764C21.1692 8.32766 22.3098 8.42613 23.4106 8.61377C24.7776 7.02361 26.7279 5.2753 28.2163 5.55518C29.9349 5.8787 31.129 9.65546 31.6743 12.2407C34.755 14.7197 36.6665 18.1715 36.6665 21.9897C36.6663 29.5346 29.2049 35.6507 20.0005 35.6509C10.7959 35.6509 3.33374 29.5347 3.3335 21.9897C3.3335 18.2076 5.20818 14.7838 8.23779 12.3101C8.21454 12.2022 8.21262 12.087 8.23584 11.9712C8.7541 9.38721 9.97218 5.36418 11.7485 5.02979Z"/>
</mask>
<path d="M11.7485 5.02979C13.3851 4.72172 15.5788 6.86707 16.9429 8.55713C17.9339 8.40653 18.9562 8.32764 20.0005 8.32764C21.1692 8.32766 22.3098 8.42613 23.4106 8.61377C24.7776 7.02361 26.7279 5.2753 28.2163 5.55518C29.9349 5.8787 31.129 9.65546 31.6743 12.2407C34.755 14.7197 36.6665 18.1715 36.6665 21.9897C36.6663 29.5346 29.2049 35.6507 20.0005 35.6509C10.7959 35.6509 3.33374 29.5347 3.3335 21.9897C3.3335 18.2076 5.20818 14.7838 8.23779 12.3101C8.21454 12.2022 8.21262 12.087 8.23584 11.9712C8.7541 9.38721 9.97218 5.36418 11.7485 5.02979Z" fill="#FFAA33"/>
<path d="M11.7485 5.02979L11.4402 3.39188L11.4402 3.39189L11.7485 5.02979ZM16.9429 8.55713L15.6459 9.60389L16.247 10.3487L17.1933 10.2049L16.9429 8.55713ZM20.0005 8.32764L20.0005 6.66097H20.0005V8.32764ZM23.4106 8.61377L23.1306 10.2567L24.06 10.4152L24.6745 9.70023L23.4106 8.61377ZM28.2163 5.55518L28.5246 3.91728L28.5243 3.91721L28.2163 5.55518ZM31.6743 12.2407L30.0435 12.5847L30.1662 13.1664L30.6294 13.5392L31.6743 12.2407ZM36.6665 21.9897L38.3332 21.9898V21.9897H36.6665ZM20.0005 35.6509L20.0005 37.3175L20.0005 37.3175L20.0005 35.6509ZM3.3335 21.9897L1.66683 21.9897L1.66683 21.9898L3.3335 21.9897ZM8.23779 12.3101L9.29191 13.601L10.0819 12.956L9.86705 11.9589L8.23779 12.3101ZM8.23584 11.9712L6.60172 11.6434L6.60171 11.6435L8.23584 11.9712ZM11.7485 5.02979L12.0569 6.66769C12.0519 6.66862 12.1611 6.64846 12.4358 6.75917C12.7065 6.86827 13.0439 7.0674 13.4329 7.3661C14.2123 7.96458 15.0081 8.81358 15.6459 9.60389L16.9429 8.55713L18.2398 7.51037C17.5136 6.61062 16.5305 5.54191 15.4629 4.72222C14.497 3.9806 13.0198 3.09454 11.4402 3.39188L11.7485 5.02979ZM16.9429 8.55713L17.1933 10.2049C18.1015 10.0669 19.0401 9.9943 20.0005 9.9943V8.32764V6.66097C18.8723 6.66097 17.7663 6.7462 16.6925 6.90938L16.9429 8.55713ZM20.0005 8.32764L20.0004 9.9943C21.0756 9.99433 22.1225 10.0849 23.1306 10.2567L23.4106 8.61377L23.6907 6.9708C22.4971 6.76735 21.2628 6.661 20.0005 6.66097L20.0005 8.32764ZM23.4106 8.61377L24.6745 9.70023C25.3128 8.95768 26.0424 8.23338 26.7341 7.74121C27.0783 7.49633 27.3688 7.341 27.596 7.2589C27.824 7.17653 27.9137 7.19415 27.9083 7.19314L28.2163 5.55518L28.5243 3.91721C27.0737 3.64445 25.7201 4.37177 24.8017 5.0252C23.8044 5.73477 22.8754 6.6797 22.1468 7.52731L23.4106 8.61377ZM28.2163 5.55518L27.908 7.19307C27.7913 7.17111 27.8738 7.13499 28.1182 7.43194C28.3478 7.7109 28.6035 8.14467 28.8624 8.72696C29.3775 9.88536 29.7831 11.3499 30.0435 12.5847L31.6743 12.2407L33.3051 11.8968C33.0203 10.5463 32.5562 8.82981 31.9082 7.37263C31.5856 6.64714 31.1865 5.91448 30.6918 5.31352C30.2119 4.73055 29.5006 4.10101 28.5246 3.91728L28.2163 5.55518ZM31.6743 12.2407L30.6294 13.5392C33.3871 15.7583 34.9998 18.7598 34.9998 21.9897H36.6665H38.3332C38.3332 17.5832 36.1228 13.6812 32.7192 10.9423L31.6743 12.2407ZM36.6665 21.9897L34.9998 21.9897C34.9996 28.3196 28.6095 33.984 20.0004 33.9842L20.0005 35.6509L20.0005 37.3175C29.8002 37.3173 38.3329 30.7496 38.3332 21.9898L36.6665 21.9897ZM20.0005 35.6509V33.9842C11.3911 33.9842 5.00037 28.3196 5.00016 21.9897L3.3335 21.9897L1.66683 21.9898C1.66711 30.7499 10.2007 37.3175 20.0005 37.3175V35.6509ZM3.3335 21.9897H5.00016C5.00016 18.7896 6.58206 15.8137 9.29191 13.601L8.23779 12.3101L7.18368 11.0191C3.83431 13.7539 1.66683 17.6256 1.66683 21.9897H3.3335ZM8.23779 12.3101L9.86705 11.9589C9.89132 12.0715 9.89232 12.1875 9.86997 12.2989L8.23584 11.9712L6.60171 11.6435C6.53291 11.9865 6.53776 12.3328 6.60854 12.6612L8.23779 12.3101ZM8.23584 11.9712L9.86996 12.2989C10.117 11.0674 10.523 9.54014 11.0507 8.31716C11.3161 7.70211 11.5816 7.23658 11.824 6.934C12.0838 6.60963 12.1757 6.6453 12.0569 6.66768L11.7485 5.02979L11.4402 3.39189C10.4331 3.58146 9.7067 4.24542 9.22232 4.85016C8.72049 5.47669 8.31608 6.24112 7.9901 6.99662C7.33508 8.51475 6.87298 10.2909 6.60172 11.6434L8.23584 11.9712Z" fill="white" mask="url(#path-2-outside-1_2813_40402)"/>
<mask id="mask1_2813_40402" style="mask-type:alpha" maskUnits="userSpaceOnUse" x="3" y="3" width="34" height="34">
<rect x="3.3335" y="3.33331" width="33.3333" height="33.3333" fill="#D9D9D9"/>
</mask>
<g mask="url(#mask1_2813_40402)">
<ellipse cx="20.0002" cy="21.9894" rx="16.6667" ry="13.6617" fill="#FFE5C0"/>
<mask id="mask2_2813_40402" style="mask-type:alpha" maskUnits="userSpaceOnUse" x="3" y="8" width="34" height="28">
<ellipse cx="20.0002" cy="21.9894" rx="16.6667" ry="13.6617" fill="#FFF2E0"/>
</mask>
<g mask="url(#mask2_2813_40402)">
<path d="M19.4273 20.3441C11.4802 25.2569 4.70635 22.197 2.53864 18.0661C2.37993 17.7637 2.36849 17.4092 2.47354 17.0841L6.39287 4.95407C6.58094 4.372 7.1229 3.97751 7.73447 3.97751L33.4625 3.97751C34.07 3.97751 34.609 4.36694 34.7998 4.94375L39.2777 18.4857C39.4358 18.9639 39.3313 19.4965 38.968 19.8456C33.7475 24.8618 25.2721 22.47 20.924 20.2784C20.4483 20.0387 19.8806 20.0639 19.4273 20.3441Z" fill="#FFAA33"/>
</g>
<path d="M11.7493 5.02967C9.97288 5.36408 8.75491 9.38755 8.2367 11.9715C8.14401 12.4337 8.45195 12.8784 8.91738 12.9423C13.48 13.5683 16.2691 11.4928 17.3818 9.99765C17.5828 9.72748 17.5636 9.36113 17.3617 9.0916C16.0688 7.36553 13.5653 4.68782 11.7493 5.02967Z" fill="#FFAA33"/>
<path d="M28.2175 5.55512C29.9939 5.88954 31.2119 9.913 31.7301 12.497C31.8228 12.9592 31.5148 13.4039 31.0494 13.4677C26.4868 14.0937 23.6977 12.0182 22.585 10.5231C22.384 10.2529 22.4032 9.88658 22.6051 9.61705C23.8979 7.89098 26.4015 5.21327 28.2175 5.55512Z" fill="#FFAA33"/>
<path d="M17.6724 25.2063C18.4577 25.2355 20.0633 24.6026 20.2029 22.9562C20.2465 23.6714 20.509 24.9261 22.3938 25.2063" stroke="#292A2B" stroke-width="1.14943" stroke-linecap="round"/>
<path d="M20.2901 20.8542C17.6723 20.9899 18.9376 22.7152 19.6793 23.0874C20.2377 23.3677 20.6391 23.1531 20.77 23.0874C21.2063 22.8685 21.5117 22.562 21.7299 22.0803C22.1366 21.1823 20.8136 20.8542 20.2901 20.8542Z" fill="#292A2B"/>
<ellipse cx="15.8338" cy="19.2689" rx="1.3089" ry="1.62014" fill="#292A2B"/>
<ellipse cx="24.7775" cy="19.2686" rx="1.26527" ry="1.62014" fill="#292A2B"/>
</g>
</g>
</svg>
