<svg width="24" height="24" viewBox="0 0 24 24" fill="none" xmlns="http://www.w3.org/2000/svg">
<mask id="mask0_2294_26992" style="mask-type:alpha" maskUnits="userSpaceOnUse" x="0" y="0" width="24" height="24">
<rect width="24" height="24" fill="#D9D9D9"/>
</mask>
<g mask="url(#mask0_2294_26992)">
<mask id="mask1_2294_26992" style="mask-type:alpha" maskUnits="userSpaceOnUse" x="2" y="2" width="20" height="20">
<rect x="2" y="2" width="20" height="20" fill="#D9D9D9"/>
</mask>
<g mask="url(#mask1_2294_26992)">
<path d="M6.34313 6.34315C9.46733 3.21895 14.5326 3.21895 17.6568 6.34315C20.781 9.46734 20.781 14.5327 17.6568 17.6569C14.5326 20.781 9.46733 20.781 6.34313 17.6569C3.21894 14.5327 3.21894 9.46734 6.34313 6.34315ZM11.2929 14.1213C10.9024 14.5118 10.9024 15.145 11.2929 15.5355C11.6834 15.9261 12.3166 15.9261 12.7071 15.5355C13.0976 15.145 13.0976 14.5118 12.7071 14.1213C12.3166 13.7308 11.6834 13.7308 11.2929 14.1213ZM14.1213 11.2929C13.7308 11.6834 13.7308 12.3166 14.1213 12.7071C14.5118 13.0976 15.145 13.0976 15.5355 12.7071C15.926 12.3166 15.926 11.6834 15.5355 11.2929C15.145 10.9024 14.5118 10.9024 14.1213 11.2929ZM8.46445 11.2929C8.07393 11.6834 8.07393 12.3166 8.46445 12.7071C8.85498 13.0976 9.48814 13.0976 9.87867 12.7071C10.2692 12.3166 10.2692 11.6834 9.87867 11.2929C9.48814 10.9024 8.85498 10.9024 8.46445 11.2929ZM11.2929 8.46447C10.9024 8.85499 10.9024 9.48816 11.2929 9.87868C11.6834 10.2692 12.3166 10.2692 12.7071 9.87868C13.0976 9.48816 13.0976 8.85499 12.7071 8.46447C12.3166 8.07394 11.6834 8.07394 11.2929 8.46447Z" fill="#F15F5F"/>
<path d="M7.75729 7.75736C10.1004 5.41421 13.8994 5.41421 16.2426 7.75736C18.5857 10.1005 18.5857 13.8995 16.2426 16.2426C13.8994 18.5858 10.1004 18.5858 7.75729 16.2426C5.41414 13.8995 5.41414 10.1005 7.75729 7.75736ZM11.2928 14.1213C10.9023 14.5118 10.9023 15.145 11.2928 15.5355C11.6833 15.9261 12.3165 15.9261 12.707 15.5355C13.0976 15.145 13.0976 14.5118 12.707 14.1213C12.3165 13.7308 11.6833 13.7308 11.2928 14.1213ZM14.1212 11.2929C13.7307 11.6834 13.7307 12.3166 14.1212 12.7071C14.5118 13.0976 15.1449 13.0976 15.5355 12.7071C15.926 12.3166 15.926 11.6834 15.5355 11.2929C15.1449 10.9024 14.5118 10.9024 14.1212 11.2929ZM8.4644 11.2929C8.07387 11.6834 8.07387 12.3166 8.4644 12.7071C8.85492 13.0976 9.48809 13.0976 9.87861 12.7071C10.2691 12.3166 10.2691 11.6834 9.87861 11.2929C9.48809 10.9024 8.85492 10.9024 8.4644 11.2929ZM11.2928 8.46447C10.9023 8.85499 10.9023 9.48816 11.2928 9.87868C11.6833 10.2692 12.3165 10.2692 12.707 9.87868C13.0976 9.48816 13.0976 8.85499 12.707 8.46447C12.3165 8.07394 11.6833 8.07394 11.2928 8.46447Z" fill="#D73F3F"/>
</g>
</g>
</svg>
