<svg width="24" height="24" viewBox="0 0 24 24" fill="none" xmlns="http://www.w3.org/2000/svg">
<mask id="mask0_3223_37852" style="mask-type:alpha" maskUnits="userSpaceOnUse" x="0" y="0" width="24" height="24">
<rect width="24" height="24" fill="#D9D9D9"/>
</mask>
<g mask="url(#mask0_3223_37852)">
<mask id="mask1_3223_37852" style="mask-type:alpha" maskUnits="userSpaceOnUse" x="2" y="2" width="20" height="20">
<rect x="2" y="2" width="20" height="20" fill="#D9D9D9"/>
</mask>
<g mask="url(#mask1_3223_37852)">
<path d="M2 5C2 3.34315 3.34315 2 5 2H19C20.6569 2 22 3.34315 22 5V19C22 20.6569 20.6569 22 19 22H5C3.34315 22 2 20.6569 2 19V5Z" fill="#593B12"/>
<path d="M4 6C4 4.89543 4.89543 4 6 4H18C19.1046 4 20 4.89543 20 6V18C20 19.1046 19.1046 20 18 20H6C4.89543 20 4 19.1046 4 18V6Z" fill="white"/>
<path d="M6.39718 13.25C6.78208 12.5833 7.74433 12.5833 8.12923 13.25L12.0263 20H5.96417C4.42457 20 3.46231 18.3333 4.23211 17L6.39718 13.25Z" fill="#69B177"/>
<path d="M14.1397 11.3018C14.7356 10.2935 16.2055 10.3265 16.7555 11.3606L19.7869 17.0607C20.4954 18.3928 19.5299 19.9998 18.0211 19.9998H10.7524C10.3711 19.9998 9.4998 19.9999 9 19.9999C9.28868 19.4999 9.69162 18.8293 9.89152 18.491L14.1397 11.3018Z" fill="#28A240"/>
<circle cx="10" cy="10" r="2" fill="#F15F5F"/>
</g>
</g>
</svg>
