<svg width="24" height="24" viewBox="0 0 24 24" fill="none" xmlns="http://www.w3.org/2000/svg">
<mask id="mask0_3471_36666" style="mask-type:alpha" maskUnits="userSpaceOnUse" x="0" y="0" width="24" height="24">
<rect width="24" height="24" fill="#D9D9D9"/>
</mask>
<g mask="url(#mask0_3471_36666)">
<mask id="mask1_3471_36666" style="mask-type:alpha" maskUnits="userSpaceOnUse" x="2" y="2" width="20" height="20">
<rect x="2" y="2" width="20" height="20" fill="#D9D9D9"/>
</mask>
<g mask="url(#mask1_3471_36666)">
<mask id="mask2_3471_36666" style="mask-type:alpha" maskUnits="userSpaceOnUse" x="4" y="4" width="16" height="16">
<path d="M4 8.34967C4 8.02487 4.14579 7.71627 4.3991 7.50489L7.67901 4.76786C7.88614 4.59501 8.14996 4.5 8.42277 4.5H12H15.5772C15.85 4.5 16.1139 4.59501 16.321 4.76786L19.6009 7.50489C19.8542 7.71627 20 8.02487 20 8.34967V10.7578C20 11.0273 19.8995 11.2877 19.7172 11.4905L12.8601 19.12C12.4048 19.6267 11.5952 19.6267 11.1399 19.12L4.28277 11.4905C4.10048 11.2877 4 11.0273 4 10.7578V8.34967Z" fill="#7AC5FF"/>
</mask>
<g mask="url(#mask2_3471_36666)">
<path d="M4 8.34967C4 8.02487 4.14579 7.71627 4.3991 7.50489L7.67901 4.76786C7.88614 4.59501 8.14996 4.5 8.42277 4.5H12H15.5772C15.85 4.5 16.1139 4.59501 16.321 4.76786L19.6009 7.50489C19.8542 7.71627 20 8.02487 20 8.34967V10.7578C20 11.0273 19.8995 11.2877 19.7172 11.4905L12.8601 19.12C12.4048 19.6267 11.5952 19.6267 11.1399 19.12L4.28277 11.4905C4.10048 11.2877 4 11.0273 4 10.7578V8.34967Z" fill="#7AC5FF"/>
<path d="M19.9998 12.2643V10.0632H16.5712L11.9998 20.077L19.9998 12.2643Z" fill="#29A2FF"/>
<path d="M4 12.2643V10.0632H7.42857L12 20.077L4 12.2643Z" fill="#29A2FF"/>
<path d="M11.9999 20.077L7.42847 10.0632H16.5713L11.9999 20.077Z" fill="#80C8FF"/>
<path d="M16.5714 10.0632H20L21.1428 8.59921L16.9796 4.5H13.1428L16.5714 10.0632Z" fill="#80C8FF"/>
<path d="M7.42836 10.0632H3.99979L2.85693 8.59921L7.0202 4.5H10.8569L7.42836 10.0632Z" fill="#80C8FF"/>
<path d="M10.8567 4.5L7.42847 10.0632H16.5713L13.1428 4.5H10.8567Z" fill="#29A2FF"/>
</g>
<path d="M15.9117 8.12999C15.9963 7.95667 16.2433 7.95667 16.328 8.12999L16.8682 9.23678C16.8917 9.28493 16.9312 9.32344 16.9799 9.34575L18.1045 9.86077C18.2847 9.9433 18.2847 10.1993 18.1045 10.2819L16.9799 10.7969C16.9312 10.8192 16.8917 10.8577 16.8682 10.9059L16.328 12.0127C16.2433 12.186 15.9963 12.186 15.9117 12.0127L15.3715 10.9059C15.348 10.8577 15.3085 10.8192 15.2598 10.7969L14.1352 10.2819C13.9549 10.1993 13.9549 9.9433 14.1352 9.86077L15.2598 9.34575C15.3085 9.32344 15.348 9.28493 15.3715 9.23678L15.9117 8.12999Z" fill="white"/>
<path d="M16.4797 4.00552C16.5545 3.97958 16.6268 4.04958 16.6 4.12204L16.3691 4.74693C16.3618 4.76679 16.3618 4.7885 16.3691 4.80836L16.6 5.43325C16.6268 5.50571 16.5545 5.57571 16.4797 5.54977L15.8346 5.3261C15.8141 5.31899 15.7917 5.31899 15.7712 5.3261L15.126 5.54977C15.0512 5.57571 14.9789 5.50571 15.0057 5.43325L15.2366 4.80836C15.244 4.7885 15.244 4.76679 15.2366 4.74693L15.0057 4.12204C14.9789 4.04958 15.0512 3.97958 15.126 4.00552L15.7712 4.22919C15.7917 4.2363 15.8141 4.2363 15.8346 4.22919L16.4797 4.00552Z" fill="white"/>
</g>
</g>
</svg>
