<svg width="24" height="24" viewBox="0 0 24 24" fill="none" xmlns="http://www.w3.org/2000/svg">
<mask id="mask0_2294_27077" style="mask-type:alpha" maskUnits="userSpaceOnUse" x="0" y="0" width="24" height="24">
<rect width="24" height="24" fill="#D9D9D9"/>
</mask>
<g mask="url(#mask0_2294_27077)">
<mask id="mask1_2294_27077" style="mask-type:alpha" maskUnits="userSpaceOnUse" x="2" y="2" width="20" height="20">
<rect x="2" y="2" width="20" height="20" fill="#D9D9D9"/>
</mask>
<g mask="url(#mask1_2294_27077)">
<path d="M6.25 19V17C6.25 16.5858 6.58579 16.25 7 16.25C7.41421 16.25 7.75 16.5858 7.75 17V19C7.75 19.4142 7.41421 19.75 7 19.75C6.58579 19.75 6.25 19.4142 6.25 19ZM16.25 19V17C16.25 16.5858 16.5858 16.25 17 16.25C17.4142 16.25 17.75 16.5858 17.75 17V19C17.75 19.4142 17.4142 19.75 17 19.75C16.5858 19.75 16.25 19.4142 16.25 19Z" fill="#292A2B"/>
<path d="M5 8C5 5.79086 6.79086 4 9 4H15C17.2091 4 19 5.79086 19 8V13C19 15.2091 17.2091 17 15 17H9C6.79086 17 5 15.2091 5 13V8Z" fill="#99661F"/>
<path d="M18 9C19.1046 9 20 9.89543 20 11V16C20 16.5523 19.5523 17 19 17H5C4.44772 17 4 16.5523 4 16V11C4 9.89543 4.89543 9 6 9C7.10457 9 8 9.89543 8 11V13H16V11C16 9.89543 16.8954 9 18 9Z" fill="#CC8829"/>
</g>
</g>
</svg>
