<svg width="24" height="24" viewBox="0 0 24 24" fill="none" xmlns="http://www.w3.org/2000/svg">
<mask id="mask0_3471_36743" style="mask-type:alpha" maskUnits="userSpaceOnUse" x="0" y="0" width="24" height="24">
<rect width="24" height="24" fill="#D9D9D9"/>
</mask>
<g mask="url(#mask0_3471_36743)">
<mask id="mask1_3471_36743" style="mask-type:alpha" maskUnits="userSpaceOnUse" x="2" y="2" width="20" height="20">
<rect x="2" y="2" width="20" height="20" fill="#D9D9D9"/>
</mask>
<g mask="url(#mask1_3471_36743)">
<ellipse cx="12" cy="13.7648" rx="10" ry="5.29412" fill="#FFC931"/>
<path d="M18.4705 11.4118C18.4705 13.4706 15.5735 15.2353 11.9999 15.2353C8.42628 15.2353 5.5293 13.4706 5.5293 11.4118C5.5293 7.83814 8.42628 4.94116 11.9999 4.94116C15.5735 4.94116 18.4705 7.83814 18.4705 11.4118Z" fill="#FFC931"/>
<path d="M12.2579 6.39363C12.3167 5.98379 12.6966 5.69932 13.1065 5.75788C14.4325 5.94744 16.6241 6.90438 17.2276 9.31843C17.3279 9.7202 17.0835 10.1272 16.6817 10.2276C16.2799 10.3279 15.873 10.0835 15.7725 9.68171C15.376 8.09617 13.901 7.38616 12.8936 7.24226C12.4838 7.18348 12.1993 6.80354 12.2579 6.39363Z" fill="white"/>
<path d="M11.9999 15.2354C15.5735 15.2354 18.4705 13.4706 18.4705 11.4118C18.4705 11.0101 18.4339 10.6169 18.3638 10.2354C16.2156 12.3922 10.6625 15.4118 5.63599 10.2354C5.56591 10.6169 5.5293 11.0101 5.5293 11.4118C5.5293 13.4706 8.42628 15.2354 11.9999 15.2354Z" fill="#F15F5F"/>
</g>
</g>
</svg>
