<svg width="24" height="24" viewBox="0 0 24 24" fill="none" xmlns="http://www.w3.org/2000/svg">
<mask id="mask0_2294_26704" style="mask-type:alpha" maskUnits="userSpaceOnUse" x="0" y="0" width="24" height="24">
<rect width="24" height="24" fill="#D9D9D9"/>
</mask>
<g mask="url(#mask0_2294_26704)">
<mask id="mask1_2294_26704" style="mask-type:alpha" maskUnits="userSpaceOnUse" x="2" y="2" width="20" height="20">
<rect x="2" y="2" width="20" height="20" fill="#D9D9D9"/>
</mask>
<g mask="url(#mask1_2294_26704)">
<path d="M8.60835 16.9809C8.83806 17.5731 9.50673 17.9112 10.162 17.7664L17.4221 16.1621C17.9967 16.0351 18.3925 15.5443 18.3647 14.9929C18.3332 14.367 17.771 13.8785 17.1005 13.8943L9.97078 14.0633C9.92964 14.0643 9.88847 14.0617 9.84781 14.0557C9.51045 14.0056 9.18702 14.1989 9.09483 14.5057L8.57819 16.2251C8.50353 16.4735 8.51408 16.7378 8.60835 16.9809Z" fill="#DA925D"/>
<path d="M9.22413 13C8.3892 13 7.63445 13.2415 7.09269 13.6305H5.03816C4.46481 13.6305 4 14.0639 4 14.5985V17.847C4 18.3816 4.46481 18.815 5.03816 18.815H7.2535L11.8567 19.9335C12.4176 20.0698 13.0135 19.9948 13.5155 19.7247L20.3455 16.0501C20.8699 15.768 21.1181 15.1871 20.9456 14.646C20.7371 13.9919 19.9937 13.6246 19.2961 13.8308L14.5618 15.2303C14.6129 15.1041 14.6411 14.9673 14.6411 14.8244C14.6411 14.1896 14.0892 13.675 13.4083 13.6749H11.4158C10.8705 13.26 10.0904 13 9.22413 13Z" fill="#F8CEAD"/>
<path d="M14.063 5.00007C14.3168 4.9979 14.5687 5.04562 14.804 5.14035C15.0393 5.23509 15.2539 5.37514 15.4346 5.55292C15.6152 5.73066 15.7585 5.94261 15.8557 6.17642C15.9529 6.41032 16.0022 6.66146 15.9999 6.91469C15.9977 7.16789 15.944 7.41808 15.8427 7.65021C15.7422 7.8804 15.5964 8.08792 15.4148 8.26165L15.4151 8.26199L12.7344 10.8997C12.5985 11.0334 12.3816 11.0335 12.2457 10.8997L9.56533 8.26199C9.20445 7.90681 9.00003 7.42317 9 6.91711C9 6.41102 9.20445 5.92743 9.56533 5.57222C9.92603 5.21745 10.4135 5.01939 10.9199 5.01937C11.4262 5.01937 11.9137 5.21713 12.2744 5.57187L12.4901 5.78384L12.7061 5.57187C12.8827 5.39315 13.093 5.25103 13.3247 5.1531C13.5583 5.05436 13.8092 5.00225 14.063 5.00007Z" fill="#F15F5F"/>
</g>
</g>
</svg>
