<svg width="24" height="24" viewBox="0 0 24 24" fill="none" xmlns="http://www.w3.org/2000/svg">
<mask id="mask0_2294_26954" style="mask-type:alpha" maskUnits="userSpaceOnUse" x="0" y="0" width="24" height="24">
<rect width="24" height="24" fill="#D9D9D9"/>
</mask>
<g mask="url(#mask0_2294_26954)">
<mask id="mask1_2294_26954" style="mask-type:alpha" maskUnits="userSpaceOnUse" x="2" y="2" width="20" height="20">
<rect x="2" y="2" width="20" height="20" fill="#D9D9D9"/>
</mask>
<g mask="url(#mask1_2294_26954)">
<path d="M12.1857 7.75966C12.3183 7.58299 12.5696 7.54705 12.7463 7.67958C12.9229 7.81213 12.9588 8.06344 12.8264 8.24013C12.1686 9.11713 11.9896 10.5708 12.093 12.2245C12.1694 13.447 12.3947 14.7217 12.6428 15.8417L12.8937 16.9032L12.9055 16.9833C12.9134 17.1691 12.7902 17.3407 12.6027 17.3876C12.3884 17.4411 12.1709 17.3109 12.1174 17.0966C11.7822 15.7559 11.4006 13.9783 11.2941 12.2753C11.1892 10.5959 11.3435 8.88259 12.1857 7.75966Z" fill="#28A240"/>
<path d="M14.0898 11C14.6359 11 15.0219 11.5824 14.8492 12.1462L14.582 13.0169C14.5755 13.0381 14.5657 13.0577 14.5578 13.0781C15.4391 14.0363 16 15.48 16 17.0948C16 19.2716 14.9806 21.1376 13.5312 21.9226C13.4318 21.9765 13.3212 22 13.2102 22H10.9688C10.8577 22 10.7472 21.9761 10.6477 21.9226C9.18688 21.1378 8 19.2718 8 17.0948C8 15.4803 8.56035 14.0363 9.44141 13.0781C9.43357 13.0578 9.42445 13.038 9.41797 13.0169L9.15078 12.1462C8.97811 11.5824 9.36411 11 9.91016 11H14.0898Z" fill="#4599DA"/>
<path d="M15.4759 6.70589C15.1195 8.03981 13.7492 8.83222 12.4153 8.47579C11.0814 8.11936 10.289 6.74907 10.6454 5.41516C10.7907 4.87132 11.2336 3.93468 11.6448 3.61202C11.9146 3.40025 12.0191 4.92341 12.3527 4.83627C12.7576 4.73053 13.2729 3.52952 13.706 3.64526C14.1392 3.761 13.9868 5.05897 14.2849 5.35257C14.5306 5.59449 15.3809 4.32646 15.5092 4.64461C15.7046 5.12936 15.6213 6.16206 15.4759 6.70589Z" fill="#F15F5F"/>
<path d="M9 8C9.16667 8.66667 9.8 10 11 10C12.2 10 10.1667 8.66667 9 8Z" fill="#28A240" stroke="#28A240" stroke-linecap="round" stroke-linejoin="round"/>
</g>
</g>
</svg>
