<svg width="24" height="24" viewBox="0 0 24 24" fill="none" xmlns="http://www.w3.org/2000/svg">
<mask id="mask0_2294_26809" style="mask-type:alpha" maskUnits="userSpaceOnUse" x="0" y="0" width="24" height="24">
<rect width="24" height="24" fill="#D9D9D9"/>
</mask>
<g mask="url(#mask0_2294_26809)">
<mask id="mask1_2294_26809" style="mask-type:alpha" maskUnits="userSpaceOnUse" x="2" y="2" width="20" height="20">
<rect x="2" y="2" width="20" height="20" fill="#D9D9D9"/>
</mask>
<g mask="url(#mask1_2294_26809)">
<rect x="3" y="3" width="18" height="18" rx="1.5" fill="#FFE5C0"/>
<path d="M3 4.5C3 3.67157 3.67157 3 4.5 3H12V12H3V4.5Z" fill="#FFE5C0"/>
<path d="M3 4.5C3 3.67157 3.67157 3 4.5 3H12V12H3V4.5Z" fill="#FFE5C0"/>
<path d="M3 4.5C3 3.67157 3.67157 3 4.5 3H9V12H3V4.5Z" fill="#FFF2E0"/>
<path d="M3 4.5C3 3.67157 3.67157 3 4.5 3H6V12H3V4.5Z" fill="#FFF7EB"/>
<path d="M3 12H12V21H4.5C3.67157 21 3 20.3284 3 19.5V12Z" fill="#99661F"/>
<path d="M3 15H12V21H4.5C3.67157 21 3 20.3284 3 19.5V15Z" fill="#734C17"/>
<path d="M3 18H12V21H4.5C3.67157 21 3 20.3284 3 19.5V18Z" fill="#593B12"/>
<path d="M12 3H19.5C20.3284 3 21 3.67157 21 4.5V19.5C21 20.3284 20.3284 21 19.5 21H12V3Z" fill="#FFE5C0"/>
<path d="M21 12L12 12L12 3L19.5 3C20.3284 3 21 3.67157 21 4.5L21 12Z" fill="#99661F"/>
<path d="M21 9L12 9L12 3L19.5 3C20.3284 3 21 3.67157 21 4.5L21 9Z" fill="#734C17"/>
<path d="M21 6L12 6L12 3L19.5 3C20.3284 3 21 3.67157 21 4.5L21 6Z" fill="#593B12"/>
<path d="M21 19.5C21 20.3284 20.3284 21 19.5 21L12 21L12 12L21 12L21 19.5Z" fill="#FFE5C0"/>
<path d="M21 19.5C21 20.3284 20.3284 21 19.5 21L15 21L15 12L21 12L21 19.5Z" fill="#FFF2E0"/>
<path d="M21 19.5C21 20.3284 20.3284 21 19.5 21L18 21L18 12L21 12L21 19.5Z" fill="#FFF7EB"/>
</g>
</g>
</svg>
