<svg width="24" height="24" viewBox="0 0 24 24" xmlns="http://www.w3.org/2000/svg">
    <path d="M19.3311 11.0002C20.0213 11.0002 20.5818 11.5601 20.582 12.2502C20.5818 15.7016 17.7834 18.4991 14.332 18.4993L11.666 18.5002L12.9326 19.4504C13.3744 19.7818 13.4642 20.409 13.1328 20.8508C12.8014 21.2923 12.1741 21.3823 11.7324 21.051L8.7998 18.8499C7.73358 18.0498 7.73349 16.4506 8.7998 15.6506L11.7334 13.4504C12.1752 13.1195 12.8025 13.2081 13.1338 13.6497C13.465 14.0913 13.3749 14.7186 12.9336 15.05L11.668 16.0002H14.332C16.4028 16 18.081 14.321 18.0811 12.2502C18.0811 11.5601 18.641 11.0006 19.3311 11.0002ZM11.2002 2.40063C11.5316 1.95881 12.1588 1.86906 12.6006 2.20044L15.5332 4.40063C16.5997 5.20061 16.5996 6.79983 15.5332 7.59985L12.6006 9.80005C12.1588 10.1314 11.5316 10.0416 11.2002 9.59985C10.8692 9.15812 10.9589 8.53177 11.4004 8.20044L12.667 7.25122L10.002 7.25024C7.93112 7.25024 6.25212 8.92945 6.25195 11.0002C6.25184 11.6904 5.6921 12.2511 5.00195 12.2512C4.3117 12.2512 3.75212 11.6905 3.75195 11.0002C3.75216 7.54892 6.54966 4.75048 10.001 4.75024H12.667L11.4004 3.80103C10.9587 3.46974 10.8691 2.84244 11.2002 2.40063Z" fill="currentColor"/>
</svg>
