<svg width="24" height="24" viewBox="0 0 24 24" xmlns="http://www.w3.org/2000/svg">
  <path d="M9.896 14.668H11.444V16H6.5V14.668H8.252V9.784L8.3 9.004L6.836 10.336L5.888 9.256L8.48 7.024H9.896V14.668ZM12.4724 9.28H14.3684L15.0404 10.48C15.2444 10.864 15.4364 11.236 15.6404 11.608H15.6884C15.8444 11.236 16.0244 10.852 16.1804 10.48L16.7444 9.28H18.5684L16.6004 12.7L18.7004 16H16.8044L16.0604 14.776C15.8324 14.38 15.6404 13.972 15.4124 13.588H15.3524C15.1604 13.972 14.9804 14.356 14.7884 14.776L14.1644 16H12.3404L14.4404 12.496L12.4724 9.28Z" fill="currentColor"/>
</svg>
