<svg width="147" height="142" viewBox="0 0 147 142" fill="none" xmlns="http://www.w3.org/2000/svg">
<mask id="mask0_1409_9225" style="mask-type:alpha" maskUnits="userSpaceOnUse" x="23" y="0" width="101" height="100">
<rect x="23.5" width="100" height="100" fill="#D9D9D9"/>
</mask>
<g mask="url(#mask0_1409_9225)">
<ellipse cx="73.1077" cy="56.0892" rx="38.8099" ry="31.8126" fill="#FFE5C0"/>
<mask id="mask1_1409_9225" style="mask-type:alpha" maskUnits="userSpaceOnUse" x="34" y="24" width="78" height="64">
<ellipse cx="73.1077" cy="56.0892" rx="38.8099" ry="31.8126" fill="#FFF2E0"/>
</mask>
<g mask="url(#mask1_1409_9225)">
<path d="M71.7222 52.2901C53.2606 63.6714 37.5268 56.5799 32.4649 46.9868C32.0824 46.2618 32.0553 45.411 32.3074 44.6307L41.3998 16.4906C41.8512 15.0936 43.1519 14.1468 44.6196 14.1468L104.384 14.1468C105.842 14.1468 107.135 15.0815 107.593 16.4658L117.979 47.8752C118.359 49.0229 118.108 50.302 117.234 51.1377C105.097 62.7433 85.4459 57.2231 75.3159 52.1335C74.1735 51.5595 72.8109 51.6189 71.7222 52.2901Z" fill="#FFAA33"/>
</g>
<path d="M53.8951 16.597C49.7585 17.3757 46.9223 26.7447 45.7156 32.7617C45.4998 33.8379 46.2169 34.8735 47.3007 35.0222C57.9252 36.4799 64.4197 31.6469 67.0108 28.1654C67.4789 27.5363 67.4342 26.6832 66.9641 26.0555C63.9535 22.0362 58.1237 15.8009 53.8951 16.597Z" fill="#FFAA33"/>
<path d="M92.2423 17.8203C96.379 18.5991 99.2151 27.9681 100.422 33.9851C100.638 35.0613 99.9206 36.0969 98.8368 36.2456C88.2122 37.7033 81.7177 32.8703 79.1267 29.3887C78.6585 28.7596 78.7032 27.9066 79.1733 27.2789C82.1839 23.2596 88.0137 17.0243 92.2423 17.8203Z" fill="#FFAA33"/>
<path d="M73.7833 53.446C67.6875 53.762 70.6339 57.7795 72.361 58.6462C73.6614 59.2988 74.5961 58.7991 74.9009 58.6462C75.9169 58.1364 76.628 57.4226 77.136 56.301C78.0831 54.2098 75.0025 53.446 73.7833 53.446Z" fill="#292A2B"/>
<path d="M74.8756 58.1974C74.9131 58.9132 75.0429 59.785 75.4877 60.5254C75.8787 61.1761 76.558 61.8025 77.8564 62.0888L78.1246 62.1419L78.2212 62.1637C78.6948 62.2961 79.0006 62.7687 78.9148 63.2637C78.8289 63.7586 78.3821 64.1 77.8915 64.0653L77.793 64.054L77.4253 63.981C75.6292 63.5812 74.4964 62.6437 73.8239 61.5241C73.818 61.5144 73.8126 61.5045 73.8068 61.4947C73.4627 62.0011 73.0589 62.4291 72.6262 62.7805C71.583 63.6278 70.3467 64.0555 69.3753 64.0701L69.1849 64.0672L69.0854 64.0577C68.599 63.9868 68.2358 63.5578 68.2573 63.0562C68.2804 62.521 68.733 62.1056 69.2682 62.1286L69.4587 62.1239C69.9434 62.0852 70.7035 61.8421 71.403 61.274C72.1666 60.6536 72.8305 59.6662 72.9389 58.1785L74.8756 58.1974Z" fill="#292A2B"/>
<path d="M66.0709 48.2717C66.489 47.9476 67.0914 48.0237 67.4162 48.4416C67.741 48.8596 67.6654 49.4612 67.2473 49.7852C65.8843 50.8415 64.3648 51.0752 63.0656 50.9559C61.8645 50.8455 60.8084 50.4323 60.1303 50.0396L60.0003 49.9613L59.9192 49.9055C59.5342 49.6091 59.4288 49.0641 59.6901 48.6429C59.9515 48.2217 60.4872 48.0736 60.9239 48.2865L61.0097 48.3343L61.194 48.44C61.663 48.6925 62.4047 48.972 63.2393 49.0487C64.1752 49.1346 65.1776 48.9639 66.0709 48.2717Z" fill="#292A2B"/>
<path d="M85.4539 48.2717C85.872 47.9476 86.4743 48.0237 86.7992 48.4416C87.1239 48.8596 87.0484 49.4612 86.6303 49.7852C85.2673 50.8415 83.7477 51.0752 82.4486 50.9559C81.2475 50.8455 80.1913 50.4323 79.5132 50.0396L79.3833 49.9613L79.3021 49.9055C78.9172 49.6091 78.8118 49.0641 79.073 48.6429C79.3345 48.2217 79.8701 48.0736 80.3069 48.2865L80.3926 48.3343L80.577 48.44C81.046 48.6925 81.7877 48.972 82.6222 49.0487C83.5582 49.1346 84.5606 48.9639 85.4539 48.2717Z" fill="#292A2B"/>
<path d="M31.6373 117.145C30.6528 105.495 35.9506 84.3252 39.2328 73.4847C39.5378 72.4774 40.2235 71.8447 40.9797 71.8447H103.106C103.744 71.8447 104.345 72.2962 104.678 73.0895C109.316 84.1447 111.784 105.917 112.923 116.862C113.037 117.959 112.351 119.167 111.247 119.17L33.5881 119.41C32.5124 119.414 31.7279 118.217 31.6373 117.145Z" fill="#FFE5C0"/>
<path d="M72.4656 0C89.906 0 103.978 14.3811 103.978 32.0388H99.2036C99.2036 16.9485 87.1961 4.78192 72.4656 4.78192C57.735 4.78192 45.7275 16.9485 45.7275 32.0388H40.9529C40.9529 14.3811 55.0251 0 72.4656 0Z" fill="#9B9FA4"/>
<path d="M32.2262 42.7185C32.2262 50.2252 36.5673 56.3107 41.9224 56.3107V29.1262C36.5673 29.1262 32.2262 35.2117 32.2262 42.7185Z" fill="#292A2B"/>
<path d="M40.9528 29.6118C40.9528 28.2713 42.038 27.1846 43.3768 27.1846C44.7156 27.1846 45.8009 28.2713 45.8009 29.6118V54.8545C45.8009 56.195 44.7156 57.2817 43.3768 57.2817C42.038 57.2817 40.9528 56.195 40.9528 54.8545V29.6118Z" fill="#9B9FA4"/>
<path d="M112.705 42.7185C112.705 50.2252 108.364 56.3107 103.009 56.3107V29.1262C108.364 29.1262 112.705 35.2117 112.705 42.7185Z" fill="#292A2B"/>
<path d="M103.979 29.6118C103.979 28.2713 102.893 27.1846 101.555 27.1846C100.216 27.1846 99.1305 28.2713 99.1305 29.6118V54.8545C99.1305 56.195 100.216 57.2817 101.555 57.2817C102.893 57.2817 103.979 56.195 103.979 54.8545V29.6118Z" fill="#9B9FA4"/>
<path d="M108.014 68.3605C108.376 71.4389 102.282 69.2658 101.227 68.3604L106.654 93.7125C131.978 78.1391 123.085 53.9391 116.15 50.9308C105.106 46.1397 107.411 61.0415 108.014 68.3605Z" fill="#FFE5C0"/>
<path d="M38.9854 69.8168C38.6236 72.8952 44.7175 70.7221 45.7727 69.8167L40.3461 95.1688C15.022 79.5954 23.9148 55.3954 30.8496 52.3871C41.8942 47.596 39.5883 62.4978 38.9854 69.8168Z" fill="#FFE5C0"/>
<path d="M40.433 60.9347C41.0956 61.0295 41.5569 61.6441 41.4623 62.3075L41.4055 62.7295C41.1366 64.8991 41.0545 67.9598 41.5949 70.5799C42.0294 72.6866 42.7859 74.1917 43.8977 74.9573V72.3301C43.8977 71.66 44.4405 71.1167 45.1097 71.1165C45.7791 71.1165 46.3218 71.6599 46.3218 72.3301V76.699C46.3218 77.0509 46.1696 77.3854 45.9042 77.6159C45.6387 77.8464 45.2861 77.9501 44.9383 77.9003C41.4008 77.3941 39.8526 74.1378 39.22 71.071C38.5683 67.9112 38.7267 64.3138 39.0619 61.9643L39.0856 61.842C39.2335 61.2453 39.812 60.846 40.433 60.9347Z" fill="#FFAA33"/>
<path d="M106.959 60.9347C106.296 61.0295 105.835 61.6441 105.929 62.3075L105.986 62.7295C106.255 64.8991 106.337 67.9598 105.797 70.5799C105.362 72.6866 104.606 74.1917 103.494 74.9573V72.3301C103.494 71.66 102.951 71.1167 102.282 71.1165C101.612 71.1165 101.07 71.6599 101.07 72.3301V76.699C101.07 77.0509 101.222 77.3854 101.487 77.6159C101.753 77.8464 102.105 77.9501 102.453 77.9003C105.991 77.3941 107.539 74.1378 108.172 71.071C108.823 67.9112 108.665 64.3138 108.33 61.9643L108.306 61.842C108.158 61.2453 107.58 60.846 106.959 60.9347Z" fill="#FFAA33"/>
</g>
<g filter="url(#filter0_g_1409_9225)">
<mask id="path-21-outside-1_1409_9225" maskUnits="userSpaceOnUse" x="1" y="119" width="145" height="22" fill="black">
<rect fill="white" x="1" y="119" width="145" height="22"/>
<path d="M4.57768 132.077C3.76581 132.077 3.12985 131.84 2.66979 131.365C2.22326 130.889 2 130.238 2 129.409C2 128.866 2.12178 128.377 2.36534 127.943C2.62243 127.495 2.96748 127.149 3.40047 126.904C3.83347 126.646 4.30706 126.517 4.82124 126.517C5.59252 126.517 6.24878 126.762 6.79002 127.251C7.33127 127.726 7.60189 128.33 7.60189 129.063C7.60189 129.62 7.47335 130.129 7.21625 130.591C6.95916 131.052 6.60059 131.419 6.14053 131.69C5.68047 131.948 5.15952 132.077 4.57768 132.077ZM3.68463 129.308C3.68463 129.647 3.77258 129.925 3.94848 130.143C4.12439 130.36 4.35442 130.468 4.63857 130.468C4.97685 130.468 5.27454 130.333 5.53163 130.061C5.80225 129.776 5.93756 129.457 5.93756 129.104C5.93756 128.846 5.82255 128.622 5.59252 128.432C5.36249 128.228 5.1054 128.126 4.82124 128.126C4.51003 128.126 4.2394 128.248 4.00937 128.493C3.79288 128.724 3.68463 128.995 3.68463 129.308ZM11.0726 125.031C11.0726 124.786 11.1606 124.589 11.3365 124.44C11.5124 124.291 11.7289 124.216 11.986 124.216C12.2295 124.216 12.4393 124.284 12.6152 124.42C12.8046 124.555 12.9399 124.732 13.0211 124.949C13.3188 125.682 13.4676 127.054 13.4676 129.063C13.4676 130.72 13.3729 132.105 13.1835 133.218C13.1294 133.503 13.0211 133.707 12.8587 133.829C12.7099 133.938 12.4934 133.992 12.2092 133.992C11.9522 133.992 11.7424 133.917 11.58 133.768C11.4312 133.605 11.3568 133.394 11.3568 133.136C11.3568 132.892 11.3771 132.661 11.4177 132.444L11.4583 131.935C11.5395 131.039 11.58 130.156 11.58 129.287C11.58 127.753 11.4447 126.497 11.1741 125.519L11.1132 125.275L11.0726 125.031Z"/>
<path d="M28.241 137.128C28.241 137.522 28.3086 137.8 28.4439 137.963C28.5792 138.14 28.8228 138.228 29.1746 138.228C29.77 138.228 30.3789 138.181 31.0013 138.086L31.8538 138.004H31.9755C32.5439 138.004 32.828 138.31 32.828 138.921C32.828 139.314 32.6115 139.566 32.1785 139.674C31.3531 139.891 30.1421 140 28.5454 140C27.9094 140 27.4426 139.851 27.1449 139.552C26.8743 139.28 26.6984 138.955 26.6172 138.574C26.536 138.208 26.4954 137.617 26.4954 136.802C26.4954 136.11 26.5428 135.594 26.6375 135.255C26.8134 134.426 27.4764 134.012 28.6266 134.012C29.885 134.012 30.751 133.985 31.2246 133.931C31.6846 133.89 32.0094 133.734 32.1988 133.462C32.3882 133.191 32.483 132.777 32.483 132.22C32.483 131.853 32.4288 131.582 32.3206 131.405C32.2123 131.215 32.0364 131.12 31.7929 131.12L28.7484 131.202C28.4642 131.202 28.2342 131.134 28.0583 130.998C27.8959 130.849 27.8147 130.652 27.8147 130.407C27.8147 130.163 27.8824 129.959 28.0177 129.796C28.1665 129.62 28.3627 129.518 28.6063 129.491C29.1611 129.396 30.115 129.348 31.4681 129.348C32.1717 129.348 32.7265 129.409 33.1325 129.532C33.5384 129.654 33.8361 129.891 34.0255 130.244C34.2285 130.597 34.33 131.113 34.33 131.792C34.33 132.878 34.1135 133.768 33.6805 134.46C33.261 135.153 32.6521 135.54 31.8538 135.621C30.7307 135.73 29.8106 135.784 29.0934 135.784C28.8363 135.784 28.6334 135.845 28.4845 135.967C28.3357 136.076 28.2612 136.246 28.2612 136.477L28.241 137.128ZM22.4361 125.519C22.4361 124.243 22.524 123.245 22.6999 122.525C22.8488 121.847 23.1532 121.378 23.6133 121.12C24.0869 120.849 24.777 120.713 25.6836 120.713L26.9217 120.733C27.5306 120.733 27.8756 120.74 27.9568 120.754C28.1868 120.767 28.383 120.855 28.5454 121.018C28.7078 121.181 28.789 121.405 28.789 121.69C28.789 121.948 28.7145 122.145 28.5657 122.281C28.4304 122.417 28.2342 122.485 27.9771 122.485L26.739 122.505C26.3331 122.505 25.9136 122.525 25.4806 122.566C25.1153 122.593 24.8514 122.661 24.689 122.77C24.5402 122.878 24.4387 123.075 24.3846 123.36C24.2763 123.985 24.2222 124.616 24.2222 125.255C24.2222 125.662 24.3913 125.954 24.7296 126.13C25.0138 126.293 25.2979 126.395 25.5821 126.436C25.8662 126.463 26.4075 126.477 27.2058 126.477L28.038 126.436C28.3898 126.436 28.6469 126.497 28.8093 126.619C28.9716 126.741 29.0528 126.945 29.0528 127.23C29.0528 127.57 28.9446 127.807 28.7281 127.943C28.5251 128.079 28.1936 128.147 27.7335 128.147H27.1043C26.3331 128.147 25.5821 128.092 24.8514 127.984C24.1072 127.862 23.5186 127.597 23.0856 127.189C22.6526 126.782 22.4361 126.225 22.4361 125.519ZM33.0919 120.794C33.0919 120.55 33.1528 120.36 33.2745 120.224C33.4098 120.075 33.5993 120 33.8428 120C34.3976 120 34.7494 120.339 34.8983 121.018C35.0606 121.901 35.1486 122.675 35.1621 123.34C36.3664 123.34 37.2595 123.36 37.8413 123.401C38.0713 123.415 38.254 123.51 38.3893 123.686C38.5382 123.863 38.6126 124.08 38.6126 124.338C38.6126 124.582 38.5449 124.793 38.4096 124.969C38.2878 125.132 38.1255 125.214 37.9225 125.214H37.2324L35.8522 125.173H35.1621C35.108 126.137 35.0336 126.897 34.9389 127.454C34.8712 127.957 34.5938 128.208 34.1067 128.208C33.8631 128.208 33.6534 128.126 33.4775 127.963C33.3016 127.8 33.2136 127.604 33.2136 127.373L33.2745 126.151L33.3151 125.356L33.376 124.134C33.376 123.13 33.2881 122.105 33.1122 121.059C33.0986 121.032 33.0919 120.944 33.0919 120.794Z"/>
<path d="M49.8292 137.352C48.7467 137.352 47.9416 136.986 47.4139 136.253C46.8862 135.519 46.6223 134.467 46.6223 133.096C46.6223 132.811 46.717 132.566 46.9065 132.363C47.1094 132.145 47.353 132.037 47.6372 132.037C47.8807 132.037 48.0905 132.152 48.2664 132.383C48.4423 132.6 48.5302 132.851 48.5302 133.136C48.5302 133.992 48.6182 134.616 48.7941 135.01C48.9835 135.39 49.3286 135.58 49.8292 135.58C50.1404 135.58 50.411 135.526 50.6411 135.418C50.8711 135.309 51.1823 135.098 51.5747 134.786C51.8589 134.555 52.0686 134.406 52.2039 134.338C52.3392 134.27 52.4813 134.236 52.6301 134.236C52.8737 134.236 53.0699 134.325 53.2188 134.501C53.3811 134.664 53.4623 134.868 53.4623 135.112C53.4623 135.465 53.2864 135.818 52.9346 136.171C52.5963 136.511 52.143 136.789 51.5747 137.006C51.0199 137.237 50.4381 137.352 49.8292 137.352ZM39.8026 128.595C39.8026 127.957 39.9379 127.386 40.2086 126.884C40.4792 126.382 40.8445 125.995 41.3046 125.723C41.7646 125.451 42.2721 125.316 42.8268 125.316C43.3681 125.316 43.8552 125.445 44.2882 125.703C44.7347 125.947 45.0798 126.273 45.3233 126.68C45.5804 127.088 45.709 127.508 45.709 127.943C45.709 128.893 45.4113 129.681 44.8159 130.305C44.2205 130.916 43.456 131.222 42.5224 131.222C42.0217 131.222 41.5617 131.107 41.1422 130.876C40.7363 130.631 40.4115 130.305 40.168 129.898C39.9244 129.491 39.8026 129.056 39.8026 128.595ZM41.6496 128.31C41.6496 128.608 41.7308 128.873 41.8932 129.104C42.0556 129.321 42.2518 129.43 42.4818 129.43C42.8742 129.43 43.1989 129.308 43.456 129.063C43.7131 128.819 43.8417 128.5 43.8417 128.106C43.8417 127.821 43.7267 127.59 43.4966 127.413C43.2801 127.223 43.0027 127.128 42.6645 127.128C42.3532 127.128 42.1029 127.244 41.9135 127.475C41.7376 127.692 41.6496 127.97 41.6496 128.31ZM46.5614 127.739C46.5614 127.454 46.6494 127.23 46.8253 127.067C47.0012 126.904 47.2312 126.823 47.5154 126.823L48.2867 126.864C48.8279 126.864 49.3488 126.802 49.8495 126.68L49.6059 125.336C49.4706 124.779 49.403 124.42 49.403 124.257C49.403 124.012 49.4909 123.809 49.6668 123.646C49.8427 123.483 50.0525 123.401 50.296 123.401C50.5667 123.401 50.7967 123.489 50.9861 123.666C51.1891 123.842 51.3176 124.067 51.3718 124.338C51.6153 125.519 51.7371 126.972 51.7371 128.697L51.7574 129.45C51.7574 130.034 51.6762 130.475 51.5138 130.774C51.365 131.059 51.1147 131.202 50.7628 131.202C50.5328 131.202 50.3366 131.127 50.1742 130.978C50.0254 130.828 49.951 130.638 49.951 130.407V128.574C49.3285 128.697 48.7941 128.758 48.3475 128.758C47.7657 128.758 47.3192 128.683 47.008 128.534C46.7103 128.371 46.5614 128.106 46.5614 127.739ZM53.1782 130.631C53.4488 129.396 53.5841 128.357 53.5841 127.515C53.5841 126.633 53.4488 125.574 53.1782 124.338L53.1376 123.971C53.1376 123.714 53.212 123.503 53.3608 123.34C53.5097 123.177 53.7059 123.096 53.9494 123.096C54.193 123.096 54.4027 123.177 54.5786 123.34C54.7681 123.489 54.8966 123.686 54.9643 123.931C55.2078 124.718 55.3296 125.784 55.3296 127.128C55.3296 128.69 55.1875 129.973 54.9034 130.978C54.7545 131.48 54.4636 131.731 54.0306 131.731C53.7735 131.731 53.557 131.656 53.3811 131.507C53.2188 131.344 53.1376 131.141 53.1376 130.896L53.1782 130.631Z"/>
<path d="M69.1693 133.788C70.4412 133.693 71.8687 133.469 73.4519 133.116L73.736 133.075C73.9796 133.075 74.1826 133.157 74.3449 133.32C74.5073 133.483 74.5885 133.68 74.5885 133.91C74.5885 134.128 74.5276 134.318 74.4058 134.481C74.2976 134.63 74.1352 134.739 73.9187 134.807C72.0108 135.336 69.7782 135.601 67.2208 135.601C65.4211 135.601 63.9463 135.465 62.7961 135.193C62.5525 135.126 62.3496 134.997 62.1872 134.807C62.0248 134.616 61.9436 134.399 61.9436 134.155C61.9436 133.924 62.0248 133.727 62.1872 133.564C62.3496 133.401 62.5458 133.32 62.7758 133.32C62.8976 133.32 62.972 133.327 62.9991 133.34C64.5146 133.666 65.9218 133.836 67.2208 133.849L67.2614 133.32C67.2614 132.994 67.1937 132.621 67.0584 132.2L66.9772 131.752C66.9366 131.602 66.9163 131.487 66.9163 131.405C66.9163 131.161 67.0178 130.964 67.2208 130.815C67.4373 130.665 67.6944 130.591 67.9921 130.591C68.2356 130.591 68.4386 130.652 68.601 130.774C68.7633 130.896 68.8716 131.073 68.9257 131.303C69.0881 132.01 69.1693 132.756 69.1693 133.544V133.788ZM62.4105 124.399C62.4105 124.182 62.4849 123.999 62.6337 123.849C62.7826 123.7 62.9788 123.605 63.2223 123.564C64.156 123.415 64.9814 123.34 65.6985 123.34C66.3074 123.34 66.7269 123.435 66.9569 123.625C67.2005 123.802 67.3223 124.148 67.3223 124.664C67.3223 125.193 67.2276 125.764 67.0381 126.375C67.5117 126.524 67.9312 126.599 68.2965 126.599C68.5942 126.599 68.8783 126.572 69.149 126.517C69.4331 126.449 69.7782 126.341 70.1841 126.191L70.4074 126.151C70.6103 126.151 70.7795 126.239 70.9148 126.415C71.0501 126.578 71.1178 126.782 71.1178 127.026C71.1178 127.461 70.9283 127.746 70.5494 127.882C70.1976 128.031 69.8052 128.147 69.3722 128.228C68.9528 128.31 68.5333 128.35 68.1138 128.35C67.4508 128.35 66.9231 128.262 66.5307 128.086C65.773 129.62 65.1235 130.387 64.5822 130.387C64.3657 130.387 64.1763 130.319 64.0139 130.183C63.8515 130.034 63.7703 129.857 63.7703 129.654C63.7703 129.545 63.926 129.212 64.2372 128.656C64.6972 127.787 65.0152 127.128 65.1911 126.68C65.3806 126.219 65.4753 125.791 65.4753 125.397C65.4753 125.275 65.4414 125.18 65.3738 125.112C65.3061 125.031 65.2046 124.99 65.0693 124.99C64.7581 124.99 64.4334 125.017 64.0951 125.071C63.6215 125.139 63.2832 125.173 63.0803 125.173C62.8773 125.173 62.7149 125.098 62.5931 124.949C62.4714 124.8 62.4105 124.616 62.4105 124.399Z"/>
<path d="M80.2164 135.886C80.2164 135.126 80.4802 134.494 81.008 133.992C81.5492 133.489 82.2055 133.238 82.9767 133.238C83.8427 133.238 84.5531 133.489 85.1079 133.992C85.6627 134.481 85.9401 135.126 85.9401 135.927C85.9401 136.728 85.6627 137.379 85.1079 137.882C84.5667 138.398 83.8833 138.656 83.0579 138.656C82.2461 138.656 81.5695 138.391 81.0283 137.862C80.487 137.346 80.2164 136.687 80.2164 135.886ZM76.0556 130.102C76.0556 129.871 76.1367 129.674 76.2991 129.511C76.475 129.335 76.678 129.246 76.908 129.246C77.0839 129.246 77.4831 129.287 78.1055 129.369C78.4573 129.437 78.7956 129.477 79.1204 129.491C79.1204 128.826 78.9715 128.065 78.6738 127.21L78.6332 126.945C78.6332 126.701 78.7347 126.504 78.9377 126.354C79.1407 126.205 79.391 126.13 79.6887 126.13C79.9052 126.13 80.0879 126.191 80.2367 126.314C80.3991 126.422 80.5073 126.585 80.5614 126.802C80.7644 127.59 80.893 128.5 80.9471 129.532C82.449 129.504 83.8224 129.369 85.0673 129.124C85.0673 128.364 84.9523 127.563 84.7223 126.721L84.6817 126.477C84.6817 126.246 84.7899 126.049 85.0064 125.886C85.2229 125.723 85.4732 125.642 85.7574 125.642C85.9604 125.642 86.1363 125.703 86.2851 125.825C86.434 125.947 86.5422 126.11 86.6099 126.314C86.7993 126.911 86.9008 127.733 86.9143 128.778L87.8683 128.534C88.8019 128.262 89.3634 128.126 89.5529 128.126C89.7964 128.126 89.9994 128.221 90.1618 128.411C90.3377 128.601 90.4256 128.826 90.4256 129.084C90.4256 129.274 90.3648 129.443 90.243 129.593C90.1347 129.728 89.9859 129.823 89.7964 129.878C88.2674 130.326 86.6775 130.672 85.0267 130.916C83.3894 131.147 81.7725 131.263 80.1758 131.263C78.8362 131.263 77.7673 131.195 76.9689 131.059C76.6848 131.018 76.4615 130.916 76.2991 130.754C76.1367 130.591 76.0556 130.373 76.0556 130.102ZM79.9525 123.014C79.9525 122.525 80.0811 122.077 80.3382 121.67C80.5953 121.249 80.9403 120.916 81.3733 120.672C81.8063 120.428 82.2731 120.305 82.7738 120.305C83.2338 120.305 83.6533 120.421 84.0322 120.652C84.4246 120.883 84.7358 121.195 84.9658 121.589C85.1959 121.969 85.3109 122.383 85.3109 122.831C85.3109 123.347 85.1823 123.822 84.9252 124.257C84.6817 124.691 84.3434 125.037 83.9104 125.295C83.4909 125.54 83.0376 125.662 82.5505 125.662C82.0905 125.662 81.6575 125.547 81.2515 125.316C80.8591 125.071 80.5411 124.745 80.2976 124.338C80.0676 123.931 79.9525 123.489 79.9525 123.014ZM81.6372 123.075C81.6372 123.32 81.7116 123.544 81.8604 123.747C82.0228 123.938 82.2122 124.033 82.4287 124.033C82.7535 124.033 83.0376 123.917 83.2812 123.686C83.5383 123.456 83.6668 123.184 83.6668 122.872C83.6668 122.587 83.5856 122.356 83.4233 122.179C83.2609 122.003 83.0444 121.914 82.7738 121.914C82.4761 121.914 82.2122 122.037 81.9822 122.281C81.7522 122.525 81.6372 122.79 81.6372 123.075ZM81.9822 135.886C81.9822 136.198 82.0905 136.443 82.307 136.619C82.537 136.796 82.8211 136.884 83.1594 136.884C83.4436 136.884 83.6736 136.789 83.8495 136.599C84.0254 136.409 84.1134 136.164 84.1134 135.866C84.1134 135.54 84.0186 135.295 83.8292 135.132C83.6398 134.969 83.3759 134.888 83.0376 134.888C82.7399 134.888 82.4896 134.983 82.2867 135.173C82.0837 135.363 81.9822 135.601 81.9822 135.886Z"/>
<path d="M93.6788 137.963C93.3947 137.963 93.1579 137.889 92.9684 137.739C92.779 137.604 92.6843 137.42 92.6843 137.189C92.6843 136.986 92.7519 136.83 92.8872 136.721C93.0226 136.612 93.2526 136.517 93.5773 136.436C94.2404 136.286 94.8493 135.879 95.404 135.214C95.9724 134.549 96.3174 133.815 96.4392 133.014C96.4933 132.512 96.7504 132.261 97.2104 132.261C97.4405 132.261 97.6367 132.342 97.799 132.505C97.975 132.668 98.0629 132.872 98.0629 133.116C98.0629 133.442 98.0088 133.795 97.9005 134.175C97.7923 134.555 97.657 134.84 97.4946 135.031C97.6029 135.384 97.9005 135.703 98.3877 135.988C98.8748 136.259 99.3619 136.409 99.849 136.436C100.539 136.219 101.155 135.784 101.696 135.132C102.237 134.467 102.562 133.761 102.67 133.014C102.724 132.512 102.981 132.261 103.442 132.261C103.685 132.261 103.888 132.349 104.05 132.525C104.213 132.688 104.294 132.892 104.294 133.136C104.294 133.462 104.24 133.809 104.132 134.175C104.023 134.542 103.888 134.827 103.726 135.031C103.82 135.411 104.111 135.743 104.598 136.029C105.099 136.3 105.654 136.436 106.263 136.436C106.493 136.436 106.669 136.511 106.79 136.66C106.912 136.809 106.973 137.006 106.973 137.251C106.973 137.454 106.872 137.637 106.669 137.8C106.466 137.977 106.256 138.065 106.04 138.065C105.404 138.065 104.768 137.902 104.132 137.576C103.509 137.264 103.11 136.904 102.934 136.497C102.474 136.931 102.048 137.251 101.655 137.454C101.263 137.671 100.81 137.821 100.296 137.902C100.147 138.011 99.9843 138.065 99.8084 138.065C99.2131 138.065 98.5906 137.909 97.9411 137.597C97.3052 137.284 96.8925 136.918 96.703 136.497C95.7288 137.475 94.7207 137.963 93.6788 137.963ZM91.9739 124.277C91.9739 124.046 92.0416 123.863 92.1769 123.727C92.3122 123.578 92.4948 123.503 92.7249 123.503L93.5773 123.544C93.8615 123.585 94.1456 123.605 94.4298 123.605C94.944 123.605 95.4446 123.564 95.9318 123.483C96.4189 123.401 96.9804 123.265 97.6164 123.075C97.6299 123.062 97.7043 123.055 97.8396 123.055C98.0426 123.055 98.205 123.136 98.3268 123.299C98.4621 123.449 98.5297 123.625 98.5297 123.829C98.5297 124.046 98.4688 124.236 98.3471 124.399C98.2388 124.549 98.0832 124.657 97.8802 124.725C96.7707 125.092 95.4785 125.275 94.0036 125.275C93.327 125.275 92.8196 125.2 92.4813 125.051C92.143 124.902 91.9739 124.644 91.9739 124.277ZM92.2175 121.1C92.2175 120.855 92.2986 120.665 92.461 120.53C92.6234 120.38 92.8264 120.305 93.0699 120.305C93.8818 120.305 94.4636 120.292 94.8154 120.265C95.1808 120.238 95.5732 120.163 95.9926 120.041L96.2565 120C96.4865 120 96.676 120.081 96.8248 120.244C96.9736 120.407 97.0481 120.611 97.0481 120.855C97.0481 121.236 96.7707 121.527 96.2159 121.731C95.6747 121.921 95.0049 122.016 94.2065 122.016C92.8805 122.016 92.2175 121.711 92.2175 121.1ZM92.6234 128.798C92.6234 128.323 92.7452 127.889 92.9887 127.495C93.2458 127.088 93.5841 126.762 94.0036 126.517C94.4366 126.273 94.9034 126.151 95.404 126.151C96.243 126.151 96.9263 126.375 97.454 126.823C97.9953 127.271 98.2659 127.862 98.2659 128.595C98.2659 129.45 98.002 130.156 97.4743 130.713C96.9601 131.27 96.2836 131.548 95.4446 131.548C94.6463 131.548 93.9765 131.29 93.4353 130.774C92.894 130.244 92.6234 129.586 92.6234 128.798ZM94.3689 128.88C94.3689 129.192 94.4636 129.443 94.6531 129.633C94.856 129.81 95.1131 129.898 95.4243 129.898C95.7085 129.898 95.9656 129.803 96.1956 129.613C96.4256 129.409 96.5407 129.165 96.5407 128.88C96.5407 128.581 96.4527 128.33 96.2768 128.126C96.1144 127.923 95.8912 127.821 95.607 127.821C95.2552 127.821 94.9575 127.923 94.714 128.126C94.4839 128.316 94.3689 128.568 94.3689 128.88ZM100.072 123.299C100.072 123.028 100.153 122.804 100.316 122.627C100.492 122.451 100.708 122.363 100.965 122.363C101.209 122.363 101.412 122.43 101.574 122.566C101.75 122.702 101.872 122.892 101.94 123.136C102.115 123.693 102.251 124.42 102.346 125.316C103.063 125.139 104.091 125.051 105.431 125.051C105.417 124.929 105.383 124.779 105.329 124.603C105.207 123.965 105.146 123.523 105.146 123.279C105.146 123.048 105.228 122.851 105.39 122.688C105.552 122.512 105.755 122.424 105.999 122.424C106.202 122.424 106.391 122.492 106.567 122.627C106.743 122.763 106.865 122.933 106.933 123.136C107.257 124.114 107.42 125.458 107.42 127.169C107.42 128.133 107.359 128.975 107.237 129.695C107.21 129.885 107.108 130.041 106.933 130.163C106.757 130.272 106.56 130.326 106.344 130.326C106.087 130.326 105.877 130.265 105.715 130.143C105.566 130.007 105.492 129.817 105.492 129.572C105.492 129.314 105.498 129.151 105.512 129.084L105.552 128.574C105.593 128.248 105.613 127.923 105.613 127.597C105.613 127.162 105.607 126.904 105.593 126.823C104.538 126.823 103.496 126.938 102.467 127.169C102.481 127.997 102.44 128.826 102.346 129.654C102.291 130.197 102.007 130.468 101.493 130.468C101.249 130.468 101.04 130.394 100.864 130.244C100.688 130.095 100.6 129.905 100.6 129.674L100.681 127.393C100.681 126.266 100.499 125.044 100.133 123.727C100.093 123.578 100.072 123.435 100.072 123.299Z"/>
<path d="M111.959 133.075C111.309 133.075 110.809 132.912 110.457 132.587C110.118 132.261 109.888 131.731 109.767 130.998C109.537 129.532 109.422 128.153 109.422 126.864C109.422 126.619 109.53 126.409 109.746 126.232C109.963 126.042 110.213 125.947 110.497 125.947C110.741 125.947 110.937 126.035 111.086 126.212C111.235 126.375 111.309 126.585 111.309 126.843C111.309 127.875 111.404 129.022 111.593 130.285C111.647 130.611 111.742 130.842 111.878 130.978C112.026 131.113 112.263 131.181 112.588 131.181C113.075 131.181 113.542 131.134 113.988 131.039C114.448 130.93 115.139 130.72 116.059 130.407L116.323 130.367C116.553 130.367 116.728 130.455 116.85 130.631C116.986 130.808 117.053 131.032 117.053 131.303C117.053 131.67 116.891 131.928 116.566 132.077C115.957 132.349 115.199 132.587 114.293 132.79C113.4 132.98 112.622 133.075 111.959 133.075ZM115.572 128.106C115.572 127.862 115.659 127.665 115.835 127.515C116.011 127.352 116.241 127.271 116.525 127.271C117.229 127.271 118.075 127.176 119.063 126.986L118.92 126.517C118.704 125.906 118.596 125.506 118.596 125.316C118.596 125.071 118.684 124.868 118.86 124.705C119.049 124.542 119.266 124.46 119.509 124.46C119.753 124.46 119.962 124.542 120.138 124.705C120.314 124.854 120.436 125.051 120.504 125.295C121.031 127.264 121.295 129.246 121.295 131.242C121.295 131.5 121.214 131.724 121.052 131.914C120.903 132.105 120.713 132.2 120.483 132.2C120.226 132.2 120.017 132.138 119.854 132.016C119.705 131.894 119.624 131.711 119.611 131.466C119.556 130.679 119.482 129.803 119.387 128.839C118.508 129.07 117.811 129.185 117.297 129.185C116.701 129.185 116.262 129.111 115.977 128.961C115.707 128.798 115.572 128.513 115.572 128.106ZM122.472 131.874C122.729 130.828 122.858 129.803 122.858 128.798C122.858 127.699 122.729 126.626 122.472 125.58L122.432 125.214C122.432 124.942 122.513 124.732 122.675 124.582C122.838 124.42 123.047 124.338 123.305 124.338C123.805 124.338 124.123 124.582 124.259 125.071C124.502 125.9 124.624 127.026 124.624 128.452C124.624 130 124.482 131.256 124.198 132.22C124.062 132.722 123.771 132.974 123.325 132.974C123.068 132.974 122.851 132.899 122.675 132.749C122.513 132.587 122.432 132.383 122.432 132.138L122.472 131.874Z"/>
<path d="M137.099 132.77C138.263 132.458 138.878 132.301 138.946 132.301C139.203 132.301 139.419 132.396 139.595 132.587C139.771 132.777 139.859 133.001 139.859 133.259C139.859 133.652 139.65 133.917 139.23 134.053C136.578 134.976 133.425 135.438 129.772 135.438C128.243 135.438 127.113 135.37 126.382 135.234C126.125 135.193 125.909 135.085 125.733 134.908C125.557 134.732 125.469 134.521 125.469 134.277C125.469 134.033 125.557 133.829 125.733 133.666C125.922 133.489 126.139 133.401 126.382 133.401C126.599 133.401 126.991 133.442 127.559 133.523C127.884 133.591 128.216 133.632 128.554 133.646C128.527 133.225 128.385 132.58 128.128 131.711C127.992 131.263 127.925 130.984 127.925 130.876C127.925 130.631 128.026 130.434 128.229 130.285C128.446 130.136 128.703 130.061 129 130.061C129.42 130.061 129.704 130.278 129.853 130.713C130.164 131.758 130.34 132.736 130.381 133.646C131.896 133.605 133.405 133.462 134.907 133.218C134.92 133.136 134.927 132.872 134.927 132.424C134.927 131.69 134.853 131.045 134.704 130.489L134.663 130.265C134.663 130.02 134.765 129.817 134.968 129.654C135.184 129.491 135.421 129.409 135.678 129.409C136.03 129.409 136.273 129.559 136.409 129.857C136.531 130.115 136.605 130.36 136.632 130.591C136.659 130.821 136.673 131.303 136.673 132.037C136.673 132.525 136.666 132.811 136.652 132.892L137.099 132.77ZM128.96 126.354C128.96 125.866 129.088 125.418 129.346 125.01C129.616 124.589 129.968 124.263 130.401 124.033C130.847 123.788 131.314 123.666 131.801 123.666C132.261 123.666 132.688 123.788 133.08 124.033C133.473 124.263 133.784 124.576 134.014 124.969C134.244 125.35 134.359 125.764 134.359 126.212C134.359 126.701 134.23 127.162 133.973 127.597C133.716 128.018 133.371 128.357 132.938 128.615C132.519 128.873 132.065 129.002 131.578 129.002C131.118 129.002 130.685 128.887 130.279 128.656C129.873 128.411 129.549 128.092 129.305 127.699C129.075 127.291 128.96 126.843 128.96 126.354ZM130.665 126.436C130.665 126.68 130.746 126.904 130.908 127.108C131.071 127.298 131.253 127.393 131.456 127.393C131.781 127.393 132.072 127.278 132.329 127.047C132.586 126.816 132.715 126.544 132.715 126.232C132.715 125.961 132.627 125.737 132.451 125.56C132.275 125.37 132.059 125.275 131.801 125.275C131.504 125.275 131.24 125.397 131.01 125.642C130.78 125.886 130.665 126.151 130.665 126.436Z"/>
<path d="M143.721 135.031C143.383 135.031 143.092 134.908 142.849 134.664C142.605 134.42 142.483 134.121 142.483 133.768C142.483 133.415 142.605 133.116 142.849 132.872C143.092 132.614 143.383 132.485 143.721 132.485C144.073 132.485 144.371 132.614 144.614 132.872C144.871 133.116 145 133.415 145 133.768C145 134.107 144.871 134.406 144.614 134.664C144.371 134.908 144.073 135.031 143.721 135.031ZM142.24 122.525C142.24 122.2 142.361 121.948 142.605 121.772C142.862 121.595 143.18 121.507 143.559 121.507C143.681 121.507 143.803 121.527 143.924 121.568C144.249 121.663 144.452 121.887 144.533 122.24C144.628 122.593 144.689 123.096 144.716 123.747C144.838 125.024 144.899 126.327 144.899 127.658C144.899 129.627 144.533 130.611 143.803 130.611C143.397 130.611 143.126 130.482 142.991 130.224C142.869 129.966 142.808 129.545 142.808 128.961C142.808 126.897 142.632 124.868 142.28 122.872L142.24 122.525Z"/>
</mask>
<path d="M4.57768 132.077C3.76581 132.077 3.12985 131.84 2.66979 131.365C2.22326 130.889 2 130.238 2 129.409C2 128.866 2.12178 128.377 2.36534 127.943C2.62243 127.495 2.96748 127.149 3.40047 126.904C3.83347 126.646 4.30706 126.517 4.82124 126.517C5.59252 126.517 6.24878 126.762 6.79002 127.251C7.33127 127.726 7.60189 128.33 7.60189 129.063C7.60189 129.62 7.47335 130.129 7.21625 130.591C6.95916 131.052 6.60059 131.419 6.14053 131.69C5.68047 131.948 5.15952 132.077 4.57768 132.077ZM3.68463 129.308C3.68463 129.647 3.77258 129.925 3.94848 130.143C4.12439 130.36 4.35442 130.468 4.63857 130.468C4.97685 130.468 5.27454 130.333 5.53163 130.061C5.80225 129.776 5.93756 129.457 5.93756 129.104C5.93756 128.846 5.82255 128.622 5.59252 128.432C5.36249 128.228 5.1054 128.126 4.82124 128.126C4.51003 128.126 4.2394 128.248 4.00937 128.493C3.79288 128.724 3.68463 128.995 3.68463 129.308ZM11.0726 125.031C11.0726 124.786 11.1606 124.589 11.3365 124.44C11.5124 124.291 11.7289 124.216 11.986 124.216C12.2295 124.216 12.4393 124.284 12.6152 124.42C12.8046 124.555 12.9399 124.732 13.0211 124.949C13.3188 125.682 13.4676 127.054 13.4676 129.063C13.4676 130.72 13.3729 132.105 13.1835 133.218C13.1294 133.503 13.0211 133.707 12.8587 133.829C12.7099 133.938 12.4934 133.992 12.2092 133.992C11.9522 133.992 11.7424 133.917 11.58 133.768C11.4312 133.605 11.3568 133.394 11.3568 133.136C11.3568 132.892 11.3771 132.661 11.4177 132.444L11.4583 131.935C11.5395 131.039 11.58 130.156 11.58 129.287C11.58 127.753 11.4447 126.497 11.1741 125.519L11.1132 125.275L11.0726 125.031Z" fill="#292A2B"/>
<path d="M28.241 137.128C28.241 137.522 28.3086 137.8 28.4439 137.963C28.5792 138.14 28.8228 138.228 29.1746 138.228C29.77 138.228 30.3789 138.181 31.0013 138.086L31.8538 138.004H31.9755C32.5439 138.004 32.828 138.31 32.828 138.921C32.828 139.314 32.6115 139.566 32.1785 139.674C31.3531 139.891 30.1421 140 28.5454 140C27.9094 140 27.4426 139.851 27.1449 139.552C26.8743 139.28 26.6984 138.955 26.6172 138.574C26.536 138.208 26.4954 137.617 26.4954 136.802C26.4954 136.11 26.5428 135.594 26.6375 135.255C26.8134 134.426 27.4764 134.012 28.6266 134.012C29.885 134.012 30.751 133.985 31.2246 133.931C31.6846 133.89 32.0094 133.734 32.1988 133.462C32.3882 133.191 32.483 132.777 32.483 132.22C32.483 131.853 32.4288 131.582 32.3206 131.405C32.2123 131.215 32.0364 131.12 31.7929 131.12L28.7484 131.202C28.4642 131.202 28.2342 131.134 28.0583 130.998C27.8959 130.849 27.8147 130.652 27.8147 130.407C27.8147 130.163 27.8824 129.959 28.0177 129.796C28.1665 129.62 28.3627 129.518 28.6063 129.491C29.1611 129.396 30.115 129.348 31.4681 129.348C32.1717 129.348 32.7265 129.409 33.1325 129.532C33.5384 129.654 33.8361 129.891 34.0255 130.244C34.2285 130.597 34.33 131.113 34.33 131.792C34.33 132.878 34.1135 133.768 33.6805 134.46C33.261 135.153 32.6521 135.54 31.8538 135.621C30.7307 135.73 29.8106 135.784 29.0934 135.784C28.8363 135.784 28.6334 135.845 28.4845 135.967C28.3357 136.076 28.2612 136.246 28.2612 136.477L28.241 137.128ZM22.4361 125.519C22.4361 124.243 22.524 123.245 22.6999 122.525C22.8488 121.847 23.1532 121.378 23.6133 121.12C24.0869 120.849 24.777 120.713 25.6836 120.713L26.9217 120.733C27.5306 120.733 27.8756 120.74 27.9568 120.754C28.1868 120.767 28.383 120.855 28.5454 121.018C28.7078 121.181 28.789 121.405 28.789 121.69C28.789 121.948 28.7145 122.145 28.5657 122.281C28.4304 122.417 28.2342 122.485 27.9771 122.485L26.739 122.505C26.3331 122.505 25.9136 122.525 25.4806 122.566C25.1153 122.593 24.8514 122.661 24.689 122.77C24.5402 122.878 24.4387 123.075 24.3846 123.36C24.2763 123.985 24.2222 124.616 24.2222 125.255C24.2222 125.662 24.3913 125.954 24.7296 126.13C25.0138 126.293 25.2979 126.395 25.5821 126.436C25.8662 126.463 26.4075 126.477 27.2058 126.477L28.038 126.436C28.3898 126.436 28.6469 126.497 28.8093 126.619C28.9716 126.741 29.0528 126.945 29.0528 127.23C29.0528 127.57 28.9446 127.807 28.7281 127.943C28.5251 128.079 28.1936 128.147 27.7335 128.147H27.1043C26.3331 128.147 25.5821 128.092 24.8514 127.984C24.1072 127.862 23.5186 127.597 23.0856 127.189C22.6526 126.782 22.4361 126.225 22.4361 125.519ZM33.0919 120.794C33.0919 120.55 33.1528 120.36 33.2745 120.224C33.4098 120.075 33.5993 120 33.8428 120C34.3976 120 34.7494 120.339 34.8983 121.018C35.0606 121.901 35.1486 122.675 35.1621 123.34C36.3664 123.34 37.2595 123.36 37.8413 123.401C38.0713 123.415 38.254 123.51 38.3893 123.686C38.5382 123.863 38.6126 124.08 38.6126 124.338C38.6126 124.582 38.5449 124.793 38.4096 124.969C38.2878 125.132 38.1255 125.214 37.9225 125.214H37.2324L35.8522 125.173H35.1621C35.108 126.137 35.0336 126.897 34.9389 127.454C34.8712 127.957 34.5938 128.208 34.1067 128.208C33.8631 128.208 33.6534 128.126 33.4775 127.963C33.3016 127.8 33.2136 127.604 33.2136 127.373L33.2745 126.151L33.3151 125.356L33.376 124.134C33.376 123.13 33.2881 122.105 33.1122 121.059C33.0986 121.032 33.0919 120.944 33.0919 120.794Z" fill="#292A2B"/>
<path d="M49.8292 137.352C48.7467 137.352 47.9416 136.986 47.4139 136.253C46.8862 135.519 46.6223 134.467 46.6223 133.096C46.6223 132.811 46.717 132.566 46.9065 132.363C47.1094 132.145 47.353 132.037 47.6372 132.037C47.8807 132.037 48.0905 132.152 48.2664 132.383C48.4423 132.6 48.5302 132.851 48.5302 133.136C48.5302 133.992 48.6182 134.616 48.7941 135.01C48.9835 135.39 49.3286 135.58 49.8292 135.58C50.1404 135.58 50.411 135.526 50.6411 135.418C50.8711 135.309 51.1823 135.098 51.5747 134.786C51.8589 134.555 52.0686 134.406 52.2039 134.338C52.3392 134.27 52.4813 134.236 52.6301 134.236C52.8737 134.236 53.0699 134.325 53.2188 134.501C53.3811 134.664 53.4623 134.868 53.4623 135.112C53.4623 135.465 53.2864 135.818 52.9346 136.171C52.5963 136.511 52.143 136.789 51.5747 137.006C51.0199 137.237 50.4381 137.352 49.8292 137.352ZM39.8026 128.595C39.8026 127.957 39.9379 127.386 40.2086 126.884C40.4792 126.382 40.8445 125.995 41.3046 125.723C41.7646 125.451 42.2721 125.316 42.8268 125.316C43.3681 125.316 43.8552 125.445 44.2882 125.703C44.7347 125.947 45.0798 126.273 45.3233 126.68C45.5804 127.088 45.709 127.508 45.709 127.943C45.709 128.893 45.4113 129.681 44.8159 130.305C44.2205 130.916 43.456 131.222 42.5224 131.222C42.0217 131.222 41.5617 131.107 41.1422 130.876C40.7363 130.631 40.4115 130.305 40.168 129.898C39.9244 129.491 39.8026 129.056 39.8026 128.595ZM41.6496 128.31C41.6496 128.608 41.7308 128.873 41.8932 129.104C42.0556 129.321 42.2518 129.43 42.4818 129.43C42.8742 129.43 43.1989 129.308 43.456 129.063C43.7131 128.819 43.8417 128.5 43.8417 128.106C43.8417 127.821 43.7267 127.59 43.4966 127.413C43.2801 127.223 43.0027 127.128 42.6645 127.128C42.3532 127.128 42.1029 127.244 41.9135 127.475C41.7376 127.692 41.6496 127.97 41.6496 128.31ZM46.5614 127.739C46.5614 127.454 46.6494 127.23 46.8253 127.067C47.0012 126.904 47.2312 126.823 47.5154 126.823L48.2867 126.864C48.8279 126.864 49.3488 126.802 49.8495 126.68L49.6059 125.336C49.4706 124.779 49.403 124.42 49.403 124.257C49.403 124.012 49.4909 123.809 49.6668 123.646C49.8427 123.483 50.0525 123.401 50.296 123.401C50.5667 123.401 50.7967 123.489 50.9861 123.666C51.1891 123.842 51.3176 124.067 51.3718 124.338C51.6153 125.519 51.7371 126.972 51.7371 128.697L51.7574 129.45C51.7574 130.034 51.6762 130.475 51.5138 130.774C51.365 131.059 51.1147 131.202 50.7628 131.202C50.5328 131.202 50.3366 131.127 50.1742 130.978C50.0254 130.828 49.951 130.638 49.951 130.407V128.574C49.3285 128.697 48.7941 128.758 48.3475 128.758C47.7657 128.758 47.3192 128.683 47.008 128.534C46.7103 128.371 46.5614 128.106 46.5614 127.739ZM53.1782 130.631C53.4488 129.396 53.5841 128.357 53.5841 127.515C53.5841 126.633 53.4488 125.574 53.1782 124.338L53.1376 123.971C53.1376 123.714 53.212 123.503 53.3608 123.34C53.5097 123.177 53.7059 123.096 53.9494 123.096C54.193 123.096 54.4027 123.177 54.5786 123.34C54.7681 123.489 54.8966 123.686 54.9643 123.931C55.2078 124.718 55.3296 125.784 55.3296 127.128C55.3296 128.69 55.1875 129.973 54.9034 130.978C54.7545 131.48 54.4636 131.731 54.0306 131.731C53.7735 131.731 53.557 131.656 53.3811 131.507C53.2188 131.344 53.1376 131.141 53.1376 130.896L53.1782 130.631Z" fill="#292A2B"/>
<path d="M69.1693 133.788C70.4412 133.693 71.8687 133.469 73.4519 133.116L73.736 133.075C73.9796 133.075 74.1826 133.157 74.3449 133.32C74.5073 133.483 74.5885 133.68 74.5885 133.91C74.5885 134.128 74.5276 134.318 74.4058 134.481C74.2976 134.63 74.1352 134.739 73.9187 134.807C72.0108 135.336 69.7782 135.601 67.2208 135.601C65.4211 135.601 63.9463 135.465 62.7961 135.193C62.5525 135.126 62.3496 134.997 62.1872 134.807C62.0248 134.616 61.9436 134.399 61.9436 134.155C61.9436 133.924 62.0248 133.727 62.1872 133.564C62.3496 133.401 62.5458 133.32 62.7758 133.32C62.8976 133.32 62.972 133.327 62.9991 133.34C64.5146 133.666 65.9218 133.836 67.2208 133.849L67.2614 133.32C67.2614 132.994 67.1937 132.621 67.0584 132.2L66.9772 131.752C66.9366 131.602 66.9163 131.487 66.9163 131.405C66.9163 131.161 67.0178 130.964 67.2208 130.815C67.4373 130.665 67.6944 130.591 67.9921 130.591C68.2356 130.591 68.4386 130.652 68.601 130.774C68.7633 130.896 68.8716 131.073 68.9257 131.303C69.0881 132.01 69.1693 132.756 69.1693 133.544V133.788ZM62.4105 124.399C62.4105 124.182 62.4849 123.999 62.6337 123.849C62.7826 123.7 62.9788 123.605 63.2223 123.564C64.156 123.415 64.9814 123.34 65.6985 123.34C66.3074 123.34 66.7269 123.435 66.9569 123.625C67.2005 123.802 67.3223 124.148 67.3223 124.664C67.3223 125.193 67.2276 125.764 67.0381 126.375C67.5117 126.524 67.9312 126.599 68.2965 126.599C68.5942 126.599 68.8783 126.572 69.149 126.517C69.4331 126.449 69.7782 126.341 70.1841 126.191L70.4074 126.151C70.6103 126.151 70.7795 126.239 70.9148 126.415C71.0501 126.578 71.1178 126.782 71.1178 127.026C71.1178 127.461 70.9283 127.746 70.5494 127.882C70.1976 128.031 69.8052 128.147 69.3722 128.228C68.9528 128.31 68.5333 128.35 68.1138 128.35C67.4508 128.35 66.9231 128.262 66.5307 128.086C65.773 129.62 65.1235 130.387 64.5822 130.387C64.3657 130.387 64.1763 130.319 64.0139 130.183C63.8515 130.034 63.7703 129.857 63.7703 129.654C63.7703 129.545 63.926 129.212 64.2372 128.656C64.6972 127.787 65.0152 127.128 65.1911 126.68C65.3806 126.219 65.4753 125.791 65.4753 125.397C65.4753 125.275 65.4414 125.18 65.3738 125.112C65.3061 125.031 65.2046 124.99 65.0693 124.99C64.7581 124.99 64.4334 125.017 64.0951 125.071C63.6215 125.139 63.2832 125.173 63.0803 125.173C62.8773 125.173 62.7149 125.098 62.5931 124.949C62.4714 124.8 62.4105 124.616 62.4105 124.399Z" fill="#292A2B"/>
<path d="M80.2164 135.886C80.2164 135.126 80.4802 134.494 81.008 133.992C81.5492 133.489 82.2055 133.238 82.9767 133.238C83.8427 133.238 84.5531 133.489 85.1079 133.992C85.6627 134.481 85.9401 135.126 85.9401 135.927C85.9401 136.728 85.6627 137.379 85.1079 137.882C84.5667 138.398 83.8833 138.656 83.0579 138.656C82.2461 138.656 81.5695 138.391 81.0283 137.862C80.487 137.346 80.2164 136.687 80.2164 135.886ZM76.0556 130.102C76.0556 129.871 76.1367 129.674 76.2991 129.511C76.475 129.335 76.678 129.246 76.908 129.246C77.0839 129.246 77.4831 129.287 78.1055 129.369C78.4573 129.437 78.7956 129.477 79.1204 129.491C79.1204 128.826 78.9715 128.065 78.6738 127.21L78.6332 126.945C78.6332 126.701 78.7347 126.504 78.9377 126.354C79.1407 126.205 79.391 126.13 79.6887 126.13C79.9052 126.13 80.0879 126.191 80.2367 126.314C80.3991 126.422 80.5073 126.585 80.5614 126.802C80.7644 127.59 80.893 128.5 80.9471 129.532C82.449 129.504 83.8224 129.369 85.0673 129.124C85.0673 128.364 84.9523 127.563 84.7223 126.721L84.6817 126.477C84.6817 126.246 84.7899 126.049 85.0064 125.886C85.2229 125.723 85.4732 125.642 85.7574 125.642C85.9604 125.642 86.1363 125.703 86.2851 125.825C86.434 125.947 86.5422 126.11 86.6099 126.314C86.7993 126.911 86.9008 127.733 86.9143 128.778L87.8683 128.534C88.8019 128.262 89.3634 128.126 89.5529 128.126C89.7964 128.126 89.9994 128.221 90.1618 128.411C90.3377 128.601 90.4256 128.826 90.4256 129.084C90.4256 129.274 90.3648 129.443 90.243 129.593C90.1347 129.728 89.9859 129.823 89.7964 129.878C88.2674 130.326 86.6775 130.672 85.0267 130.916C83.3894 131.147 81.7725 131.263 80.1758 131.263C78.8362 131.263 77.7673 131.195 76.9689 131.059C76.6848 131.018 76.4615 130.916 76.2991 130.754C76.1367 130.591 76.0556 130.373 76.0556 130.102ZM79.9525 123.014C79.9525 122.525 80.0811 122.077 80.3382 121.67C80.5953 121.249 80.9403 120.916 81.3733 120.672C81.8063 120.428 82.2731 120.305 82.7738 120.305C83.2338 120.305 83.6533 120.421 84.0322 120.652C84.4246 120.883 84.7358 121.195 84.9658 121.589C85.1959 121.969 85.3109 122.383 85.3109 122.831C85.3109 123.347 85.1823 123.822 84.9252 124.257C84.6817 124.691 84.3434 125.037 83.9104 125.295C83.4909 125.54 83.0376 125.662 82.5505 125.662C82.0905 125.662 81.6575 125.547 81.2515 125.316C80.8591 125.071 80.5411 124.745 80.2976 124.338C80.0676 123.931 79.9525 123.489 79.9525 123.014ZM81.6372 123.075C81.6372 123.32 81.7116 123.544 81.8604 123.747C82.0228 123.938 82.2122 124.033 82.4287 124.033C82.7535 124.033 83.0376 123.917 83.2812 123.686C83.5383 123.456 83.6668 123.184 83.6668 122.872C83.6668 122.587 83.5856 122.356 83.4233 122.179C83.2609 122.003 83.0444 121.914 82.7738 121.914C82.4761 121.914 82.2122 122.037 81.9822 122.281C81.7522 122.525 81.6372 122.79 81.6372 123.075ZM81.9822 135.886C81.9822 136.198 82.0905 136.443 82.307 136.619C82.537 136.796 82.8211 136.884 83.1594 136.884C83.4436 136.884 83.6736 136.789 83.8495 136.599C84.0254 136.409 84.1134 136.164 84.1134 135.866C84.1134 135.54 84.0186 135.295 83.8292 135.132C83.6398 134.969 83.3759 134.888 83.0376 134.888C82.7399 134.888 82.4896 134.983 82.2867 135.173C82.0837 135.363 81.9822 135.601 81.9822 135.886Z" fill="#292A2B"/>
<path d="M93.6788 137.963C93.3947 137.963 93.1579 137.889 92.9684 137.739C92.779 137.604 92.6843 137.42 92.6843 137.189C92.6843 136.986 92.7519 136.83 92.8872 136.721C93.0226 136.612 93.2526 136.517 93.5773 136.436C94.2404 136.286 94.8493 135.879 95.404 135.214C95.9724 134.549 96.3174 133.815 96.4392 133.014C96.4933 132.512 96.7504 132.261 97.2104 132.261C97.4405 132.261 97.6367 132.342 97.799 132.505C97.975 132.668 98.0629 132.872 98.0629 133.116C98.0629 133.442 98.0088 133.795 97.9005 134.175C97.7923 134.555 97.657 134.84 97.4946 135.031C97.6029 135.384 97.9005 135.703 98.3877 135.988C98.8748 136.259 99.3619 136.409 99.849 136.436C100.539 136.219 101.155 135.784 101.696 135.132C102.237 134.467 102.562 133.761 102.67 133.014C102.724 132.512 102.981 132.261 103.442 132.261C103.685 132.261 103.888 132.349 104.05 132.525C104.213 132.688 104.294 132.892 104.294 133.136C104.294 133.462 104.24 133.809 104.132 134.175C104.023 134.542 103.888 134.827 103.726 135.031C103.82 135.411 104.111 135.743 104.598 136.029C105.099 136.3 105.654 136.436 106.263 136.436C106.493 136.436 106.669 136.511 106.79 136.66C106.912 136.809 106.973 137.006 106.973 137.251C106.973 137.454 106.872 137.637 106.669 137.8C106.466 137.977 106.256 138.065 106.04 138.065C105.404 138.065 104.768 137.902 104.132 137.576C103.509 137.264 103.11 136.904 102.934 136.497C102.474 136.931 102.048 137.251 101.655 137.454C101.263 137.671 100.81 137.821 100.296 137.902C100.147 138.011 99.9843 138.065 99.8084 138.065C99.2131 138.065 98.5906 137.909 97.9411 137.597C97.3052 137.284 96.8925 136.918 96.703 136.497C95.7288 137.475 94.7207 137.963 93.6788 137.963ZM91.9739 124.277C91.9739 124.046 92.0416 123.863 92.1769 123.727C92.3122 123.578 92.4948 123.503 92.7249 123.503L93.5773 123.544C93.8615 123.585 94.1456 123.605 94.4298 123.605C94.944 123.605 95.4446 123.564 95.9318 123.483C96.4189 123.401 96.9804 123.265 97.6164 123.075C97.6299 123.062 97.7043 123.055 97.8396 123.055C98.0426 123.055 98.205 123.136 98.3268 123.299C98.4621 123.449 98.5297 123.625 98.5297 123.829C98.5297 124.046 98.4688 124.236 98.3471 124.399C98.2388 124.549 98.0832 124.657 97.8802 124.725C96.7707 125.092 95.4785 125.275 94.0036 125.275C93.327 125.275 92.8196 125.2 92.4813 125.051C92.143 124.902 91.9739 124.644 91.9739 124.277ZM92.2175 121.1C92.2175 120.855 92.2986 120.665 92.461 120.53C92.6234 120.38 92.8264 120.305 93.0699 120.305C93.8818 120.305 94.4636 120.292 94.8154 120.265C95.1808 120.238 95.5732 120.163 95.9926 120.041L96.2565 120C96.4865 120 96.676 120.081 96.8248 120.244C96.9736 120.407 97.0481 120.611 97.0481 120.855C97.0481 121.236 96.7707 121.527 96.2159 121.731C95.6747 121.921 95.0049 122.016 94.2065 122.016C92.8805 122.016 92.2175 121.711 92.2175 121.1ZM92.6234 128.798C92.6234 128.323 92.7452 127.889 92.9887 127.495C93.2458 127.088 93.5841 126.762 94.0036 126.517C94.4366 126.273 94.9034 126.151 95.404 126.151C96.243 126.151 96.9263 126.375 97.454 126.823C97.9953 127.271 98.2659 127.862 98.2659 128.595C98.2659 129.45 98.002 130.156 97.4743 130.713C96.9601 131.27 96.2836 131.548 95.4446 131.548C94.6463 131.548 93.9765 131.29 93.4353 130.774C92.894 130.244 92.6234 129.586 92.6234 128.798ZM94.3689 128.88C94.3689 129.192 94.4636 129.443 94.6531 129.633C94.856 129.81 95.1131 129.898 95.4243 129.898C95.7085 129.898 95.9656 129.803 96.1956 129.613C96.4256 129.409 96.5407 129.165 96.5407 128.88C96.5407 128.581 96.4527 128.33 96.2768 128.126C96.1144 127.923 95.8912 127.821 95.607 127.821C95.2552 127.821 94.9575 127.923 94.714 128.126C94.4839 128.316 94.3689 128.568 94.3689 128.88ZM100.072 123.299C100.072 123.028 100.153 122.804 100.316 122.627C100.492 122.451 100.708 122.363 100.965 122.363C101.209 122.363 101.412 122.43 101.574 122.566C101.75 122.702 101.872 122.892 101.94 123.136C102.115 123.693 102.251 124.42 102.346 125.316C103.063 125.139 104.091 125.051 105.431 125.051C105.417 124.929 105.383 124.779 105.329 124.603C105.207 123.965 105.146 123.523 105.146 123.279C105.146 123.048 105.228 122.851 105.39 122.688C105.552 122.512 105.755 122.424 105.999 122.424C106.202 122.424 106.391 122.492 106.567 122.627C106.743 122.763 106.865 122.933 106.933 123.136C107.257 124.114 107.42 125.458 107.42 127.169C107.42 128.133 107.359 128.975 107.237 129.695C107.21 129.885 107.108 130.041 106.933 130.163C106.757 130.272 106.56 130.326 106.344 130.326C106.087 130.326 105.877 130.265 105.715 130.143C105.566 130.007 105.492 129.817 105.492 129.572C105.492 129.314 105.498 129.151 105.512 129.084L105.552 128.574C105.593 128.248 105.613 127.923 105.613 127.597C105.613 127.162 105.607 126.904 105.593 126.823C104.538 126.823 103.496 126.938 102.467 127.169C102.481 127.997 102.44 128.826 102.346 129.654C102.291 130.197 102.007 130.468 101.493 130.468C101.249 130.468 101.04 130.394 100.864 130.244C100.688 130.095 100.6 129.905 100.6 129.674L100.681 127.393C100.681 126.266 100.499 125.044 100.133 123.727C100.093 123.578 100.072 123.435 100.072 123.299Z" fill="#292A2B"/>
<path d="M111.959 133.075C111.309 133.075 110.809 132.912 110.457 132.587C110.118 132.261 109.888 131.731 109.767 130.998C109.537 129.532 109.422 128.153 109.422 126.864C109.422 126.619 109.53 126.409 109.746 126.232C109.963 126.042 110.213 125.947 110.497 125.947C110.741 125.947 110.937 126.035 111.086 126.212C111.235 126.375 111.309 126.585 111.309 126.843C111.309 127.875 111.404 129.022 111.593 130.285C111.647 130.611 111.742 130.842 111.878 130.978C112.026 131.113 112.263 131.181 112.588 131.181C113.075 131.181 113.542 131.134 113.988 131.039C114.448 130.93 115.139 130.72 116.059 130.407L116.323 130.367C116.553 130.367 116.728 130.455 116.85 130.631C116.986 130.808 117.053 131.032 117.053 131.303C117.053 131.67 116.891 131.928 116.566 132.077C115.957 132.349 115.199 132.587 114.293 132.79C113.4 132.98 112.622 133.075 111.959 133.075ZM115.572 128.106C115.572 127.862 115.659 127.665 115.835 127.515C116.011 127.352 116.241 127.271 116.525 127.271C117.229 127.271 118.075 127.176 119.063 126.986L118.92 126.517C118.704 125.906 118.596 125.506 118.596 125.316C118.596 125.071 118.684 124.868 118.86 124.705C119.049 124.542 119.266 124.46 119.509 124.46C119.753 124.46 119.962 124.542 120.138 124.705C120.314 124.854 120.436 125.051 120.504 125.295C121.031 127.264 121.295 129.246 121.295 131.242C121.295 131.5 121.214 131.724 121.052 131.914C120.903 132.105 120.713 132.2 120.483 132.2C120.226 132.2 120.017 132.138 119.854 132.016C119.705 131.894 119.624 131.711 119.611 131.466C119.556 130.679 119.482 129.803 119.387 128.839C118.508 129.07 117.811 129.185 117.297 129.185C116.701 129.185 116.262 129.111 115.977 128.961C115.707 128.798 115.572 128.513 115.572 128.106ZM122.472 131.874C122.729 130.828 122.858 129.803 122.858 128.798C122.858 127.699 122.729 126.626 122.472 125.58L122.432 125.214C122.432 124.942 122.513 124.732 122.675 124.582C122.838 124.42 123.047 124.338 123.305 124.338C123.805 124.338 124.123 124.582 124.259 125.071C124.502 125.9 124.624 127.026 124.624 128.452C124.624 130 124.482 131.256 124.198 132.22C124.062 132.722 123.771 132.974 123.325 132.974C123.068 132.974 122.851 132.899 122.675 132.749C122.513 132.587 122.432 132.383 122.432 132.138L122.472 131.874Z" fill="#292A2B"/>
<path d="M137.099 132.77C138.263 132.458 138.878 132.301 138.946 132.301C139.203 132.301 139.419 132.396 139.595 132.587C139.771 132.777 139.859 133.001 139.859 133.259C139.859 133.652 139.65 133.917 139.23 134.053C136.578 134.976 133.425 135.438 129.772 135.438C128.243 135.438 127.113 135.37 126.382 135.234C126.125 135.193 125.909 135.085 125.733 134.908C125.557 134.732 125.469 134.521 125.469 134.277C125.469 134.033 125.557 133.829 125.733 133.666C125.922 133.489 126.139 133.401 126.382 133.401C126.599 133.401 126.991 133.442 127.559 133.523C127.884 133.591 128.216 133.632 128.554 133.646C128.527 133.225 128.385 132.58 128.128 131.711C127.992 131.263 127.925 130.984 127.925 130.876C127.925 130.631 128.026 130.434 128.229 130.285C128.446 130.136 128.703 130.061 129 130.061C129.42 130.061 129.704 130.278 129.853 130.713C130.164 131.758 130.34 132.736 130.381 133.646C131.896 133.605 133.405 133.462 134.907 133.218C134.92 133.136 134.927 132.872 134.927 132.424C134.927 131.69 134.853 131.045 134.704 130.489L134.663 130.265C134.663 130.02 134.765 129.817 134.968 129.654C135.184 129.491 135.421 129.409 135.678 129.409C136.03 129.409 136.273 129.559 136.409 129.857C136.531 130.115 136.605 130.36 136.632 130.591C136.659 130.821 136.673 131.303 136.673 132.037C136.673 132.525 136.666 132.811 136.652 132.892L137.099 132.77ZM128.96 126.354C128.96 125.866 129.088 125.418 129.346 125.01C129.616 124.589 129.968 124.263 130.401 124.033C130.847 123.788 131.314 123.666 131.801 123.666C132.261 123.666 132.688 123.788 133.08 124.033C133.473 124.263 133.784 124.576 134.014 124.969C134.244 125.35 134.359 125.764 134.359 126.212C134.359 126.701 134.23 127.162 133.973 127.597C133.716 128.018 133.371 128.357 132.938 128.615C132.519 128.873 132.065 129.002 131.578 129.002C131.118 129.002 130.685 128.887 130.279 128.656C129.873 128.411 129.549 128.092 129.305 127.699C129.075 127.291 128.96 126.843 128.96 126.354ZM130.665 126.436C130.665 126.68 130.746 126.904 130.908 127.108C131.071 127.298 131.253 127.393 131.456 127.393C131.781 127.393 132.072 127.278 132.329 127.047C132.586 126.816 132.715 126.544 132.715 126.232C132.715 125.961 132.627 125.737 132.451 125.56C132.275 125.37 132.059 125.275 131.801 125.275C131.504 125.275 131.24 125.397 131.01 125.642C130.78 125.886 130.665 126.151 130.665 126.436Z" fill="#292A2B"/>
<path d="M143.721 135.031C143.383 135.031 143.092 134.908 142.849 134.664C142.605 134.42 142.483 134.121 142.483 133.768C142.483 133.415 142.605 133.116 142.849 132.872C143.092 132.614 143.383 132.485 143.721 132.485C144.073 132.485 144.371 132.614 144.614 132.872C144.871 133.116 145 133.415 145 133.768C145 134.107 144.871 134.406 144.614 134.664C144.371 134.908 144.073 135.031 143.721 135.031ZM142.24 122.525C142.24 122.2 142.361 121.948 142.605 121.772C142.862 121.595 143.18 121.507 143.559 121.507C143.681 121.507 143.803 121.527 143.924 121.568C144.249 121.663 144.452 121.887 144.533 122.24C144.628 122.593 144.689 123.096 144.716 123.747C144.838 125.024 144.899 126.327 144.899 127.658C144.899 129.627 144.533 130.611 143.803 130.611C143.397 130.611 143.126 130.482 142.991 130.224C142.869 129.966 142.808 129.545 142.808 128.961C142.808 126.897 142.632 124.868 142.28 122.872L142.24 122.525Z" fill="#292A2B"/>
<path d="M4.57768 132.077C3.76581 132.077 3.12985 131.84 2.66979 131.365C2.22326 130.889 2 130.238 2 129.409C2 128.866 2.12178 128.377 2.36534 127.943C2.62243 127.495 2.96748 127.149 3.40047 126.904C3.83347 126.646 4.30706 126.517 4.82124 126.517C5.59252 126.517 6.24878 126.762 6.79002 127.251C7.33127 127.726 7.60189 128.33 7.60189 129.063C7.60189 129.62 7.47335 130.129 7.21625 130.591C6.95916 131.052 6.60059 131.419 6.14053 131.69C5.68047 131.948 5.15952 132.077 4.57768 132.077ZM3.68463 129.308C3.68463 129.647 3.77258 129.925 3.94848 130.143C4.12439 130.36 4.35442 130.468 4.63857 130.468C4.97685 130.468 5.27454 130.333 5.53163 130.061C5.80225 129.776 5.93756 129.457 5.93756 129.104C5.93756 128.846 5.82255 128.622 5.59252 128.432C5.36249 128.228 5.1054 128.126 4.82124 128.126C4.51003 128.126 4.2394 128.248 4.00937 128.493C3.79288 128.724 3.68463 128.995 3.68463 129.308ZM11.0726 125.031C11.0726 124.786 11.1606 124.589 11.3365 124.44C11.5124 124.291 11.7289 124.216 11.986 124.216C12.2295 124.216 12.4393 124.284 12.6152 124.42C12.8046 124.555 12.9399 124.732 13.0211 124.949C13.3188 125.682 13.4676 127.054 13.4676 129.063C13.4676 130.72 13.3729 132.105 13.1835 133.218C13.1294 133.503 13.0211 133.707 12.8587 133.829C12.7099 133.938 12.4934 133.992 12.2092 133.992C11.9522 133.992 11.7424 133.917 11.58 133.768C11.4312 133.605 11.3568 133.394 11.3568 133.136C11.3568 132.892 11.3771 132.661 11.4177 132.444L11.4583 131.935C11.5395 131.039 11.58 130.156 11.58 129.287C11.58 127.753 11.4447 126.497 11.1741 125.519L11.1132 125.275L11.0726 125.031Z" stroke="#292A2B" stroke-width="0.6" mask="url(#path-21-outside-1_1409_9225)"/>
<path d="M28.241 137.128C28.241 137.522 28.3086 137.8 28.4439 137.963C28.5792 138.14 28.8228 138.228 29.1746 138.228C29.77 138.228 30.3789 138.181 31.0013 138.086L31.8538 138.004H31.9755C32.5439 138.004 32.828 138.31 32.828 138.921C32.828 139.314 32.6115 139.566 32.1785 139.674C31.3531 139.891 30.1421 140 28.5454 140C27.9094 140 27.4426 139.851 27.1449 139.552C26.8743 139.28 26.6984 138.955 26.6172 138.574C26.536 138.208 26.4954 137.617 26.4954 136.802C26.4954 136.11 26.5428 135.594 26.6375 135.255C26.8134 134.426 27.4764 134.012 28.6266 134.012C29.885 134.012 30.751 133.985 31.2246 133.931C31.6846 133.89 32.0094 133.734 32.1988 133.462C32.3882 133.191 32.483 132.777 32.483 132.22C32.483 131.853 32.4288 131.582 32.3206 131.405C32.2123 131.215 32.0364 131.12 31.7929 131.12L28.7484 131.202C28.4642 131.202 28.2342 131.134 28.0583 130.998C27.8959 130.849 27.8147 130.652 27.8147 130.407C27.8147 130.163 27.8824 129.959 28.0177 129.796C28.1665 129.62 28.3627 129.518 28.6063 129.491C29.1611 129.396 30.115 129.348 31.4681 129.348C32.1717 129.348 32.7265 129.409 33.1325 129.532C33.5384 129.654 33.8361 129.891 34.0255 130.244C34.2285 130.597 34.33 131.113 34.33 131.792C34.33 132.878 34.1135 133.768 33.6805 134.46C33.261 135.153 32.6521 135.54 31.8538 135.621C30.7307 135.73 29.8106 135.784 29.0934 135.784C28.8363 135.784 28.6334 135.845 28.4845 135.967C28.3357 136.076 28.2612 136.246 28.2612 136.477L28.241 137.128ZM22.4361 125.519C22.4361 124.243 22.524 123.245 22.6999 122.525C22.8488 121.847 23.1532 121.378 23.6133 121.12C24.0869 120.849 24.777 120.713 25.6836 120.713L26.9217 120.733C27.5306 120.733 27.8756 120.74 27.9568 120.754C28.1868 120.767 28.383 120.855 28.5454 121.018C28.7078 121.181 28.789 121.405 28.789 121.69C28.789 121.948 28.7145 122.145 28.5657 122.281C28.4304 122.417 28.2342 122.485 27.9771 122.485L26.739 122.505C26.3331 122.505 25.9136 122.525 25.4806 122.566C25.1153 122.593 24.8514 122.661 24.689 122.77C24.5402 122.878 24.4387 123.075 24.3846 123.36C24.2763 123.985 24.2222 124.616 24.2222 125.255C24.2222 125.662 24.3913 125.954 24.7296 126.13C25.0138 126.293 25.2979 126.395 25.5821 126.436C25.8662 126.463 26.4075 126.477 27.2058 126.477L28.038 126.436C28.3898 126.436 28.6469 126.497 28.8093 126.619C28.9716 126.741 29.0528 126.945 29.0528 127.23C29.0528 127.57 28.9446 127.807 28.7281 127.943C28.5251 128.079 28.1936 128.147 27.7335 128.147H27.1043C26.3331 128.147 25.5821 128.092 24.8514 127.984C24.1072 127.862 23.5186 127.597 23.0856 127.189C22.6526 126.782 22.4361 126.225 22.4361 125.519ZM33.0919 120.794C33.0919 120.55 33.1528 120.36 33.2745 120.224C33.4098 120.075 33.5993 120 33.8428 120C34.3976 120 34.7494 120.339 34.8983 121.018C35.0606 121.901 35.1486 122.675 35.1621 123.34C36.3664 123.34 37.2595 123.36 37.8413 123.401C38.0713 123.415 38.254 123.51 38.3893 123.686C38.5382 123.863 38.6126 124.08 38.6126 124.338C38.6126 124.582 38.5449 124.793 38.4096 124.969C38.2878 125.132 38.1255 125.214 37.9225 125.214H37.2324L35.8522 125.173H35.1621C35.108 126.137 35.0336 126.897 34.9389 127.454C34.8712 127.957 34.5938 128.208 34.1067 128.208C33.8631 128.208 33.6534 128.126 33.4775 127.963C33.3016 127.8 33.2136 127.604 33.2136 127.373L33.2745 126.151L33.3151 125.356L33.376 124.134C33.376 123.13 33.2881 122.105 33.1122 121.059C33.0986 121.032 33.0919 120.944 33.0919 120.794Z" stroke="#292A2B" stroke-width="0.6" mask="url(#path-21-outside-1_1409_9225)"/>
<path d="M49.8292 137.352C48.7467 137.352 47.9416 136.986 47.4139 136.253C46.8862 135.519 46.6223 134.467 46.6223 133.096C46.6223 132.811 46.717 132.566 46.9065 132.363C47.1094 132.145 47.353 132.037 47.6372 132.037C47.8807 132.037 48.0905 132.152 48.2664 132.383C48.4423 132.6 48.5302 132.851 48.5302 133.136C48.5302 133.992 48.6182 134.616 48.7941 135.01C48.9835 135.39 49.3286 135.58 49.8292 135.58C50.1404 135.58 50.411 135.526 50.6411 135.418C50.8711 135.309 51.1823 135.098 51.5747 134.786C51.8589 134.555 52.0686 134.406 52.2039 134.338C52.3392 134.27 52.4813 134.236 52.6301 134.236C52.8737 134.236 53.0699 134.325 53.2188 134.501C53.3811 134.664 53.4623 134.868 53.4623 135.112C53.4623 135.465 53.2864 135.818 52.9346 136.171C52.5963 136.511 52.143 136.789 51.5747 137.006C51.0199 137.237 50.4381 137.352 49.8292 137.352ZM39.8026 128.595C39.8026 127.957 39.9379 127.386 40.2086 126.884C40.4792 126.382 40.8445 125.995 41.3046 125.723C41.7646 125.451 42.2721 125.316 42.8268 125.316C43.3681 125.316 43.8552 125.445 44.2882 125.703C44.7347 125.947 45.0798 126.273 45.3233 126.68C45.5804 127.088 45.709 127.508 45.709 127.943C45.709 128.893 45.4113 129.681 44.8159 130.305C44.2205 130.916 43.456 131.222 42.5224 131.222C42.0217 131.222 41.5617 131.107 41.1422 130.876C40.7363 130.631 40.4115 130.305 40.168 129.898C39.9244 129.491 39.8026 129.056 39.8026 128.595ZM41.6496 128.31C41.6496 128.608 41.7308 128.873 41.8932 129.104C42.0556 129.321 42.2518 129.43 42.4818 129.43C42.8742 129.43 43.1989 129.308 43.456 129.063C43.7131 128.819 43.8417 128.5 43.8417 128.106C43.8417 127.821 43.7267 127.59 43.4966 127.413C43.2801 127.223 43.0027 127.128 42.6645 127.128C42.3532 127.128 42.1029 127.244 41.9135 127.475C41.7376 127.692 41.6496 127.97 41.6496 128.31ZM46.5614 127.739C46.5614 127.454 46.6494 127.23 46.8253 127.067C47.0012 126.904 47.2312 126.823 47.5154 126.823L48.2867 126.864C48.8279 126.864 49.3488 126.802 49.8495 126.68L49.6059 125.336C49.4706 124.779 49.403 124.42 49.403 124.257C49.403 124.012 49.4909 123.809 49.6668 123.646C49.8427 123.483 50.0525 123.401 50.296 123.401C50.5667 123.401 50.7967 123.489 50.9861 123.666C51.1891 123.842 51.3176 124.067 51.3718 124.338C51.6153 125.519 51.7371 126.972 51.7371 128.697L51.7574 129.45C51.7574 130.034 51.6762 130.475 51.5138 130.774C51.365 131.059 51.1147 131.202 50.7628 131.202C50.5328 131.202 50.3366 131.127 50.1742 130.978C50.0254 130.828 49.951 130.638 49.951 130.407V128.574C49.3285 128.697 48.7941 128.758 48.3475 128.758C47.7657 128.758 47.3192 128.683 47.008 128.534C46.7103 128.371 46.5614 128.106 46.5614 127.739ZM53.1782 130.631C53.4488 129.396 53.5841 128.357 53.5841 127.515C53.5841 126.633 53.4488 125.574 53.1782 124.338L53.1376 123.971C53.1376 123.714 53.212 123.503 53.3608 123.34C53.5097 123.177 53.7059 123.096 53.9494 123.096C54.193 123.096 54.4027 123.177 54.5786 123.34C54.7681 123.489 54.8966 123.686 54.9643 123.931C55.2078 124.718 55.3296 125.784 55.3296 127.128C55.3296 128.69 55.1875 129.973 54.9034 130.978C54.7545 131.48 54.4636 131.731 54.0306 131.731C53.7735 131.731 53.557 131.656 53.3811 131.507C53.2188 131.344 53.1376 131.141 53.1376 130.896L53.1782 130.631Z" stroke="#292A2B" stroke-width="0.6" mask="url(#path-21-outside-1_1409_9225)"/>
<path d="M69.1693 133.788C70.4412 133.693 71.8687 133.469 73.4519 133.116L73.736 133.075C73.9796 133.075 74.1826 133.157 74.3449 133.32C74.5073 133.483 74.5885 133.68 74.5885 133.91C74.5885 134.128 74.5276 134.318 74.4058 134.481C74.2976 134.63 74.1352 134.739 73.9187 134.807C72.0108 135.336 69.7782 135.601 67.2208 135.601C65.4211 135.601 63.9463 135.465 62.7961 135.193C62.5525 135.126 62.3496 134.997 62.1872 134.807C62.0248 134.616 61.9436 134.399 61.9436 134.155C61.9436 133.924 62.0248 133.727 62.1872 133.564C62.3496 133.401 62.5458 133.32 62.7758 133.32C62.8976 133.32 62.972 133.327 62.9991 133.34C64.5146 133.666 65.9218 133.836 67.2208 133.849L67.2614 133.32C67.2614 132.994 67.1937 132.621 67.0584 132.2L66.9772 131.752C66.9366 131.602 66.9163 131.487 66.9163 131.405C66.9163 131.161 67.0178 130.964 67.2208 130.815C67.4373 130.665 67.6944 130.591 67.9921 130.591C68.2356 130.591 68.4386 130.652 68.601 130.774C68.7633 130.896 68.8716 131.073 68.9257 131.303C69.0881 132.01 69.1693 132.756 69.1693 133.544V133.788ZM62.4105 124.399C62.4105 124.182 62.4849 123.999 62.6337 123.849C62.7826 123.7 62.9788 123.605 63.2223 123.564C64.156 123.415 64.9814 123.34 65.6985 123.34C66.3074 123.34 66.7269 123.435 66.9569 123.625C67.2005 123.802 67.3223 124.148 67.3223 124.664C67.3223 125.193 67.2276 125.764 67.0381 126.375C67.5117 126.524 67.9312 126.599 68.2965 126.599C68.5942 126.599 68.8783 126.572 69.149 126.517C69.4331 126.449 69.7782 126.341 70.1841 126.191L70.4074 126.151C70.6103 126.151 70.7795 126.239 70.9148 126.415C71.0501 126.578 71.1178 126.782 71.1178 127.026C71.1178 127.461 70.9283 127.746 70.5494 127.882C70.1976 128.031 69.8052 128.147 69.3722 128.228C68.9528 128.31 68.5333 128.35 68.1138 128.35C67.4508 128.35 66.9231 128.262 66.5307 128.086C65.773 129.62 65.1235 130.387 64.5822 130.387C64.3657 130.387 64.1763 130.319 64.0139 130.183C63.8515 130.034 63.7703 129.857 63.7703 129.654C63.7703 129.545 63.926 129.212 64.2372 128.656C64.6972 127.787 65.0152 127.128 65.1911 126.68C65.3806 126.219 65.4753 125.791 65.4753 125.397C65.4753 125.275 65.4414 125.18 65.3738 125.112C65.3061 125.031 65.2046 124.99 65.0693 124.99C64.7581 124.99 64.4334 125.017 64.0951 125.071C63.6215 125.139 63.2832 125.173 63.0803 125.173C62.8773 125.173 62.7149 125.098 62.5931 124.949C62.4714 124.8 62.4105 124.616 62.4105 124.399Z" stroke="#292A2B" stroke-width="0.6" mask="url(#path-21-outside-1_1409_9225)"/>
<path d="M80.2164 135.886C80.2164 135.126 80.4802 134.494 81.008 133.992C81.5492 133.489 82.2055 133.238 82.9767 133.238C83.8427 133.238 84.5531 133.489 85.1079 133.992C85.6627 134.481 85.9401 135.126 85.9401 135.927C85.9401 136.728 85.6627 137.379 85.1079 137.882C84.5667 138.398 83.8833 138.656 83.0579 138.656C82.2461 138.656 81.5695 138.391 81.0283 137.862C80.487 137.346 80.2164 136.687 80.2164 135.886ZM76.0556 130.102C76.0556 129.871 76.1367 129.674 76.2991 129.511C76.475 129.335 76.678 129.246 76.908 129.246C77.0839 129.246 77.4831 129.287 78.1055 129.369C78.4573 129.437 78.7956 129.477 79.1204 129.491C79.1204 128.826 78.9715 128.065 78.6738 127.21L78.6332 126.945C78.6332 126.701 78.7347 126.504 78.9377 126.354C79.1407 126.205 79.391 126.13 79.6887 126.13C79.9052 126.13 80.0879 126.191 80.2367 126.314C80.3991 126.422 80.5073 126.585 80.5614 126.802C80.7644 127.59 80.893 128.5 80.9471 129.532C82.449 129.504 83.8224 129.369 85.0673 129.124C85.0673 128.364 84.9523 127.563 84.7223 126.721L84.6817 126.477C84.6817 126.246 84.7899 126.049 85.0064 125.886C85.2229 125.723 85.4732 125.642 85.7574 125.642C85.9604 125.642 86.1363 125.703 86.2851 125.825C86.434 125.947 86.5422 126.11 86.6099 126.314C86.7993 126.911 86.9008 127.733 86.9143 128.778L87.8683 128.534C88.8019 128.262 89.3634 128.126 89.5529 128.126C89.7964 128.126 89.9994 128.221 90.1618 128.411C90.3377 128.601 90.4256 128.826 90.4256 129.084C90.4256 129.274 90.3648 129.443 90.243 129.593C90.1347 129.728 89.9859 129.823 89.7964 129.878C88.2674 130.326 86.6775 130.672 85.0267 130.916C83.3894 131.147 81.7725 131.263 80.1758 131.263C78.8362 131.263 77.7673 131.195 76.9689 131.059C76.6848 131.018 76.4615 130.916 76.2991 130.754C76.1367 130.591 76.0556 130.373 76.0556 130.102ZM79.9525 123.014C79.9525 122.525 80.0811 122.077 80.3382 121.67C80.5953 121.249 80.9403 120.916 81.3733 120.672C81.8063 120.428 82.2731 120.305 82.7738 120.305C83.2338 120.305 83.6533 120.421 84.0322 120.652C84.4246 120.883 84.7358 121.195 84.9658 121.589C85.1959 121.969 85.3109 122.383 85.3109 122.831C85.3109 123.347 85.1823 123.822 84.9252 124.257C84.6817 124.691 84.3434 125.037 83.9104 125.295C83.4909 125.54 83.0376 125.662 82.5505 125.662C82.0905 125.662 81.6575 125.547 81.2515 125.316C80.8591 125.071 80.5411 124.745 80.2976 124.338C80.0676 123.931 79.9525 123.489 79.9525 123.014ZM81.6372 123.075C81.6372 123.32 81.7116 123.544 81.8604 123.747C82.0228 123.938 82.2122 124.033 82.4287 124.033C82.7535 124.033 83.0376 123.917 83.2812 123.686C83.5383 123.456 83.6668 123.184 83.6668 122.872C83.6668 122.587 83.5856 122.356 83.4233 122.179C83.2609 122.003 83.0444 121.914 82.7738 121.914C82.4761 121.914 82.2122 122.037 81.9822 122.281C81.7522 122.525 81.6372 122.79 81.6372 123.075ZM81.9822 135.886C81.9822 136.198 82.0905 136.443 82.307 136.619C82.537 136.796 82.8211 136.884 83.1594 136.884C83.4436 136.884 83.6736 136.789 83.8495 136.599C84.0254 136.409 84.1134 136.164 84.1134 135.866C84.1134 135.54 84.0186 135.295 83.8292 135.132C83.6398 134.969 83.3759 134.888 83.0376 134.888C82.7399 134.888 82.4896 134.983 82.2867 135.173C82.0837 135.363 81.9822 135.601 81.9822 135.886Z" stroke="#292A2B" stroke-width="0.6" mask="url(#path-21-outside-1_1409_9225)"/>
<path d="M93.6788 137.963C93.3947 137.963 93.1579 137.889 92.9684 137.739C92.779 137.604 92.6843 137.42 92.6843 137.189C92.6843 136.986 92.7519 136.83 92.8872 136.721C93.0226 136.612 93.2526 136.517 93.5773 136.436C94.2404 136.286 94.8493 135.879 95.404 135.214C95.9724 134.549 96.3174 133.815 96.4392 133.014C96.4933 132.512 96.7504 132.261 97.2104 132.261C97.4405 132.261 97.6367 132.342 97.799 132.505C97.975 132.668 98.0629 132.872 98.0629 133.116C98.0629 133.442 98.0088 133.795 97.9005 134.175C97.7923 134.555 97.657 134.84 97.4946 135.031C97.6029 135.384 97.9005 135.703 98.3877 135.988C98.8748 136.259 99.3619 136.409 99.849 136.436C100.539 136.219 101.155 135.784 101.696 135.132C102.237 134.467 102.562 133.761 102.67 133.014C102.724 132.512 102.981 132.261 103.442 132.261C103.685 132.261 103.888 132.349 104.05 132.525C104.213 132.688 104.294 132.892 104.294 133.136C104.294 133.462 104.24 133.809 104.132 134.175C104.023 134.542 103.888 134.827 103.726 135.031C103.82 135.411 104.111 135.743 104.598 136.029C105.099 136.3 105.654 136.436 106.263 136.436C106.493 136.436 106.669 136.511 106.79 136.66C106.912 136.809 106.973 137.006 106.973 137.251C106.973 137.454 106.872 137.637 106.669 137.8C106.466 137.977 106.256 138.065 106.04 138.065C105.404 138.065 104.768 137.902 104.132 137.576C103.509 137.264 103.11 136.904 102.934 136.497C102.474 136.931 102.048 137.251 101.655 137.454C101.263 137.671 100.81 137.821 100.296 137.902C100.147 138.011 99.9843 138.065 99.8084 138.065C99.2131 138.065 98.5906 137.909 97.9411 137.597C97.3052 137.284 96.8925 136.918 96.703 136.497C95.7288 137.475 94.7207 137.963 93.6788 137.963ZM91.9739 124.277C91.9739 124.046 92.0416 123.863 92.1769 123.727C92.3122 123.578 92.4948 123.503 92.7249 123.503L93.5773 123.544C93.8615 123.585 94.1456 123.605 94.4298 123.605C94.944 123.605 95.4446 123.564 95.9318 123.483C96.4189 123.401 96.9804 123.265 97.6164 123.075C97.6299 123.062 97.7043 123.055 97.8396 123.055C98.0426 123.055 98.205 123.136 98.3268 123.299C98.4621 123.449 98.5297 123.625 98.5297 123.829C98.5297 124.046 98.4688 124.236 98.3471 124.399C98.2388 124.549 98.0832 124.657 97.8802 124.725C96.7707 125.092 95.4785 125.275 94.0036 125.275C93.327 125.275 92.8196 125.2 92.4813 125.051C92.143 124.902 91.9739 124.644 91.9739 124.277ZM92.2175 121.1C92.2175 120.855 92.2986 120.665 92.461 120.53C92.6234 120.38 92.8264 120.305 93.0699 120.305C93.8818 120.305 94.4636 120.292 94.8154 120.265C95.1808 120.238 95.5732 120.163 95.9926 120.041L96.2565 120C96.4865 120 96.676 120.081 96.8248 120.244C96.9736 120.407 97.0481 120.611 97.0481 120.855C97.0481 121.236 96.7707 121.527 96.2159 121.731C95.6747 121.921 95.0049 122.016 94.2065 122.016C92.8805 122.016 92.2175 121.711 92.2175 121.1ZM92.6234 128.798C92.6234 128.323 92.7452 127.889 92.9887 127.495C93.2458 127.088 93.5841 126.762 94.0036 126.517C94.4366 126.273 94.9034 126.151 95.404 126.151C96.243 126.151 96.9263 126.375 97.454 126.823C97.9953 127.271 98.2659 127.862 98.2659 128.595C98.2659 129.45 98.002 130.156 97.4743 130.713C96.9601 131.27 96.2836 131.548 95.4446 131.548C94.6463 131.548 93.9765 131.29 93.4353 130.774C92.894 130.244 92.6234 129.586 92.6234 128.798ZM94.3689 128.88C94.3689 129.192 94.4636 129.443 94.6531 129.633C94.856 129.81 95.1131 129.898 95.4243 129.898C95.7085 129.898 95.9656 129.803 96.1956 129.613C96.4256 129.409 96.5407 129.165 96.5407 128.88C96.5407 128.581 96.4527 128.33 96.2768 128.126C96.1144 127.923 95.8912 127.821 95.607 127.821C95.2552 127.821 94.9575 127.923 94.714 128.126C94.4839 128.316 94.3689 128.568 94.3689 128.88ZM100.072 123.299C100.072 123.028 100.153 122.804 100.316 122.627C100.492 122.451 100.708 122.363 100.965 122.363C101.209 122.363 101.412 122.43 101.574 122.566C101.75 122.702 101.872 122.892 101.94 123.136C102.115 123.693 102.251 124.42 102.346 125.316C103.063 125.139 104.091 125.051 105.431 125.051C105.417 124.929 105.383 124.779 105.329 124.603C105.207 123.965 105.146 123.523 105.146 123.279C105.146 123.048 105.228 122.851 105.39 122.688C105.552 122.512 105.755 122.424 105.999 122.424C106.202 122.424 106.391 122.492 106.567 122.627C106.743 122.763 106.865 122.933 106.933 123.136C107.257 124.114 107.42 125.458 107.42 127.169C107.42 128.133 107.359 128.975 107.237 129.695C107.21 129.885 107.108 130.041 106.933 130.163C106.757 130.272 106.56 130.326 106.344 130.326C106.087 130.326 105.877 130.265 105.715 130.143C105.566 130.007 105.492 129.817 105.492 129.572C105.492 129.314 105.498 129.151 105.512 129.084L105.552 128.574C105.593 128.248 105.613 127.923 105.613 127.597C105.613 127.162 105.607 126.904 105.593 126.823C104.538 126.823 103.496 126.938 102.467 127.169C102.481 127.997 102.44 128.826 102.346 129.654C102.291 130.197 102.007 130.468 101.493 130.468C101.249 130.468 101.04 130.394 100.864 130.244C100.688 130.095 100.6 129.905 100.6 129.674L100.681 127.393C100.681 126.266 100.499 125.044 100.133 123.727C100.093 123.578 100.072 123.435 100.072 123.299Z" stroke="#292A2B" stroke-width="0.6" mask="url(#path-21-outside-1_1409_9225)"/>
<path d="M111.959 133.075C111.309 133.075 110.809 132.912 110.457 132.587C110.118 132.261 109.888 131.731 109.767 130.998C109.537 129.532 109.422 128.153 109.422 126.864C109.422 126.619 109.53 126.409 109.746 126.232C109.963 126.042 110.213 125.947 110.497 125.947C110.741 125.947 110.937 126.035 111.086 126.212C111.235 126.375 111.309 126.585 111.309 126.843C111.309 127.875 111.404 129.022 111.593 130.285C111.647 130.611 111.742 130.842 111.878 130.978C112.026 131.113 112.263 131.181 112.588 131.181C113.075 131.181 113.542 131.134 113.988 131.039C114.448 130.93 115.139 130.72 116.059 130.407L116.323 130.367C116.553 130.367 116.728 130.455 116.85 130.631C116.986 130.808 117.053 131.032 117.053 131.303C117.053 131.67 116.891 131.928 116.566 132.077C115.957 132.349 115.199 132.587 114.293 132.79C113.4 132.98 112.622 133.075 111.959 133.075ZM115.572 128.106C115.572 127.862 115.659 127.665 115.835 127.515C116.011 127.352 116.241 127.271 116.525 127.271C117.229 127.271 118.075 127.176 119.063 126.986L118.92 126.517C118.704 125.906 118.596 125.506 118.596 125.316C118.596 125.071 118.684 124.868 118.86 124.705C119.049 124.542 119.266 124.46 119.509 124.46C119.753 124.46 119.962 124.542 120.138 124.705C120.314 124.854 120.436 125.051 120.504 125.295C121.031 127.264 121.295 129.246 121.295 131.242C121.295 131.5 121.214 131.724 121.052 131.914C120.903 132.105 120.713 132.2 120.483 132.2C120.226 132.2 120.017 132.138 119.854 132.016C119.705 131.894 119.624 131.711 119.611 131.466C119.556 130.679 119.482 129.803 119.387 128.839C118.508 129.07 117.811 129.185 117.297 129.185C116.701 129.185 116.262 129.111 115.977 128.961C115.707 128.798 115.572 128.513 115.572 128.106ZM122.472 131.874C122.729 130.828 122.858 129.803 122.858 128.798C122.858 127.699 122.729 126.626 122.472 125.58L122.432 125.214C122.432 124.942 122.513 124.732 122.675 124.582C122.838 124.42 123.047 124.338 123.305 124.338C123.805 124.338 124.123 124.582 124.259 125.071C124.502 125.9 124.624 127.026 124.624 128.452C124.624 130 124.482 131.256 124.198 132.22C124.062 132.722 123.771 132.974 123.325 132.974C123.068 132.974 122.851 132.899 122.675 132.749C122.513 132.587 122.432 132.383 122.432 132.138L122.472 131.874Z" stroke="#292A2B" stroke-width="0.6" mask="url(#path-21-outside-1_1409_9225)"/>
<path d="M137.099 132.77C138.263 132.458 138.878 132.301 138.946 132.301C139.203 132.301 139.419 132.396 139.595 132.587C139.771 132.777 139.859 133.001 139.859 133.259C139.859 133.652 139.65 133.917 139.23 134.053C136.578 134.976 133.425 135.438 129.772 135.438C128.243 135.438 127.113 135.37 126.382 135.234C126.125 135.193 125.909 135.085 125.733 134.908C125.557 134.732 125.469 134.521 125.469 134.277C125.469 134.033 125.557 133.829 125.733 133.666C125.922 133.489 126.139 133.401 126.382 133.401C126.599 133.401 126.991 133.442 127.559 133.523C127.884 133.591 128.216 133.632 128.554 133.646C128.527 133.225 128.385 132.58 128.128 131.711C127.992 131.263 127.925 130.984 127.925 130.876C127.925 130.631 128.026 130.434 128.229 130.285C128.446 130.136 128.703 130.061 129 130.061C129.42 130.061 129.704 130.278 129.853 130.713C130.164 131.758 130.34 132.736 130.381 133.646C131.896 133.605 133.405 133.462 134.907 133.218C134.92 133.136 134.927 132.872 134.927 132.424C134.927 131.69 134.853 131.045 134.704 130.489L134.663 130.265C134.663 130.02 134.765 129.817 134.968 129.654C135.184 129.491 135.421 129.409 135.678 129.409C136.03 129.409 136.273 129.559 136.409 129.857C136.531 130.115 136.605 130.36 136.632 130.591C136.659 130.821 136.673 131.303 136.673 132.037C136.673 132.525 136.666 132.811 136.652 132.892L137.099 132.77ZM128.96 126.354C128.96 125.866 129.088 125.418 129.346 125.01C129.616 124.589 129.968 124.263 130.401 124.033C130.847 123.788 131.314 123.666 131.801 123.666C132.261 123.666 132.688 123.788 133.08 124.033C133.473 124.263 133.784 124.576 134.014 124.969C134.244 125.35 134.359 125.764 134.359 126.212C134.359 126.701 134.23 127.162 133.973 127.597C133.716 128.018 133.371 128.357 132.938 128.615C132.519 128.873 132.065 129.002 131.578 129.002C131.118 129.002 130.685 128.887 130.279 128.656C129.873 128.411 129.549 128.092 129.305 127.699C129.075 127.291 128.96 126.843 128.96 126.354ZM130.665 126.436C130.665 126.68 130.746 126.904 130.908 127.108C131.071 127.298 131.253 127.393 131.456 127.393C131.781 127.393 132.072 127.278 132.329 127.047C132.586 126.816 132.715 126.544 132.715 126.232C132.715 125.961 132.627 125.737 132.451 125.56C132.275 125.37 132.059 125.275 131.801 125.275C131.504 125.275 131.24 125.397 131.01 125.642C130.78 125.886 130.665 126.151 130.665 126.436Z" stroke="#292A2B" stroke-width="0.6" mask="url(#path-21-outside-1_1409_9225)"/>
<path d="M143.721 135.031C143.383 135.031 143.092 134.908 142.849 134.664C142.605 134.42 142.483 134.121 142.483 133.768C142.483 133.415 142.605 133.116 142.849 132.872C143.092 132.614 143.383 132.485 143.721 132.485C144.073 132.485 144.371 132.614 144.614 132.872C144.871 133.116 145 133.415 145 133.768C145 134.107 144.871 134.406 144.614 134.664C144.371 134.908 144.073 135.031 143.721 135.031ZM142.24 122.525C142.24 122.2 142.361 121.948 142.605 121.772C142.862 121.595 143.18 121.507 143.559 121.507C143.681 121.507 143.803 121.527 143.924 121.568C144.249 121.663 144.452 121.887 144.533 122.24C144.628 122.593 144.689 123.096 144.716 123.747C144.838 125.024 144.899 126.327 144.899 127.658C144.899 129.627 144.533 130.611 143.803 130.611C143.397 130.611 143.126 130.482 142.991 130.224C142.869 129.966 142.808 129.545 142.808 128.961C142.808 126.897 142.632 124.868 142.28 122.872L142.24 122.525Z" stroke="#292A2B" stroke-width="0.6" mask="url(#path-21-outside-1_1409_9225)"/>
</g>
<defs>
<filter id="filter0_g_1409_9225" x="0.699951" y="118.7" width="145.6" height="22.6001" filterUnits="userSpaceOnUse" color-interpolation-filters="sRGB">
<feFlood flood-opacity="0" result="BackgroundImageFix"/>
<feBlend mode="normal" in="SourceGraphic" in2="BackgroundImageFix" result="shape"/>
<feTurbulence type="fractalNoise" baseFrequency="0.20000000298023224 0.20000000298023224" numOctaves="3" seed="8422" />
<feDisplacementMap in="shape" scale="2" xChannelSelector="R" yChannelSelector="G" result="displacedImage" width="100%" height="100%" />
<feMerge result="effect1_texture_1409_9225">
<feMergeNode in="displacedImage"/>
</feMerge>
</filter>
</defs>
</svg>
