<svg width="24" height="24" viewBox="0 0 24 24" fill="none" xmlns="http://www.w3.org/2000/svg">
<mask id="mask0_2141_32386" style="mask-type:alpha" maskUnits="userSpaceOnUse" x="0" y="0" width="24" height="24">
<rect width="24" height="24" fill="#484A4C"/>
</mask>
<g mask="url(#mask0_2141_32386)">
<mask id="mask1_2141_32386" style="mask-type:alpha" maskUnits="userSpaceOnUse" x="2" y="2" width="20" height="20">
<path d="M2 2H22V22H2V2Z" fill="#484A4C"/>
<path d="M2 2H22V22H2V2Z" fill="#484A4C"/>
</mask>
<g mask="url(#mask1_2141_32386)">
<path d="M19.1113 4.5C20.1303 4.50011 20.9997 5.31186 21 6.36621V8.9668C21 9.64495 20.6391 10.2208 20.1113 10.5469V17.2002C20.1112 18.4941 19.0419 19.5 17.7773 19.5H6.22266C4.95807 19.5 3.88878 18.4941 3.88867 17.2002V10.5469C3.36092 10.2208 3.00005 9.64495 3 8.9668V6.36621C3.00025 5.31186 3.86973 4.50012 4.88867 4.5H19.1113Z" fill="#E6992E" stroke="white" stroke-width="2"/>
<path d="M4 6.36667C4 5.88802 4.39797 5.5 4.88889 5.5H19.1111C19.602 5.5 20 5.88802 20 6.36667V8.96667C20 9.44531 19.602 9.83333 19.1111 9.83333H4.88889C4.39797 9.83333 4 9.44531 4 8.96667V6.36667Z" fill="#FFAA33"/>
<path fill-rule="evenodd" clip-rule="evenodd" d="M19.1111 17.2C19.1111 17.918 18.5142 18.5 17.7778 18.5H6.22222C5.48584 18.5 4.88889 17.918 4.88889 17.2L4.88889 9.83333H19.1111V17.2ZM9.33333 10.7C8.84241 10.7 8.44444 11.088 8.44444 11.5667C8.44444 12.0453 8.84241 12.4333 9.33333 12.4333H14.6667C15.1576 12.4333 15.5556 12.0453 15.5556 11.5667C15.5556 11.088 15.1576 10.7 14.6667 10.7H9.33333Z" fill="#E6992E"/>
</g>
</g>
</svg>
