<svg width="201" height="201" viewBox="0 0 201 201" fill="none" xmlns="http://www.w3.org/2000/svg">
<circle cx="100.5" cy="100.5" r="92.5" stroke="#FFE5C0" stroke-width="16"/>
<circle cx="100.5" cy="100.5" r="92.5" stroke="#FFAA33" stroke-width="16"/>
<path d="M8 100.5C8 151.586 49.4137 193 100.5 193C151.586 193 193 151.586 193 100.5C193 49.4137 151.586 8 100.5 8" stroke="#FFAA33" stroke-width="16" stroke-linecap="round"/>
<path d="M100.5 193C151.586 193 193 151.586 193 100.5C193 49.4137 151.586 8 100.5 8" stroke="#FFAA33" stroke-width="16" stroke-linecap="round"/>
<path d="M193 100.5C193 49.4137 151.586 8 100.5 8" stroke="#FFAA33" stroke-width="16" stroke-linecap="round"/>
<path d="M112.685 94.7638C112.481 94.3775 111.844 94.7411 111.617 94.3548C111.003 93.3321 110.458 92.4458 109.617 91.6505C108.776 90.8551 108.435 89.9461 107.413 89.3552L107.117 89.2189C106.095 88.628 105.186 87.469 104.095 87.1736C103.004 86.8782 101.618 87.1509 100.436 87.1509C99.2999 87.1509 98.4363 88.6962 97.391 88.9007C96.3456 89.1052 94.9821 88.3326 94.0049 88.8098C93.5959 89.0143 93.8458 89.1052 93.4368 89.3098V89.6734C92.3914 90.287 91.8006 91.2414 90.9825 92.0822C90.1644 92.9231 88.8236 93.3094 88.2327 94.4002C87.6191 95.491 87.1419 96.6955 86.8465 97.9454C86.551 99.1952 85.892 100.4 85.892 101.718C85.892 102.877 85.7329 104.24 86.0056 105.308C86.2783 106.376 87.3919 107.354 87.96 108.354C88.1645 108.717 87.4828 109.149 87.71 109.512C88.7327 111.171 90.3689 112.83 91.9369 113.898H92.0051C92.9141 114.467 94.1185 114.989 95.073 115.285C96.0275 115.58 97.3682 113.853 98.4136 113.853C99.8226 113.853 101.141 114.694 102.391 114.467C103.754 114.217 104.799 113.353 105.981 112.83C107.208 112.285 107.822 111.217 108.822 110.353L109.913 109.376C110.912 108.49 110.413 108.763 111.049 107.649C111.685 106.535 113.367 105.967 113.662 104.649C113.935 103.445 114.389 102.104 114.389 100.741C114.389 98.6498 113.64 96.5364 112.708 94.7411L112.685 94.7638ZM104.845 104.558C104.663 104.74 104.254 105.308 104.072 105.467C102.959 106.422 101.141 106.922 98.9817 106.922C98.0955 106.922 97.8228 106.308 97.0274 105.558C96.8456 105.376 96.4592 105.24 96.3002 105.058C95.3912 104.013 95.732 103.081 95.732 101.945C95.732 100.4 95.6639 99.2634 96.641 97.9908C97.6637 96.7409 98.4591 94.9002 99.7089 94.9002C101.254 94.9002 102.459 96.5364 103.618 97.5363L103.913 97.8317C105.072 98.8089 105.777 99.5361 105.777 100.922C105.777 102.649 105.663 103.649 104.845 104.558Z" fill="#FFAA33"/>
</svg>
