<svg width="201" height="201" viewBox="0 0 201 201" fill="none" xmlns="http://www.w3.org/2000/svg">
<circle cx="100.5" cy="100.5" r="92.5" stroke="#FFE5C0" stroke-width="16"/>
<path d="M107.992 96.4367L107.969 96.4595C107.421 95.9343 107.078 95.1122 106.439 94.7011C105.799 94.29 104.977 94.2215 104.246 93.9475C103.561 93.6963 102.785 93.6506 102.031 93.4908C101.323 93.3309 100.638 92.6687 99.8619 92.5773C99.1311 92.5088 98.3547 92.9884 97.5554 92.9884C96.7562 92.9884 95.8884 93.5821 94.8379 93.7191C94.2898 93.7876 94.2442 93.5364 93.6961 93.605C93.1023 93.6735 92.3716 93.5821 91.9605 93.6506C91.7778 92.8742 92.4629 92.7828 92.4858 91.9836C92.4858 90.1567 92.2346 89.0605 92.3944 88.6038C92.3944 88.6038 92.5086 88.1014 92.5314 88.0786C92.6228 87.8045 92.6228 87.6218 93.1937 87.4848C93.1937 87.4848 93.8103 87.4848 93.8331 87.4848C94.1071 87.4163 94.1071 87.873 94.8607 87.8274C95.6143 87.7817 96.5963 87.6904 97.7838 87.6904C97.7838 87.6904 98.1492 87.6904 98.172 87.6904C99.5422 87.7589 99.1768 87.462 100.524 87.5305H100.41C101.712 87.5762 101.712 87.6675 103.036 87.7132C103.036 87.7132 103.402 87.7132 103.424 87.7132C104.475 87.7132 105.457 87.873 106.188 87.188C106.325 87.0509 106.256 86.9596 106.37 86.8226C106.918 86.1603 107.147 85.1555 107.147 84.2649C107.147 83.1231 106.553 81.9813 105.594 81.3419L105.548 81.4104C104.749 80.8395 103.813 80.8623 102.945 80.8166C101.917 80.8166 101.917 80.9536 100.867 80.9536C99.8162 80.9536 99.8391 80.771 98.7886 80.771C97.7381 80.771 96.779 80.0402 95.8884 80.063C94.7922 80.063 93.8788 80.9536 93.0338 80.9993C92.3716 81.045 92.3716 81.1363 91.6865 81.182L91.4125 80.9765C90.6132 81.045 90.0651 80.6339 89.4029 80.771C88.5808 80.9308 87.987 81.5474 87.4161 81.8214C87.2106 81.9356 87.1421 81.7986 86.9365 81.9128C86.4113 82.2325 86.5027 82.9861 86.2058 83.4885C85.9089 83.968 84.7443 84.1736 84.6529 84.813C84.6072 85.087 84.8128 85.1327 84.7671 85.4067L84.6758 85.6351C84.5844 86.617 85.064 87.4392 84.9955 88.444C84.9041 89.974 84.6072 89.9511 84.5159 91.4583C84.4931 92.1206 84.356 92.76 84.3104 93.4223C84.2647 94.0845 84.8584 94.7924 84.8128 95.4547C84.7671 96.117 84.6529 96.2768 84.5844 96.9162L84.5159 97.4186C84.5159 97.5785 84.5159 97.5785 84.5159 97.7383C84.5159 98.9487 84.5844 100.045 85.4522 100.958C85.4522 100.958 85.5435 101.095 85.5435 101.118C85.7262 101.278 85.5435 101.278 85.7262 101.438C86.5712 102.123 87.6901 102.374 88.7634 102.374C89.4942 102.374 90.499 101.689 91.892 101.232C93.3079 100.821 94.1757 100.57 94.8379 100.456C94.8379 100.456 95.0434 100.387 95.0663 100.387C95.7514 100.227 96.5506 100.045 97.2814 100.045C98.1263 100.045 98.7886 101.05 99.4965 101.255C100.273 101.483 101.095 101.438 101.712 101.917C101.917 102.077 101.757 102.26 101.963 102.443C102.42 102.877 102.899 103.196 103.105 103.744C103.31 104.292 103.287 104.84 103.287 105.48C103.287 106.393 103.698 107.261 103.584 107.923C103.424 108.905 102.808 109.59 102.442 110.116C102.305 110.298 102.123 110.116 101.986 110.298C101.986 110.298 101.849 110.412 101.849 110.435C101.438 110.915 101.118 111.646 100.09 111.874C99.428 112.011 98.5374 111.897 97.5783 111.897C97.1672 111.897 96.5278 111.143 95.3175 110.778C94.4269 110.435 93.3992 110.961 92.6228 110.961C91.618 110.961 90.8187 111.166 90.1793 111.92C89.5627 112.65 89.0146 113.495 89.0146 114.477C89.0146 115.299 89.6312 115.916 90.1336 116.578C90.636 117.218 91.2754 117.606 92.1432 117.994L92.3944 118.154C92.9882 118.405 93.3307 118.497 93.9701 118.679C94.6095 118.862 95.1576 119.479 95.8427 119.547C96.5278 119.616 97.19 119.57 97.8523 119.57C98.6059 119.57 99.2682 118.908 99.9761 118.839C100.707 118.771 101.597 119.57 102.26 119.41C102.968 119.227 103.653 118.793 104.315 118.519C104.977 118.245 105.594 117.789 106.21 117.4C106.827 117.012 107.352 116.51 107.877 116.007C108.403 115.505 108.448 114.637 108.859 114.089C109.27 113.541 109.567 112.97 109.864 112.331C110.161 111.691 111.257 111.372 111.44 110.664C111.623 109.956 111.44 109.202 111.531 108.494C111.623 107.809 111.303 107.101 111.303 106.37C111.303 105.617 112.011 104.84 111.919 104.132C111.851 103.379 111.623 102.625 111.463 101.94C111.28 101.209 110.275 100.798 110.001 100.136C109.704 99.4511 109.339 98.9487 108.951 98.3549C108.563 97.7612 108.517 96.8934 107.969 96.4138L107.992 96.4367Z" fill="#FFAA33"/>
</svg>
