<svg width="201" height="201" viewBox="0 0 201 201" fill="none" xmlns="http://www.w3.org/2000/svg">
<circle cx="100.5" cy="100.5" r="92.5" stroke="#FFE5C0" stroke-width="16"/>
<path d="M100.5 193C151.586 193 193 151.586 193 100.5C193 49.4137 151.586 8 100.5 8" stroke="#FFAA33" stroke-width="16" stroke-linecap="round"/>
<path d="M193 100.5C193 49.4137 151.586 8 100.5 8" stroke="#FFAA33" stroke-width="16" stroke-linecap="round"/>
<path d="M93.719 117.442C93.719 117.442 93.7419 117.442 93.7649 117.442C94.4301 117.817 94.8431 118.566 95.5542 118.824C96.2653 119.081 96.8847 119.83 97.6188 119.947C98.3529 120.064 99.1788 119.526 99.9358 119.526C100.762 119.526 101.61 119.971 102.344 119.877C103.147 119.76 103.721 118.73 104.455 118.496C105.235 118.238 105.946 118.121 106.611 117.723C107.277 117.325 107.552 117.021 108.125 116.459C108.332 116.249 108.492 115.991 108.699 115.804C109.364 115.078 110.029 114.469 110.465 113.556C110.901 112.643 111.062 111.777 111.245 110.771C111.429 109.834 111.819 108.921 111.819 107.868C111.819 107.072 112.369 106.206 112.255 105.48C112.117 104.708 110.947 104.239 110.695 103.537C110.442 102.835 110.97 101.641 110.557 101.009C110.029 100.213 109.089 99.6044 108.355 98.9489C107.644 98.3637 106.955 98.0126 106.061 97.5678C106.864 96.5144 107.231 95.4375 107.758 94.267C107.873 93.9861 107.483 93.8223 107.598 93.5179C107.85 92.8625 108.057 92.3006 108.194 91.6686C108.332 91.0365 108.424 90.4045 108.424 89.7256C108.424 88.7658 108.974 87.806 108.791 86.9867C108.584 86.0737 107.621 85.5353 107.185 84.7628C106.749 83.9903 106.611 83.0305 105.923 82.4219C105.258 81.8132 104.294 81.743 103.492 81.345C102.689 80.9471 101.932 80.83 101.037 80.6662C100.188 80.5023 99.4082 79.9639 98.4676 79.9639C97.6876 79.9639 97.0453 80.5023 96.2883 80.6662C95.5313 80.83 94.8431 80.8534 94.1319 81.1812C93.8796 81.2982 93.3978 81.6493 93.1455 81.7898C91.9985 82.3985 91.7691 82.8666 90.9662 83.8498C90.5303 84.4117 89.7503 84.6458 89.498 85.2778C89.2457 85.9099 88.9933 86.6122 88.9933 87.3144C88.9933 88.321 89.6356 89.0233 90.3238 89.6788C90.3238 89.6788 90.5074 89.749 90.5303 89.749C90.5303 89.749 90.5762 89.749 90.5762 89.7724C91.2873 90.3343 91.792 90.4747 92.7555 90.4747C93.3061 90.4747 93.7419 90.3577 94.2007 90.0065L94.086 90.1002C94.086 90.1002 94.109 90.0533 94.2007 90.0065C94.6137 89.6788 95.5542 89.6554 95.8524 89.0701C96.2883 88.321 96.1277 87.7826 96.4489 87.5719C96.4489 87.5719 96.5406 87.3613 96.5636 87.3613C96.8847 87.1272 97.4812 86.5419 98.33 86.5419C99.4999 86.5419 100.165 87.4549 100.647 87.9933C100.647 87.9933 100.647 88.0401 100.647 88.0635C101.152 88.5785 101.381 89.234 101.381 90.4513C101.381 91.3643 101.542 92.5113 100.853 93.5179C100.693 93.7286 100.808 93.6818 100.647 93.8925C100.647 93.8925 100.647 94.0564 100.647 94.0798C99.8899 95.1098 98.8346 95.6248 98.0547 95.8355C97.8941 95.8823 97.8712 95.7887 97.6876 95.8355C96.403 95.9993 95.1642 96.608 94.3613 96.9825C94.5219 96.8889 94.2007 97.0528 94.3613 96.9825L94.4301 97.0762C93.4666 97.6848 92.8931 98.3169 92.8931 99.5576C92.8931 100.471 93.4208 101.056 94.0401 101.688C94.6595 102.273 95.1872 102.39 96.0589 102.39C96.403 102.39 96.793 102.484 97.2977 102.343C97.8941 102.25 98.2611 102.343 98.3758 102.343C99.2017 102.343 99.9358 102.741 100.647 102.952C101.404 103.186 102.092 103.537 102.712 104.029C103.927 104.895 104.134 105.902 104.134 107.306C104.134 109.038 104.203 110.209 103.652 110.935C103.537 111.075 103.744 111.192 103.629 111.333C103.629 111.333 103.629 111.426 103.606 111.426C103.216 111.848 102.436 112.035 101.61 112.222C101.037 112.363 100.349 112.714 99.5458 112.714C98.7199 112.714 98.0547 112.363 97.6647 112.105C97.2747 111.754 96.7242 111.075 96.1965 110.115C96.1965 110.115 96.1965 110.115 96.1048 110.045C96.013 109.975 95.9901 109.928 95.9671 109.928C95.7607 109.647 95.9671 109.928 95.7607 109.647C95.5083 109.296 95.3477 109.249 95.1183 108.992C94.9578 108.828 94.7284 108.64 94.5678 108.477C94.0631 108.008 93.7649 107.798 93.0767 107.798C92.1132 107.798 91.2414 108.102 90.4844 108.734C90.3238 108.875 90.4844 108.734 90.3238 108.875C89.5209 109.647 88.741 110.42 88.741 111.543C88.741 111.988 88.8557 112.573 89.0392 113.112C89.4521 114.165 90.0486 115.242 90.7368 116.061C91.425 116.881 92.7555 116.904 93.719 117.513" fill="#FFAA33"/>
</svg>
