<svg width="201" height="201" viewBox="0 0 201 201" fill="none" xmlns="http://www.w3.org/2000/svg">
<circle cx="100.5" cy="100.5" r="92.5" stroke="#FFE5C0" stroke-width="16"/>
<circle cx="100.5" cy="100.5" r="92.5" stroke="#FFAA33" stroke-width="16"/>
<path d="M8 100.5C8 151.586 49.4137 193 100.5 193C151.586 193 193 151.586 193 100.5C193 49.4137 151.586 8 100.5 8" stroke="#FFAA33" stroke-width="16" stroke-linecap="round"/>
<path d="M100.5 193C151.586 193 193 151.586 193 100.5C193 49.4137 151.586 8 100.5 8" stroke="#FFAA33" stroke-width="16" stroke-linecap="round"/>
<path d="M193 100.5C193 49.4137 151.586 8 100.5 8" stroke="#FFAA33" stroke-width="16" stroke-linecap="round"/>
<path d="M99.4268 120.014L99.4746 120.108C99.8335 120.061 100.695 120.625 102.083 120.625C102.824 120.625 102.824 119.897 103.566 119.897C104.954 119.967 104.93 120.625 106.317 120.672C107.083 120.695 107.083 119.92 107.849 119.92C108.854 119.92 109.404 119.685 110.026 118.84C110.146 118.699 110.122 118.44 110.241 118.299C110.696 117.548 110.792 117.148 110.792 116.185C110.792 115.504 111.342 114.8 111.127 114.259C110.887 113.649 110.768 113.649 110.241 113.296L109.523 113.132C109.523 113.132 109.619 113.132 109.595 113.132C109.595 113.132 109.523 113.132 109.523 113.108C108.758 112.568 107.944 112.474 106.748 112.404C106.485 112.404 106.509 112.028 106.222 112.028C106.222 112.028 106.222 111.958 106.198 111.958C105.6 111.958 105.241 112.756 104.714 112.451C104.714 111.723 105.313 110.29 105.336 109.068C105.336 108.223 105.384 107.236 105.384 106.132C105.384 104.981 104.523 104.981 104.523 103.807C104.523 102.633 104.786 102.656 104.786 101.482C104.786 100.589 105.145 99.72 105.121 98.8979C105.121 98.0053 105.6 97.1363 105.576 96.3142C105.576 95.4216 105.169 94.5525 105.145 93.7539C105.097 92.8379 104.93 91.9923 104.882 91.1937C104.81 90.2776 104.092 89.5025 104.021 88.7039C103.949 88.0462 104.571 87.9757 104.499 87.3416C104.499 87.3416 104.643 87.0362 104.643 87.0127C104.595 86.7543 104.643 87.0127 104.595 86.7543C104.332 85.6034 103.111 85.1101 102.226 84.4055C101.293 83.6304 100.503 83.4659 99.2354 83.4659C98.4697 83.4659 97.6563 83.1841 96.6753 83.5129C95.9336 83.7713 95.1201 84.1236 94.2349 84.5699C93.4932 84.9457 92.8232 85.5329 92.0098 86.0262C91.7705 86.1671 91.6987 86.2846 91.4595 86.449C91.0049 86.7778 91.0527 87.0832 90.7656 87.5529C90.3828 88.1871 90 88.6099 90 89.3851C90 90.6065 90.2632 91.593 90.8853 92.509C90.8853 92.509 90.9092 92.4386 90.9092 92.462C90.9092 92.462 90.8613 92.4855 90.8853 92.509C91.603 93.4251 92.3447 93.7539 93.4453 93.7539C94.2827 93.7539 95.2158 93.4955 96.3164 92.8144L96.5078 92.7439C96.8906 92.509 96.6275 92.8379 96.8906 92.6969C96.9863 93.4721 97.8716 93.9418 97.9434 94.7169C98.0152 95.4921 97.7759 96.2907 97.8237 97.0658C97.8477 97.8644 97.4409 97.8644 97.4649 98.663C97.4649 99.2267 98.1109 99.8374 98.1348 100.519C98.1348 101.67 98.2305 101.67 98.2305 102.82C98.2305 103.971 97.6084 103.971 97.6084 105.122C97.6084 106.438 97.9673 106.438 97.9434 107.777C97.9194 109.115 98.2544 109.115 98.2305 110.431C98.2305 111.323 98.3501 111.464 97.9912 112.286C97.1538 112.286 96.3164 112.803 95.6465 112.897C94.7852 113.014 93.9956 112.709 93.3735 112.944C92.6797 113.226 92.0098 113.602 91.603 114.259C91.1963 114.917 90.5503 115.739 90.5503 116.585C90.5503 117.712 91.3638 118.816 92.0815 119.568C92.2251 119.709 92.1294 119.826 92.273 119.944C92.9429 120.484 93.9238 119.944 94.8091 119.944C96.1968 119.944 97.2017 121.024 97.6802 120.954V121.001C98.5894 120.93 98.5176 120.178 99.4268 120.108" fill="#FFAA33"/>
</svg>
