<svg width="201" height="201" viewBox="0 0 201 201" fill="none" xmlns="http://www.w3.org/2000/svg">
<circle cx="100.5" cy="100.5" r="92.5" stroke="#FFE5C0" stroke-width="16"/>
<path d="M193 100.5C193 49.4137 151.586 8 100.5 8" stroke="#FFAA33" stroke-width="16" stroke-linecap="round"/>
<path d="M114.608 102.608C113.984 101.983 113.404 101.27 112.445 101.27C111.264 101.27 111.264 101.627 110.104 101.627C108.944 101.627 108.878 101.783 107.74 101.426C107.763 100.69 108.164 99.9541 108.186 99.2628C108.209 98.5269 108.097 97.7911 108.119 97.0998C108.119 96.3639 107.473 95.6057 107.495 94.9144C107.495 94.1563 107.829 93.4427 107.852 92.7514C107.852 91.9932 108.588 91.3019 108.61 90.5884C108.61 89.8302 108.387 89.0943 108.387 88.4253C108.387 87.6671 107.606 86.9313 107.606 86.2623C107.606 85.4818 107.807 84.7682 107.807 84.1215C107.807 83.0512 108.142 82.4937 107.317 81.8247L106.692 81.7132C105.956 81.0219 105.265 80.9327 104.195 80.9327C103.28 80.9327 102.567 80.7989 101.92 81.3118C101.786 81.4233 101.742 81.4902 101.608 81.6017C101.006 82.1369 100.827 82.6944 100.716 83.4972C100.716 83.6755 100.56 83.9208 100.56 84.0992C100.515 84.7236 100.136 85.1473 100.114 85.9278C100.114 86.5745 99.9355 87.288 99.9132 88.0462C99.9132 88.7152 99.7794 89.4065 99.7794 90.1647C99.7794 90.8336 100.248 91.5472 100.248 92.3054C100.248 92.9967 99.7571 93.688 99.7571 94.4462C99.7571 95.2712 99.7571 96.0294 99.7348 96.743C99.7348 97.5681 99.7348 98.3485 99.7348 99.0398C99.7125 99.9095 100.047 100.534 100.025 101.203C99.3334 101.247 98.7759 101.693 98.0846 101.716C97.3933 101.738 96.6797 101.292 95.9885 101.292C95.2972 101.292 94.6059 101.693 93.8923 101.693C93.2679 101.693 92.6213 101.716 92.5098 101.649C92.4429 101.537 92.4652 100.891 92.4652 100.311C92.4652 99.6196 93.1564 98.9283 93.201 98.1479C93.2233 97.4566 92.2868 96.6761 92.3537 95.9179C92.3983 95.2266 93.3571 94.5576 93.424 93.8218C93.4909 93.1305 93.2456 92.3723 93.3348 91.6141V91.3911C93.424 90.6107 93.7808 90.8782 93.87 90.0978C94.0484 89.0274 94.1822 88.0239 94.1822 87.2211C94.1822 86.3069 93.1341 85.9055 92.3983 85.3034L92.2868 85.2588C91.5955 84.6567 91.0826 84.3222 90.1683 84.3222C89.1202 84.3222 88.0945 84.1438 87.4032 84.7905C86.8011 85.348 86.7565 86.1508 86.5781 87.0428C86.5335 87.2434 86.5335 87.1988 86.4889 87.3772L86.3551 87.8009C86.2213 89.0051 86.4889 88.7598 86.3551 89.964C86.2213 91.1681 86.0429 91.1458 85.9091 92.3723C85.7753 93.5988 85.5523 93.2197 85.4185 94.4462L85.3516 94.7806C85.1956 96.1186 85.0172 96.0963 84.8834 97.4566C84.7496 98.8168 85.0618 98.8391 84.9057 100.177C84.8388 101.002 84.6158 100.645 84.5489 101.47C84.5489 101.47 84.5489 101.85 84.5489 101.872C84.5489 101.894 84.5043 101.894 84.5043 101.916C84.5043 102.719 84.7496 103.5 84.9057 104.191C85.0841 104.971 85.5969 105.551 86.0206 106.153C86.422 106.733 86.6896 107.514 87.2917 107.893C87.8938 108.272 88.652 108.272 89.3655 108.428C90.0345 108.606 90.8373 108.339 91.7516 108.428C92.4875 108.495 93.2456 109.476 94.1153 109.476C94.762 109.476 95.4087 109.387 96.0554 109.364C96.702 109.342 97.3041 108.45 97.9285 108.406C98.5529 108.361 99.0881 108.874 99.7125 108.829C99.6679 109.543 99.5787 110.056 99.5564 110.702C99.5118 111.416 99.8909 112.107 99.8686 112.754C99.8463 113.49 99.155 114.159 99.155 114.761C99.155 115.764 100.002 116.612 100.716 117.303C101.474 117.994 102.388 118.73 103.414 118.73C104.44 118.73 105.466 118.217 106.157 117.615C106.826 116.969 106.692 115.943 106.781 115.006C106.871 113.958 106.826 113.936 106.915 112.888H106.893C106.893 111.929 107.027 111.193 107.071 110.769C107.071 110.769 107.027 110.769 107.027 110.747C107.027 110.725 107.339 110.145 107.339 110.123C107.339 109.364 107.606 109.677 107.606 109.253C108.365 109.231 109.011 108.74 109.881 108.718C110.661 108.718 111.487 109.164 112.334 109.164C113.382 109.164 114.051 108.272 114.72 107.469C115.411 106.644 116.437 105.863 116.437 104.815C116.437 103.879 115.389 103.366 114.72 102.742L114.608 102.608Z" fill="#FFAA33"/>
</svg>
