<svg width="201" height="201" viewBox="0 0 201 201" fill="none" xmlns="http://www.w3.org/2000/svg">
<circle cx="100.5" cy="100.5" r="92.5" stroke="#FFE5C0" stroke-width="16"/>
<path d="M8 100.5C8 151.586 49.4137 193 100.5 193C151.586 193 193 151.586 193 100.5C193 49.4137 151.586 8 100.5 8" stroke="#FFAA33" stroke-width="16" stroke-linecap="round"/>
<path d="M100.5 193C151.586 193 193 151.586 193 100.5C193 49.4137 151.586 8 100.5 8" stroke="#FFAA33" stroke-width="16" stroke-linecap="round"/>
<path d="M193 100.5C193 49.4137 151.586 8 100.5 8" stroke="#FFAA33" stroke-width="16" stroke-linecap="round"/>
<path d="M95.771 95.8809C96.2838 95.4197 96.5169 95.2353 96.8199 94.3822C96.8199 94.3822 96.8432 94.3822 96.8665 94.3822C97.1462 93.4599 97.4958 92.7913 97.8687 92.5146C97.9387 92.4685 98.2417 92.3763 98.3116 92.3532C98.6379 92.1687 99.1041 92.0074 100.269 92.0074C101.202 92.0074 101.575 92.7221 101.971 93.2524C102.251 93.5983 102.717 93.8749 102.857 94.5205C102.95 94.9586 102.787 95.512 102.787 96.1114C102.787 96.8031 102.996 97.564 102.787 98.3479C102.624 99.0165 102.53 99.1549 102.204 99.8927C102.041 100.239 102.111 100.492 101.948 100.838L101.761 101.184C101.505 101.737 100.806 102.083 100.456 102.613C100.106 103.144 100.2 103.928 99.8033 104.435C99.4071 104.942 98.7545 105.196 98.3349 105.657C98.0319 105.98 98.4048 106.302 98.1018 106.625C97.6357 107.109 96.68 107.04 96.1906 107.455C95.7011 107.87 95.2116 108.262 94.6989 108.631C94.1861 109 93.8365 109.669 93.2771 109.991C92.9275 110.176 93.2305 110.314 92.8808 110.499C92.8808 110.499 92.7643 110.729 92.741 110.752C92.0418 111.144 91.5756 111.444 91.1794 111.951C90.7132 112.528 90.2237 112.92 90.2237 113.634C90.2237 114.28 90.1072 114.949 90.3869 115.456C90.6666 115.963 91.4124 115.963 92.0185 116.263C92.6245 116.54 93.2305 116.862 94.0229 117.001C94.6989 117.093 95.2583 116.908 96.0507 116.908H96.2139C97.5891 116.885 97.5891 117.254 98.9642 117.231C100.176 117.231 100.176 116.932 101.388 116.932C102.6 116.932 102.624 117.646 103.859 117.646C105.094 117.646 105.094 116.839 106.33 116.839C107.565 116.839 107.542 116.839 108.754 116.839C109.849 116.839 110.781 116.447 111.481 115.779C111.597 115.663 111.364 115.917 111.481 115.779C112.017 115.179 112.529 114.672 112.529 113.842C112.529 113.081 111.97 112.643 111.504 112.044V111.582C111.014 110.914 110.758 110.453 109.872 110.291L109.802 110.107C109.22 109.991 108.311 110.268 107.262 110.222C106.539 110.199 105.7 110.683 104.768 110.683C104.115 110.683 103.672 111.075 103.136 110.683C103.626 110.13 104.232 108.862 104.791 108.262C105.374 107.64 105.514 107.778 106.096 107.156C106.586 106.602 106.679 105.841 107.075 105.357C107.542 104.781 108.357 104.55 108.684 104.043L109.126 103.743C109.569 103.075 109.686 102.752 110.012 101.991C110.338 101.276 110.315 100.4 110.548 99.593H110.618C110.781 98.9935 111.294 98.4632 111.364 97.8407C111.434 97.2181 111.76 96.5726 111.76 95.95C111.76 95.2583 111.597 94.5666 111.527 93.921C111.434 93.2524 111.248 92.5607 111.061 91.9382C110.875 91.3157 110.245 90.8084 109.942 90.2089C109.639 89.6095 109.22 89.1714 108.8 88.6411C108.637 88.4566 108.707 88.4566 108.544 88.2491C108.078 87.7188 107.472 87.3269 106.936 86.9349C106.399 86.5429 105.84 86.1971 105.211 85.9435C104.581 85.6899 104.092 84.8368 103.393 84.7215C102.74 84.6062 101.971 85.1365 101.248 85.1365C100.456 85.1365 99.6868 85.2057 98.9642 85.2748C98.1718 85.3671 97.5191 85.8282 96.7966 86.0126C96.0274 86.1971 95.0951 85.7821 94.4192 86.0818C93.6966 86.3816 93.0906 86.9119 92.4846 87.3499C92.2748 87.4883 92.2748 87.4883 92.0651 87.6497C91.5756 88.0416 90.7132 88.1569 90.3403 88.618C89.9674 89.0792 90.5034 90.1398 90.2704 90.6931C90.0373 91.2465 89.1283 91.5923 89.0117 92.1918C88.8952 92.7682 89.6877 93.4369 89.6877 94.0594C89.6877 94.9586 89.8042 95.4889 90.5734 96.1114C90.5734 96.1114 90.5734 96.1114 90.5967 96.1114C90.62 96.1114 90.8531 96.2498 90.8764 96.2498C91.6921 96.7801 92.2049 97.5409 93.2305 97.5409C94.1395 97.5409 94.6756 96.6417 95.2583 96.0884L95.7011 95.8809" fill="#FFAA33"/>
</svg>
