<svg width="24" height="24" viewBox="0 0 24 24" fill="none" xmlns="http://www.w3.org/2000/svg">
<mask id="mask0_1208_7301" style="mask-type:alpha" maskUnits="userSpaceOnUse" x="0" y="0" width="24" height="24">
<rect width="24" height="24" fill="#D9D9D9"/>
</mask>
<g mask="url(#mask0_1208_7301)">
<mask id="mask1_1208_7301" style="mask-type:alpha" maskUnits="userSpaceOnUse" x="2" y="2" width="20" height="20">
<rect x="2" y="2" width="20" height="20" fill="#D9D9D9"/>
</mask>
<g mask="url(#mask1_1208_7301)">
<ellipse cx="12" cy="13.1936" rx="10" ry="8.19704" fill="#F0F2F4"/>
<mask id="mask2_1208_7301" style="mask-type:alpha" maskUnits="userSpaceOnUse" x="2" y="4" width="20" height="18">
<ellipse cx="12" cy="13.1936" rx="10" ry="8.19704" fill="#F0F2F4"/>
</mask>
<g mask="url(#mask2_1208_7301)">
<path d="M11.6565 12.2065C6.88825 15.1542 2.82391 13.3182 1.52328 10.8397C1.42805 10.6583 1.42119 10.4456 1.48422 10.2505L3.83582 2.97249C3.94866 2.62325 4.27384 2.38655 4.64078 2.38655L20.0776 2.38655C20.4421 2.38655 20.7655 2.62022 20.8799 2.9663L23.5667 11.0915C23.6616 11.3784 23.5989 11.6979 23.3809 11.9074C20.2486 14.9171 15.1634 13.4821 12.5545 12.1671C12.2691 12.0232 11.9284 12.0384 11.6565 12.2065Z" fill="#CED4DA"/>
</g>
<path d="M7.04935 3.01787C5.98348 3.21852 5.2527 5.6326 4.94177 7.18298C4.88616 7.4603 5.07092 7.72713 5.35018 7.76544C8.08777 8.14103 9.7612 6.89575 10.4288 5.99866C10.5494 5.83656 10.5379 5.61675 10.4168 5.45503C9.64107 4.41939 8.13893 2.81276 7.04935 3.01787Z" fill="#CED4DA"/>
<path d="M16.9304 3.3333C17.9963 3.53395 18.727 5.94803 19.038 7.49841C19.0936 7.77572 18.9088 8.04256 18.6296 8.08087C15.892 8.45646 14.2185 7.21118 13.5509 6.31409C13.4303 6.15199 13.4418 5.93218 13.5629 5.77046C14.3387 4.73482 15.8408 3.12819 16.9304 3.3333Z" fill="#CED4DA"/>
<path d="M10.6035 15.1235C11.0747 15.141 12.0381 14.7613 12.1218 13.7734C12.148 14.2026 12.3055 14.9554 13.4364 15.1235" stroke="#B9BFC4" stroke-width="0.689655" stroke-linecap="round"/>
<path d="M12.1743 12.5122C10.6036 12.5936 11.3628 13.6288 11.8078 13.8521C12.1429 14.0203 12.3837 13.8915 12.4622 13.8521C12.724 13.7207 12.9073 13.5368 13.0382 13.2478C13.2822 12.709 12.4884 12.5122 12.1743 12.5122Z" fill="#B9BFC4" stroke="#B9BFC4" stroke-width="0.0528471"/>
<path d="M10.2858 11.5614C10.2858 12.0983 9.93416 12.5335 9.50043 12.5335C9.0667 12.5335 8.71509 12.0983 8.71509 11.5614C8.71509 11.0246 8.71509 10.5894 8.71509 10.5894C8.71509 10.5894 10.2858 11.0246 10.2858 11.5614Z" fill="#B9BFC4"/>
<path d="M15.626 11.5614C15.626 12.0983 15.2861 12.5335 14.8668 12.5335C14.4476 12.5335 14.1077 12.0983 14.1077 11.5614C14.1077 11.0246 15.626 10.5894 15.626 10.5894C15.626 10.5894 15.626 11.0246 15.626 11.5614Z" fill="#B9BFC4"/>
<path fill-rule="evenodd" clip-rule="evenodd" d="M18.2454 9.65002C18.4614 9.55064 18.6968 9.54058 18.8594 9.55909L18.861 9.55932L18.8897 9.56291L18.894 9.56336L18.9142 9.56762L18.9171 9.56807L18.92 9.56897C19.0592 9.60512 19.141 9.74455 19.1241 9.88282L19.1198 9.90864C19.0926 10.036 18.9828 10.1362 18.8459 10.1316H18.8433L18.8403 10.1313L18.8244 10.13L18.8228 10.1298H18.821L18.7802 10.1251C18.6837 10.1173 18.5607 10.1286 18.4634 10.1733L18.4275 10.192C18.3939 10.2119 18.3668 10.2356 18.3458 10.2645C18.318 10.3026 18.2959 10.3569 18.2896 10.4382L18.2861 10.4658C18.264 10.5929 18.1598 10.6984 18.0247 10.7009L17.9953 10.6998L17.9664 10.6957C17.8349 10.6692 17.7493 10.5482 17.747 10.4198L17.7479 10.3922C17.7762 10.023 17.9707 9.79387 18.1992 9.67269L18.2454 9.65002ZM17.8629 10.4355C17.866 10.4638 17.8763 10.4898 17.8907 10.5123C17.8706 10.4808 17.8593 10.4422 17.8624 10.401L17.8629 10.4355ZM17.8932 10.2225C17.8831 10.2587 17.8751 10.297 17.8694 10.3374L17.8799 10.2773C17.8839 10.2585 17.8882 10.2402 17.8932 10.2225ZM18.9068 10.0072C18.8979 10.0106 18.8886 10.0132 18.8792 10.0148C18.8982 10.0115 18.9163 10.0044 18.9326 9.99417L18.9068 10.0072Z" fill="#B9BFC4"/>
<path fill-rule="evenodd" clip-rule="evenodd" d="M16.7601 8.82768C16.828 8.71043 16.9728 8.66582 17.0937 8.72015L17.0967 8.72127L17.0991 8.72239L17.1124 8.72935L17.116 8.73115L17.1193 8.73317L17.1427 8.74731L17.1438 8.74776C17.2737 8.82786 17.4428 8.96898 17.5508 9.16016L17.5728 9.20214C17.6788 9.41564 17.7057 9.68902 17.5273 9.96521L17.5115 9.98676C17.4343 10.0833 17.2991 10.1126 17.1889 10.0564L17.1656 10.0429C17.0519 9.9694 17.0141 9.82239 17.0744 9.70434L17.0877 9.68122C17.1233 9.6261 17.1342 9.58076 17.1337 9.54271C17.1333 9.51336 17.1261 9.48288 17.1119 9.45066L17.0951 9.41766C17.047 9.33251 16.9629 9.25513 16.8874 9.20506L16.8529 9.18351L16.8504 9.18171L16.8378 9.17341L16.8356 9.17206L16.8336 9.17049C16.7328 9.09769 16.6968 8.96314 16.7487 8.84991L16.7601 8.82768ZM17.2049 9.92794C17.2118 9.93473 17.2195 9.94088 17.228 9.94635L17.2545 9.96005C17.2629 9.96332 17.2716 9.96537 17.2803 9.96701C17.2622 9.96359 17.2444 9.95695 17.228 9.94635C17.211 9.93536 17.1969 9.92148 17.1862 9.90572L17.2049 9.92794ZM17.1842 9.74341C17.1732 9.7604 17.1664 9.77896 17.1631 9.79773L17.1707 9.77012C17.1743 9.76101 17.1789 9.75216 17.1844 9.74363C17.1885 9.73728 17.1922 9.73083 17.1959 9.72455L17.1842 9.74341ZM16.88 9.05936C16.8862 9.06596 16.8931 9.07209 16.9007 9.07755C16.8857 9.06668 16.8732 9.05314 16.8636 9.03826L16.88 9.05936ZM17.0468 8.82499L17.0242 8.81691C17.0236 8.81677 17.0231 8.81659 17.0226 8.81646C17.0308 8.81852 17.0389 8.82143 17.0468 8.82499Z" fill="#B9BFC4"/>
<path fill-rule="evenodd" clip-rule="evenodd" d="M18.6266 8.09919C18.7039 8.00271 18.8391 7.97341 18.9492 8.02959L18.9726 8.04306C19.0862 8.11655 19.124 8.26356 19.0637 8.38161L19.0505 8.40473C19.0148 8.4599 19.004 8.5054 19.0044 8.54347C19.0048 8.57278 19.012 8.60311 19.0262 8.63529L19.0431 8.66851C19.0912 8.75362 19.1753 8.83106 19.2507 8.88111L19.2853 8.90266L19.2878 8.90424L19.3003 8.91254L19.3026 8.91389L19.3046 8.91546C19.4053 8.98826 19.4413 9.12282 19.3895 9.23604L19.3778 9.25827C19.31 9.37549 19.1653 9.42031 19.0444 9.36603L19.0415 9.36468L19.039 9.36356L19.0255 9.3566L19.0222 9.3548L19.0188 9.35278L18.9955 9.33886L18.9943 9.33819C18.8645 9.25809 18.6954 9.11699 18.5873 8.92579L18.5651 8.88403C18.4591 8.67053 18.4322 8.39694 18.6107 8.12074L18.6266 8.09919ZM18.9672 8.31605C18.9637 8.32508 18.9592 8.33386 18.9537 8.34232C18.9535 8.34258 18.9534 8.34296 18.9533 8.34322L18.9537 8.34232C18.9647 8.32529 18.9718 8.30702 18.975 8.28822L18.9672 8.31605ZM18.8837 8.12613L18.8594 8.11894C18.8585 8.11875 18.8575 8.11867 18.8565 8.1185C18.8657 8.12014 18.8748 8.12267 18.8837 8.12613Z" fill="#B9BFC4"/>
<path fill-rule="evenodd" clip-rule="evenodd" d="M18.1859 7.71305L18.2099 7.71575C18.3221 7.73322 18.4343 7.81858 18.4367 7.949L18.4356 7.97774C18.4047 8.28034 18.1938 8.45517 17.9722 8.54324L17.9278 8.55963C17.7164 8.63256 17.4862 8.63987 17.3274 8.62631H17.3263L17.2976 8.62361L17.2942 8.62317L17.2911 8.62272L17.2751 8.62025L17.2729 8.62002L17.2707 8.61957C17.1532 8.5967 17.0366 8.49263 17.0603 8.34681L17.0659 8.32144C17.1 8.19886 17.2262 8.13659 17.3367 8.13937H17.3409L17.3571 8.1405L17.3596 8.14072L17.404 8.14431C17.5037 8.15009 17.63 8.14118 17.7309 8.10637L17.7684 8.09178C17.803 8.07635 17.8294 8.05867 17.8485 8.03902C17.872 8.01477 17.8895 7.98255 17.8945 7.93306L17.8988 7.90545C17.9284 7.77229 18.0672 7.70497 18.1859 7.71305ZM17.8903 8.45098C17.8202 8.47515 17.7472 8.49112 17.6756 8.50149C17.7228 8.49468 17.7706 8.48574 17.8178 8.4732L17.8903 8.45098ZM17.2767 8.26128C17.2409 8.27166 17.2107 8.29257 17.1921 8.31987L17.2082 8.30056C17.2323 8.27683 17.2665 8.26057 17.3046 8.25566L17.2767 8.26128ZM17.8341 8.18697C17.8133 8.19735 17.7915 8.20704 17.7684 8.21503L17.8148 8.19685C17.8215 8.19389 17.8277 8.19017 17.8341 8.18697ZM18.3211 7.96606C18.3162 8.01406 18.3056 8.05825 18.2905 8.09896C18.3005 8.07207 18.3087 8.0437 18.3143 8.01366L18.3211 7.96606ZM17.9881 8.02982C17.9893 8.02688 17.9909 8.02408 17.992 8.02106L17.9929 8.01815C17.9915 8.02215 17.9897 8.02595 17.9881 8.02982Z" fill="#B9BFC4"/>
</g>
</g>
</svg>
