<svg width="100" height="100" viewBox="0 0 100 100" fill="none" xmlns="http://www.w3.org/2000/svg">
<mask id="mask0_2813_40476" style="mask-type:alpha" maskUnits="userSpaceOnUse" x="0" y="0" width="100" height="100">
<rect width="100" height="100" fill="#D9D9D9"/>
</mask>
<g mask="url(#mask0_2813_40476)">
<path d="M81.8466 52.6054C77.7604 70.0805 69.2126 76.1584 64.8639 77.2236C64.4437 77.3265 64.0519 77.5266 63.7609 77.8467L56.9653 85.322C56.1701 86.1968 56.3839 87.5809 57.4058 88.1734L60.3254 89.8664C60.6221 90.0385 60.9546 90.1272 61.2974 90.1089C69.3906 89.6751 86.762 83.7382 95.5718 62.8758C104.575 41.5566 97.5487 36.3986 93.7427 35.0942C86.4243 32.5861 82.7626 45.7233 81.8466 52.6054Z" fill="#FFE5C0"/>
<mask id="mask1_2813_40476" style="mask-type:alpha" maskUnits="userSpaceOnUse" x="56" y="34" width="44" height="57">
<path d="M81.8466 52.6054C77.7604 70.0805 69.2126 76.1584 64.8639 77.2236C64.4437 77.3265 64.0519 77.5266 63.7609 77.8467L56.9653 85.322C56.1701 86.1968 56.3839 87.5809 57.4058 88.1734L60.3254 89.8664C60.6221 90.0385 60.9546 90.1272 61.2974 90.1089C69.3906 89.6751 86.762 83.7382 95.5718 62.8758C104.575 41.5566 97.5487 36.3986 93.7427 35.0942C86.4243 32.5861 82.7626 45.7233 81.8466 52.6054Z" fill="#F99F51"/>
</mask>
<g mask="url(#mask1_2813_40476)">
<path d="M99.414 54.1485C94.4995 51.0218 84.7887 49.0893 80.5476 48.514C82.2977 42.7416 85.8962 31.2035 86.2888 31.2296C86.6813 31.2557 98.2407 33.4721 103.971 34.577L99.414 54.1485Z" fill="#FFAA33"/>
<path d="M76.9427 61.9356L78.8686 54.7651C86.7752 55.3811 94.4279 59.9425 97.266 62.1463L93.0506 70.7739C87.7855 65.977 80.1182 62.883 76.9427 61.9356Z" fill="#FFAA33"/>
<path d="M75.2748 67.4015L70.72 73.5736C75.5753 76.9209 79.7401 81.8966 81.2156 83.966L87.8075 77.6487C86.4351 74.1289 78.8806 69.3506 75.2748 67.4015Z" fill="#FFAA33"/>
</g>
<path d="M75.2115 54.2702C35.1776 31.2346 15.4079 43.9534 10.0727 54C11.9018 68.361 9.54241 103.065 8.00024 108C28.7806 115.946 79.5972 124.032 96.2992 100C97.3792 74.7845 82.5716 58.5625 75.2115 54.2702Z" fill="#FFE5C0"/>
<ellipse cx="40.6881" cy="37.285" rx="36.8327" ry="29.9818" fill="#FFE5C0"/>
<mask id="mask2_2813_40476" style="mask-type:alpha" maskUnits="userSpaceOnUse" x="3" y="7" width="75" height="61">
<ellipse cx="40.6881" cy="37.285" rx="36.8327" ry="29.9818" fill="#FFD58D"/>
</mask>
<g mask="url(#mask2_2813_40476)">
<path d="M36.5151 37.2362C20.1642 49.6237 3.87038 38.8012 -1.92717 29.8751C-2.33614 29.2454 -2.43908 28.4741 -2.26738 27.7434L3.19173 4.51284C3.48885 3.24847 4.57367 2.3244 5.86946 2.23189L63.5385 -1.88549C64.7725 -1.9736 65.9322 -1.28737 66.4489 -0.163227L79.6328 28.515C80.0784 29.4843 79.981 30.6288 79.297 31.447C69.0108 43.7502 49.6905 40.517 39.6247 36.7656C38.5788 36.3758 37.4044 36.5624 36.5151 37.2362Z" fill="#FFAA33"/>
</g>
<path d="M22.4537 0.0653771C18.5279 0.799279 15.8362 9.6291 14.691 15.2998C14.4861 16.3141 15.1667 17.2901 16.1952 17.4302C26.2785 18.804 32.4422 14.2492 34.9012 10.968C35.3455 10.3751 35.3031 9.57112 34.8569 8.9796C31.9997 5.19161 26.4669 -0.684845 22.4537 0.0653771Z" fill="#FFAA33"/>
<path d="M58.8475 1.21851C62.7734 1.95242 65.4651 10.7822 66.6103 16.453C66.8151 17.4673 66.1346 18.4432 65.106 18.5834C55.0227 19.9571 48.8591 15.4024 46.4001 12.1211C45.9558 11.5282 45.9982 10.7243 46.4443 10.1327C49.3016 6.34475 54.8343 0.468292 58.8475 1.21851Z" fill="#FFAA33"/>
<path d="M33.5263 48.1233C35.2466 47.885 38.6064 46.5054 38.2828 42.8935C38.6503 44.4225 40.4376 47.451 44.6465 47.3334" stroke="#292A2B" stroke-width="2.59781" stroke-linecap="round"/>
<path d="M37.6712 38.3175C33.6998 39.1154 35.4368 42.8586 37.1929 43.3784C38.5151 43.7697 39.3069 43.1519 39.5668 42.9598C40.4329 42.3192 40.9808 41.5395 41.272 40.4148C41.8149 38.3178 38.8107 38.1166 37.6712 38.3175Z" fill="#292A2B"/>
<ellipse cx="27.7495" cy="35.7809" rx="2.89262" ry="3.55553" transform="rotate(-3 27.7495 35.7809)" fill="#292A2B"/>
<ellipse cx="47.4765" cy="34.5403" rx="2.7962" ry="3.55553" transform="rotate(-3 47.4765 34.5403)" fill="#292A2B"/>
<path d="M12.6337 53.3234C5.18387 53.4146 1.65571 60.8344 0.822863 64.5329C-0.916526 71.3358 7.15691 78.5721 13.9474 82.2296C15.8327 83.245 17.6415 84.0684 19.149 84.6606L14.8013 69.6909C15.0823 67.6101 15.8067 64.5466 16.1337 63.275C18.8425 55.6893 14.9291 53.4799 12.6337 53.3234Z" fill="#FFE5C0"/>
<path d="M79.0548 87.0976C87.6488 78.9875 78.1905 61.1232 72.3871 53.2047L67.127 71.513C65.3489 73.6313 62.3855 76.5313 61.126 77.7166C52.7691 84.253 55.5695 89.4681 58.0144 91.2586C66.3713 96.403 75.5234 90.6281 79.0548 87.0976Z" fill="#FFE5C0"/>
<path d="M66.7156 69.0917C66.5612 68.5263 66.0004 68.1585 65.4099 68.2567C64.8196 68.3553 64.4089 68.8849 64.446 69.4696L64.4597 69.5878C64.4904 69.7729 64.46 70.1429 64.2673 70.7098C64.0833 71.2511 63.7875 71.8669 63.4187 72.4911C62.7138 73.6841 61.8337 74.7584 61.1697 75.3163L61.0388 75.4208L61.0203 75.4354L61.0017 75.4511C58.5098 77.539 55.8371 80.8983 54.8054 84.3427C54.2848 86.0811 54.1583 87.927 54.7839 89.6532C55.4184 91.4033 56.7708 92.8785 58.9138 93.9501L58.9265 93.9559L58.9392 93.9628C59.4005 94.1798 60.0339 94.4424 60.7966 94.6952C60.8836 94.7437 60.9776 94.7831 61.0788 94.8085C61.1322 94.8218 61.1858 94.8302 61.239 94.8358C62.3474 95.1731 63.684 95.4699 65.1423 95.5731C67.7945 95.7609 70.9069 95.3142 73.74 93.2665L74.0134 93.0634L74.1042 92.9862C74.5311 92.5848 74.5929 91.9178 74.2292 91.4423C73.8655 90.9667 73.205 90.852 72.7058 91.1591L72.6081 91.2255L72.3884 91.3895C70.1068 93.0395 67.5771 93.4263 65.3054 93.2655C64.3787 93.1999 63.505 93.0424 62.7244 92.8475C62.7632 92.6377 62.7952 92.4415 62.8259 92.2597C62.9092 91.766 62.9644 91.4288 63.0437 91.1376C63.1171 90.8679 63.1987 90.694 63.3025 90.5516C63.3805 90.4447 63.4948 90.3229 63.6814 90.1864L63.8933 90.0448L63.991 89.9784C64.4565 89.6222 64.586 88.9639 64.2722 88.454C63.9584 87.9441 63.3126 87.7633 62.7849 88.0184L62.6814 88.0751L62.4919 88.1962C62.0624 88.4839 61.7113 88.8072 61.4333 89.1884C61.1155 89.6242 60.9347 90.0804 60.8122 90.5302C60.6957 90.9584 60.6206 91.4307 60.5456 91.8749C60.532 91.9555 60.5171 92.0371 60.5027 92.12C60.29 92.0326 60.0995 91.9505 59.9363 91.8739C59.4478 91.6288 59.0285 91.3655 58.6677 91.0907L58.739 90.7889C58.8405 90.327 58.9104 89.9173 58.9704 89.5614C59.0537 89.0678 59.109 88.7305 59.1882 88.4393C59.2617 88.1695 59.3432 87.9948 59.447 87.8524C59.525 87.7456 59.6386 87.6244 59.8249 87.4882L60.0378 87.3466L60.1355 87.2792C60.6008 86.9231 60.7302 86.2656 60.4167 85.7557C60.1029 85.2459 59.4571 85.0642 58.9294 85.3192L58.8249 85.3768L58.6365 85.4979C58.2071 85.7856 57.8558 86.1082 57.5779 86.4891C57.2602 86.9249 57.0793 87.3813 56.9568 87.8309C56.9053 88.0202 56.8619 88.2186 56.823 88.4188C56.5698 87.4015 56.6497 86.2474 57.0212 85.0067C57.8843 82.1253 60.2187 79.1257 62.4792 77.2294C63.4668 76.4589 64.5832 75.0668 65.4099 73.6679C65.8346 72.9492 66.2088 72.1865 66.4578 71.454C66.6978 70.7477 66.8643 69.9472 66.741 69.2069L66.7156 69.0917Z" fill="#FFAA33"/>
<rect x="4" y="82" width="18" height="18" rx="3" fill="#734C17"/>
<rect x="24" y="82" width="18" height="18" rx="3" fill="#593B12"/>
<rect x="14" y="66" width="15" height="15" rx="2" fill="#CC8829"/>
<path d="M9.162 63.224C9.33316 62.6502 9.90991 62.3081 10.4857 62.4179L10.6009 62.4463L10.8148 62.5145C11.3041 62.6813 11.727 62.9022 12.0941 63.1984C12.514 63.5372 12.8068 63.931 13.0415 64.3338C13.265 64.7173 13.4597 65.1542 13.6471 65.5638C13.7937 65.8844 13.9501 66.2216 14.1396 66.5872L14.3408 66.9628L14.3935 67.0695C14.6246 67.6081 14.4147 68.2449 13.8914 68.5356C13.3678 68.8262 12.7162 68.6675 12.3813 68.1864L12.3187 68.0862L12.0854 67.6521C11.8676 67.2319 11.6936 66.8542 11.5435 66.5258C11.3353 66.0705 11.1949 65.7592 11.0429 65.4984C10.9021 65.2567 10.7788 65.1093 10.6416 64.9987C10.5386 64.9155 10.397 64.8282 10.1814 64.7446L9.93966 64.6629L9.82776 64.6235C9.28595 64.3999 8.99086 63.7978 9.162 63.224Z" fill="#FFAA33"/>
<path d="M12.4462 60.5853C12.6173 60.0115 13.1941 59.6694 13.7699 59.7793L13.885 59.8076L14.099 59.8758C14.5883 60.0426 15.0112 60.2635 15.3783 60.5597C15.7981 60.8985 16.091 61.2923 16.3257 61.6951C16.5491 62.0786 16.7439 62.5155 16.9312 62.9251C17.0778 63.2457 17.2343 63.5829 17.4237 63.9485L17.625 64.3241L17.6777 64.4308C17.9088 64.9694 17.6989 65.6062 17.1756 65.8969C16.652 66.1875 16.0004 66.0288 15.6655 65.5477L15.6028 65.4475L15.3696 65.0134C15.1518 64.5932 14.9778 64.2155 14.8277 63.8872C14.6195 63.4318 14.4791 63.1205 14.3271 62.8597C14.1862 62.6181 14.0629 62.4707 13.9258 62.36C13.8228 62.2768 13.6812 62.1895 13.4656 62.106L13.2238 62.0242L13.1119 61.9848C12.5701 61.7612 12.275 61.1591 12.4462 60.5853Z" fill="#FFAA33"/>
<path d="M16.8862 61.5969C16.9197 61.0913 17.3313 60.683 17.8486 60.6647C18.366 60.6466 18.8055 61.0251 18.8744 61.5272L18.8834 61.629C18.9921 64.7317 17.3626 66.8201 15.3964 68.1148C13.5867 69.3064 11.4432 69.8708 9.90498 70.0482L9.60558 70.0779L9.50356 70.082C8.9967 70.0749 8.56795 69.6848 8.52289 69.1689C8.4779 68.6531 8.83256 68.1951 9.33046 68.1003L9.43185 68.0862L9.95339 68.0254C11.2329 67.8413 12.9119 67.3558 14.2966 66.444C15.8428 65.4258 16.9623 63.9299 16.8843 61.6995L16.8862 61.5969Z" fill="#FFAA33"/>
</g>
</svg>
