<svg width="100" height="100" viewBox="0 0 100 100" fill="none" xmlns="http://www.w3.org/2000/svg">
<mask id="mask0_2813_40529" style="mask-type:alpha" maskUnits="userSpaceOnUse" x="0" y="0" width="100" height="100">
<rect width="100" height="100" fill="#D9D9D9"/>
</mask>
<g mask="url(#mask0_2813_40529)">
<path d="M81.8466 52.6054C77.7604 70.0805 69.2126 76.1584 64.8639 77.2236C64.4437 77.3265 64.0519 77.5266 63.7609 77.8467L56.9653 85.322C56.1701 86.1968 56.3839 87.5809 57.4058 88.1734L60.3254 89.8664C60.6221 90.0385 60.9546 90.1272 61.2974 90.1089C69.3906 89.6751 86.762 83.7382 95.5718 62.8758C104.575 41.5566 97.5487 36.3986 93.7427 35.0942C86.4243 32.5861 82.7626 45.7233 81.8466 52.6054Z" fill="#FFE5C0"/>
<mask id="mask1_2813_40529" style="mask-type:alpha" maskUnits="userSpaceOnUse" x="56" y="34" width="44" height="57">
<path d="M81.8466 52.6054C77.7604 70.0805 69.2126 76.1584 64.8639 77.2236C64.4437 77.3265 64.0519 77.5266 63.7609 77.8467L56.9653 85.322C56.1701 86.1968 56.3839 87.5809 57.4058 88.1734L60.3254 89.8664C60.6221 90.0385 60.9546 90.1272 61.2974 90.1089C69.3906 89.6751 86.762 83.7382 95.5718 62.8758C104.575 41.5566 97.5487 36.3986 93.7427 35.0942C86.4243 32.5861 82.7626 45.7233 81.8466 52.6054Z" fill="#F99F51"/>
</mask>
<g mask="url(#mask1_2813_40529)">
<path d="M99.4139 54.1485C94.4994 51.0218 84.7885 49.0894 80.5474 48.514C82.2976 42.7416 85.8961 31.2035 86.2886 31.2296C86.6812 31.2557 98.2406 33.4721 103.971 34.577L99.4139 54.1485Z" fill="#FFAA33"/>
<path d="M76.9426 61.9356L78.8685 54.7651C86.7751 55.3811 94.4278 59.9426 97.2658 62.1463L93.0505 70.7739C87.7853 65.977 80.1181 62.883 76.9426 61.9356Z" fill="#FFAA33"/>
<path d="M75.275 67.4015L70.7201 73.5736C75.5754 76.9209 79.7402 81.8966 81.2157 83.966L87.8076 77.6487C86.4352 74.1289 78.8807 69.3506 75.275 67.4015Z" fill="#FFAA33"/>
</g>
<path d="M75.2116 54.2702C35.1778 31.2346 15.3357 44.2236 10.0004 54.2702C11.8296 68.6313 9.54256 103.065 8.0004 108C28.7808 115.946 79.5974 124.032 96.2994 100C97.3793 74.7845 82.5717 58.5625 75.2116 54.2702Z" fill="#FFE5C0"/>
<ellipse cx="40.6881" cy="37.285" rx="36.8327" ry="29.9818" fill="#FFE5C0"/>
<mask id="mask2_2813_40529" style="mask-type:alpha" maskUnits="userSpaceOnUse" x="3" y="7" width="75" height="61">
<ellipse cx="40.6881" cy="37.285" rx="36.8327" ry="29.9818" fill="#FFD58D"/>
</mask>
<g mask="url(#mask2_2813_40529)">
<path d="M36.5151 37.2362C20.1643 49.6237 3.87041 38.8011 -1.92714 29.8751C-2.3361 29.2454 -2.43905 28.4741 -2.26735 27.7434L3.19176 4.51283C3.48889 3.24847 4.5737 2.3244 5.86949 2.23188L63.5385 -1.8855C64.7725 -1.9736 65.9322 -1.28738 66.449 -0.163235L79.6328 28.515C80.0784 29.4843 79.981 30.6288 79.297 31.447C69.0108 43.7502 49.6905 40.517 39.6247 36.7656C38.5788 36.3758 37.4045 36.5624 36.5151 37.2362Z" fill="#FFAA33"/>
</g>
<path d="M22.4537 0.0653771C18.5278 0.799279 15.8361 9.6291 14.6909 15.2998C14.4861 16.3141 15.1666 17.2901 16.1952 17.4302C26.2785 18.804 32.4421 14.2492 34.9011 10.968C35.3455 10.3751 35.303 9.57112 34.8569 8.9796C31.9996 5.19161 26.4669 -0.684845 22.4537 0.0653771Z" fill="#FFAA33"/>
<path d="M58.8475 1.21851C62.7734 1.95242 65.465 10.7822 66.6103 16.453C66.8151 17.4673 66.1346 18.4432 65.106 18.5834C55.0227 19.9571 48.8591 15.4024 46.4 12.1211C45.9557 11.5282 45.9981 10.7243 46.4443 10.1327C49.3015 6.34475 54.8343 0.468292 58.8475 1.21851Z" fill="#FFAA33"/>
<path d="M33.5264 48.1233C35.2467 47.885 38.6065 46.5054 38.2829 42.8935C38.6504 44.4225 40.4377 47.451 44.6465 47.3334" stroke="#292A2B" stroke-width="2.59781" stroke-linecap="round"/>
<path d="M37.6714 38.3175C33.6999 39.1154 35.437 42.8586 37.193 43.3784C38.5153 43.7697 39.3071 43.1519 39.5669 42.9598C40.4331 42.3192 40.9809 41.5395 41.2721 40.4148C41.8151 38.3178 38.8109 38.1166 37.6714 38.3175Z" fill="#292A2B"/>
<ellipse cx="27.7496" cy="35.7809" rx="2.89262" ry="3.55553" transform="rotate(-3 27.7496 35.7809)" fill="#292A2B"/>
<ellipse cx="47.4766" cy="34.5403" rx="2.7962" ry="3.55553" transform="rotate(-3 47.4766 34.5403)" fill="#292A2B"/>
<path d="M23.9697 83.2639L12.8123 97.3795C11.3904 99.1784 12.6113 101.831 14.9026 101.92L52.956 103.407C54.0016 103.448 54.9831 102.904 55.5014 101.994L63.4031 88.1367C64.4383 86.3211 63.1949 84.0519 61.1076 83.9472L26.3099 82.2022C25.404 82.1568 24.5321 82.5524 23.9697 83.2639Z" fill="#FFF7EB"/>
<path d="M3.45176 87.0976C-5.14224 78.9875 4.3161 61.1232 10.1195 53.2047L15.3796 71.513C17.1577 73.6313 20.1211 76.5313 21.3806 77.7166C29.7375 84.253 26.9371 89.4681 24.4922 91.2586C16.1353 96.403 6.98319 90.6281 3.45176 87.0976Z" fill="#FFE5C0"/>
<path d="M79.0538 87.0976C87.6478 78.9875 78.1895 61.1232 72.386 53.2047L67.1259 71.513C65.3479 73.6313 62.3844 76.5313 61.125 77.7166C52.768 84.253 55.5685 89.4681 58.0133 91.2586C66.3703 96.403 75.5224 90.6281 79.0538 87.0976Z" fill="#FFE5C0"/>
<path d="M56.5663 73.2005C56.7867 72.3778 57.6323 71.8896 58.455 72.11L59.9446 72.5092C60.7673 72.7296 61.2555 73.5752 61.0351 74.3979L56.445 91.5285C56.1143 92.7626 54.8459 93.4949 53.6118 93.1643Lnan nanL53.6118 93.1643C52.3778 92.8336 51.6455 91.5652 51.9761 90.3311L56.5663 73.2005Z" fill="#FFAA33"/>
<path d="M56.5663 73.2005C56.7867 72.3778 57.6323 71.8896 58.455 72.11L59.9446 72.5092C60.7673 72.7296 61.2555 73.5752 61.0351 74.3979L60.636 75.8875L56.1671 74.6901L56.5663 73.2005Z" fill="#593B12"/>
<path d="M51.8755 90.7035L56.3444 91.9009L55.6726 92.9184L53.8776 94.7736C53.457 95.2084 52.7224 95.0115 52.5755 94.4247L51.9486 91.9205L51.8755 90.7035Z" fill="#292A2B"/>
<path d="M56.3444 91.9009L51.8755 90.7035L51.9486 91.9205L55.6726 92.9184L56.3444 91.9009Z" fill="#FFE5C0"/>
<path d="M16.6184 69.0917C16.7728 68.5263 17.3335 68.1584 17.9241 68.2567C18.5144 68.3553 18.9251 68.8849 18.8879 69.4696L18.8743 69.5878C18.8435 69.7729 18.874 70.1428 19.0666 70.7098C19.2506 71.2511 19.5465 71.8669 19.9153 72.4911C20.6202 73.6841 21.5002 74.7584 22.1643 75.3163L22.2952 75.4208L22.3137 75.4354L22.3313 75.451C24.8233 77.5389 27.4969 80.8981 28.5286 84.3426C29.0492 86.0811 29.1757 87.927 28.55 89.6532C27.9156 91.4033 26.5631 92.8785 24.4202 93.9501L24.4075 93.9559L24.3948 93.9628C23.9341 94.1795 23.3016 94.4417 22.5403 94.6942C22.4527 94.7433 22.3581 94.7829 22.2561 94.8085C22.2025 94.8219 22.1484 94.8302 22.095 94.8358C20.9865 95.1731 19.65 95.4698 18.1916 95.5731C15.5394 95.7609 12.4271 95.3142 9.59399 93.2665L9.32055 93.0634L9.22973 92.9862C8.80287 92.5848 8.74109 91.9178 9.10473 91.4423C9.46848 90.9667 10.1289 90.852 10.6282 91.1591L10.7258 91.2264L10.9455 91.3895C13.2272 93.0395 15.7569 93.4263 18.0286 93.2655C18.9556 93.1998 19.8297 93.0425 20.6106 92.8475C20.5717 92.6377 20.5387 92.4415 20.508 92.2596C20.4248 91.766 20.3696 91.4288 20.2903 91.1376C20.2169 90.8681 20.1361 90.6939 20.0325 90.5516C19.9545 90.4447 19.8402 90.3229 19.6536 90.1864L19.4407 90.0448L19.343 89.9784C18.8776 89.6223 18.7481 88.9639 19.0618 88.454C19.3756 87.9441 20.0214 87.7634 20.5491 88.0184L20.6536 88.0751L20.842 88.1962C21.2715 88.4839 21.6227 88.8073 21.9006 89.1884C22.2185 89.6242 22.4002 90.0804 22.5227 90.5301C22.6393 90.9583 22.7144 91.4308 22.7893 91.8749C22.8029 91.9555 22.8169 92.0371 22.8313 92.12C23.0439 92.0326 23.2345 91.9504 23.3977 91.8739C23.8861 91.6288 24.3055 91.3655 24.6663 91.0907L24.595 90.7889C24.4935 90.327 24.4235 89.9172 24.3635 89.5614C24.2803 89.0678 24.225 88.7305 24.1457 88.4393C24.0722 88.1694 23.9908 87.9948 23.887 87.8524C23.809 87.7456 23.6953 87.6244 23.509 87.4882L23.2961 87.3466L23.1985 87.2792C22.7331 86.9231 22.6037 86.2656 22.9172 85.7557C23.231 85.2458 23.8768 85.0642 24.4045 85.3192L24.508 85.3768L24.6975 85.4979C25.1269 85.7856 25.4782 86.1081 25.7561 86.4891C26.0739 86.925 26.2547 87.3821 26.3772 87.8319C26.4287 88.021 26.4721 88.2187 26.511 88.4188C26.7641 87.4015 26.6843 86.2474 26.3127 85.0067C25.4497 82.1253 23.1153 79.1256 20.8547 77.2294C19.8672 76.4589 18.7507 75.0668 17.9241 73.6678C17.4994 72.9492 17.1252 72.1865 16.8762 71.454C16.6362 70.7477 16.4696 69.9471 16.593 69.2069L16.6184 69.0917Z" fill="#FFAA33"/>
<path d="M66.7144 69.0917C66.5601 68.5263 65.9993 68.1585 65.4088 68.2567C64.8184 68.3553 64.4077 68.8849 64.4449 69.4696L64.4586 69.5878C64.4893 69.7729 64.4588 70.1429 64.2662 70.7098C64.0822 71.2511 63.7864 71.8669 63.4176 72.4911C62.7126 73.6841 61.8326 74.7584 61.1685 75.3163L61.0377 75.4208L61.0191 75.4354L61.0006 75.4511C58.5086 77.539 55.836 80.8983 54.8043 84.3427C54.2836 86.0811 54.1572 87.927 54.7828 89.6532C55.4173 91.4033 56.7697 92.8785 58.9127 93.9501L58.9254 93.9559L58.9381 93.9628C59.3994 94.1798 60.0328 94.4424 60.7955 94.6952C60.8825 94.7437 60.9765 94.7831 61.0777 94.8085C61.1311 94.8218 61.1847 94.8302 61.2379 94.8358C62.3463 95.1731 63.6829 95.4699 65.1412 95.5731C67.7934 95.7609 70.9058 95.3142 73.7389 93.2665L74.0123 93.0634L74.1031 92.9862C74.5299 92.5848 74.5917 91.9178 74.2281 91.4423C73.8644 90.9667 73.2039 90.852 72.7047 91.1591L72.607 91.2255L72.3873 91.3895C70.1056 93.0395 67.5759 93.4263 65.3043 93.2655C64.3776 93.1999 63.5039 93.0424 62.7232 92.8475C62.7621 92.6377 62.7941 92.4415 62.8248 92.2597C62.9081 91.766 62.9633 91.4288 63.0426 91.1376C63.116 90.8679 63.1976 90.694 63.3014 90.5516C63.3794 90.4447 63.4936 90.3229 63.6803 90.1864L63.8922 90.0448L63.9898 89.9784C64.4553 89.6222 64.5849 88.9639 64.2711 88.454C63.9572 87.9441 63.3115 87.7633 62.7838 88.0184L62.6803 88.0751L62.4908 88.1962C62.0613 88.4839 61.7102 88.8072 61.4322 89.1884C61.1144 89.6242 60.9336 90.0804 60.8111 90.5302C60.6945 90.9584 60.6194 91.4307 60.5445 91.8749C60.5309 91.9555 60.516 92.0371 60.5015 92.12C60.2889 92.0326 60.0983 91.9505 59.9351 91.8739C59.4467 91.6288 59.0273 91.3655 58.6666 91.0907L58.7379 90.7889C58.8394 90.327 58.9093 89.9173 58.9693 89.5614C59.0526 89.0678 59.1078 88.7305 59.1871 88.4393C59.2606 88.1695 59.342 87.9948 59.4459 87.8524C59.5238 87.7456 59.6375 87.6244 59.8238 87.4882L60.0367 87.3466L60.1344 87.2792C60.5997 86.9231 60.7291 86.2656 60.4156 85.7557C60.1018 85.2459 59.456 85.0642 58.9283 85.3192L58.8238 85.3768L58.6353 85.4979C58.206 85.7856 57.8546 86.1082 57.5767 86.4891C57.259 86.9249 57.0781 87.3813 56.9556 87.8309C56.9041 88.0202 56.8607 88.2186 56.8219 88.4188C56.5687 87.4015 56.6486 86.2474 57.0201 85.0067C57.8831 82.1253 60.2175 79.1257 62.4781 77.2294C63.4656 76.4589 64.5821 75.0668 65.4088 73.6679C65.8334 72.9492 66.2077 72.1865 66.4566 71.454C66.6967 70.7477 66.8632 69.9472 66.7398 69.2069L66.7144 69.0917Z" fill="#FFAA33"/>
</g>
</svg>
