<svg width="24" height="24" viewBox="0 0 24 24" fill="none" xmlns="http://www.w3.org/2000/svg">
<mask id="mask0_1339_20797" style="mask-type:alpha" maskUnits="userSpaceOnUse" x="0" y="0" width="24" height="24">
<rect width="24" height="24" fill="#484A4C"/>
</mask>
<g mask="url(#mask0_1339_20797)">
<path d="M12 4.5C13.1046 4.5 14 5.39543 14 6.5C14 7.16139 13.6776 7.74559 13.1826 8.10938C13.1294 8.1485 13.1228 8.2273 13.1719 8.27148L15.6309 10.4834C15.9588 10.7785 16.4449 10.8031 16.7998 10.542L17.9629 9.68457C17.9905 9.66424 18.0061 9.63085 18.0039 9.59668C18.0018 9.56481 18 9.53229 18 9.5C18 8.39543 18.8954 7.5 20 7.5C21.1046 7.5 22 8.39543 22 9.5C22 10.3388 21.4822 11.0537 20.75 11.3506C20.7164 11.3643 20.692 11.3948 20.6865 11.4307L19.583 18.6982C19.5129 19.1594 19.1211 19.4999 18.6602 19.5H5.31836C4.85748 19.4999 4.46563 19.1594 4.39551 18.6982L3.28906 11.4219C3.28368 11.3865 3.25955 11.3567 3.22656 11.3428C2.50648 11.0402 2 10.33 2 9.5C2 8.39543 2.89543 7.5 4 7.5C5.10457 7.5 6 8.39543 6 9.5C6 9.60664 5.99027 9.71146 5.97363 9.81348C5.96786 9.84972 5.98119 9.88614 6.00977 9.90918L6.76758 10.5186C7.10965 10.7936 7.59441 10.7922 7.93457 10.5146L10.748 8.21777C10.7993 8.17591 10.7966 8.09724 10.7451 8.05566C10.291 7.68921 10 7.12899 10 6.5C10 5.39543 10.8954 4.5 12 4.5ZM12.2793 11.208C12.1794 10.9548 11.8206 10.9548 11.7207 11.208L10.916 13.2471C10.8855 13.3244 10.8244 13.3855 10.7471 13.416L8.70801 14.2207C8.45476 14.3206 8.45476 14.6794 8.70801 14.7793L10.7471 15.584C10.8244 15.6145 10.8855 15.6756 10.916 15.7529L11.7207 17.792C11.8206 18.0452 12.1794 18.0452 12.2793 17.792L13.084 15.7529C13.1145 15.6756 13.1756 15.6145 13.2529 15.584L15.292 14.7793C15.5452 14.6794 15.5452 14.3206 15.292 14.2207L13.2529 13.416C13.1756 13.3855 13.1145 13.3244 13.084 13.2471L12.2793 11.208Z" fill="#FFAA33"/>
</g>
</svg>
