<svg width="24" height="24" viewBox="0 0 24 24" fill="none" xmlns="http://www.w3.org/2000/svg">
<mask id="mask0_1941_29167" style="mask-type:alpha" maskUnits="userSpaceOnUse" x="0" y="0" width="24" height="24">
<rect width="24" height="24" fill="#484A4C"/>
</mask>
<g mask="url(#mask0_1941_29167)">
<path d="M14.8887 19.6592C14.5382 20.9271 13.3794 21.8594 12 21.8594C10.6206 21.8594 9.46182 20.9271 9.11133 19.6592H14.8887ZM12 2C13.2135 2 14.206 2.93589 14.3008 4.125C16.998 5.07393 18.9316 7.64335 18.9316 10.665V14.4424C19.6217 14.842 20.0869 15.5866 20.0869 16.4414C20.0868 17.7174 19.0524 18.752 17.7764 18.752H6.22363C4.9476 18.752 3.91322 17.7174 3.91309 16.4414C3.91311 15.5866 4.37828 14.842 5.06836 14.4424V10.665C5.06836 7.64364 7.00141 5.07415 9.69824 4.125C9.79294 2.93587 10.7865 2.00003 12 2Z" fill="#FFDB58"/>
<path d="M18.9316 10.665C18.9316 7.64335 16.998 5.07393 14.3008 4.125C14.206 2.93589 13.2135 2 12 2C10.7865 2.00003 9.79294 2.93587 9.69824 4.125C7.00141 5.07415 5.06836 7.64364 5.06836 10.665V14.4424C4.37828 14.842 3.91311 15.5866 3.91309 16.4414C3.91322 17.7174 4.9476 18.752 6.22363 18.752H17.7764C19.0524 18.752 20.0868 17.7174 20.0869 16.4414C20.0869 15.5866 19.6217 14.842 18.9316 14.4424V10.665ZM9.11133 19.6592C9.46182 20.9271 10.6206 21.8594 12 21.8594C13.3794 21.8594 14.5382 20.9271 14.8887 19.6592H9.11133ZM20.9316 13.5107C21.582 14.2098 22.0075 15.1257 22.0771 16.1436L22.0869 16.4414C22.0867 18.8216 20.1572 20.752 17.7764 20.752H16.625C15.8803 22.5706 14.0964 23.8594 12 23.8594C9.9036 23.8594 8.11972 22.5706 7.375 20.752H6.22363C3.91712 20.752 2.03445 18.9404 1.91895 16.6631L1.91309 16.4414C1.91312 15.3051 2.35519 14.2773 3.06836 13.5107V10.665C3.06836 7.16186 5.08434 4.13445 8.01465 2.6709C8.65941 1.10411 10.1985 4.91138e-05 12 0C13.8022 0 15.339 1.10484 15.9834 2.6709C18.9144 4.13406 20.9316 7.1611 20.9316 10.665V13.5107Z" fill="white"/>
<mask id="mask1_1941_29167" style="mask-type:alpha" maskUnits="userSpaceOnUse" x="2" y="2" width="20" height="20">
<path d="M2 2H22V22H2V2Z" fill="#484A4C"/>
<path d="M2 2H22V22H2V2Z" fill="#484A4C"/>
</mask>
<g mask="url(#mask1_1941_29167)">
<path d="M14.8887 19.6587C14.5383 20.9267 13.3795 21.8589 12 21.8589C10.6205 21.8589 9.46174 20.9267 9.11133 19.6587H14.8887Z" fill="#FFAA33"/>
<path d="M12 2C13.2135 2 14.206 2.93589 14.3008 4.125C16.9981 5.0739 18.9316 7.64332 18.9316 10.665V14.4424C19.6218 14.842 20.0869 15.5866 20.0869 16.4414C20.0869 17.7175 19.0525 18.752 17.7764 18.752H6.22363C4.94752 18.752 3.91309 17.7175 3.91309 16.4414C3.91311 15.5865 4.37822 14.842 5.06836 14.4424L5.06836 10.665C5.06836 7.64361 7.00137 5.07412 9.69824 4.125C9.79294 2.93587 10.7865 2.00003 12 2Z" fill="#FFDB58"/>
</g>
</g>
</svg>
