<svg width="24" height="24" viewBox="0 0 24 24" fill="none" xmlns="http://www.w3.org/2000/svg">
<mask id="mask0_3100_42804" style="mask-type:alpha" maskUnits="userSpaceOnUse" x="0" y="0" width="24" height="24">
<rect width="24" height="24" fill="#484A4C"/>
</mask>
<g mask="url(#mask0_3100_42804)">
<path d="M6.55153 5.62814C6.83309 5.23395 7.2877 5 7.77213 5H20.5002C21.3286 5 22.0002 5.67157 22.0002 6.5V17.5C22.0002 18.3284 21.3286 19 20.5002 19H7.77213C7.2877 19 6.83309 18.7661 6.55153 18.3719L2.83054 13.1625C2.33383 12.4671 2.33383 11.5329 2.83054 10.8375L6.55153 5.62814Z" fill="#FFAA33"/>
<mask id="mask1_3100_42804" style="mask-type:alpha" maskUnits="userSpaceOnUse" x="7" y="6" width="13" height="12">
<rect x="7.5" y="6" width="12" height="12" fill="#484A4C"/>
</mask>
<g mask="url(#mask1_3100_42804)">
<mask id="mask2_3100_42804" style="mask-type:alpha" maskUnits="userSpaceOnUse" x="8" y="7" width="11" height="10">
<path d="M8.5 7H18.5V17H8.5V7Z" fill="#484A4C"/>
<path d="M8.5 7H18.5V17H8.5V7Z" fill="#484A4C"/>
</mask>
<g mask="url(#mask2_3100_42804)">
<path d="M15.2764 9.41797C15.5709 9.17791 16.0058 9.19521 16.2803 9.46973C16.5548 9.74424 16.5721 10.1791 16.332 10.4736L16.2803 10.5303L14.6855 12.125L16.2803 13.7197L16.332 13.7764C16.5721 14.0709 16.5548 14.5058 16.2803 14.7803C16.0058 15.0548 15.5709 15.0721 15.2764 14.832L15.2197 14.7803L13.625 13.1855L12.0303 14.7803L11.9727 14.832C11.6781 15.0719 11.2442 15.0547 10.9697 14.7803C10.6953 14.5058 10.6781 14.0719 10.918 13.7773L10.9697 13.7197L12.5645 12.125L10.9697 10.5303L10.918 10.4727C10.6781 10.1781 10.6953 9.74415 10.9697 9.46973C11.2442 9.1953 11.6781 9.17815 11.9727 9.41797L12.0303 9.46973L13.625 11.0645L15.2197 9.46973L15.2764 9.41797Z" fill="white"/>
</g>
</g>
</g>
</svg>
