<svg width="24" height="24" viewBox="0 0 24 24" fill="none" xmlns="http://www.w3.org/2000/svg">
<mask id="mask0_1691_18884" style="mask-type:alpha" maskUnits="userSpaceOnUse" x="0" y="0" width="24" height="24">
<rect width="24" height="24" fill="#484A4C"/>
</mask>
<g mask="url(#mask0_1691_18884)">
<path d="M11.9999 2C14.7278 2 16.9455 4.18455 16.9989 6.89965C17 6.95487 17.045 6.9999 17.1003 7.00099C19.8154 7.05444 21.9999 9.2721 21.9999 12C21.9999 14.7279 19.8154 16.9456 17.1003 16.999C17.045 17.0001 17 17.0451 16.9989 17.1003C16.9455 19.8155 14.7278 22 11.9999 22C9.23849 22 6.99991 19.7614 6.99991 17C6.99991 16.1147 7.23027 15.2833 7.63392 14.5621C7.66329 14.5096 7.64159 14.4428 7.5864 14.4189L2.42374 12.1836C2.26306 12.114 2.26304 11.886 2.42374 11.8164L7.58644 9.58016C7.64162 9.55626 7.66331 9.48946 7.63395 9.43698C7.23051 8.7159 6.99991 7.885 6.99991 7C6.99991 4.23858 9.23849 2 11.9999 2Z" fill="white"/>
<path d="M14.5 8C14.5 7.58579 14.8358 7.25 15.25 7.25C15.6642 7.25 16 7.58579 16 8C16 8.60097 15.7557 9.42245 15.0781 10.0947C14.3851 10.7823 13.3053 11.25 11.75 11.25C11.3358 11.25 11 10.9142 11 10.5C11 10.0858 11.3358 9.75 11.75 9.75C12.9944 9.75 13.6645 9.3843 14.0215 9.03027C14.3938 8.6609 14.5 8.23235 14.5 8Z" fill="#CED4DA"/>
<path d="M14.5 16.25C14.5 16.6642 14.8358 17 15.25 17C15.6642 17 16 16.6642 16 16.25C16 15.649 15.7557 14.8276 15.0781 14.1553C14.3851 13.4677 13.3053 13 11.75 13C11.3358 13 11 13.3358 11 13.75C11 14.1642 11.3358 14.5 11.75 14.5C12.9944 14.5 13.6645 14.8657 14.0215 15.2197C14.3938 15.5891 14.5 16.0177 14.5 16.25Z" fill="#CED4DA"/>
</g>
</svg>
