<svg width="24" height="24" viewBox="0 0 24 24" fill="none" xmlns="http://www.w3.org/2000/svg">
<mask id="mask0_975_330" style="mask-type:alpha" maskUnits="userSpaceOnUse" x="0" y="0" width="24" height="24">
<rect width="24" height="24" fill="#484A4C"/>
</mask>
<g mask="url(#mask0_975_330)">
<mask id="mask1_975_330" style="mask-type:alpha" maskUnits="userSpaceOnUse" x="2" y="2" width="20" height="20">
<path d="M2 2H22V22H2V2Z" fill="#484A4C"/>
<path d="M2 2H22V22H2V2Z" fill="#484A4C"/>
</mask>
<g mask="url(#mask1_975_330)">
<path d="M17.5 2C18.3284 2 19 2.67157 19 3.5V4L19.1543 4.00391C20.7394 4.08421 22 5.39489 22 7V19C22 20.6569 20.6569 22 19 22H5C3.34315 22 2 20.6569 2 19V7C2 5.39489 3.26056 4.08421 4.8457 4.00391L5 4V3.5C5 2.67157 5.67157 2 6.5 2C7.32843 2 8 2.67157 8 3.5V4H16V3.5C16 2.67157 16.6716 2 17.5 2ZM9.1875 9C7.44727 9 6.13477 10.0137 6.10547 11.4727H7.79297C7.82227 10.8223 8.4375 10.4004 9.1875 10.4062C9.9375 10.4004 10.4355 10.8457 10.4297 11.4961C10.4355 12.1641 9.84961 12.6211 9.01172 12.6211H8.22656V13.9219H9.01172C10.0078 13.9277 10.623 14.4141 10.6172 15.1055C10.623 15.791 10.0195 16.2598 9.17578 16.2656C8.35547 16.2598 7.74023 15.8438 7.71094 15.2109H5.92969C5.96484 16.6934 7.30078 17.7188 9.16406 17.7188C11.0801 17.7188 12.457 16.6758 12.4453 15.2227C12.457 14.1621 11.7715 13.4062 10.5234 13.2539V13.1836C11.4727 13.0137 12.1348 12.3398 12.1289 11.3906C12.1348 10.0488 10.957 9 9.1875 9ZM13.582 10.4531V12.0117L15.5273 10.793H15.5742V17.6016H17.3438V9.11719H15.6797L13.582 10.4531Z" fill="#484A4C"/>
</g>
</g>
</svg>
