<svg width="24" height="24" viewBox="0 0 24 24" fill="currentColor" xmlns="http://www.w3.org/2000/svg">
<mask id="mask0_1935_17249" style="mask-type:alpha" maskUnits="userSpaceOnUse" x="0" y="0" width="24" height="24">
<rect width="24" height="24" fill="currentColor"/>
</mask>
<g mask="url(#mask0_1935_17249)">
<mask id="mask1_1935_17249" style="mask-type:alpha" maskUnits="userSpaceOnUse" x="2" y="2" width="20" height="20">
<path d="M2 2H22V22H2V2Z" fill="currentColor"/>
<path d="M2 2H22V22H2V2Z" fill="currentColor"/>
</mask>
<g mask="url(#mask1_1935_17249)">
<path d="M17.4141 6.96571C17.9854 6.36593 18.9343 6.3427 19.5342 6.91396C20.134 7.4853 20.1572 8.43423 19.5859 9.03407L11.9658 17.0341C11.6827 17.3313 11.2894 17.4999 10.8789 17.4999C10.4686 17.4998 10.076 17.3312 9.79298 17.0341L4.41407 11.3876L4.31348 11.2714C3.84733 10.6707 3.90346 9.8022 4.46583 9.2665C5.02821 8.73111 5.89741 8.71814 6.47462 9.21278L6.58595 9.31825L10.8789 13.8251L17.4141 6.96571Z" fill="currentColor"/>
</g>
</g>
</svg>
