<svg width="24" height="24" viewBox="0 0 24 24" fill="none" xmlns="http://www.w3.org/2000/svg">
<mask id="mask0_975_329" style="mask-type:alpha" maskUnits="userSpaceOnUse" x="0" y="0" width="24" height="24">
<rect width="24" height="24" fill="#484A4C"/>
</mask>
<g mask="url(#mask0_975_329)">
<mask id="mask1_975_329" style="mask-type:alpha" maskUnits="userSpaceOnUse" x="2" y="2" width="20" height="20">
<path d="M2 2H22V22H2V2Z" fill="#484A4C"/>
<path d="M2 2H22V22H2V2Z" fill="#484A4C"/>
</mask>
<g mask="url(#mask1_975_329)">
<path d="M15.5537 6.83591C16.1428 6.35582 17.0115 6.39041 17.5605 6.93942C18.1095 7.48844 18.1441 8.35711 17.664 8.94626L17.5605 9.06052L14.3711 12.25L17.5605 15.4394L17.664 15.5537C18.1441 16.1428 18.1095 17.0115 17.5605 17.5605C17.0115 18.1095 16.1428 18.1441 15.5537 17.664L15.4394 17.5605L12.25 14.3711L9.06052 17.5605L8.94626 17.664C8.35711 18.1442 7.48845 18.1095 6.93942 17.5605C6.3904 17.0115 6.35579 16.1428 6.83591 15.5537L6.93942 15.4394L10.1289 12.25L6.93942 9.06052L6.83591 8.94626C6.35579 8.35711 6.3904 7.48845 6.93942 6.93942C7.48845 6.3904 8.35711 6.35579 8.94626 6.83591L9.06052 6.93942L12.25 10.1289L15.4394 6.93942L15.5537 6.83591Z" fill="#484A4C"/>
</g>
</g>
</svg>
