<svg width="24" height="24" viewBox="0 0 24 24" fill="none" xmlns="http://www.w3.org/2000/svg">
<mask id="mask0_2004_35439" style="mask-type:alpha" maskUnits="userSpaceOnUse" x="0" y="0" width="24" height="24">
<rect width="24" height="24" fill="#D9D9D9"/>
</mask>
<g mask="url(#mask0_2004_35439)">
<mask id="mask1_2004_35439" style="mask-type:alpha" maskUnits="userSpaceOnUse" x="2" y="2" width="20" height="20">
<rect x="2" y="2" width="20" height="20" fill="#D9D9D9"/>
</mask>
<g mask="url(#mask1_2004_35439)">
<circle cx="12" cy="12" r="9" fill="#F15F5F"/>
<path d="M16.0007 11L12.9958 11.0018H10.9972H7.99753L7.89531 11.0053C7.39191 11.0567 7 11.4827 7 12C7 12.5173 7.39191 12.9433 7.89531 12.9947L7.99753 12.9982H10.9972H12.9958L16.0007 13L16.1029 12.9929C16.6063 12.9416 17 12.5173 17 12C17 11.4827 16.6063 11.0584 16.1029 11.0071L16.0007 11Z" fill="white"/>
</g>
</g>
</svg>
