<svg width="24" height="24" viewBox="0 0 24 24" fill="none" xmlns="http://www.w3.org/2000/svg">
<mask id="mask0_3471_33792" style="mask-type:alpha" maskUnits="userSpaceOnUse" x="0" y="0" width="24" height="24">
<rect width="24" height="24" fill="#D9D9D9"/>
</mask>
<g mask="url(#mask0_3471_33792)">
<mask id="mask1_3471_33792" style="mask-type:alpha" maskUnits="userSpaceOnUse" x="2" y="2" width="20" height="20">
<rect x="2" y="2" width="20" height="20" fill="#D9D9D9"/>
</mask>
<g mask="url(#mask1_3471_33792)">
<path d="M19.6912 4.73825C20.0693 5.04053 20.1055 5.59294 19.7719 5.97169L12.8255 13.8584C12.7739 13.9169 12.7174 13.9691 12.6588 14.0174L12.6744 14.0299L12.0507 14.407L10.6097 14.9659C10.2723 15.0966 9.93476 14.8267 10.0112 14.4875L10.3388 13.0395L10.6203 12.3878L10.6359 12.4003C10.6757 12.337 10.7198 12.2748 10.7713 12.2163L17.7178 4.32962C18.0514 3.95087 18.6287 3.88891 19.0068 4.19119L19.6912 4.73825Z" fill="#484A4C"/>
<path d="M10.0247 11.556C10.0045 11.579 9.9858 11.6028 9.96774 11.6261C9.9516 11.647 9.93362 11.6663 9.91498 11.6849C9.85462 11.7453 9.80104 11.8131 9.75777 11.8879L9.70665 11.9928L9.42536 12.6441C9.4131 12.6725 9.40163 12.7015 9.39206 12.7309L9.36725 12.8197L9.03924 14.268C8.76468 15.4881 9.98925 16.2805 10.9736 15.9008C10.9743 15.9006 10.9748 15.9001 10.9752 15.8995C10.9756 15.8989 10.9762 15.8984 10.9768 15.8982L12.416 15.3409C12.47 15.3199 12.5226 15.2941 12.5721 15.2642L13.1955 14.8859C13.3001 14.8226 13.3898 14.7413 13.4632 14.6476C13.4792 14.6271 13.4958 14.6072 13.5141 14.5888C13.5356 14.567 13.5575 14.5444 13.5787 14.5204L18.125 9.35967C18.4296 9.01386 19.0002 9.22934 19.0002 9.6902L19 17.0003C19 18.6572 17.6565 20.0002 15.9997 20.0002L7.00032 20.0008C5.34353 20.0008 4.0006 18.6572 4.00049 17.0005L4.00052 8.00032C4.00052 6.34352 5.3433 4.99995 7.00008 4.99986L14.6925 4.99951C15.1228 4.99949 15.3522 5.50702 15.0677 5.82998L10.0247 11.556Z" fill="#484A4C"/>
</g>
</g>
</svg>
