<svg width="24" height="24" viewBox="0 0 24 24" fill="none" xmlns="http://www.w3.org/2000/svg">
<mask id="mask0_975_359" style="mask-type:alpha" maskUnits="userSpaceOnUse" x="0" y="0" width="24" height="24">
<rect width="24" height="24" fill="#484A4C"/>
</mask>
<g mask="url(#mask0_975_359)">
<mask id="mask1_975_359" style="mask-type:alpha" maskUnits="userSpaceOnUse" x="2" y="2" width="20" height="21">
<path d="M2 2.00024H22V22.0002H2V2.00024Z" fill="#484A4C"/>
<path d="M2 2.00024H22V22.0002H2V2.00024Z" fill="#484A4C"/>
</mask>
<g mask="url(#mask1_975_359)">
<path d="M16.4658 4C17.1909 3.99385 17.9106 4.12906 18.583 4.39746C19.2554 4.6659 19.8686 5.06273 20.3848 5.56641C20.9008 6.07002 21.3101 6.67057 21.5879 7.33301C21.8657 7.99571 22.0064 8.70733 22 9.4248C21.9936 10.1422 21.8403 10.8511 21.5508 11.5088C21.2636 12.161 20.8471 12.749 20.3281 13.2412L20.3291 13.2422L12.6699 20.7158C12.2815 21.0945 11.6618 21.0947 11.2734 20.7158L3.61523 13.2422C2.58417 12.2358 2.00012 10.8655 2 9.43164C2 7.99774 2.58417 6.62753 3.61523 5.62109C4.64582 4.61592 6.0385 4.05473 7.48535 4.05469C8.93219 4.05469 10.3249 4.615 11.3555 5.62012L11.9717 6.2207L12.5889 5.62012C13.0935 5.11374 13.6945 4.71107 14.3564 4.43359C15.024 4.15381 15.7408 4.00618 16.4658 4ZM19.2646 6.29883C18.9093 6.16425 18.5027 6.31783 18.3291 6.66504C18.1558 7.01221 18.2769 7.42935 18.5977 7.63281L18.791 7.74219C19.0862 7.92846 19.3736 8.2492 19.5098 8.66895C19.6476 9.0938 19.6531 9.69123 19.2334 10.4551L19.1436 10.6104C18.9284 10.9642 19.0408 11.4254 19.3945 11.6406C19.7484 11.8558 20.2096 11.7435 20.4248 11.3896C21.1307 10.2283 21.2355 9.12779 20.9365 8.20605C20.6824 7.42282 20.1552 6.82763 19.583 6.46875L19.335 6.3291L19.2646 6.29883Z" fill="#F15F5F"/>
</g>
</g>
</svg>
