<svg width="24" height="24" viewBox="0 0 24 24" fill="none" xmlns="http://www.w3.org/2000/svg">
<mask id="mask0_1048_3066" style="mask-type:alpha" maskUnits="userSpaceOnUse" x="0" y="0" width="24" height="24">
<rect width="24" height="24" fill="#484A4C"/>
</mask>
<g mask="url(#mask0_1048_3066)">
<mask id="mask1_1048_3066" style="mask-type:alpha" maskUnits="userSpaceOnUse" x="2" y="2" width="20" height="20">
<path d="M2 2H22V22H2V2Z" fill="#484A4C"/>
<path d="M2 2H22V22H2V2Z" fill="#484A4C"/>
</mask>
<g mask="url(#mask1_1048_3066)">
<path d="M3.5 13.25C4.19036 13.25 4.75 13.8096 4.75 14.5V16.9824L7.61621 14.1162L7.71094 14.0303C8.20191 13.6298 8.92613 13.6585 9.38379 14.1162C9.84145 14.5739 9.87021 15.2981 9.46973 15.7891L9.38379 15.8838L6.01758 19.25H9.5C10.1904 19.25 10.75 19.8096 10.75 20.5C10.75 21.1904 10.1904 21.75 9.5 21.75H3.5C2.85285 21.75 2.32092 21.2582 2.25684 20.6279L2.25 20.5V14.5C2.25 13.8096 2.80964 13.25 3.5 13.25ZM20.5 13.25C21.1904 13.25 21.75 13.8096 21.75 14.5V20.5L21.7432 20.6279C21.6791 21.2582 21.1472 21.75 20.5 21.75H14.5C13.8096 21.75 13.25 21.1904 13.25 20.5C13.25 19.8096 13.8096 19.25 14.5 19.25H17.4824L14.1162 15.8838L14.0303 15.7891C13.6298 15.2981 13.6585 14.5739 14.1162 14.1162C14.5739 13.6585 15.2981 13.6298 15.7891 14.0303L15.8838 14.1162L19.25 17.4824V14.5C19.25 13.8096 19.8096 13.25 20.5 13.25ZM9.5 2.25C10.1904 2.25 10.75 2.80964 10.75 3.5C10.75 4.19036 10.1904 4.75 9.5 4.75H6.51758L9.38379 7.61621L9.46973 7.71094C9.87021 8.20191 9.84145 8.92613 9.38379 9.38379C8.92613 9.84145 8.20191 9.87021 7.71094 9.46973L7.61621 9.38379L4.75 6.51758V9.5C4.75 10.1904 4.19036 10.75 3.5 10.75C2.80964 10.75 2.25 10.1904 2.25 9.5V3.5L2.25098 3.48145C2.25145 3.45014 2.25305 3.4189 2.25586 3.3877L2.25684 3.37207C2.25727 3.36785 2.25734 3.36359 2.25781 3.35938C2.26103 3.33088 2.26632 3.30267 2.27148 3.27441C2.27332 3.26434 2.27429 3.25413 2.27637 3.24414C2.28129 3.22051 2.28764 3.1972 2.29395 3.17383C2.29825 3.15786 2.30173 3.14169 2.30664 3.12598C2.3125 3.10724 2.31941 3.08881 2.32617 3.07031C2.33302 3.05159 2.33995 3.03294 2.34766 3.01465C2.35296 3.00205 2.3595 2.98999 2.36523 2.97754C2.37568 2.95488 2.38573 2.93206 2.39746 2.91016C2.40564 2.89489 2.41497 2.88022 2.42383 2.86523C2.43298 2.84973 2.44235 2.8344 2.45215 2.81934C2.46398 2.80116 2.47638 2.7833 2.48926 2.76562C2.49857 2.75282 2.5078 2.73997 2.51758 2.72754C2.53209 2.70913 2.54778 2.69158 2.56348 2.67383C2.57416 2.66172 2.58456 2.64938 2.5957 2.6377C2.60252 2.63055 2.60919 2.62323 2.61621 2.61621C2.62323 2.60919 2.63055 2.60252 2.6377 2.5957C2.64519 2.58855 2.65249 2.58119 2.66016 2.57422L2.70508 2.53516C2.71172 2.52967 2.71886 2.52486 2.72559 2.51953C2.74437 2.50467 2.76357 2.49035 2.7832 2.47656C2.79165 2.47063 2.80004 2.46468 2.80859 2.45898C2.83144 2.44377 2.85504 2.42973 2.87891 2.41602C2.89133 2.40888 2.9034 2.4012 2.91602 2.39453C2.93323 2.38541 2.95106 2.37747 2.96875 2.36914C2.98687 2.36063 3.00501 2.35232 3.02344 2.34473C3.03828 2.33859 3.05323 2.33272 3.06836 2.32715C3.09035 2.31907 3.11245 2.31149 3.13477 2.30469C3.14834 2.30054 3.16201 2.29666 3.17578 2.29297C3.19816 2.28698 3.22055 2.2811 3.24316 2.27637C3.25894 2.27307 3.27503 2.27125 3.29102 2.26855C3.3141 2.26465 3.33712 2.26041 3.36035 2.25781C3.37297 2.25641 3.38571 2.25591 3.39844 2.25488C3.42543 2.25269 3.45243 2.25142 3.47949 2.25098C3.48632 2.25087 3.49315 2.25 3.5 2.25H9.5ZM20.5 2.25C21.1472 2.25 21.6791 2.74183 21.7432 3.37207L21.75 3.5V9.5C21.75 10.1904 21.1904 10.75 20.5 10.75C19.8096 10.75 19.25 10.1904 19.25 9.5V6.01758L15.8838 9.38379L15.7891 9.46973C15.2981 9.87021 14.5739 9.84145 14.1162 9.38379C13.6585 8.92613 13.6298 8.20191 14.0303 7.71094L14.1162 7.61621L16.9824 4.75H14.5C13.8096 4.75 13.25 4.19036 13.25 3.5C13.25 2.80964 13.8096 2.25 14.5 2.25H20.5Z" fill="#484A4C"/>
</g>
</g>
</svg>
