<svg width="24" height="24" viewBox="0 0 24 24" fill="none" xmlns="http://www.w3.org/2000/svg">
<mask id="mask0_1048_3114" style="mask-type:alpha" maskUnits="userSpaceOnUse" x="0" y="0" width="24" height="24">
<rect width="24" height="24" fill="#484A4C"/>
</mask>
<g mask="url(#mask0_1048_3114)">
<mask id="mask1_1048_3114" style="mask-type:alpha" maskUnits="userSpaceOnUse" x="2" y="2" width="20" height="20">
<path d="M2 2H22V22H2V2Z" fill="#484A4C"/>
<path d="M2 2H22V22H2V2Z" fill="#484A4C"/>
</mask>
<g mask="url(#mask1_1048_3114)">
<path d="M3.13569 11.3119C3.25005 10.5114 3.93568 9.91675 4.74436 9.91675H19.2591C20.0678 9.91675 20.7534 10.5114 20.8677 11.3119L21.4868 15.6453C21.6266 16.6243 20.867 17.5001 19.8781 17.5001H4.12531C3.13642 17.5001 2.37679 16.6243 2.51664 15.6453L3.13569 11.3119Z" fill="#5D5F62"/>
<path d="M15.1632 4.5C15.8616 4.5 16.4277 5.1467 16.4277 5.94445C16.4277 6.01763 16.4681 6.08491 16.534 6.11676C17.0017 6.34285 17.3731 6.77629 17.5598 7.31707C17.5864 7.39417 17.6502 7.45314 17.7294 7.47267C18.3586 7.62783 18.9171 7.99751 19.3454 8.51045C19.456 8.64291 19.3554 8.83336 19.1828 8.83336H4.82069C4.64819 8.83336 4.54756 8.64305 4.65811 8.51063C4.77699 8.36823 4.90594 8.23699 5.0439 8.11812C5.04594 8.11637 5.04711 8.11382 5.04711 8.11113C5.04711 6.91451 5.89632 5.94445 6.94388 5.94445C6.94619 5.94445 6.94835 5.94328 6.94963 5.94135C7.52658 5.06724 8.44072 4.5 9.47291 4.5C10.2217 4.5 10.908 4.79947 11.4492 5.29701C11.5584 5.39744 11.7373 5.37632 11.8264 5.2576C12.1741 4.79399 12.6901 4.5 13.2664 4.5C13.5917 4.5 13.8981 4.59325 14.1657 4.75797C14.2589 4.81535 14.38 4.80626 14.4672 4.7401C14.6668 4.58875 14.9057 4.5 15.1632 4.5Z" fill="#5D5F62"/>
</g>
</g>
</svg>
