<svg width="24" height="24" viewBox="0 0 24 24" fill="none" xmlns="http://www.w3.org/2000/svg">
<mask id="mask0_1190_3264" style="mask-type:alpha" maskUnits="userSpaceOnUse" x="0" y="0" width="24" height="24">
<rect width="24" height="24" fill="#D9D9D9"/>
</mask>
<g mask="url(#mask0_1190_3264)">
<mask id="mask1_1190_3264" style="mask-type:alpha" maskUnits="userSpaceOnUse" x="2" y="2" width="20" height="20">
<rect x="2" y="2" width="20" height="20" fill="#D9D9D9"/>
</mask>
<g mask="url(#mask1_1190_3264)">
<path d="M15.7606 4.57903C16.3711 4.57385 16.9772 4.6877 17.5434 4.91372C18.1096 5.13977 18.6259 5.47393 19.0606 5.89807C19.4952 6.32217 19.8398 6.82786 20.0738 7.3857C20.3078 7.94377 20.4262 8.54298 20.4208 9.14718C20.4154 9.7513 20.2864 10.3482 20.0425 10.9021C19.8007 11.4513 19.45 11.9464 19.0129 12.3609L19.0138 12.3617L12.5641 18.6552C12.237 18.9741 11.7151 18.9743 11.3881 18.6552L4.93927 12.3617C4.071 11.5143 3.57918 10.3604 3.5791 9.15293C3.5791 7.94545 4.071 6.79164 4.93927 5.94413C5.80711 5.09768 6.97986 4.62511 8.19824 4.62508C9.41659 4.62508 10.5893 5.09691 11.4572 5.9433L11.9761 6.44905L12.4958 5.9433C12.9208 5.51688 13.4268 5.17781 13.9843 4.94415C14.5464 4.70855 15.1501 4.58423 15.7606 4.57903Z" fill="#F15F5F"/>
<path d="M16.0525 3.00514C16.7641 3.03371 17.4668 3.18283 18.1289 3.44716L18.4096 3.56743C19.057 3.86325 19.6512 4.26847 20.1633 4.76809L20.3771 4.98705C20.7932 5.43567 21.1392 5.94438 21.404 6.49609L21.5305 6.77467V6.7757L21.6415 7.06044C21.8495 7.63654 21.9692 8.24138 21.9951 8.85424L22.0002 9.1616C21.9938 9.87863 21.8588 10.5871 21.6045 11.2545L21.4873 11.5382C21.169 12.261 20.712 12.91 20.1489 13.4564C20.1378 13.4679 20.1285 13.4812 20.117 13.4924L13.6666 19.7856C12.7855 20.6446 11.412 20.6996 10.4686 19.947L10.2856 19.7856L3.83618 13.4914C2.74118 12.4224 2.08627 10.9853 2.00847 9.4597L2.00024 9.15337C2.00024 7.51437 2.66807 5.95462 3.83618 4.81435H3.83721L4.06028 4.6067C5.19971 3.60014 6.67444 3.04641 8.19782 3.04626L8.50209 3.05345C9.75906 3.11419 10.9686 3.55253 11.9694 4.30859C12.3993 3.97556 12.8709 3.69903 13.3736 3.48828L13.6583 3.37726C14.3269 3.13453 15.0334 3.00609 15.7472 3L16.0525 3.00514ZM3.58536 9.3785C3.64258 10.5033 4.12525 11.5671 4.93918 12.3616L11.3886 18.6548C11.6952 18.954 12.1728 18.9731 12.5009 18.7113L12.5646 18.6548L19.014 12.3616L19.013 12.3606C19.3953 11.998 19.7113 11.5737 19.9464 11.1055L20.043 10.9019C20.2563 10.4174 20.3814 9.89979 20.4131 9.37336L20.4213 9.1472C20.4267 8.54318 20.3077 7.94424 20.0738 7.38631C19.8692 6.8983 19.5798 6.44974 19.2196 6.06127L19.0603 5.89782C18.6801 5.52693 18.2376 5.2246 17.7537 5.0035L17.543 4.91406C17.0478 4.71644 16.5223 4.60451 15.9898 4.58306L15.7605 4.57895C15.1501 4.58417 14.5463 4.70829 13.9842 4.94387L13.7776 5.03639C13.3015 5.26364 12.8675 5.56997 12.4957 5.94305L11.9766 6.44881L11.4575 5.94305C10.5896 5.0967 9.41614 4.62521 8.19782 4.62521C6.97963 4.62537 5.80691 5.09775 4.93918 5.94408C4.07093 6.79159 3.57919 7.94589 3.57919 9.15337L3.58536 9.3785Z" fill="white"/>
<path d="M17.1191 6.61211C17.2654 6.3197 17.6077 6.19037 17.907 6.30373L17.9662 6.32923L18.175 6.44682C18.6569 6.74904 19.1008 7.25021 19.3148 7.90978C19.5666 8.68597 19.4784 9.61271 18.8839 10.5906C18.7027 10.8886 18.3143 10.9831 18.0163 10.802C17.7184 10.6208 17.6238 10.2324 17.805 9.93441L17.8806 9.80365C18.2341 9.16042 18.2294 8.65734 18.1134 8.29958C17.9987 7.94609 17.7567 7.67603 17.5081 7.51917L17.3453 7.42706C17.0751 7.25574 16.9732 6.90448 17.1191 6.61211Z" fill="white"/>
</g>
</g>
</svg>
