<svg width="24" height="24" viewBox="0 0 24 24" fill="none" xmlns="http://www.w3.org/2000/svg">
<mask id="mask0_1208_8625" style="mask-type:alpha" maskUnits="userSpaceOnUse" x="0" y="0" width="24" height="24">
<rect width="24" height="24" fill="#D9D9D9"/>
</mask>
<g mask="url(#mask0_1208_8625)">
<mask id="mask1_1208_8625" style="mask-type:alpha" maskUnits="userSpaceOnUse" x="2" y="2" width="20" height="20">
<rect x="2" y="2" width="20" height="20" fill="#D9D9D9"/>
</mask>
<g mask="url(#mask1_1208_8625)">
<path fill-rule="evenodd" clip-rule="evenodd" d="M12.3771 2C17.0729 2 20.7979 5.9108 20.7982 10.6328C20.7982 13.2556 19.6531 15.6151 17.8376 17.2025V18.139L17.8274 18.3292C17.7865 18.7406 17.6127 19.1234 17.3452 19.426C17.1476 20.8471 15.9561 21.9999 14.4299 22H10.3243C8.79252 21.9999 7.59697 20.8389 7.40589 19.4106C7.10608 19.064 6.92892 18.6138 6.92892 18.139V17.2128C5.10654 15.6254 3.95605 13.2614 3.95605 10.6328C3.95627 5.9108 7.68132 2 12.3771 2ZM8.50786 16.7368V18.139C8.50786 18.3337 8.66036 18.4924 8.84915 18.4926H9.06091C9.00296 18.4928 8.95605 18.5395 8.95605 18.5975V19.0107C8.9563 19.7409 9.49463 20.3416 10.1845 20.4139L10.3243 20.4211H14.4299L14.5697 20.4139C15.2596 20.3416 15.7979 19.7409 15.7982 19.0107V18.5975C15.7982 18.5395 15.7513 18.4928 15.6933 18.4926H15.9164C16.1052 18.4924 16.2587 18.3337 16.2587 18.139V16.7368H8.50786ZM12.3771 3.57895C8.59845 3.57895 5.53522 6.73703 5.535 10.6328L5.54631 11.0419C5.63293 12.6053 6.21538 14.0306 7.13142 15.1579H17.6218C18.5351 14.0342 19.1173 12.6149 19.2069 11.0574L19.2192 10.6328C19.219 6.73703 16.1558 3.57895 12.3771 3.57895Z" fill="white"/>
<path fill-rule="evenodd" clip-rule="evenodd" d="M16.5468 16.2267C16.4425 16.3094 16.3511 16.4079 16.2977 16.532C16.2844 16.5628 16.2702 16.5932 16.2549 16.6229C16.2536 16.6255 16.2554 16.6286 16.2584 16.6286V17.5822C16.2584 17.6403 16.2112 17.6874 16.1531 17.6874H8.61279C8.55466 17.6874 8.50753 17.6403 8.50753 17.5822V16.6286C8.51808 16.6286 8.52332 16.6158 8.51585 16.6083C8.44938 16.5421 8.38745 16.4737 8.33101 16.4045C8.28212 16.3446 8.23438 16.2879 8.19 16.2364C8.14279 16.1816 8.09049 16.132 8.03559 16.0855C6.50889 14.7918 5.53516 12.8297 5.53516 10.6331C5.53516 6.73717 8.59847 3.57886 12.3773 3.57886C16.1561 3.57886 19.2194 6.73717 19.2194 10.6331C19.2194 12.9111 18.1721 14.937 16.5468 16.2267Z" fill="#FFDB58"/>
<path d="M8.50753 16.6286H16.2584L16.2584 18.1393C16.2584 18.3341 16.1052 18.4921 15.9162 18.4921H8.84964C8.6607 18.4921 8.50753 18.3341 8.50753 18.1393L8.50753 16.6286Z" fill="#495057"/>
<path d="M8.95621 18.5973C8.95621 18.5392 9.00334 18.4921 9.06147 18.4921H15.6931C15.7512 18.4921 15.7983 18.5392 15.7983 18.5973V19.0101C15.7983 19.7893 15.1857 20.421 14.4299 20.421H10.3246C9.56887 20.421 8.95621 19.7893 8.95621 19.0101V18.5973Z" fill="#727E8B"/>
<path fill-rule="evenodd" clip-rule="evenodd" d="M9.18072 10.9859C9.18072 11.3755 9.48705 11.6913 9.86493 11.6913H11.4702C11.5283 11.6913 11.5755 11.7384 11.5755 11.7965V16.524C11.5755 16.5822 11.6226 16.6293 11.6807 16.6293H12.8386C12.8967 16.6293 12.9439 16.5822 12.9439 16.524V11.7965C12.9439 11.7384 12.991 11.6913 13.0491 11.6913H14.6544C15.0323 11.6913 15.3386 11.3755 15.3386 10.9859C15.3386 10.5963 15.0323 10.2804 14.6544 10.2804H9.86493C9.48705 10.2804 9.18072 10.5963 9.18072 10.9859Z" fill="#ED7F20"/>
</g>
</g>
</svg>
