<svg width="24" height="24" viewBox="0 0 24 24" fill="none" xmlns="http://www.w3.org/2000/svg">
<mask id="mask0_1208_8625" style="mask-type:alpha" maskUnits="userSpaceOnUse" x="0" y="0" width="24" height="24">
<rect width="24" height="24" fill="#D9D9D9"/>
</mask>
<g mask="url(#mask0_1208_8625)">
<mask id="mask1_1208_8625" style="mask-type:alpha" maskUnits="userSpaceOnUse" x="2" y="2" width="20" height="20">
<rect x="2" y="2" width="20" height="20" fill="#D9D9D9"/>
</mask>
<g mask="url(#mask1_1208_8625)">
<path fill-rule="evenodd" clip-rule="evenodd" d="M12.3769 2C17.0727 2 20.7977 5.9108 20.7979 10.6328C20.7979 13.2556 19.6529 15.6151 17.8374 17.2025V18.139L17.8271 18.3292C17.7862 18.7406 17.6125 19.1234 17.345 19.426C17.1473 20.8471 15.9559 21.9999 14.4297 22H10.324C8.79227 21.9999 7.59672 20.8389 7.40565 19.4106C7.10584 19.064 6.92867 18.6138 6.92867 18.139V17.2128C5.10629 15.6254 3.95581 13.2614 3.95581 10.6328C3.95603 5.9108 7.68108 2 12.3769 2ZM8.50762 16.7368V18.139C8.50762 18.3337 8.66012 18.4924 8.8489 18.4926H9.06066C9.00272 18.4928 8.95581 18.5395 8.95581 18.5975V19.0107C8.95605 19.7409 9.49439 20.3416 10.1842 20.4139L10.324 20.4211H14.4297L14.5695 20.4139C15.2593 20.3416 15.7977 19.7409 15.7979 19.0107V18.5975C15.7979 18.5395 15.751 18.4928 15.6931 18.4926H15.9161C16.1049 18.4924 16.2584 18.3337 16.2584 18.139V16.7368H8.50762ZM12.3769 3.57895C8.59821 3.57895 5.53498 6.73703 5.53476 10.6328L5.54607 11.0419C5.63269 12.6053 6.21513 14.0306 7.13118 15.1579H17.6215C18.5348 14.0342 19.117 12.6149 19.2066 11.0574L19.219 10.6328C19.2188 6.73703 16.1555 3.57895 12.3769 3.57895Z" fill="white"/>
<path fill-rule="evenodd" clip-rule="evenodd" d="M16.5466 16.2267C16.4423 16.3094 16.3508 16.4079 16.2975 16.532C16.2842 16.5628 16.2699 16.5932 16.2547 16.6229C16.2533 16.6255 16.2552 16.6286 16.2581 16.6286V17.5822C16.2581 17.6403 16.211 17.6874 16.1528 17.6874H8.61255C8.55441 17.6874 8.50729 17.6403 8.50729 17.5822V16.6286C8.51783 16.6286 8.52308 16.6158 8.51561 16.6083C8.44914 16.5421 8.38721 16.4737 8.33076 16.4045C8.28188 16.3446 8.23414 16.2879 8.18976 16.2364C8.14255 16.1816 8.09025 16.132 8.03535 16.0855C6.50865 14.7918 5.53491 12.8297 5.53491 10.6331C5.53491 6.73717 8.59823 3.57886 12.377 3.57886C16.1558 3.57886 19.2191 6.73717 19.2191 10.6331C19.2191 12.9111 18.1718 14.937 16.5466 16.2267Z" fill="#FFDB58"/>
<path d="M8.50729 16.6286H16.2581L16.2581 18.1393C16.2581 18.3341 16.1049 18.4921 15.916 18.4921H8.84939C8.66045 18.4921 8.50729 18.3341 8.50729 18.1393L8.50729 16.6286Z" fill="#495057"/>
<path d="M8.95596 18.5973C8.95596 18.5392 9.00309 18.4921 9.06123 18.4921H15.6928C15.7509 18.4921 15.7981 18.5392 15.7981 18.5973V19.0101C15.7981 19.7893 15.1854 20.421 14.4297 20.421H10.3244C9.56863 20.421 8.95596 19.7893 8.95596 19.0101V18.5973Z" fill="#727E8B"/>
<path fill-rule="evenodd" clip-rule="evenodd" d="M9.18047 10.9859C9.18047 11.3755 9.4868 11.6913 9.86468 11.6913H11.4699C11.5281 11.6913 11.5752 11.7384 11.5752 11.7965V16.524C11.5752 16.5822 11.6223 16.6293 11.6805 16.6293H12.8384C12.8965 16.6293 12.9436 16.5822 12.9436 16.524V11.7965C12.9436 11.7384 12.9908 11.6913 13.0489 11.6913H14.6542C15.032 11.6913 15.3384 11.3755 15.3384 10.9859C15.3384 10.5963 15.032 10.2804 14.6542 10.2804H9.86468C9.4868 10.2804 9.18047 10.5963 9.18047 10.9859Z" fill="#ED7F20"/>
</g>
</g>
</svg>
