<svg width="24" height="24" viewBox="0 0 24 24" fill="none" xmlns="http://www.w3.org/2000/svg">
<mask id="mask0_2585_50870" style="mask-type:alpha" maskUnits="userSpaceOnUse" x="0" y="0" width="24" height="24">
<rect width="24" height="24" fill="#484A4C"/>
</mask>
<g mask="url(#mask0_2585_50870)">
<path d="M12 3C16.9706 3 21 7.02944 21 12C21 16.9706 16.9706 21 12 21C7.02944 21 3 16.9706 3 12C3 7.02944 7.02944 3 12 3ZM11.9707 14.9541C11.3313 14.9541 10.7946 15.4766 10.7998 16.1221C10.7915 16.7722 11.331 17.2875 11.9678 17.2959H11.9736C12.6073 17.2875 13.1332 16.7703 13.1416 16.1279V16.1221C13.1332 15.482 12.6088 14.9541 11.9707 14.9541ZM11.9639 6.90137C11.4128 6.90141 10.9691 7.35334 10.9785 7.9043L11.0752 13.4697C11.0838 13.9542 11.4792 14.3427 11.9639 14.3428C12.4485 14.3428 12.8439 13.9543 12.8525 13.4697L12.9502 7.9043C12.9596 7.35332 12.515 6.90137 11.9639 6.90137Z" fill="currentColor"/>
</g>
</svg>
