<svg width="24" height="24" viewBox="0 0 24 24" fill="none" xmlns="http://www.w3.org/2000/svg">
<mask id="mask0_3223_37486" style="mask-type:alpha" maskUnits="userSpaceOnUse" x="0" y="0" width="24" height="24">
<rect width="24" height="24" fill="#D9D9D9"/>
</mask>
<g mask="url(#mask0_3223_37486)">
<mask id="mask1_3223_37486" style="mask-type:alpha" maskUnits="userSpaceOnUse" x="2" y="2" width="20" height="20">
<rect x="2" y="2" width="20" height="20" fill="#D9D9D9"/>
</mask>
<g mask="url(#mask1_3223_37486)">
<path d="M10.5185 6C3.7037 6 2 10.3509 2 12.5263C2 16.3158 8.11111 17.9298 10.5185 18C14.9475 18 17.1306 16.278 18.0766 14.9642C18.2026 14.7892 18.4475 14.7408 18.6306 14.8546C21.3155 16.5242 22 13.8777 22 10.8421C22 7.6772 21.4444 7.05263 20.5185 6.84211C19.3902 6.69958 18.3591 7.55212 17.8068 8.2004C17.6641 8.36791 17.4098 8.40121 17.2355 8.26677C14.8961 6.46153 11.8164 6 10.5185 6Z" fill="#4B8892"/>
<circle cx="5" cy="12" r="2" fill="white"/>
<circle cx="5" cy="12" r="1" fill="#292A2B"/>
<path d="M8.70402 8.49625C8.88812 8.34287 9.15594 8.35645 9.3236 8.52049L9.35579 8.55557L9.45345 8.67782C10.4362 9.96496 11.0874 12.5231 9.48202 15.4219L9.40136 15.5648C9.27353 15.7862 8.99019 15.8622 8.76877 15.7344C8.54736 15.6066 8.47135 15.3232 8.59913 15.1018L8.73983 14.8479C10.0799 12.3243 9.46297 10.2184 8.71922 9.24206L8.64471 9.14802L8.61613 9.1104C8.48483 8.91587 8.51985 8.64973 8.70402 8.49625Z" fill="#65BBC9"/>
<path d="M19.5743 10.2411C19.8088 10.2315 20.0171 10.4009 20.051 10.6382C20.0849 10.8755 19.9326 11.0964 19.7049 11.1529L19.6582 11.162L18.3619 11.3472C18.1088 11.3833 17.8744 11.2075 17.8382 10.9544C17.802 10.7012 17.9779 10.4668 18.231 10.4306L19.5273 10.2455L19.5743 10.2411Z" fill="#65BBC9"/>
<path d="M19.7594 11.9079C19.9939 11.8982 20.2022 12.0676 20.2361 12.305C20.27 12.5423 20.1176 12.7631 19.8899 12.8197L19.8433 12.8287L18.547 13.0139C18.2939 13.0501 18.0594 12.8742 18.0233 12.6211C17.9871 12.368 18.1629 12.1335 18.4161 12.0974L19.7124 11.9122L19.7594 11.9079Z" fill="#65BBC9"/>
</g>
</g>
</svg>
