<svg width="24" height="24" viewBox="0 0 24 24" fill="none" xmlns="http://www.w3.org/2000/svg">
<mask id="mask0_1691_18981" style="mask-type:alpha" maskUnits="userSpaceOnUse" x="0" y="0" width="24" height="24">
<rect width="24" height="24" fill="#484A4C"/>
</mask>
<g mask="url(#mask0_1691_18981)">
<mask id="mask1_1691_18981" style="mask-type:alpha" maskUnits="userSpaceOnUse" x="2" y="2" width="20" height="21">
<path d="M2 2.00024H22V22.0002H2V2.00024Z" fill="#484A4C"/>
<path d="M2 2.00024H22V22.0002H2V2.00024Z" fill="#484A4C"/>
</mask>
<g mask="url(#mask1_1691_18981)">
<ellipse cx="11.5" cy="17.5" rx="8.5" ry="3.5" fill="#FFE5C0"/>
<rect x="17.373" y="5.10693" width="0.776776" height="13.982" rx="0.388388" transform="rotate(30 17.373 5.10693)" fill="#484A4C"/>
<path d="M8.4256 8.17608C10.1804 5.13659 14.067 4.09519 17.1065 5.85004L17.5356 6.09777C20.5751 7.85262 21.6165 11.7392 19.8616 14.7787C19.686 15.0829 19.2969 15.1872 18.9927 15.0115L8.65843 9.04503C8.35418 8.86937 8.24994 8.48033 8.4256 8.17608Z" fill="#F15F5F"/>
<path d="M9.77081 8.95293C11.5257 5.91345 14.8325 4.53732 17.1568 5.87926L17.4849 6.06871C19.8092 7.41065 20.2709 10.9625 18.516 14.002C18.3403 14.3062 18.0093 14.444 17.7767 14.3096L9.87403 9.74705C9.64136 9.61272 9.59515 9.25718 9.77081 8.95293Z" fill="#F8F9F9"/>
<path d="M11.7889 10.118C13.5437 7.07849 15.9809 5.20027 17.2324 5.92286L17.4091 6.02486C18.6607 6.74745 18.2527 9.7972 16.4978 12.8367C16.3222 13.1409 16.0782 13.3289 15.9529 13.2566L11.6977 10.7998C11.5724 10.7275 11.6132 10.4222 11.7889 10.118Z" fill="#F15F5F"/>
</g>
</g>
</svg>
