<svg width="24" height="24" viewBox="0 0 24 24" fill="none" xmlns="http://www.w3.org/2000/svg">
<mask id="mask0_2050_27249" style="mask-type:alpha" maskUnits="userSpaceOnUse" x="0" y="0" width="24" height="24">
<rect width="24" height="24" fill="#484A4C"/>
</mask>
<g mask="url(#mask0_2050_27249)">
<mask id="mask1_2050_27249" style="mask-type:alpha" maskUnits="userSpaceOnUse" x="2" y="2" width="20" height="20">
<path d="M2 2.1C2 2.04477 2.04477 2 2.1 2H21.9C21.9552 2 22 2.04477 22 2.1V21.9C22 21.9552 21.9552 22 21.9 22H2.1C2.04477 22 2 21.9552 2 21.9V2.1Z" fill="#484A4C"/>
<path d="M2 2.1C2 2.04477 2.04477 2 2.1 2H21.9C21.9552 2 22 2.04477 22 2.1V21.9C22 21.9552 21.9552 22 21.9 22H2.1C2.04477 22 2 21.9552 2 21.9V2.1Z" fill="#484A4C"/>
</mask>
<g mask="url(#mask1_2050_27249)">
<path fill-rule="evenodd" clip-rule="evenodd" d="M12.4516 4C13.448 4.0002 14.256 4.79606 14.256 5.77778C14.256 5.88233 14.2454 5.9845 14.2271 6.08397C14.2181 6.13345 14.2448 6.18307 14.2917 6.2011C14.8954 6.43277 15.4541 6.75275 15.9511 7.1458C15.9899 7.17649 16.0451 7.17478 16.0832 7.1432C16.1626 7.07739 16.2486 7.01728 16.3416 6.96441C17.2047 6.47349 18.3086 6.76515 18.8069 7.61545L19.258 8.38455C19.7563 9.23485 19.4603 10.3224 18.5972 10.8134C18.5046 10.8661 18.4088 10.9086 18.3114 10.943C18.2641 10.9598 18.2344 11.0075 18.2421 11.0572C18.2898 11.3647 18.3161 11.6794 18.3161 12C18.3161 12.3203 18.2898 12.6347 18.2421 12.9419C18.2344 12.9916 18.2641 13.0394 18.3114 13.0562C18.4088 13.0909 18.5045 13.1339 18.5972 13.1866C19.4603 13.6776 19.7563 14.7652 19.258 15.6155L18.8069 16.3845C18.3086 17.2348 17.2047 17.5265 16.3416 17.0356C16.2485 16.9826 16.1625 16.9221 16.0832 16.856C16.0451 16.8244 15.9899 16.8227 15.9511 16.8534C15.4541 17.2465 14.8955 17.5663 14.2918 17.798C14.2448 17.816 14.2181 17.8657 14.2272 17.9152C14.2455 18.0149 14.256 18.1174 14.256 18.2222C14.256 19.2039 13.448 19.9998 12.4516 20H11.5493C10.5527 20 9.74483 19.2041 9.74483 18.2222C9.74483 18.1175 9.75439 18.0149 9.77219 17.9152C9.78103 17.8657 9.75436 17.816 9.70739 17.798C9.10372 17.5662 8.54493 17.2465 8.04803 16.8534C8.00922 16.8227 7.954 16.8244 7.916 16.8561C7.83686 16.9221 7.75131 16.9827 7.6584 17.0356C6.79533 17.5265 5.69139 17.2348 5.19309 16.3845L4.74197 15.6155C4.24368 14.7652 4.53972 13.6776 5.40279 13.1866C5.4953 13.134 5.59071 13.0909 5.68776 13.0563C5.73506 13.0394 5.76475 12.9916 5.75708 12.942C5.70966 12.6348 5.68474 12.3203 5.68474 12C5.68474 11.6794 5.70959 11.3646 5.75708 11.0571C5.76474 11.0075 5.73507 10.9598 5.68775 10.943C5.59071 10.9085 5.49518 10.8659 5.40279 10.8134C4.53979 10.3224 4.24369 9.23482 4.74197 8.38455L5.19309 7.61545C5.69138 6.76517 6.79534 6.47354 7.6584 6.96441C7.75115 7.01717 7.83683 7.07742 7.91596 7.14319C7.95401 7.1748 8.0092 7.1765 8.048 7.14581C8.54489 6.75273 9.10378 6.43284 9.70742 6.2011C9.75438 6.18308 9.78106 6.13346 9.77222 6.08395C9.75445 5.98448 9.74483 5.88226 9.74483 5.77778C9.74483 4.79594 10.5527 4 11.5493 4H12.4516ZM12.0004 9.33333C10.5056 9.33333 9.29371 10.5272 9.29371 12C9.29371 13.4728 10.5056 14.6667 12.0004 14.6667C13.4952 14.6665 14.7072 13.4726 14.7072 12C14.7072 10.5274 13.4952 9.33353 12.0004 9.33333Z" fill="#7C7F83"/>
<path fill-rule="evenodd" clip-rule="evenodd" d="M12.6455 2.00488C14.3272 2.08965 15.7495 3.26847 16.1455 4.87207C16.1511 4.87523 16.1566 4.87866 16.1621 4.88184C17.7996 4.39902 19.6257 5.05947 20.5313 6.60352L20.9834 7.37305C21.8911 8.92197 21.5611 10.8266 20.3281 12C21.5156 13.1301 21.866 14.9384 21.0791 16.4541L20.9834 16.627L20.5322 17.3965L20.5313 17.3955C19.6258 18.9402 17.7999 19.6002 16.1621 19.1172C16.1566 19.1204 16.1511 19.1238 16.1455 19.127C15.7348 20.7921 14.2175 21.9996 12.4522 22H11.5498C9.78389 22 8.26542 20.7927 7.8545 19.1279C7.84855 19.1245 7.84285 19.1206 7.83692 19.1172C6.19934 19.5997 4.374 18.9399 3.46875 17.3955L3.46778 17.3965L3.0166 16.627C2.10894 15.0781 2.439 13.1734 3.67188 12C2.4391 10.8267 2.1089 8.92201 3.0166 7.37305L3.46778 6.60352C4.37281 5.06027 6.19823 4.40063 7.83496 4.88184C7.84153 4.87808 7.84792 4.87386 7.8545 4.87012C8.26609 3.20627 9.78454 2.00004 11.5498 2H12.4522L12.6455 2.00488ZM11.5498 4C10.5534 4.00005 9.74536 4.79573 9.74512 5.77734C9.74512 5.88182 9.7547 5.98452 9.77246 6.08398C9.78126 6.13348 9.75397 6.18315 9.70703 6.20117C9.10359 6.43288 8.54462 6.75254 8.04785 7.14551C8.00913 7.1761 7.95404 7.17499 7.91602 7.14355C7.83691 7.07782 7.75092 7.01758 7.65821 6.96484C6.79525 6.47408 5.69171 6.76519 5.19336 7.61523L4.74219 8.38477C4.24407 9.2349 4.53965 10.3225 5.40235 10.8135C5.49468 10.866 5.59053 10.9089 5.6875 10.9434C5.73483 10.9602 5.7645 11.008 5.75684 11.0576C5.7094 11.3649 5.68457 11.6796 5.68457 12C5.68457 12.3203 5.70941 12.6352 5.75684 12.9424C5.7643 12.9919 5.73469 13.0398 5.6875 13.0566C5.5906 13.0913 5.49472 13.134 5.40235 13.1865C4.53959 13.6775 4.24405 14.7651 4.74219 15.6152L5.19336 16.3848C5.69172 17.2348 6.79524 17.526 7.65821 17.0352C7.75101 16.9823 7.83696 16.9224 7.91602 16.8564C7.95399 16.8248 8.00905 16.8229 8.04785 16.8535C8.54463 17.2466 9.10354 17.5661 9.70703 17.7979C9.75394 17.8159 9.78119 17.8656 9.77246 17.915C9.75466 18.0148 9.74512 18.1179 9.74512 18.2227C9.74536 19.2043 10.5534 20 11.5498 20H12.4512C13.4474 19.9998 14.2556 19.2042 14.2559 18.2227C14.2559 18.1178 14.2458 18.0148 14.2275 17.915C14.2185 17.8656 14.2451 17.8159 14.292 17.7979C14.8956 17.5662 15.4543 17.2465 15.9512 16.8535C15.99 16.8228 16.045 16.8248 16.083 16.8564C16.1623 16.9225 16.2488 16.9822 16.3418 17.0352C17.2048 17.526 18.3083 17.2348 18.8066 16.3848L19.2578 15.6152C19.756 14.765 19.4605 13.6775 18.5977 13.1865C18.505 13.1338 18.4088 13.0913 18.3115 13.0566C18.2644 13.0398 18.2347 12.9919 18.2422 12.9424C18.2899 12.6352 18.3164 12.3203 18.3164 12C18.3164 11.6796 18.2899 11.365 18.2422 11.0576C18.2345 11.008 18.2642 10.9602 18.3115 10.9434C18.4088 10.9089 18.505 10.8662 18.5977 10.8135C19.4605 10.3225 19.756 9.23496 19.2578 8.38477L18.8066 7.61523C18.3083 6.76518 17.2048 6.47399 16.3418 6.96484C16.2489 7.0177 16.1624 7.07777 16.083 7.14355C16.0449 7.17486 15.9899 7.17611 15.9512 7.14551C15.4543 6.75257 14.8955 6.43281 14.292 6.20117C14.2451 6.18312 14.2185 6.13344 14.2275 6.08398C14.2458 5.98453 14.2559 5.88188 14.2559 5.77734C14.2556 4.79583 13.4474 4.0002 12.4512 4H11.5498Z" fill="white"/>
</g>
</g>
</svg>
