<svg width="24" height="24" viewBox="0 0 24 24" fill="currentColor" xmlns="http://www.w3.org/2000/svg">
<mask id="mask0_1648_18176" style="mask-type:alpha" maskUnits="userSpaceOnUse" x="0" y="0" width="24" height="24">
<rect width="24" height="24" fill="currentColor"/>
</mask>
<g mask="url(#mask0_1648_18176)">
<mask id="mask1_1648_18176" style="mask-type:alpha" maskUnits="userSpaceOnUse" x="2" y="2" width="20" height="20">
<rect x="2" y="2" width="20" height="20" fill="currentColor"/>
</mask>
<g mask="url(#mask1_1648_18176)">
<path d="M10.886 3.08203C11.4227 2.3059 12.578 2.30568 13.1145 3.08203L15.7776 6.93848C15.9532 7.19262 16.2121 7.37861 16.51 7.46582L21.0305 8.78809C21.9407 9.05455 22.2977 10.1445 21.719 10.8906L18.845 14.5947C18.6555 14.839 18.5571 15.1411 18.5657 15.4492L18.6956 20.1221C18.7214 21.0632 17.7861 21.7363 16.8918 21.4209L12.4524 19.8555C12.1596 19.7522 11.8399 19.7522 11.5471 19.8555L7.10767 21.4209C6.21342 21.7363 5.27905 21.0632 5.30493 20.1221L5.43384 15.4492C5.44238 15.1411 5.34403 14.839 5.15454 14.5947L2.28052 10.8906C1.70178 10.1443 2.05953 9.05432 2.96997 8.78809L7.4895 7.46582C7.78744 7.37865 8.0463 7.19264 8.22192 6.93848L10.886 3.08203ZM13.1243 5.08398C12.8945 4.73941 12.4289 4.64639 12.0842 4.87598C11.7396 5.10574 11.6465 5.57137 11.8762 5.91602L13.8762 8.91602L13.9221 8.97754C14.1639 9.27081 14.5932 9.3394 14.9163 9.12402C15.2391 8.90865 15.3409 8.48624 15.1633 8.15039L15.1243 8.08398L13.1243 5.08398Z" fill="currentColor"/>
</g>
</g>
</svg>
