<svg width="24" height="24" viewBox="0 0 24 24" fill="none" xmlns="http://www.w3.org/2000/svg">
    <mask id="mask0_1659_24916" style="mask-type:alpha" maskUnits="userSpaceOnUse" x="0" y="0" width="24" height="24">
        <rect width="24" height="24" fill="#484A4C"/>
    </mask>
    <g mask="url(#mask0_1659_24916)">
        <mask id="mask1_1659_24916" style="mask-type:alpha" maskUnits="userSpaceOnUse" x="2" y="2" width="20" height="20">
            <path d="M2 2H22V22H2V2Z" fill="#484A4C"/>
            <path d="M2 2H22V22H2V2Z" fill="#484A4C"/>
        </mask>
        <g mask="url(#mask1_1659_24916)">
            <path d="M12 3C16.9706 3 21 7.02944 21 12C21 16.9706 16.9706 21 12 21C7.02944 21 3 16.9706 3 12C3 7.02944 7.02944 3 12 3ZM12 7C11.4477 7 11 7.44772 11 8V12.5C11 12.8573 11.1906 13.1876 11.5 13.3662L15.5 15.6758L15.5908 15.7217C16.0532 15.9297 16.6072 15.7581 16.8662 15.3096C17.1251 14.8612 16.997 14.2955 16.5859 13.999L16.5 13.9434L13 11.9219V8C13 7.44772 12.5523 7 12 7Z" fill="currentColor"/>
        </g>
    </g>
</svg>
