<svg width="24" height="24" viewBox="0 0 24 24" fill="currentColor" xmlns="http://www.w3.org/2000/svg">
<path d="M15 16V8C15 7.44772 15.4477 7 16 7C16.5523 7 17 7.44772 17 8V16C17 16.5523 16.5523 17 16 17C15.4477 17 15 16.5523 15 16Z" fill="currentColor"/>
<path d="M19 18L19 6C19 5.44772 19.4477 5 20 5C20.5523 5 21 5.44772 21 6L21 18C21 18.5523 20.5523 19 20 19C19.4477 19 19 18.5523 19 18Z" fill="currentColor"/>
<path d="M7.14282 8.14282L3.33641 8.14282C2.59838 8.14282 2.0001 8.72589 2.0001 9.44513L2.0001 14.5546C2.0001 15.2738 2.59838 15.8569 3.3364 15.8569L7.14282 15.8569L7.14282 8.14282Z" fill="currentColor"/>
<path d="M12.2854 7.29377C12.2854 6.37986 11.4679 5.75529 10.7171 6.09557L6.52466 7.99555C6.38023 8.06101 6.28556 8.21914 6.28556 8.39495L6.28556 15.6077C6.28556 15.7835 6.38022 15.9416 6.52466 16.0071L10.7171 17.907C11.4679 18.2473 12.2854 17.6228 12.2854 16.7088L12.2854 7.29377Z" fill="currentColor"/>
</svg>
