<svg width="140" height="120" viewBox="0 0 140 120" fill="none" xmlns="http://www.w3.org/2000/svg">
<circle cx="14" cy="106" r="6" fill="white"/>
<circle cx="36" cy="84" r="10" fill="white"/>
<path d="M89 0C94.12 0 98.766 2.02631 102.183 5.31934C109.461 1.05805 118.966 2.04853 125.209 8.29102C130.338 13.4201 131.92 20.7518 129.958 27.2412C135.934 30.4424 140 36.746 140 44C140 51.2538 135.934 57.5565 129.958 60.7578C131.92 67.2474 130.338 74.5796 125.209 79.709C118.778 86.1397 108.885 86.9962 101.531 82.2803C98.1863 85.2179 93.8016 87 89 87C84.3966 87 80.1759 85.3625 76.8877 82.6387C69.6005 86.9479 60.0537 85.9717 53.791 79.709C48.6617 74.5797 47.0787 67.2474 49.041 60.7578C43.0652 57.5564 39 51.2535 39 44C39 36.7464 43.065 30.4426 49.041 27.2412C47.0792 20.7519 48.662 13.42 53.791 8.29102C59.8554 2.22666 68.9989 1.12016 76.1885 4.96875C79.5667 1.88242 84.0636 0 89 0Z" fill="white"/>
</svg>
