<svg width="210" height="112" viewBox="0 0 210 112" fill="none" xmlns="http://www.w3.org/2000/svg">
<g clip-path="url(#clip0_1665_24964)">
<rect width="210" height="112" fill="#FFF2E0"/>
<g filter="url(#filter0_g_1665_24964)">
<path d="M33.3959 9.75067C33.7548 8.91245 32.9974 7.97259 32.1498 8.3059C20.9257 12.7198 14.5683 24.9737 17.7699 36.9225C21.2111 49.7649 34.3916 57.3916 47.2095 53.957C56.8886 51.3635 63.5927 43.2045 64.8142 33.8344C64.9322 32.9293 63.8377 32.4222 63.1131 32.9752C61.1551 34.4695 58.8794 35.614 56.3536 36.2908C45.9643 39.0746 35.2811 32.893 32.492 22.4838C31.3131 18.0842 31.7333 13.6335 33.3959 9.75067Z" fill="#FFDB58"/>
</g>
<g filter="url(#filter1_g_1665_24964)">
<ellipse cx="1.80497" cy="1.50414" rx="1.80497" ry="1.50414" transform="matrix(-0.866025 0.5 0.5 0.866025 36.2061 30.751)" fill="#292A2B"/>
</g>
<g filter="url(#filter2_g_1665_24964)">
<ellipse cx="1.80497" cy="1.50414" rx="1.80497" ry="1.50414" transform="matrix(-0.866025 0.5 0.5 0.866025 30.1348 34.1216)" fill="#292A2B"/>
</g>
<g filter="url(#filter3_g_1665_24964)">
<path d="M36.7798 36.4887C36.5541 36.0822 36.0421 35.9355 35.6355 36.1611L32.5998 37.8463L32.5259 37.8916C32.1758 38.1355 32.0607 38.6096 32.2721 38.9907C32.4838 39.372 32.9477 39.5253 33.3399 39.3567L33.4165 39.3183L36.4522 37.6331C36.8588 37.4074 37.0054 36.8953 36.7798 36.4887Z" fill="#292A2B"/>
</g>
<g filter="url(#filter4_g_1665_24964)">
<path d="M48.1868 12.4571C48.3376 12.237 48.6624 12.237 48.8132 12.4571L49.658 13.6897C49.7074 13.7617 49.7801 13.8145 49.8639 13.8392L51.2972 14.2618C51.5531 14.3372 51.6535 14.6461 51.4908 14.8576L50.5796 16.0419C50.5263 16.1111 50.4985 16.1966 50.5009 16.2839L50.542 17.7777C50.5493 18.0444 50.2866 18.2353 50.0352 18.1459L48.6272 17.6452C48.5449 17.616 48.4551 17.616 48.3728 17.6452L46.9648 18.1459C46.7134 18.2353 46.4506 18.0444 46.458 17.7777L46.4991 16.2839C46.5015 16.1966 46.4737 16.1111 46.4204 16.0419L45.5092 14.8576C45.3465 14.6461 45.4469 14.3372 45.7028 14.2618L47.1361 13.8392C47.2199 13.8145 47.2926 13.7617 47.342 13.6897L48.1868 12.4571Z" fill="#FFE5C0"/>
</g>
<g filter="url(#filter5_g_1665_24964)">
<path d="M18.1269 58.5698C18.0779 58.3075 18.3076 58.0779 18.5699 58.1268L20.0388 58.4011C20.1246 58.4171 20.2134 58.403 20.2901 58.3613L21.6024 57.6465C21.8367 57.5189 22.1261 57.6663 22.1606 57.9309L22.3537 59.4127C22.365 59.4993 22.4058 59.5794 22.4692 59.6394L23.5545 60.6666C23.7483 60.85 23.6975 61.1709 23.4565 61.2854L22.1069 61.9269C22.028 61.9644 21.9645 62.028 21.927 62.1069L21.2854 63.4565C21.1709 63.6975 20.8501 63.7483 20.6667 63.5545L19.6395 62.4692C19.5794 62.4058 19.4994 62.365 19.4128 62.3537L17.931 62.1606C17.6664 62.1261 17.5189 61.8367 17.6466 61.6024L18.3613 60.2901C18.4031 60.2134 18.4171 60.1246 18.4011 60.0387L18.1269 58.5698Z" fill="#FFE5C0"/>
</g>
<g filter="url(#filter6_g_1665_24964)">
<path d="M58.0313 26.9892C58.272 26.874 58.5533 27.0364 58.5738 27.3024L58.6891 28.7923C58.6959 28.8794 58.7324 28.9615 58.7926 29.0248L59.8227 30.1074C60.0066 30.3007 59.9391 30.6184 59.6924 30.7201L58.3111 31.2902C58.2303 31.3235 58.1636 31.3836 58.122 31.4605L57.4107 32.7746C57.2837 33.0093 56.9607 33.0432 56.7876 32.8401L55.8187 31.7025C55.762 31.636 55.6842 31.5911 55.5983 31.5753L54.1286 31.3049C53.8662 31.2566 53.7341 30.9599 53.8738 30.7326L54.6563 29.4595C54.702 29.3851 54.7207 29.2972 54.7092 29.2106L54.5122 27.7293C54.477 27.4649 54.7184 27.2475 54.9777 27.3101L56.4303 27.6609C56.5152 27.6814 56.6046 27.672 56.6834 27.6343L58.0313 26.9892Z" fill="#FFE5C0"/>
</g>
<path d="M94.3014 85.0162C98.9275 74.1113 116.35 59.4998 125.995 52.4361C126.892 51.7798 128.083 51.7304 129.045 52.2859L208.082 97.9174C208.894 98.3865 209.43 99.2222 209.453 100.16C209.775 113.229 202.487 135.314 198.413 145.716C198.229 146.186 198.177 146.694 198.243 147.195C200.778 166.262 188.518 179.687 180.096 185.452C178.726 186.389 178.414 188.344 178.249 189.996C177.921 193.291 173.922 196.258 171.425 197.561C166.654 200.121 153.371 192.568 145.732 187.427C144.569 186.645 142.885 186.738 141.49 186.859C137.67 187.189 130.74 185.077 127.071 183.698C118.106 180.09 117.05 172.863 117.809 168.504C117.98 167.523 117.603 166.487 116.741 165.989C115.708 165.393 114.41 165.811 113.613 166.698C109.064 171.764 100.099 168.296 95.8259 165.659C89.6999 162.122 87.3175 158.055 86.6343 154.989C86.2326 153.187 84.8167 151.251 83.0555 150.695C77.2679 148.867 69.6855 143.905 66.0401 141.191C57.64 135.118 62.2831 128.116 66.4969 124.609C67.224 124.004 67.6811 123.12 67.7038 122.174C68.1687 102.739 83.75 90.8343 92.6712 86.723C93.4124 86.3814 93.9827 85.7675 94.3014 85.0162Z" fill="#FFE5C0"/>
<mask id="mask0_1665_24964" style="mask-type:alpha" maskUnits="userSpaceOnUse" x="107" y="-28" width="156" height="156">
<rect x="163.866" y="-27.6113" width="113.577" height="113.577" transform="rotate(30 163.866 -27.6113)" fill="#D9D9D9"/>
</mask>
<g mask="url(#mask0_1665_24964)">
<ellipse cx="181.975" cy="54.5978" rx="42.49" ry="34.8294" transform="rotate(30 181.975 54.5978)" fill="#FFE5C0"/>
<mask id="mask1_1665_24964" style="mask-type:alpha" maskUnits="userSpaceOnUse" x="141" y="17" width="82" height="75">
<ellipse cx="181.975" cy="54.5978" rx="42.49" ry="34.8294" transform="rotate(30 181.975 54.5978)" fill="#FFF2E0"/>
</mask>
<g mask="url(#mask1_1665_24964)">
<path d="M181.321 49.8265C158.328 50.1965 147.491 35.3961 147.674 23.7049C147.692 22.5413 148.268 21.4762 149.132 20.6958L172.257 -0.194523C173.804 -1.5917 176.075 -1.83247 177.88 -0.79055L233.164 31.1282C234.957 32.1633 235.884 34.2307 235.464 36.2577L228.408 70.3255C228.06 72.006 226.842 73.4098 225.164 73.7762C207.882 77.5517 192.79 62.4425 185.87 52.1906C184.855 50.6861 183.136 49.7973 181.321 49.8265Z" fill="#FFAA33"/>
<path d="M180.448 42.6602C181.141 42.5436 181.764 43.0248 181.84 43.735C181.916 44.4451 181.416 45.1155 180.723 45.2321C178.465 45.6121 176.598 44.9071 175.223 43.9228C173.951 43.0127 173.052 41.8344 172.562 40.9256L172.47 40.7477L172.417 40.6284C172.19 40.0247 172.448 39.3047 173.032 38.9704C173.616 38.6361 174.319 38.806 174.663 39.3435L174.726 39.4562L174.86 39.7021C175.212 40.3077 175.851 41.1225 176.734 41.7548C177.725 42.464 178.968 42.9092 180.448 42.6602Z" fill="#292A2B"/>
<path d="M199.346 53.5711C200.039 53.4545 200.662 53.9357 200.738 54.6459C200.814 55.356 200.314 56.0264 199.621 56.143C197.362 56.523 195.496 55.818 194.12 54.8337C192.849 53.9236 191.949 52.7453 191.459 51.8364L191.368 51.6586L191.315 51.5393C191.088 50.9356 191.346 50.2156 191.93 49.8813C192.514 49.547 193.217 49.7169 193.56 50.2544L193.623 50.3671L193.757 50.613C194.109 51.2186 194.748 52.0334 195.632 52.6657C196.623 53.3749 197.865 53.8201 199.346 53.5711Z" fill="#292A2B"/>
</g>
<path d="M185.378 6.63636C181.03 5.11026 173.212 12.4409 168.774 17.4854C167.98 18.3877 168.093 19.7621 169.04 20.4963C178.315 27.6944 187.119 26.6673 191.481 24.7846C192.269 24.4444 192.694 23.6111 192.592 22.7586C191.938 17.2997 189.823 8.1964 185.378 6.63636Z" fill="#FFAA33"/>
<path d="M221.067 28.7879C224.563 31.7907 222.123 42.2265 219.974 48.5921C219.589 49.7306 218.343 50.32 217.234 49.8677C206.362 45.4338 202.85 37.2962 202.299 32.5768C202.199 31.7241 202.709 30.9397 203.498 30.6019C208.553 28.4391 217.494 25.7184 221.067 28.7879Z" fill="#FFAA33"/>
<path d="M182.12 56.7503C181.766 57.4442 181.415 58.335 181.431 59.2734C181.446 60.098 181.745 61.0565 182.811 62.0313L183.034 62.2269L183.113 62.2999C183.487 62.6819 183.518 63.2926 183.168 63.7118C182.819 64.1308 182.213 64.2093 181.77 63.9102L181.683 63.8459L181.377 63.5776C179.904 62.2256 179.348 60.728 179.323 59.3092C179.323 59.2969 179.323 59.2846 179.323 59.2723C178.724 59.5619 178.112 59.7452 177.514 59.8408C176.072 60.0713 174.676 59.8021 173.754 59.2881L173.576 59.182L173.488 59.119C173.069 58.7881 172.96 58.1871 173.253 57.7268C173.565 57.2357 174.217 57.0907 174.708 57.4031L174.89 57.5021C175.367 57.729 176.214 57.9132 177.181 57.7587C178.237 57.5898 179.398 57.0213 180.308 55.6803L182.12 56.7503Z" fill="#292A2B"/>
<path d="M183.805 51.8255C177.716 48.7188 178.324 54.2647 179.514 56.0723C180.41 57.4333 181.596 57.4721 181.977 57.4944C183.248 57.5689 184.337 57.2749 185.458 56.4716C187.547 54.9738 184.987 52.5082 183.805 51.8255Z" fill="#292A2B"/>
</g>
<rect x="110.029" y="47.3539" width="131.04" height="109.674" rx="19.04" transform="rotate(30 110.029 47.3539)" fill="#593B12" stroke="white" stroke-width="11.2"/>
<mask id="mask2_1665_24964" style="mask-type:alpha" maskUnits="userSpaceOnUse" x="123" y="98" width="38" height="37">
<rect x="137.12" y="98.1599" width="26.88" height="26.88" transform="rotate(30 137.12 98.1599)" fill="#D9D9D9"/>
</mask>
<g mask="url(#mask2_1665_24964)">
<mask id="mask3_1665_24964" style="mask-type:alpha" maskUnits="userSpaceOnUse" x="126" y="101" width="32" height="31">
<rect x="137.94" y="101.22" width="22.4" height="22.4" transform="rotate(30 137.94 101.22)" fill="#D9D9D9"/>
</mask>
<g mask="url(#mask3_1665_24964)">
<path d="M143.962 109.87C137.352 106.054 133.263 109.32 132.045 111.43C129.923 115.105 134.946 120.093 137.242 121.509C141.538 123.99 144.62 123.542 146.273 122.797C146.493 122.698 146.758 122.788 146.872 123.001C148.541 126.124 150.687 123.941 152.387 120.996C154.159 117.926 153.97 117.009 153.19 116.287C152.176 115.517 150.698 115.766 149.799 116.086C149.567 116.168 149.302 116.058 149.208 115.83C147.95 112.769 145.221 110.597 143.962 109.87Z" fill="white"/>
<circle cx="135.034" cy="112.475" r="0.622222" transform="rotate(30 135.034 112.475)" fill="#593B12"/>
<path d="M138.864 110.155C139.128 110.109 139.381 110.273 139.451 110.526L139.463 110.578L139.489 110.751C139.722 112.55 138.921 115.396 135.74 117.308L135.582 117.402C135.334 117.545 135.017 117.46 134.873 117.212C134.73 116.964 134.815 116.647 135.063 116.503L135.342 116.336C138.055 114.639 138.636 112.25 138.461 110.887L138.441 110.754L138.435 110.702C138.416 110.439 138.599 110.201 138.864 110.155Z" fill="#593B12"/>
</g>
</g>
<mask id="mask4_1665_24964" style="mask-type:alpha" maskUnits="userSpaceOnUse" x="81" y="102" width="37" height="38">
<rect x="94.5601" y="102.64" width="26.88" height="26.88" transform="rotate(30 94.5601 102.64)" fill="#D9D9D9"/>
</mask>
<g mask="url(#mask4_1665_24964)">
<mask id="mask5_1665_24964" style="mask-type:alpha" maskUnits="userSpaceOnUse" x="84" y="105" width="31" height="32">
<rect x="95.3799" y="105.7" width="22.4" height="22.4" transform="rotate(30 95.3799 105.7)" fill="#D9D9D9"/>
</mask>
<g mask="url(#mask5_1665_24964)">
<path d="M101.402 114.35C94.7922 110.534 90.7032 113.8 89.4849 115.91C87.3628 119.585 92.3864 124.573 94.6822 125.989C98.9781 128.47 102.06 128.022 103.713 127.277C103.933 127.178 104.198 127.268 104.312 127.481C105.981 130.604 108.127 128.421 109.827 125.476C111.599 122.406 111.41 121.489 110.63 120.767C109.615 119.997 108.138 120.246 107.239 120.566C107.007 120.648 106.742 120.538 106.648 120.31C105.39 117.249 102.661 115.077 101.402 114.35Z" fill="white"/>
</g>
</g>
<mask id="mask6_1665_24964" style="mask-type:alpha" maskUnits="userSpaceOnUse" x="102" y="64" width="37" height="38">
<rect x="115.509" y="64.7434" width="26.88" height="26.88" transform="rotate(30 115.509 64.7434)" fill="#D9D9D9"/>
</mask>
<g mask="url(#mask6_1665_24964)">
<mask id="mask7_1665_24964" style="mask-type:alpha" maskUnits="userSpaceOnUse" x="105" y="67" width="31" height="32">
<rect x="116.329" y="67.8032" width="22.4" height="22.4" transform="rotate(30 116.329 67.8032)" fill="#D9D9D9"/>
</mask>
<g mask="url(#mask7_1665_24964)">
<path d="M122.351 76.4535C115.741 72.6372 111.652 75.9032 110.434 78.0133C108.312 81.6889 113.335 86.6766 115.631 88.0929C119.927 90.5731 123.009 90.1253 124.662 89.3808C124.882 89.2816 125.147 89.3718 125.261 89.5848C126.93 92.7078 129.076 90.5241 130.776 87.5797C132.548 84.5099 132.359 83.593 131.579 82.8703C130.564 82.1002 129.087 82.3497 128.188 82.6692C127.956 82.7518 127.69 82.6416 127.597 82.4137C126.338 79.3526 123.61 77.1803 122.351 76.4535Z" fill="white"/>
<circle cx="113.423" cy="79.0585" r="0.622222" transform="rotate(30 113.423 79.0585)" fill="#593B12"/>
<path d="M117.253 76.7386C117.517 76.6929 117.769 76.8561 117.84 77.1091L117.852 77.1611L117.878 77.3344C118.11 79.1332 117.309 81.9791 114.129 83.8918L113.971 83.9852C113.723 84.1284 113.405 84.0434 113.262 83.7955C113.119 83.5475 113.204 83.2301 113.452 83.0869L113.73 82.9194C116.444 81.2221 117.024 78.834 116.85 77.4705L116.83 77.3376L116.823 77.2851C116.805 77.0229 116.988 76.7843 117.253 76.7386Z" fill="#593B12"/>
<path d="M128.76 85.6383C128.992 85.7603 129.1 86.0413 129 86.2905C128.9 86.5396 128.628 86.6685 128.376 86.5959L128.325 86.5785L126.964 86.0322C126.698 85.9255 126.57 85.6237 126.676 85.3579C126.783 85.0922 127.085 84.9632 127.35 85.0699L128.712 85.6162L128.76 85.6383Z" fill="#593B12"/>
<path d="M128.006 87.3585C128.239 87.4805 128.346 87.7615 128.246 88.0107C128.146 88.2598 127.875 88.3887 127.622 88.3161L127.572 88.2987L126.211 87.7524C125.945 87.6457 125.816 87.3439 125.923 87.0781C126.029 86.8124 126.331 86.6834 126.597 86.7901L127.958 87.3364L128.006 87.3585Z" fill="#593B12"/>
</g>
</g>
<mask id="mask8_1665_24964" style="mask-type:alpha" maskUnits="userSpaceOnUse" x="168" y="102" width="37" height="38">
<rect x="181.465" y="102.823" width="26.88" height="26.88" transform="rotate(30 181.465 102.823)" fill="#D9D9D9"/>
</mask>
<g mask="url(#mask8_1665_24964)">
<mask id="mask9_1665_24964" style="mask-type:alpha" maskUnits="userSpaceOnUse" x="171" y="105" width="31" height="32">
<rect x="182.285" y="105.883" width="22.4" height="22.4" transform="rotate(30 182.285 105.883)" fill="#D9D9D9"/>
</mask>
<g mask="url(#mask9_1665_24964)">
<path d="M188.307 114.533C181.697 110.717 177.608 113.983 176.39 116.093C174.268 119.769 179.291 124.756 181.587 126.173C185.883 128.653 188.965 128.205 190.618 127.461C190.838 127.361 191.103 127.452 191.217 127.665C192.886 130.788 195.032 128.604 196.732 125.66C198.504 122.59 198.315 121.673 197.535 120.95C196.52 120.18 195.043 120.43 194.144 120.749C193.912 120.832 193.646 120.721 193.553 120.493C192.295 117.432 189.566 115.26 188.307 114.533Z" fill="white"/>
</g>
</g>
<path d="M156.615 70.1394C154.211 74.303 147.368 74.8526 141.331 71.367C135.294 67.8815 132.349 61.6807 134.753 57.5171C137.156 53.3536 142.693 55.0656 148.731 58.5511C154.768 62.0367 159.019 65.9759 156.615 70.1394Z" fill="#FFE5C0"/>
<path d="M209.255 99.2595C206.851 103.423 200.008 103.973 193.971 100.487C187.934 97.0016 184.988 90.8008 187.392 86.6372C189.796 82.4737 195.333 84.1857 201.37 87.6712C207.407 91.1568 211.658 95.096 209.255 99.2595Z" fill="#FFE5C0"/>
<path d="M199.119 101.286C200.62 99.8957 202.318 97.0643 201.735 93.9127" stroke="#FFAA33" stroke-width="3.024" stroke-linecap="round"/>
<path d="M137.687 67.0904C138.141 65.0951 139.744 62.2087 142.765 61.1381" stroke="#FFAA33" stroke-width="3.024" stroke-linecap="round"/>
<path d="M191.672 98.1362C193.362 96.981 195.458 94.4299 195.344 91.2283" stroke="#FFAA33" stroke-width="3.024" stroke-linecap="round"/>
<path d="M144.138 71.9638C144.294 69.9228 145.455 66.8318 148.285 65.3301" stroke="#FFAA33" stroke-width="3.024" stroke-linecap="round"/>
<rect x="203" y="84" width="9" height="14" fill="#FFE5C0"/>
</g>
<defs>
<filter id="filter0_g_1665_24964" x="16.6226" y="7.91727" width="48.5199" height="47.1828" filterUnits="userSpaceOnUse" color-interpolation-filters="sRGB">
<feFlood flood-opacity="0" result="BackgroundImageFix"/>
<feBlend mode="normal" in="SourceGraphic" in2="BackgroundImageFix" result="shape"/>
<feTurbulence type="fractalNoise" baseFrequency="0.78177082538604736 0.78177082538604736" numOctaves="3" seed="6841" />
<feDisplacementMap in="shape" scale="0.63957363367080688" xChannelSelector="R" yChannelSelector="G" result="displacedImage" width="100%" height="100%" />
<feMerge result="effect1_texture_1665_24964">
<feMergeNode in="displacedImage"/>
</feMerge>
</filter>
<filter id="filter1_g_1665_24964" x="33.3404" y="31.0516" width="4.1093" height="3.80925" filterUnits="userSpaceOnUse" color-interpolation-filters="sRGB">
<feFlood flood-opacity="0" result="BackgroundImageFix"/>
<feBlend mode="normal" in="SourceGraphic" in2="BackgroundImageFix" result="shape"/>
<feTurbulence type="fractalNoise" baseFrequency="0.78177082538604736 0.78177082538604736" numOctaves="3" seed="6841" />
<feDisplacementMap in="shape" scale="0.63957363367080688" xChannelSelector="R" yChannelSelector="G" result="displacedImage" width="100%" height="100%" />
<feMerge result="effect1_texture_1665_24964">
<feMergeNode in="displacedImage"/>
</feMerge>
</filter>
<filter id="filter2_g_1665_24964" x="27.2691" y="34.4222" width="4.1093" height="3.80925" filterUnits="userSpaceOnUse" color-interpolation-filters="sRGB">
<feFlood flood-opacity="0" result="BackgroundImageFix"/>
<feBlend mode="normal" in="SourceGraphic" in2="BackgroundImageFix" result="shape"/>
<feTurbulence type="fractalNoise" baseFrequency="0.78177082538604736 0.78177082538604736" numOctaves="3" seed="6841" />
<feDisplacementMap in="shape" scale="0.63957363367080688" xChannelSelector="R" yChannelSelector="G" result="displacedImage" width="100%" height="100%" />
<feMerge result="effect1_texture_1665_24964">
<feMergeNode in="displacedImage"/>
</feMerge>
</filter>
<filter id="filter3_g_1665_24964" x="31.8462" y="35.7354" width="5.3593" height="4.0092" filterUnits="userSpaceOnUse" color-interpolation-filters="sRGB">
<feFlood flood-opacity="0" result="BackgroundImageFix"/>
<feBlend mode="normal" in="SourceGraphic" in2="BackgroundImageFix" result="shape"/>
<feTurbulence type="fractalNoise" baseFrequency="0.78177082538604736 0.78177082538604736" numOctaves="3" seed="6841" />
<feDisplacementMap in="shape" scale="0.63957363367080688" xChannelSelector="R" yChannelSelector="G" result="displacedImage" width="100%" height="100%" />
<feMerge result="effect1_texture_1665_24964">
<feMergeNode in="displacedImage"/>
</feMerge>
</filter>
<filter id="filter4_g_1665_24964" x="45.2403" y="12.1021" width="6.5194" height="6.25597" filterUnits="userSpaceOnUse" color-interpolation-filters="sRGB">
<feFlood flood-opacity="0" result="BackgroundImageFix"/>
<feBlend mode="normal" in="SourceGraphic" in2="BackgroundImageFix" result="shape"/>
<feTurbulence type="fractalNoise" baseFrequency="1.7555555105209351 1.7555555105209351" numOctaves="3" seed="6841" />
<feDisplacementMap in="shape" scale="0.37974682450294495" xChannelSelector="R" yChannelSelector="G" result="displacedImage" width="100%" height="100%" />
<feMerge result="effect1_texture_1665_24964">
<feMergeNode in="displacedImage"/>
</feMerge>
</filter>
<filter id="filter5_g_1665_24964" x="17.4102" y="57.41" width="6.45299" height="6.45323" filterUnits="userSpaceOnUse" color-interpolation-filters="sRGB">
<feFlood flood-opacity="0" result="BackgroundImageFix"/>
<feBlend mode="normal" in="SourceGraphic" in2="BackgroundImageFix" result="shape"/>
<feTurbulence type="fractalNoise" baseFrequency="1.7555555105209351 1.7555555105209351" numOctaves="3" seed="6841" />
<feDisplacementMap in="shape" scale="0.37974682450294495" xChannelSelector="R" yChannelSelector="G" result="displacedImage" width="100%" height="100%" />
<feMerge result="effect1_texture_1665_24964">
<feMergeNode in="displacedImage"/>
</feMerge>
</filter>
<filter id="filter6_g_1665_24964" x="53.6275" y="26.7618" width="6.48961" height="6.40172" filterUnits="userSpaceOnUse" color-interpolation-filters="sRGB">
<feFlood flood-opacity="0" result="BackgroundImageFix"/>
<feBlend mode="normal" in="SourceGraphic" in2="BackgroundImageFix" result="shape"/>
<feTurbulence type="fractalNoise" baseFrequency="1.7555555105209351 1.7555555105209351" numOctaves="3" seed="6841" />
<feDisplacementMap in="shape" scale="0.37974682450294495" xChannelSelector="R" yChannelSelector="G" result="displacedImage" width="100%" height="100%" />
<feMerge result="effect1_texture_1665_24964">
<feMergeNode in="displacedImage"/>
</feMerge>
</filter>
<clipPath id="clip0_1665_24964">
<rect width="210" height="112" fill="white"/>
</clipPath>
</defs>
</svg>
