<svg width="24" height="24" viewBox="0 0 24 24" fill="none" xmlns="http://www.w3.org/2000/svg">
<mask id="mask0_1239_6199" style="mask-type:alpha" maskUnits="userSpaceOnUse" x="0" y="0" width="24" height="24">
<rect width="24" height="24" fill="#D9D9D9"/>
</mask>
<g mask="url(#mask0_1239_6199)">
<mask id="mask1_1239_6199" style="mask-type:alpha" maskUnits="userSpaceOnUse" x="2" y="2" width="20" height="20">
<rect x="2" y="2" width="20" height="20" fill="#D9D9D9"/>
</mask>
<g mask="url(#mask1_1239_6199)">
<ellipse cx="12" cy="13.2659" rx="10" ry="8.19704" fill="#F0F2F4"/>
<mask id="mask2_1239_6199" style="mask-type:alpha" maskUnits="userSpaceOnUse" x="2" y="5" width="20" height="17">
<ellipse cx="12" cy="13.2659" rx="10" ry="8.19704" fill="#FFF2E0"/>
</mask>
<g mask="url(#mask2_1239_6199)">
<path d="M11.6565 12.27C6.88825 15.2177 2.82391 13.3817 1.52328 10.9032C1.42805 10.7217 1.42119 10.5091 1.48422 10.314L3.83582 3.03597C3.94866 2.68673 4.27384 2.45003 4.64078 2.45003L20.0776 2.45003C20.4421 2.45003 20.7655 2.68369 20.8799 3.02978L23.5667 11.1549C23.6616 11.4418 23.5989 11.7614 23.3809 11.9709C20.2486 14.9806 15.1634 13.5455 12.5545 12.2306C12.2691 12.0867 11.9284 12.1019 11.6565 12.27Z" fill="#CED4DA"/>
</g>
<path d="M7.04935 3.01787C5.98348 3.21852 5.2527 5.6326 4.94177 7.18298C4.88616 7.4603 5.07092 7.72713 5.35018 7.76544C8.08777 8.14103 9.7612 6.89575 10.4288 5.99866C10.5494 5.83656 10.5379 5.61675 10.4168 5.45503C9.64107 4.41939 8.13893 2.81276 7.04935 3.01787Z" fill="#CED4DA"/>
<path d="M16.9304 3.33282C17.9963 3.53346 18.727 5.94754 19.038 7.49793C19.0936 7.77524 18.9088 8.04207 18.6296 8.08038C15.892 8.45597 14.2185 7.21069 13.5509 6.3136C13.4303 6.1515 13.4418 5.93169 13.5629 5.76997C14.3387 4.73433 15.8408 3.1277 16.9304 3.33282Z" fill="#CED4DA"/>
<mask id="mask3_1239_6199" style="mask-type:alpha" maskUnits="userSpaceOnUse" x="7" y="8" width="10" height="10">
<rect x="7" y="8" width="10" height="10" fill="#484A4C"/>
</mask>
<g mask="url(#mask3_1239_6199)">
<mask id="mask4_1239_6199" style="mask-type:alpha" maskUnits="userSpaceOnUse" x="7" y="8" width="10" height="10">
<path d="M7.83325 8.8335H16.1666V17.1668H7.83325V8.8335Z" fill="#484A4C"/>
<path d="M7.83325 8.8335H16.1666V17.1668H7.83325V8.8335Z" fill="#484A4C"/>
</mask>
<g mask="url(#mask4_1239_6199)">
<path d="M11.336 10.2648C11.3702 9.92915 11.654 9.66553 11.9987 9.66553C12.3433 9.66553 12.6271 9.92915 12.6613 10.2648L12.6649 10.3317L12.6637 12.335L14.667 12.3338L14.7351 12.3385C15.0707 12.3728 15.3332 12.6554 15.3332 13C15.3332 13.3447 15.0707 13.6273 14.7351 13.6615L14.667 13.6662L12.6637 13.6651L12.6649 15.6683L12.6602 15.7365C12.6258 16.072 12.3432 16.3345 11.9987 16.3345C11.6541 16.3345 11.3715 16.072 11.3372 15.7365L11.3325 15.6683L11.3313 13.6651H9.33153L9.26338 13.6627C8.92778 13.6285 8.6665 13.3447 8.6665 13C8.6665 12.6554 8.92778 12.3716 9.26338 12.3374L9.33153 12.335H11.3313L11.3325 10.3317L11.336 10.2648Z" fill="#7C7F83"/>
</g>
</g>
</g>
</g>
</svg>
