<svg width="161" height="167" viewBox="0 0 161 167" fill="none" xmlns="http://www.w3.org/2000/svg">
<path d="M6.88312 72.1266C-4.32097 90.6706 0.630839 129.62 4.50725 146.776C-2.99549 167.713 22.2637 163.102 25.765 161.108C28.566 159.513 30.6001 160.443 31.267 161.108C32.6734 162.51 33.7929 165.57 41.8959 165.968C49.9989 166.367 54.859 162.894 56.2762 161.108C58.1768 158.516 63.438 158.896 64.2791 159.488C71.7818 164.772 79.7847 164.348 83.5361 164.348C110.546 164.348 119.424 149.892 119.424 127.958C120.825 95.2568 102.085 75.9484 92.5394 70.3818C40.6204 40.5075 13.8023 59.0973 6.88312 72.1266Z" fill="#FFE5C0"/>
<path d="M7.42057 160.381C6.72574 158.135 6.66256 154.343 9.05311 151.543" stroke="#FFAA33" stroke-width="4" stroke-linecap="round"/>
<path d="M37.4316 164.369C36.7367 162.123 36.6735 158.331 39.0641 155.531" stroke="#FFAA33" stroke-width="4" stroke-linecap="round"/>
<path d="M15.3092 161.658C14.6144 159.413 14.5512 155.62 16.9418 152.82" stroke="#FFAA33" stroke-width="4" stroke-linecap="round"/>
<path d="M47.6487 164.512C46.6311 162.392 46.0108 158.65 47.9637 155.531" stroke="#FFAA33" stroke-width="4" stroke-linecap="round"/>
<ellipse cx="47.7674" cy="48.3541" rx="47.7674" ry="38.8827" fill="#FFE5C0"/>
<mask id="mask0_1198_2125" style="mask-type:alpha" maskUnits="userSpaceOnUse" x="0" y="9" width="96" height="79">
<ellipse cx="47.7674" cy="48.3541" rx="47.7674" ry="38.8827" fill="#FFD58D"/>
</mask>
<g mask="url(#mask0_1198_2125)">
<path d="M41.2687 44.8099C18.5008 58.3605 -0.911102 42.1877 -7.14148 29.8798C-7.59834 28.9773 -7.622 27.9297 -7.28452 26.9764L2.98779 -2.03776C3.5718 -3.6873 5.16061 -4.76517 6.90958 -4.69835L81.6213 -1.84383C83.2869 -1.7802 84.7389 -0.690504 85.2656 0.891041L98.1378 39.5476C98.5919 40.9112 98.2928 42.431 97.2534 43.4229C82.2782 57.7137 57.9567 50.8816 45.5044 44.6395C44.1601 43.9656 42.5604 44.0411 41.2687 44.8099Z" fill="#FFAA33"/>
</g>
<path d="M24.1197 0.084786C19.0283 1.03657 15.5376 12.4878 14.0524 19.842C13.7867 21.1574 14.6693 22.4231 16.0032 22.6049C29.08 24.3865 37.0735 18.4795 40.2625 14.2241C40.8388 13.4552 40.7838 12.4126 40.2051 11.6454C36.4997 6.73288 29.3244 -0.88816 24.1197 0.084786Z" fill="#FFAA33"/>
<path d="M71.3183 1.58027C76.4096 2.53205 79.9004 13.9832 81.3856 21.3375C81.6513 22.6529 80.7687 23.9186 79.4348 24.1003C66.358 25.882 58.3645 19.975 55.1755 15.7196C54.5992 14.9507 54.6542 13.908 55.2328 13.1409C58.9383 8.22837 66.1136 0.607323 71.3183 1.58027Z" fill="#FFAA33"/>
<path d="M36.5132 56.7039C38.764 56.787 43.3657 55.7817 43.7658 51.0958C43.8909 53.1313 45.4915 57.4018 50.8934 58.1994" stroke="#292A2B" stroke-width="3.5" stroke-linecap="round"/>
<path d="M44.0158 45.1139C38.7639 45.2385 40.1394 50.4104 42.2652 51.4697C43.8658 52.2673 45.0162 51.6566 45.3913 51.4697C46.6418 50.8466 47.5171 49.9742 48.1423 48.6033C49.308 46.0474 45.5163 45.1139 44.0158 45.1139Z" fill="#292A2B"/>
<ellipse cx="31.0114" cy="40.5028" rx="3.75137" ry="4.61109" fill="#292A2B"/>
<ellipse cx="56.6459" cy="40.6111" rx="3.62632" ry="4.61109" fill="#292A2B"/>
<path d="M133.429 90.4116C128.14 113.03 117.087 120.926 111.437 122.33C110.872 122.471 110.343 122.74 109.951 123.171L101.239 132.755C100.167 133.934 100.455 135.799 101.832 136.597L105.496 138.721C105.895 138.953 106.344 139.073 106.806 139.048C117.313 138.473 139.813 130.764 151.229 103.731C162.904 76.0827 153.793 69.3934 148.857 67.7019C139.366 64.4491 134.617 81.4864 133.429 90.4116Z" fill="#FFE5C0"/>
<mask id="mask1_1198_2125" style="mask-type:alpha" maskUnits="userSpaceOnUse" x="100" y="67" width="57" height="73">
<path d="M133.429 90.4116C128.14 113.03 117.087 120.926 111.437 122.33C110.872 122.471 110.343 122.74 109.951 123.171L101.239 132.755C100.167 133.934 100.455 135.799 101.832 136.597L105.496 138.721C105.895 138.953 106.344 139.073 106.806 139.048C117.313 138.473 139.813 130.764 151.229 103.731C162.904 76.0827 153.793 69.3934 148.857 67.7019C139.366 64.4491 134.617 81.4864 133.429 90.4116Z" fill="#F99F51"/>
</mask>
<g mask="url(#mask1_1198_2125)">
<path d="M156.212 92.4129C149.838 88.358 137.245 85.8518 131.744 85.1056C134.014 77.6196 138.681 62.656 139.19 62.6899C139.699 62.7238 154.69 65.5982 162.122 67.0311L156.212 92.4129Z" fill="#FFAA33"/>
<path d="M127.069 102.512L129.567 93.2126C139.821 94.0114 149.745 99.9271 153.426 102.785L147.959 113.974C141.131 107.753 131.188 103.741 127.069 102.512Z" fill="#FFAA33"/>
<path d="M124.906 109.6L118.999 117.605C125.296 121.946 130.697 128.399 132.611 131.083L141.16 122.89C139.38 118.325 129.583 112.128 124.906 109.6Z" fill="#FFAA33"/>
</g>
</svg>
