<svg width="134" height="120" viewBox="0 0 134 120" fill="none" xmlns="http://www.w3.org/2000/svg">
<path d="M132.303 50.3312C132.256 50.1602 132.995 49.9613 132.948 49.7904C132.849 49.4361 132.808 49.0413 132.694 48.6808C132.579 48.3202 131.679 48.2394 131.552 47.8851C131.425 47.5308 131.959 46.9371 131.819 46.589C131.679 46.2409 131.05 46.1041 130.898 45.7591C130.746 45.4141 130.867 44.9541 130.699 44.6185C130.532 44.2828 129.933 44.1802 129.756 43.8507C129.579 43.5213 129.964 42.8841 129.775 42.5609C129.585 42.2376 129.375 41.9206 129.173 41.6036C128.971 41.2865 128.425 41.2057 128.211 40.898C127.997 40.5903 127.966 40.1583 127.74 39.8599C127.513 39.5615 127.132 39.3937 126.893 39.1015C126.654 38.8094 126.546 38.4239 126.294 38.1411C126.043 37.8583 125.637 37.7433 125.373 37.4729C125.109 37.2025 124.858 36.9476 124.585 36.6896C124.312 36.4316 124.231 35.9778 123.946 35.7323C123.661 35.4868 123.304 35.3376 123.012 35.1045C122.721 34.8714 122.535 34.5015 122.231 34.2808C121.927 34.0601 121.806 33.5628 121.492 33.3546C121.179 33.1463 120.81 33.0096 120.487 32.8138C120.165 32.618 119.529 32.9878 119.197 32.8107C118.865 32.6335 118.552 32.4657 118.214 32.3009C117.876 32.1362 117.593 31.8938 117.246 31.7446C116.898 31.5954 116.399 31.4711 116.048 31.3343C116.039 30.9644 116.166 30.4423 116.148 30.0724C116.129 29.7025 116.362 29.3171 116.334 28.9504C116.306 28.5836 115.779 28.2635 115.738 27.8967C115.698 27.5299 116.194 27.0979 116.142 26.7343C116.089 26.3706 115.775 26.0412 115.713 25.6775C115.651 25.3139 115.695 24.9316 115.623 24.5679C115.552 24.2042 115.164 23.9152 115.081 23.5578C114.997 23.2003 115.217 22.7652 115.121 22.4109C115.081 22.2617 114.705 22.3642 114.662 22.215C114.566 21.8669 114.823 21.4131 114.711 21.0619C114.6 20.7107 114.302 20.4341 114.178 20.086C114.054 19.7379 113.713 19.4923 113.579 19.1473C113.446 18.8023 113.613 18.3547 113.468 18.016C113.322 17.6772 112.999 17.4347 112.841 17.0991C112.683 16.7634 112.757 16.3314 112.59 16.005C112.422 15.6786 111.845 15.5854 111.665 15.2622C111.485 14.9389 111.324 14.6343 111.135 14.3204C110.946 14.0065 111.296 13.3662 111.095 13.0554C110.893 12.7446 110.62 12.4897 110.412 12.1882C110.204 11.8867 110.108 11.4982 109.888 11.206C109.668 10.9139 109.457 10.6031 109.224 10.3202C108.991 10.0374 108.557 9.92239 108.315 9.64577C108.073 9.36914 107.611 9.30698 107.36 9.04279C107.109 8.7786 107.217 8.16008 106.953 7.9021C106.69 7.64413 106.383 7.43277 106.11 7.18723C105.837 6.94169 105.219 7.10953 104.937 6.87331C104.655 6.63709 104.63 6.09628 104.338 5.87249C104.047 5.64871 103.898 5.226 103.597 5.01465C103.296 4.8033 102.834 4.83127 102.524 4.63235C102.214 4.43343 101.742 4.52667 101.423 4.34019C101.103 4.1537 101.075 3.46058 100.753 3.28964C100.43 3.11869 99.7816 3.60356 99.4497 3.44504C99.1178 3.28653 99.0868 2.49085 98.7487 2.34476C98.4106 2.19868 97.8646 2.58409 97.5234 2.45355C97.2877 2.36341 97.3311 2.25152 97.0922 2.16449C96.7448 2.03706 96.5401 1.49935 96.1926 1.38746C95.8452 1.27557 95.2776 1.89098 94.927 1.79463C94.5765 1.69827 94.3935 0.927457 94.0368 0.843538C93.68 0.759618 93.1837 1.32219 92.827 1.25381C92.4703 1.18543 92.1632 0.831105 91.8033 0.778267C91.4435 0.725429 91.0589 0.859079 90.6959 0.818673C90.333 0.778267 90.0042 0.352453 89.6382 0.327588C89.2721 0.302723 88.8875 0.74097 88.5214 0.731646C88.1554 0.722321 87.8018 0.72543 87.4358 0.731646C87.0697 0.737862 86.6913 0.296507 86.3252 0.315156C85.9592 0.333805 85.6211 0.728537 85.2582 0.762727C84.8952 0.796916 84.523 0.725429 84.1601 0.775159C83.7971 0.82489 83.4714 1.06111 83.1085 1.12327C82.7456 1.18543 82.4198 1.35949 82.0631 1.43408C81.7064 1.50868 81.2039 0.955431 80.8471 1.04246C80.4904 1.12949 80.112 1.173 79.7614 1.27557C79.4109 1.37814 78.9952 1.32841 78.6478 1.44341C78.3004 1.55841 78.105 2.13652 77.7607 2.26395C77.4163 2.39139 77.193 2.81409 76.8549 2.95085C76.5168 3.08761 76.0918 3.01923 75.7599 3.16842C75.428 3.31761 74.9379 3.15288 74.609 3.3145C74.2802 3.47612 74.2492 4.21897 73.9266 4.38991C73.604 4.56086 73.0891 4.3837 72.7758 4.56708C72.4625 4.75046 72.2298 5.08303 71.9227 5.27573C71.6156 5.46844 71.1131 5.3783 70.8091 5.58033C70.6509 5.68601 70.5113 5.48087 70.3531 5.58965C70.0491 5.7979 70.1763 6.62466 69.8785 6.84534C69.5807 7.06602 69.0596 6.9821 68.768 7.2121C68.4764 7.4421 68.433 7.96737 68.1476 8.2067C67.8622 8.44602 67.3721 8.41184 67.096 8.65738C66.8386 8.42738 66.6276 8.16629 66.3609 7.94251C66.0941 7.71872 65.5606 7.83683 65.2907 7.62237C65.0208 7.40791 64.8595 7.06291 64.5803 6.85466C64.3012 6.64642 63.963 6.54385 63.6808 6.34493C63.5598 6.26101 63.9444 5.69844 63.8234 5.61452C63.5257 5.40938 62.8556 5.7606 62.5454 5.56168C62.2352 5.36276 62.1018 4.89965 61.7854 4.71316C61.469 4.52667 61.3481 3.99518 61.0255 3.81802C60.7029 3.64086 60.343 3.51964 60.0173 3.35491C59.6916 3.19018 59.0867 3.59734 58.7548 3.44194C58.4229 3.28653 58.2337 2.82963 57.8956 2.68355C57.5574 2.53747 57.0704 2.79234 56.7292 2.66179C56.388 2.53125 56.0623 2.39139 55.718 2.27017C55.3736 2.14895 55.1565 1.64544 54.806 1.53976C54.4555 1.43408 54.1142 1.28489 53.7606 1.19165C53.407 1.09841 53.1154 0.719212 52.7587 0.638401C52.4019 0.55759 51.9553 0.874619 51.5954 0.80624C51.2356 0.737861 50.8447 0.890161 50.4818 0.837322C50.1189 0.784484 49.7777 0.635293 49.4116 0.594887C49.0456 0.554482 48.723 0.0292075 48.357 0.00123432C47.9909 -0.0267389 47.597 0.430156 47.2309 0.417724C46.8649 0.405291 46.5082 0.709888 46.139 0.712997C45.7699 0.716105 45.4163 0.585564 45.0502 0.604212C44.6842 0.622861 44.2934 0.218803 43.9273 0.249885C43.5613 0.280966 43.279 0.964756 42.913 1.01449C42.5469 1.06422 42.1127 0.560698 41.7497 0.62286C41.3868 0.685023 41.0487 0.852863 40.6889 0.930566C40.329 1.00827 39.9103 0.831106 39.5535 0.92435C39.1968 1.01759 39.0541 1.82881 38.7005 1.9376C38.3469 2.04638 37.742 1.34084 37.3914 1.45895C37.1495 1.54287 37.3883 2.21422 37.1495 2.30125C36.8021 2.42868 36.3492 2.26085 36.0142 2.3976C35.6791 2.53436 35.5178 3.08761 35.1859 3.23991C34.854 3.39221 34.1809 2.84828 33.8583 3.01301C33.5357 3.17774 33.2813 3.51964 32.9618 3.69991C32.6423 3.88018 32.6485 4.6137 32.3383 4.80641C32.0281 4.99911 31.5814 4.96803 31.2805 5.17316C30.9796 5.3783 30.3158 5.08614 30.0211 5.30371C29.7264 5.52128 29.652 6.05276 29.3666 6.27966C29.0812 6.50655 29.0843 7.08466 28.8083 7.32399C28.5322 7.56332 28.0452 7.56332 27.7784 7.81197C27.5116 8.06062 26.9936 8.06683 26.7361 8.32792C26.4787 8.589 26.6586 9.26968 26.4135 9.54009C26.1685 9.81049 25.6659 9.85401 25.4302 10.1337C25.1944 10.4135 25.0269 10.7554 24.8036 11.0444C24.5802 11.3335 24.512 11.7375 24.298 12.0359C24.0839 12.3343 23.6372 12.4711 23.4356 12.7757C23.234 13.0802 22.9021 13.3134 22.7098 13.6242C22.5174 13.935 22.4368 14.3266 22.2569 14.6436C22.0769 14.9607 21.714 15.1938 21.5434 15.517C21.3728 15.8403 21.3356 16.2443 21.1774 16.5738C21.0192 16.9032 20.6221 17.1395 20.4732 17.472C20.3243 17.8046 20.4081 18.2553 20.2716 18.5941C20.1351 18.9329 19.9707 19.2748 19.8466 19.6166C19.7225 19.9585 19.7536 20.3688 19.6419 20.7138C19.5302 21.0588 19.3844 21.4069 19.2821 21.7582C19.2293 21.9415 19.4279 21.9975 19.3782 22.1809C19.2759 22.5507 19.1642 22.9113 19.0742 23.2811C18.9843 23.651 18.7795 23.996 18.702 24.369C18.6244 24.742 18.4135 25.0932 18.3453 25.4693C18.277 25.8453 18.3577 26.2463 18.3018 26.6255C18.246 27.0047 18.3949 27.4056 18.3546 27.7848C18.3142 28.164 18.246 28.537 18.215 28.9193C18.184 29.3016 18.1064 29.6746 18.0847 30.0569C18.063 30.4392 18.2739 31.0484 18.2646 31.4307C17.9203 31.5643 17.2999 31.6109 16.968 31.757C16.6361 31.9031 16.2886 32.0336 15.9598 32.1921C15.631 32.3507 15.2247 32.3724 14.9021 32.5465C14.5795 32.7205 14.1359 32.7081 13.8226 32.8977C13.5093 33.0873 13.4069 33.6281 13.1029 33.8301C12.7989 34.0322 12.5818 34.3585 12.2871 34.573C11.9924 34.7874 11.5488 34.8092 11.2634 35.0361C10.9781 35.263 10.8633 35.6981 10.5872 35.9374C10.3111 36.1768 10.0506 36.4254 9.78379 36.6741C9.51702 36.9227 9.20992 37.1279 8.95556 37.3889C8.7012 37.65 8.51508 37.9733 8.27312 38.2437C8.03117 38.5141 7.24326 38.3307 7.01061 38.6135C6.77797 38.8964 6.63838 39.2756 6.41503 39.5677C6.19169 39.8599 6.5236 40.5592 6.31267 40.8607C6.10173 41.1622 5.60542 41.2617 5.40689 41.5694C5.20836 41.8771 5.19595 42.2998 5.00984 42.6137C4.82372 42.9276 4.03271 42.909 3.8559 43.2291C3.67908 43.5493 3.58602 43.9378 3.42472 44.2641C3.26342 44.5905 3.12383 44.951 2.97183 45.2836C2.81984 45.6162 3.06489 46.1321 2.9284 46.4709C2.79192 46.8097 2.17772 46.9775 2.05054 47.3194C1.92336 47.6613 1.79308 48.0281 1.68141 48.3731C1.56974 48.7181 1.64418 49.147 1.54182 49.4951C1.49219 49.6629 1.30607 49.6132 1.25954 49.7811C1.16027 50.1416 1.58835 50.6482 1.50149 51.0119C1.41464 51.3755 1.31537 51.733 1.24092 52.0997C1.16648 52.4665 0.753913 52.7742 0.691873 53.1409C0.629834 53.5077 0.620529 53.8962 0.567795 54.2661C0.515061 54.636 0.701179 55.04 0.663956 55.413C0.626732 55.786 0.142822 56.1248 0.114904 56.5008C0.0869864 56.8769 0.0125392 57.2592 0.000131224 57.6353C-0.0122767 58.0114 0.859381 58.4061 0.856279 58.7791C0.853177 59.1521 0.620528 59.5219 0.629834 59.8949C0.639139 60.2679 0.465429 60.6502 0.487143 61.0232C0.508856 61.3961 0.276208 61.794 0.307228 62.167C0.338248 62.5399 0.29482 62.9316 0.338248 63.3045C0.381675 63.6775 1.10134 63.9604 1.15407 64.3302C1.2068 64.7001 0.803545 65.1446 0.868686 65.5113C0.933828 65.8781 1.01758 66.251 1.09513 66.6178C1.17268 66.9846 1.5201 67.2892 1.60696 67.6559C1.69381 68.0227 1.28745 68.5138 1.38362 68.8743C1.47978 69.2349 2.23976 69.412 2.34523 69.7694C2.4507 70.1269 2.35764 70.5465 2.47551 70.9008C2.59339 71.2551 2.96253 71.5162 3.08971 71.8705C3.14864 72.0353 2.7609 72.1782 2.81983 72.343C2.95012 72.688 2.86636 73.12 3.00595 73.465C3.14554 73.81 3.22619 74.183 3.37199 74.5218C3.51778 74.8606 4.40805 74.8575 4.56625 75.19C4.72445 75.5226 4.22193 76.1784 4.38944 76.5079C4.55695 76.8373 5.20216 76.915 5.37587 77.2383C5.54958 77.5615 5.76672 77.8568 5.95284 78.1738C6.13896 78.4909 5.78223 79.1405 5.97455 79.4544C6.16688 79.7683 6.72213 79.8522 6.92686 80.1599C7.13159 80.4676 7.40767 80.7194 7.62171 81.0209C7.83574 81.3224 7.6155 81.944 7.83884 82.2362C8.06219 82.5283 8.60193 82.5843 8.83148 82.8702C9.06103 83.1562 9.10135 83.61 9.3402 83.8897C9.57906 84.1694 9.75587 84.5175 10.004 84.7911C10.2522 85.0646 10.7795 85.0801 11.0339 85.3443C11.2883 85.6085 11.5922 85.8261 11.859 86.0809C12.1258 86.3358 12.5849 86.37 12.8579 86.6186C13.1308 86.8673 12.9602 87.6194 13.2394 87.8588C13.5186 88.0981 13.8133 88.3374 14.1017 88.5674C14.3902 88.7974 14.8214 88.8503 15.1161 89.0709C15.4108 89.2916 15.5752 89.7081 15.8792 89.9164C16.0312 90.022 16.4127 89.4626 16.5647 89.5682C16.6392 89.6211 16.4003 90.0345 16.4779 90.0842C16.5182 90.2209 16.633 90.3018 16.6764 90.4416C16.6826 90.4572 16.5151 90.5069 16.5213 90.5224C16.5275 90.538 16.8687 90.4354 16.8718 90.451C16.9308 90.6437 16.8346 90.6716 16.8935 90.8643C16.8997 90.883 17.2472 90.7618 17.2534 90.7804C17.2596 90.7991 16.7229 90.9824 16.726 90.998C16.8408 91.3523 16.7012 91.7999 16.8222 92.148C16.9432 92.4961 17.4674 92.7106 17.5977 93.0587C17.728 93.4068 18.2925 93.5808 18.4321 93.9227C18.5717 94.2646 18.3018 94.7775 18.4507 95.1194C18.5996 95.4613 18.5872 95.8777 18.7454 96.2134C18.9036 96.5491 19.5116 96.6672 19.676 96.9998C19.8404 97.3324 19.6884 97.8265 19.8621 98.1529C20.0358 98.4792 20.2716 98.7776 20.4546 99.1009C20.6376 99.4241 20.6686 99.8406 20.8579 100.158C21.0471 100.475 21.4659 100.658 21.6613 100.972C21.8567 101.286 21.6085 101.901 21.8164 102.209C22.0242 102.517 22.6198 102.563 22.8338 102.868C23.0479 103.173 22.9765 103.688 23.1999 103.987C23.4232 104.285 24.0746 104.251 24.3042 104.543C24.5337 104.835 24.4158 105.413 24.6547 105.696C24.8936 105.979 24.999 106.396 25.2441 106.672C25.4891 106.949 26.0444 106.958 26.2956 107.232C26.5469 107.505 27.0773 107.505 27.3379 107.769C27.5985 108.034 27.2976 108.873 27.5644 109.128C27.8311 109.383 28.374 109.361 28.647 109.609C28.9199 109.858 29.4969 109.768 29.7761 110.01C30.0553 110.253 29.9405 110.968 30.2259 111.204C30.5112 111.44 31.0448 111.369 31.3395 111.596C31.6342 111.822 31.9568 112.003 32.2577 112.22C32.5586 112.438 32.9401 112.528 33.2472 112.739C33.5543 112.951 33.8707 113.128 34.1809 113.33C34.4911 113.532 34.609 114.039 34.9254 114.231C35.2418 114.424 35.6419 114.474 35.9645 114.657C36.2871 114.84 36.678 114.887 37.0037 115.061C37.3294 115.235 37.5683 115.571 37.9002 115.736C38.2321 115.9 38.4306 116.348 38.7687 116.503C39.1068 116.659 39.5101 116.668 39.8513 116.814C40.1925 116.96 40.4903 117.221 40.8346 117.358C41.179 117.495 41.4737 117.79 41.8211 117.914C42.1685 118.039 42.6741 117.719 43.0277 117.834C43.3814 117.949 43.7288 118.067 44.0824 118.169C44.4361 118.272 44.8703 118.067 45.2302 118.16C45.2519 118.166 45.0471 118.968 45.0689 118.974C45.1681 118.999 45.2581 118.651 45.3573 118.676C45.3853 118.682 45.4194 118.542 45.4473 118.552C45.4752 118.561 45.3418 119.105 45.3728 119.111C45.6024 119.167 45.6303 119.061 45.8599 119.114C46.2321 119.198 46.747 118.604 47.1162 118.676C47.4853 118.747 47.8544 118.81 48.2236 118.872C48.5927 118.934 48.9711 118.918 49.3434 118.971C49.7156 119.024 50.0413 119.475 50.4136 119.515C50.7858 119.555 51.1549 119.758 51.5303 119.785C51.9056 119.813 52.2965 119.761 52.6718 119.776C53.0472 119.792 53.4287 119.994 53.8071 120C54.1856 120.006 54.5609 119.298 54.9394 119.291C55.3178 119.285 55.7025 119.67 56.0778 119.655C56.4531 119.639 56.8037 119.198 57.1759 119.17C57.5481 119.142 57.939 119.313 58.3143 119.273C58.6897 119.232 59.0557 119.155 59.4279 119.102C59.8002 119.049 60.1538 118.9 60.526 118.838C60.8983 118.775 61.2736 118.76 61.6427 118.685C62.0119 118.611 62.3965 118.617 62.7626 118.533C63.1286 118.449 63.4419 118.16 63.8048 118.067C64.1678 117.973 64.7634 118.685 65.1232 118.58C65.483 118.474 65.8149 118.219 66.1717 118.101C66.5284 117.983 66.8045 117.367 67.1581 117.24C67.5241 117.358 67.9739 117.439 68.3461 117.545C68.7184 117.65 68.9758 118.157 69.3512 118.253C69.7265 118.35 70.0988 118.446 70.4772 118.53C70.8556 118.614 71.3365 118.166 71.7149 118.241C72.0933 118.315 72.3663 118.937 72.751 119.002C73.1356 119.068 73.5513 118.85 73.9359 118.903C74.3206 118.956 74.6711 119.22 75.0588 119.26C75.4466 119.301 75.8374 119.21 76.2252 119.242C76.6129 119.273 77.0007 119.127 77.3884 119.148C77.7762 119.17 78.1391 119.667 78.5269 119.677C78.9146 119.686 79.3023 119.108 79.6901 119.108C79.9755 119.108 79.9786 119.726 80.264 119.723C80.6424 119.717 80.996 118.937 81.3714 118.921C81.7467 118.906 82.1376 119.223 82.5098 119.195C82.882 119.167 83.2357 118.887 83.6079 118.85C83.9801 118.813 84.4206 119.332 84.7898 119.282C85.1589 119.232 85.528 119.071 85.8972 119.012C86.2663 118.953 86.5579 118.43 86.927 118.362C87.2962 118.294 87.7118 118.471 88.0779 118.39C88.4439 118.309 88.9123 118.626 89.2752 118.533C89.6382 118.44 89.9049 117.955 90.2679 117.855C90.6308 117.756 90.972 117.585 91.3287 117.47C91.6855 117.355 91.9957 117.106 92.3493 116.982C92.7029 116.858 93.0038 116.609 93.3543 116.475C93.7049 116.342 94.3749 117.001 94.7223 116.858C95.0697 116.715 95.321 116.32 95.6622 116.165C96.0034 116.009 96.1399 115.412 96.478 115.248C96.8161 115.083 97.0922 114.812 97.4241 114.638C97.7561 114.464 98.1996 114.502 98.5253 114.318C98.8511 114.135 99.3753 114.278 99.6979 114.085C100.021 113.892 100.352 113.697 100.669 113.495C100.985 113.293 100.982 112.603 101.289 112.391C101.596 112.18 102 112.102 102.3 111.882C102.601 111.661 102.964 111.515 103.259 111.285C103.554 111.055 103.879 110.853 104.168 110.617C104.456 110.38 104.981 110.405 105.263 110.16C105.545 109.914 105.446 109.227 105.719 108.975C105.992 108.724 106.746 108.96 107.012 108.699C107.279 108.438 107.186 107.801 107.447 107.53C107.577 107.396 107.304 107.135 107.431 107.002C107.689 106.731 108.517 106.996 108.765 106.722C109.013 106.449 108.852 105.805 109.091 105.525C109.33 105.246 109.894 105.224 110.124 104.938C110.353 104.652 110.611 104.366 110.834 104.074C111.057 103.782 110.871 103.176 111.088 102.877C111.306 102.579 111.647 102.368 111.855 102.063C112.062 101.758 112.705 101.727 112.903 101.416C113.102 101.106 112.639 100.372 112.829 100.058C113.018 99.7443 113.306 99.4832 113.486 99.163C113.666 98.8429 113.796 98.4917 113.97 98.1684C114.144 97.8452 114.528 97.6245 114.693 97.2951C114.857 96.9656 115.307 96.7636 115.465 96.431C115.623 96.0984 115.537 95.6415 115.682 95.3059C115.828 94.9702 116.241 94.7277 116.38 94.3858C116.52 94.044 116.514 93.6306 116.641 93.2887C116.768 92.9468 116.945 92.5987 117.063 92.2537C117.181 91.9087 117.041 91.4611 117.147 91.1099C117.252 90.7587 117.125 90.2147 117.221 89.8635C117.429 89.7268 117.869 89.6491 118.071 89.5092C118.217 89.4097 118.558 89.9008 118.704 89.7982C119.005 89.5869 119.225 89.2388 119.52 89.0181C119.814 88.7974 119.824 88.2069 120.109 87.9738C120.394 87.7407 120.816 87.6754 121.095 87.433C121.375 87.1905 121.747 87.0507 122.017 86.7989C122.287 86.5471 122.435 86.168 122.699 85.9069C122.963 85.6458 123.288 85.45 123.543 85.1827C123.797 84.9154 124.045 84.6387 124.29 84.3621C124.535 84.0855 124.697 83.7374 124.933 83.4545C125.168 83.1717 125.556 83.007 125.786 82.7179C126.015 82.4289 126.13 82.0466 126.347 81.7513C126.564 81.456 126.84 81.1949 127.051 80.8934C127.262 80.592 127.712 80.4397 127.914 80.132C128.115 79.8242 128.078 79.3549 128.27 79.041C128.463 78.7271 128.866 78.5282 129.049 78.208C129.232 77.8879 128.723 77.1854 128.894 76.8591C129.064 76.5327 129.204 76.2033 129.368 75.8738C129.533 75.5444 130.287 75.4977 130.439 75.1652C130.591 74.8326 130.398 74.3384 130.544 73.9996C130.69 73.6608 131.202 73.4712 131.335 73.1293C131.468 72.7874 131.549 72.4145 131.673 72.0664C131.732 71.9016 131.444 71.796 131.503 71.6312C131.63 71.2707 132.281 71.0811 132.399 70.7174C132.517 70.3538 132.598 69.9653 132.703 69.5985C132.808 69.2317 132.526 68.75 132.619 68.3801C132.712 68.0102 132.756 67.6279 132.839 67.255C132.923 66.882 133.112 66.5308 133.187 66.1547C133.261 65.7786 133.33 65.4025 133.392 65.0233C133.454 64.6441 133.565 64.2743 133.615 63.8951C133.665 63.5159 133.333 63.0932 133.373 62.714C133.413 62.3348 133.5 61.9649 133.528 61.5826C133.556 61.2003 133.984 60.8429 134 60.4606C134.015 60.0783 133.541 59.6867 133.544 59.3044C133.547 58.9221 133.593 58.546 133.584 58.1637C133.575 57.7814 133.925 57.3867 133.903 57.0044C133.882 56.6221 133.423 56.2739 133.389 55.8948C133.354 55.5156 133.252 55.1519 133.206 54.7727C133.159 54.3935 133.038 54.0361 132.979 53.66C132.92 53.2839 133.64 52.768 133.565 52.395C133.491 52.022 133.426 51.6304 133.339 51.2574C133.252 50.8844 132.383 50.7104 132.287 50.3405L132.303 50.3312ZM47.8824 28.8882C47.4481 29.1648 46.8897 29.1804 46.4647 29.4601C46.6416 28.8198 46.7222 29.0281 46.8587 28.8323C47.0324 28.882 47.5256 28.6769 47.8792 28.8882H47.8824ZM87.8266 30.032C87.3861 29.7429 87.5102 29.0591 87.0759 28.7825C87.4389 28.5618 87.1845 28.882 87.3644 28.8323C87.4947 29.0281 88.2547 28.8975 88.4284 29.5254C88.4346 29.5378 87.8204 30.0165 87.8235 30.0289L87.8266 30.032Z" fill="white"/>
<path fill-rule="evenodd" clip-rule="evenodd" d="M122.898 52.5877C122.798 52.2302 122.634 51.8977 122.516 51.5402C122.398 51.1828 122.197 50.8751 122.057 50.527C121.917 50.1789 122.361 49.5821 122.203 49.2402C122.045 48.8983 121.936 48.5129 121.762 48.1803C121.589 47.8478 120.77 47.882 120.574 47.5618C120.379 47.2417 120.674 46.6045 120.46 46.2968C120.245 45.9891 119.78 45.8617 119.548 45.5664C119.315 45.2711 119.337 44.7521 119.082 44.4723C118.828 44.1926 118.589 43.8756 118.319 43.6145C118.049 43.3534 117.249 43.6891 116.96 43.4435C116.672 43.198 116.647 42.6572 116.343 42.4365C116.039 42.2158 115.689 42.0791 115.369 41.877C115.05 41.675 114.798 41.3766 114.466 41.1995C114.135 41.0223 113.88 40.6804 113.533 40.525C113.185 40.3696 112.711 40.5592 112.357 40.4287C112.221 40.3789 112.357 39.9966 112.221 39.9469C111.861 39.8226 111.396 40.0215 111.036 39.9251C110.676 39.8288 110.223 40.152 109.857 40.0805C109.491 40.0091 109.252 39.0549 108.88 39.0113C108.508 38.9678 108.086 39.1574 107.71 39.1388C107.335 39.1201 106.938 39.1264 106.566 39.1357C106.193 39.145 105.796 39.4092 105.424 39.4434C105.514 39.0735 105.921 38.7503 105.998 38.3804C106.076 38.0105 106.231 37.6376 106.296 37.2646C106.361 36.8916 106.029 36.4471 106.082 36.0742C106.135 35.7012 106.1 35.3127 106.138 34.9366C106.175 34.5605 106.259 34.1844 106.28 33.8083C106.302 33.4323 106.783 33.0593 106.789 32.6832C106.795 32.3071 106.519 31.9093 106.513 31.5332C106.507 31.1571 105.948 30.7966 105.927 30.4205C105.905 30.0444 106.246 29.6434 106.209 29.2642C106.172 28.8851 106.215 28.4965 106.162 28.1236C106.11 27.7506 105.595 27.4522 105.527 27.0823C105.458 26.7125 105.762 26.268 105.679 25.8981C105.595 25.5283 105.458 25.1708 105.359 24.8072C105.263 24.4591 104.795 24.2353 104.68 23.8872C104.565 23.5391 104.779 23.0977 104.649 22.7558C104.518 22.4139 104.159 22.1839 104.013 21.8514C103.867 21.5188 104.013 21.0619 103.848 20.7386C103.684 20.4154 103.337 20.1978 103.16 19.8808C102.983 19.5638 103.364 18.9111 103.169 18.6034C102.974 18.2957 102.769 17.9724 102.561 17.674C102.353 17.3757 101.972 17.1861 101.748 16.9032C101.525 16.6204 101.054 16.5333 100.815 16.2629C100.576 15.9925 100.52 15.5387 100.263 15.2808C100.005 15.0228 99.8127 14.6778 99.5428 14.4354C99.273 14.1929 98.7394 14.2582 98.454 14.0344C98.1687 13.8106 97.8057 13.7081 97.5048 13.5029C97.2039 13.2978 97.0799 12.8316 96.7666 12.642C96.4533 12.4524 95.8825 12.7663 95.5599 12.5985C95.2373 12.4306 95.1163 11.8743 94.7813 11.7282C94.4463 11.5821 94.0027 11.7499 93.6584 11.6256C93.3141 11.5013 93.1 11.0102 92.7557 10.9107C92.4114 10.8113 92.0919 10.5222 91.7414 10.4445C91.3908 10.3668 90.9193 10.8579 90.5626 10.7988C90.2059 10.7398 89.8429 10.8703 89.4862 10.833C89.1295 10.7957 88.7976 10.5751 88.4377 10.5626C88.0779 10.5502 87.715 10.0374 87.3551 10.0467C86.9953 10.056 86.6076 10.0032 86.2508 10.0311C85.8941 10.0591 85.6087 10.7833 85.252 10.8361C84.8953 10.889 84.4734 10.5378 84.1198 10.6124C83.7662 10.687 83.5397 11.2713 83.1923 11.3645C82.8449 11.4578 82.3578 11.0568 82.0166 11.1687C81.6754 11.2806 81.4397 11.7002 81.1015 11.8307C80.7634 11.9613 80.4408 12.098 80.112 12.2441C79.7832 12.3902 79.259 12.1291 78.9364 12.2907C78.6138 12.4524 78.4276 12.8844 78.1112 13.0616C77.7948 13.2387 77.4102 13.2978 77.1062 13.4905C76.8022 13.6832 76.3555 13.6832 76.0608 13.8883C75.763 14.0935 75.8065 14.7773 75.518 14.9948C75.2295 15.2124 74.5998 14.9979 74.3206 15.2279C74.0414 15.4579 74.1872 16.1821 73.9173 16.4246C73.6475 16.667 73.3621 16.869 73.1015 17.1208C72.841 17.3725 72.6393 17.6647 72.3912 17.9258C72.143 18.1869 71.3241 17.9258 71.0821 18.1993C70.8402 18.4728 70.9922 19.0789 70.7595 19.3617C70.5269 19.6446 70.3097 19.9243 70.0895 20.2134C69.8693 20.5024 69.4009 20.6081 69.193 20.9065C68.9852 21.2049 69.3047 21.8514 69.1062 22.156C68.9077 22.4606 68.4082 22.5631 68.2221 22.8739C68.036 23.1847 68.1135 23.6416 67.9367 23.9587C67.7599 24.2757 67.2853 24.6456 67.1209 24.9688C66.9534 24.6456 66.9255 24.0239 66.7518 23.71C66.5781 23.3961 66.2927 23.1319 66.1066 22.8242C65.9204 22.5165 65.3838 22.4264 65.1853 22.1249C64.9867 21.8234 65.2721 21.1924 65.0643 20.8941C64.8565 20.5957 64.6455 20.2911 64.4253 20.002C64.205 19.713 63.687 19.657 63.4575 19.3773C63.2279 19.0976 62.9146 18.8955 62.6758 18.6251C62.4369 18.3547 62.4462 17.8543 62.195 17.5932C61.9437 17.3321 61.6893 17.0679 61.4288 16.8162C61.1682 16.5644 61.0689 16.1231 60.8022 15.8806C60.5354 15.6382 60.0143 15.6724 59.7382 15.4424C59.4621 15.2124 59.3039 14.8114 59.0185 14.5939C58.7331 14.3763 58.4447 14.1339 58.1469 13.9287C57.8491 13.7236 57.2752 13.9443 56.965 13.7547C56.6548 13.5651 56.6331 12.8906 56.3167 12.7135C56.0003 12.5363 55.6188 12.4648 55.293 12.3032C54.9673 12.1416 54.561 12.1509 54.2291 12.0048C53.8971 11.8587 53.4722 11.9644 53.1341 11.837C52.7959 11.7095 52.495 11.5106 52.1476 11.3987C51.8002 11.2868 51.4714 11.1687 51.1209 11.0786C50.7703 10.9884 50.4291 10.8952 50.0755 10.8237C49.7219 10.7522 49.3403 10.9263 48.9805 10.8734C48.6207 10.8206 48.3291 10.2642 47.9693 10.2332C47.6094 10.2021 47.2248 10.8051 46.8618 10.7957C46.4989 10.7864 46.1701 10.7678 45.8072 10.7802C45.4442 10.7926 45.1061 10.7211 44.7432 10.7553C44.3803 10.7895 44.0111 10.5937 43.6513 10.6559C43.2915 10.718 42.8572 10.3761 42.5005 10.457C42.1437 10.5378 41.9266 11.1221 41.5792 11.2278C41.2317 11.3334 40.8347 11.2464 40.4904 11.3707C40.1461 11.4951 39.6559 11.2775 39.3271 11.4205C38.9983 11.5634 38.7346 11.9147 38.4151 12.0794C38.0956 12.2441 37.8847 12.6326 37.5745 12.816C37.2643 12.9994 36.8642 13.0553 36.5664 13.2605C36.2686 13.4656 35.8653 13.5527 35.5799 13.7733C35.2946 13.994 35.1457 14.4074 34.8758 14.6436C34.6059 14.8798 34.4136 15.2124 34.1592 15.4704C33.9049 15.7283 33.6319 15.9677 33.3899 16.2381C33.148 16.5085 33.1852 17.0027 32.9619 17.2855C32.7385 17.5684 32.4531 17.7921 32.2453 18.0874C32.0375 18.3827 31.5691 18.5008 31.3767 18.8085C31.1844 19.1162 30.8494 19.3493 30.6726 19.6632C30.4958 19.9772 30.5268 20.4154 30.3686 20.7386C30.2104 21.0619 30.3004 21.5001 30.1546 21.8327C30.0088 22.1653 29.4504 22.3269 29.3201 22.6657C29.1898 23.0045 29.5031 23.4987 29.3884 23.8437C29.2736 24.1887 28.5632 24.3565 28.4671 24.7015C28.3647 25.0652 28.312 25.4599 28.2251 25.8298C28.1383 26.1996 28.6315 26.6876 28.5632 27.0637C28.495 27.4398 28.5663 27.819 28.5136 28.1951C28.4609 28.5711 28.2127 28.9099 28.1755 29.2891C28.1383 29.6683 28.3523 30.0506 28.3306 30.4298C28.3089 30.809 28.0359 31.1664 28.0297 31.5456C28.0235 31.9248 27.5768 32.3071 27.583 32.6863C27.5892 33.0655 27.7567 33.4447 27.7784 33.827C27.8002 34.2093 27.614 34.6102 27.6513 34.9894C27.6885 35.3686 27.7877 35.7478 27.8374 36.127C27.887 36.5062 27.8622 36.904 27.9273 37.277C27.9925 37.65 28.7897 37.8862 28.8672 38.2592C28.9448 38.6322 28.4671 38.8777 28.5601 39.2476C28.191 39.2134 28.0452 39.375 27.6699 39.3657C27.2945 39.3563 26.9192 39.2351 26.5439 39.2538C26.1685 39.2724 25.8552 39.8226 25.4799 39.8692C25.1045 39.9158 24.7633 39.9345 24.3942 40.0091C24.025 40.0837 23.5473 39.6143 23.1813 39.7138C22.8153 39.8132 22.4678 39.9687 22.1111 40.0899C21.9715 40.1396 21.9126 39.9749 21.773 40.0246C21.4163 40.1551 21.0502 40.3105 20.7121 40.4628C20.374 40.6151 20.1165 40.9943 19.7908 41.1684C19.4651 41.3424 18.9657 41.2772 18.6493 41.4761C18.3329 41.675 18.1995 42.1816 17.8986 42.3992C17.5977 42.6168 17.2472 42.7971 16.9618 43.0364C16.6764 43.2757 16.54 43.6922 16.2732 43.9533C16.0064 44.2144 15.5566 44.3107 15.3085 44.5873C15.0603 44.864 15.1286 45.4172 14.8959 45.7094C14.6633 46.0015 14.1266 46.0699 13.9157 46.3776C13.7047 46.6853 13.7109 47.1422 13.5186 47.4624C13.3263 47.7825 12.8083 47.9286 12.6346 48.258C12.4608 48.5875 12.5694 49.0724 12.4143 49.4112C12.2592 49.7499 12.3585 50.1944 12.222 50.5425C12.0855 50.8906 11.4496 51.0585 11.3317 51.4097C11.2138 51.7609 11.3162 52.1992 11.217 52.5566C11.1208 52.9047 10.9254 53.2342 10.8447 53.5885C10.7641 53.9428 10.4818 54.2661 10.4166 54.6235C10.3515 54.9809 11.0091 55.4471 10.9626 55.8077C10.9161 56.1682 10.3763 56.4666 10.3453 56.8303C10.3143 57.1939 10.6276 57.5731 10.6152 57.9368C10.6028 58.3004 10.3205 58.6516 10.3205 59.0153C10.3205 59.3789 10.0444 59.755 10.0599 60.1187C10.0754 60.4823 10.5438 60.8211 10.5748 61.1816C10.6059 61.5422 10.5655 61.909 10.609 62.2695C10.6524 62.63 10.792 62.9719 10.8509 63.3325C10.9099 63.693 11.0681 64.0225 11.1394 64.3799C11.2107 64.7374 10.7672 65.2067 10.854 65.561C10.9409 65.9153 11.2356 66.2199 11.3348 66.568C11.4341 66.9162 11.3565 67.3264 11.4682 67.6745C11.5799 68.0226 12.3771 68.1283 12.5012 68.4702C12.6253 68.8121 12.5911 69.2006 12.7276 69.5363C12.8641 69.872 12.4764 70.4346 12.6253 70.764C12.7741 71.0935 13.4938 71.1587 13.6551 71.482C13.8164 71.8052 13.5589 72.3461 13.7327 72.6662C13.9064 72.9863 14.6353 72.9801 14.8215 73.294C15.0076 73.608 15.0448 73.9934 15.2402 74.298C15.4356 74.6026 15.417 75.047 15.6249 75.3423C15.8327 75.6376 16.0219 75.9515 16.2422 76.2374C16.4624 76.5234 16.36 77.086 16.5896 77.3657C16.8191 77.6454 17.1759 77.8381 17.4209 78.1054C17.666 78.3727 18.2398 78.3323 18.4942 78.5903C18.7486 78.8483 19.2325 78.8514 19.4961 79.0969C19.7598 79.3425 19.7846 79.8491 20.0607 80.0822C20.3368 80.3153 20.5415 80.6385 20.83 80.8592C21.1185 81.0799 21.531 81.1203 21.8288 81.3254C22.1111 81.5182 22.5299 81.4777 22.8215 81.6611C23.1131 81.8445 23.2837 82.1957 23.5877 82.3605C23.8917 82.5252 24.0312 82.9914 24.3414 83.1437C24.6516 83.296 25.0487 83.3022 25.3682 83.4359C25.4209 83.7809 25.6753 84.1103 25.7404 84.4522C25.8056 84.7941 25.3589 85.2479 25.4333 85.5867C25.5078 85.9255 25.7715 86.2301 25.8614 86.5658C25.9514 86.9014 26.2399 87.1843 26.3422 87.5168C26.4012 87.7095 26.4477 87.694 26.5066 87.8836C26.6214 88.2379 26.6431 88.6202 26.7672 88.9683C26.8913 89.3165 26.7889 89.7578 26.9254 90.1028C27.0619 90.4478 27.5582 90.6498 27.704 90.9886C27.8498 91.3274 27.9677 91.6817 28.1228 92.0143C28.2779 92.3469 27.9615 92.9281 28.129 93.2576C28.2965 93.587 28.8393 93.73 29.0192 94.0532C29.1992 94.3765 29.2054 94.8116 29.3946 95.1287C29.5838 95.4457 29.7978 95.7627 29.9964 96.0735C30.1949 96.3843 30.7812 96.4434 30.9921 96.7449C31.203 97.0464 30.9518 97.696 31.172 97.9912C31.3923 98.2865 32.0561 98.2492 32.2856 98.5383C32.5152 98.8273 32.6393 99.2065 32.8781 99.4863C33.117 99.766 33.058 100.329 33.3093 100.599C33.5605 100.869 34.0165 100.96 34.2771 101.224C34.5377 101.488 34.6214 101.948 34.8882 102.203C35.155 102.458 35.4155 102.75 35.6916 102.992C35.9677 103.235 36.6842 102.97 36.9696 103.204C37.255 103.437 37.2302 104.077 37.5249 104.298C37.8196 104.518 38.2259 104.605 38.5299 104.817C38.8339 105.028 38.9983 105.466 39.3085 105.665C39.6187 105.864 40.2639 105.535 40.5803 105.724C40.8967 105.914 41.3031 105.926 41.6288 106.103C41.9545 106.281 42.1096 106.775 42.4384 106.936C42.7672 107.098 43.0216 107.446 43.3597 107.595C43.6978 107.745 44.1383 107.661 44.4826 107.794C44.827 107.928 45.2612 107.8 45.6086 107.922C45.9561 108.043 46.1732 108.568 46.5237 108.674C46.8743 108.78 47.2248 108.935 47.5815 109.025C47.6839 109.05 47.7211 108.904 47.8235 108.929C48.0189 108.975 47.9475 109.274 48.143 109.32C48.5183 109.407 48.965 109.131 49.3372 109.199C49.7095 109.268 50.1065 109.184 50.4788 109.236C50.851 109.289 51.2046 109.526 51.58 109.566C51.9553 109.606 52.3213 109.88 52.6967 109.905C53.072 109.93 53.4691 109.802 53.8444 109.808C54.2198 109.815 54.6137 110.029 54.989 110.023C55.3644 110.017 55.7521 109.839 56.1275 109.818C56.5028 109.796 56.8968 109.818 57.2721 109.777C57.6474 109.737 57.9887 109.373 58.3609 109.32C58.7331 109.268 59.1705 109.544 59.5428 109.476C59.915 109.407 60.3369 109.504 60.706 109.417C61.0751 109.33 61.3357 108.78 61.7017 108.68C62.0678 108.581 62.5734 108.923 62.9332 108.808C63.2931 108.693 63.6188 108.422 63.9724 108.295C64.326 108.167 64.6331 107.869 64.9805 107.729C65.328 107.589 65.5947 107.235 65.939 107.083C66.2834 106.93 66.7114 107.051 67.0465 106.887C67.3722 107.036 67.7165 107.033 68.0546 107.173C68.3927 107.313 68.7557 107.359 69.0969 107.487C69.4381 107.614 69.8444 107.505 70.195 107.62C70.5455 107.735 70.6851 108.484 71.0387 108.584C71.3923 108.683 71.7832 108.627 72.1399 108.714C72.4966 108.801 72.903 108.627 73.2597 108.702C73.6165 108.776 73.8894 109.289 74.2493 109.351C74.6091 109.414 75.0434 108.951 75.4063 108.997C75.7692 109.044 76.0577 109.687 76.4238 109.724C76.7898 109.762 77.1992 109.156 77.5653 109.181C77.9313 109.205 78.2818 109.184 78.6479 109.196C79.0139 109.208 79.3644 109.895 79.7305 109.895C80.0965 109.895 80.4563 109.156 80.8193 109.143C81.1822 109.131 81.5606 109.327 81.9205 109.299C82.2803 109.271 82.6836 109.538 83.0465 109.498C83.4094 109.457 83.6917 108.77 84.0515 108.717C84.4114 108.665 84.7712 108.658 85.131 108.59C85.4909 108.522 86.0027 109.165 86.3563 109.084C86.7099 109.003 87.0108 108.633 87.3614 108.537C87.7119 108.441 88.1865 108.702 88.5339 108.593C88.8813 108.484 89.1543 108.09 89.4986 107.968C89.8429 107.847 90.0663 107.393 90.4044 107.257C90.7425 107.12 91.3319 107.549 91.6669 107.4C92.0019 107.25 92.2222 106.825 92.5479 106.66C92.8736 106.495 93.2117 106.33 93.5312 106.156C93.8507 105.982 94.2323 105.883 94.5424 105.693C94.8527 105.504 94.9922 105.016 95.2962 104.817C95.6002 104.618 96.1741 104.789 96.4688 104.577C96.7635 104.366 96.9651 103.99 97.2536 103.769C97.5421 103.549 97.9143 103.403 98.1935 103.169C98.4727 102.936 98.7705 102.694 99.0403 102.451C99.3102 102.209 99.0931 101.426 99.3567 101.174C99.6204 100.922 100.235 101.022 100.486 100.761C100.746 100.49 101.075 100.276 101.323 99.9991C101.572 99.7225 101.544 99.1941 101.782 98.9112C102.021 98.6284 102.462 98.4948 102.691 98.2026C102.921 97.9104 102.812 97.3572 103.026 97.0557C103.24 96.7542 103.969 96.7946 104.174 96.4869C104.379 96.1792 104.711 95.9212 104.906 95.6042C105.102 95.2872 104.822 94.6718 105.005 94.3485C105.188 94.0253 105.105 93.5559 105.278 93.2265C105.452 92.897 106.19 92.8473 106.349 92.5116C106.507 92.1759 106.767 91.862 106.913 91.5263C107.059 91.1907 107.062 90.7586 107.195 90.4167C107.329 90.0748 107.102 89.5744 107.223 89.2294C107.344 88.8844 107.717 88.5985 107.822 88.2504C107.928 87.9023 108.055 87.5262 108.148 87.1749C108.256 86.7709 108.377 86.3699 108.47 85.969C108.563 85.5681 108.486 85.1205 108.567 84.7164C108.647 84.3123 109.075 84.1072 109.14 83.7001C109.469 83.5633 109.385 82.9448 109.702 82.7925C110.018 82.6402 110.605 83.0007 110.915 82.8329C111.225 82.665 111.436 82.3014 111.737 82.1149C112.038 81.9284 112.289 81.6611 112.577 81.4591C112.875 81.254 113.114 80.9711 113.403 80.7535C113.691 80.536 114.042 80.3992 114.321 80.163C114.6 79.9268 114.64 79.4388 114.907 79.1933C115.174 78.9477 115.924 79.2057 116.179 78.9477C116.433 78.6898 116.399 78.1458 116.641 77.8785C116.883 77.6112 117.047 77.2756 117.28 76.9989C117.513 76.7223 118.055 76.6881 118.276 76.3991C118.496 76.11 118.493 75.6531 118.704 75.3547C118.915 75.0563 119.306 74.8823 119.504 74.5777C119.703 74.2731 119.454 73.695 119.641 73.3842C119.827 73.0734 120.36 72.9646 120.534 72.6444C120.708 72.3243 121.117 72.1192 121.278 71.7959C121.44 71.4727 121.136 70.9194 121.282 70.5869C121.427 70.2543 121.713 69.9839 121.849 69.6482C121.986 69.3125 122.004 68.9302 122.128 68.5883C122.252 68.2464 122.287 67.8797 122.398 67.5347C122.51 67.1897 122.494 66.8136 122.594 66.4655C122.693 66.1174 123.155 65.8656 123.242 65.5113C123.329 65.157 123.512 64.8213 123.583 64.4638C123.655 64.1064 123.859 63.7645 123.915 63.4071C123.971 63.0496 123.332 62.5896 123.375 62.2291C123.419 61.8685 123.98 61.5639 124.008 61.2034C124.036 60.8429 123.695 60.4543 123.71 60.0938C123.726 59.7333 123.856 59.3758 123.856 59.0122C123.856 58.6485 123.642 58.2973 123.627 57.9337C123.611 57.57 124.086 57.1753 124.055 56.8147C124.024 56.4542 123.487 56.1465 123.441 55.7859C123.394 55.4254 123.729 55.0089 123.667 54.6515C123.605 54.294 123.524 53.9335 123.444 53.5792C123.363 53.2248 123.012 52.9389 122.916 52.5908L122.898 52.5877Z" fill="#FFE5C0"/>
<path d="M95.2993 91.2373C95.3955 90.8767 95.9632 90.6218 96.0407 90.2644C96.1182 89.907 95.4265 89.3973 95.4823 89.0336C95.5382 88.67 95.684 88.3281 95.7212 87.9613C95.7584 87.5945 96.0934 87.2495 96.1089 86.8797C96.1245 86.5098 96.5463 86.1275 96.5401 85.7607C96.5339 85.394 96.1741 85.0179 96.1462 84.6511C96.1182 84.2844 95.8391 83.9363 95.7925 83.5695C95.746 83.2028 96.0841 82.7707 96.019 82.4071C95.9538 82.0434 95.4979 81.7544 95.4141 81.3938C95.3304 81.0333 95.5382 80.595 95.4389 80.2376C95.3397 79.8802 95.1194 79.5569 95.0015 79.2026C94.8837 78.8483 94.6355 78.5468 94.5021 78.2018C94.3687 77.8568 94.1299 77.5615 93.9841 77.2196C93.8383 76.8777 94.226 76.2903 94.0647 75.9546C93.9034 75.6189 93.494 75.4013 93.3203 75.0719C93.1466 74.7424 93.2055 74.2793 93.0194 73.9561C92.8332 73.6328 92.461 73.4152 92.2656 73.0982C92.0702 72.7812 91.9275 72.4269 91.7227 72.1161C91.518 71.8052 91.4218 71.4136 91.2078 71.109C90.9938 70.8044 90.4416 70.7422 90.2214 70.4439C90.0011 70.1455 89.7933 69.8378 89.5638 69.5456C89.3342 69.2534 88.9061 69.1291 88.6704 68.8432C88.4346 68.5572 88.385 68.1159 88.1399 67.8361C87.8949 67.5564 87.6188 67.3078 87.3707 67.0343C87.1225 66.7607 86.9085 66.453 86.6541 66.1826C86.3997 65.9122 85.9934 65.7941 85.7328 65.5299C85.4722 65.2657 85.2799 64.9363 85.0132 64.6783C84.7464 64.4203 84.8053 63.8173 84.5354 63.5656C84.2656 63.3138 83.518 63.578 83.2419 63.3294C82.9658 63.0807 82.8604 62.6456 82.5812 62.4031C82.302 62.1607 81.8336 62.1421 81.5482 61.9058C81.2628 61.6696 81.1791 61.1941 80.8937 60.9579C80.6083 60.7216 80.2857 60.5289 79.9972 60.302C79.7088 60.0751 79.5816 59.6245 79.29 59.4007C78.9984 59.1769 78.5052 59.2049 78.2105 58.9873C77.9158 58.7697 77.6801 58.4558 77.3792 58.2413C77.0783 58.0269 76.644 57.9989 76.34 57.7876C76.036 57.5762 76.067 56.8676 75.763 56.6624C75.459 56.4573 74.8138 56.7463 74.5067 56.5443C74.1996 56.3423 73.8925 56.1278 73.5854 55.932C73.2783 55.7362 73.3063 54.9685 72.993 54.7758C72.6797 54.5831 71.929 55.0928 71.6157 54.9063C71.3024 54.7198 71.352 53.8775 71.0356 53.6942C70.7192 53.5108 70.3377 53.3989 70.0213 53.2248C69.7049 53.0508 69.3854 52.8177 69.0659 52.6467C68.7464 52.4758 68.2252 52.6374 67.9026 52.4727C67.611 52.3235 67.3008 51.935 66.9813 51.9443C66.6618 51.9536 66.5408 52.6685 66.2523 52.827C65.9204 53.0073 65.5513 53.1098 65.2256 53.2932C64.8999 53.4766 64.5897 53.691 64.264 53.8775C63.9383 54.064 63.3985 53.8838 63.0759 54.0733C62.7533 54.2629 62.5455 54.6577 62.2291 54.8504C61.9127 55.0431 61.6273 55.3104 61.3109 55.5062C60.9945 55.702 60.6191 55.8201 60.3058 56.019C59.9925 56.218 59.4311 56.0594 59.1178 56.2646C58.8045 56.4697 58.7269 57.0416 58.4198 57.2499C58.1127 57.4581 57.5389 57.3027 57.2349 57.5172C56.9309 57.7316 56.63 57.9803 56.3291 58.1978C56.0282 58.4154 55.8576 58.8381 55.5629 59.0619C55.2682 59.2857 55.141 59.7519 54.8464 59.9819C54.5517 60.2119 54.3718 60.5911 54.0802 60.8242C53.7886 61.0573 52.9728 60.6626 52.6874 60.9019C52.402 61.1412 52.1631 61.4645 51.884 61.7069C51.6048 61.9494 51.6234 62.5585 51.3473 62.8103C51.0712 63.0621 50.9999 63.5407 50.7269 63.7956C50.454 64.0504 49.9762 64.0971 49.7126 64.355C49.4489 64.613 49.2659 64.9736 49.0053 65.2378C48.7448 65.5019 48.3942 65.6915 48.1399 65.9619C47.8855 66.2323 47.7397 66.6147 47.4916 66.8913C47.2434 67.1679 46.9115 67.3824 46.6695 67.6621C46.4276 67.9418 46.0491 68.1252 45.8134 68.4112C45.5776 68.6971 44.9603 68.7064 44.7339 68.9986C44.5074 69.2908 44.281 69.6202 44.0608 69.9186C43.8405 70.217 44.1073 70.8852 43.8964 71.1929C43.6854 71.5006 43.1643 71.6125 42.9627 71.9233C42.761 72.2342 42.8013 72.719 42.609 73.0361C42.4167 73.3531 42.0103 73.5644 41.8273 73.8846C41.6443 74.2047 41.4892 74.5684 41.3186 74.8947C41.148 75.2211 41.0549 75.6127 40.8967 75.9453C40.7385 76.2778 40.8068 76.7347 40.6579 77.0735C40.509 77.4123 40.326 77.748 40.1926 78.093C40.0592 78.438 39.7056 78.7177 39.5846 79.0658C39.4636 79.4139 39.2062 79.7434 39.0976 80.0977C38.989 80.452 39.4388 80.9773 39.3457 81.3348C39.2527 81.6922 38.8215 81.9813 38.744 82.3418C38.6664 82.7023 38.229 83.0256 38.167 83.3861C38.1049 83.7467 38.3655 84.1911 38.3221 84.5548C38.2787 84.9371 38.7067 85.3411 38.685 85.7079C38.6633 86.0933 37.7637 86.4414 37.7637 86.8082C37.7637 87.1967 38.5734 87.551 38.5951 87.9147C38.6199 88.3032 38.2166 88.7104 38.2632 89.0709C38.3159 89.4594 38.8835 89.7267 38.9611 90.0779C39.0448 90.4633 39.1193 90.7897 39.2279 91.1254C39.3426 91.4828 38.9053 92.0174 39.0324 92.3562C39.1596 92.695 39.5195 92.9592 39.6684 93.2917C39.8172 93.6243 39.566 94.1744 39.7304 94.4977C39.8948 94.8209 40.0964 95.169 40.2794 95.4799C40.4625 95.7907 40.8564 96.0114 41.058 96.3129C41.2597 96.6143 41.4241 96.978 41.6443 97.2639C41.8646 97.5499 42.4136 97.5934 42.6525 97.8669C42.8913 98.1404 42.8479 98.703 43.1022 98.961C43.3566 99.2189 43.6637 99.4707 43.9336 99.71C44.2034 99.9493 44.4144 100.325 44.6998 100.546C44.9851 100.767 45.7606 100.341 46.0584 100.54C46.3717 100.748 46.2818 101.603 46.592 101.777C46.9208 101.963 47.4264 101.817 47.749 101.967C48.0933 102.125 48.3043 102.629 48.6393 102.747C48.9991 102.877 49.4613 102.712 49.7994 102.796C50.1593 102.883 50.5377 102.868 50.8944 102.924C51.2512 102.98 51.6079 103.228 51.9677 103.253C52.3275 103.278 52.7215 103.49 53.0813 103.483C53.4412 103.477 53.8165 103.148 54.1763 103.11C54.5362 103.073 54.9487 103.225 55.3055 103.157C55.6622 103.089 55.9352 102.585 56.2826 102.489C56.63 102.392 57.1015 102.644 57.4427 102.523C57.7839 102.402 57.8522 101.59 58.1841 101.444C58.516 101.298 59.0247 101.547 59.3473 101.379C59.6699 101.211 59.7878 100.702 60.098 100.512C60.4082 100.322 61.0038 100.574 61.2985 100.366C61.5932 100.158 61.6862 99.6634 61.9685 99.4365C62.2508 99.2096 62.6572 99.1257 62.9239 98.8833C63.1907 98.6408 63.4078 98.33 63.6591 98.0751C63.9104 97.8203 64.0748 97.4691 64.3105 97.1987C64.5463 96.9283 64.6579 96.5522 64.872 96.2693C65.0984 95.9709 65.756 95.9896 65.9453 95.6912C66.15 95.3742 66.3857 95.0634 66.547 94.7557C66.7828 94.305 67.2512 94.2584 67.4776 94.7153C67.6327 95.0292 67.8871 95.3245 68.0887 95.657C68.2718 95.9616 68.6006 96.1885 68.8239 96.4993C69.0317 96.7915 69.0255 97.2733 69.2706 97.5654C69.5032 97.842 70.2136 97.6897 70.4772 97.9602C70.7409 98.2306 70.499 98.9952 70.7812 99.2469C71.0635 99.4987 71.383 99.7007 71.6839 99.9307C71.9848 100.161 72.661 99.7971 72.9774 100.002C73.2939 100.207 73.1946 101.081 73.5265 101.258C73.8584 101.435 74.4881 100.959 74.8324 101.112C75.1768 101.264 75.3815 101.69 75.7351 101.814C76.0887 101.939 76.5292 101.684 76.8922 101.783C77.2551 101.883 77.5312 102.187 77.9003 102.262C78.2694 102.336 78.5517 102.871 78.9271 102.918C79.3024 102.964 79.6777 103.008 80.0531 103.03C80.4284 103.051 80.8069 103.023 81.1853 103.023C81.5637 103.023 81.9267 102.793 82.2834 102.768C82.6401 102.744 83.0527 102.908 83.4063 102.859C83.76 102.809 84.126 102.613 84.4734 102.535C84.8208 102.458 85.0752 101.954 85.4164 101.848C85.7576 101.743 86.1019 101.643 86.4339 101.51C86.7658 101.376 87.1535 101.351 87.473 101.189C87.7925 101.028 88.0624 100.764 88.3695 100.577C88.6766 100.391 88.8596 100.033 89.1512 99.8219C89.4428 99.6106 90.0756 99.8281 90.3517 99.595C90.6277 99.3619 90.7983 98.9858 91.0558 98.7341C91.3133 98.4823 91.3288 97.9943 91.5676 97.727C91.8065 97.4597 92.0826 97.2235 92.3028 96.9407C92.5231 96.6579 92.8581 96.4496 93.0597 96.1512C93.2613 95.8528 93.4971 95.5607 93.677 95.2561C93.8662 94.9359 93.9438 94.5661 94.1051 94.2522C94.2757 93.9165 94.2447 93.5124 94.3811 93.1923C94.5331 92.8411 95.2125 92.7198 95.3272 92.3966C95.4575 92.0267 95.197 91.5605 95.2776 91.2373H95.2993Z" fill="#FFAA33"/>
<path d="M94.0772 58.3315C93.9469 58.6889 94.2323 59.1924 94.1237 59.5499C94.0151 59.9073 94.223 60.3517 94.133 60.7154C94.043 61.079 93.9965 61.4396 93.9283 61.8095C93.86 62.1793 93.5095 62.4964 93.4599 62.8693C93.4102 63.2423 93.128 63.5997 93.1031 63.9727C93.0783 64.3457 92.886 64.7373 92.8829 65.1134C92.8798 65.4895 92.7526 65.9029 92.7743 66.2758C92.796 66.6488 92.8984 67.056 92.9449 67.429C92.9915 67.8019 93.6708 68.0848 93.7453 68.4515C93.8197 68.8183 93.7452 69.2192 93.8476 69.5798C93.95 69.9403 94.3005 70.2139 94.4308 70.562C94.5611 70.9101 94.3688 71.4012 94.5332 71.7368C94.6976 72.0725 95.0047 72.3398 95.2032 72.6568C95.4017 72.9739 95.6809 73.2287 95.9135 73.5209C96.1462 73.8131 96.3106 74.1612 96.5774 74.4222C96.8441 74.6833 96.9465 75.1713 97.2474 75.3951C97.5483 75.6189 97.964 75.709 98.299 75.8893C98.634 76.0696 99.1303 75.8178 99.487 75.9483C99.8438 76.0789 100.138 76.2498 100.504 76.3275C100.871 76.4052 101.178 76.9305 101.556 76.9523C101.934 76.974 102.316 76.7223 102.694 76.6943C103.073 76.6663 103.386 76.3835 103.762 76.3089C104.137 76.2343 104.444 76.0944 104.807 75.9763C105.17 75.8582 105.753 76.3555 106.104 76.197C106.454 76.0385 106.479 75.2739 106.814 75.0874C107.149 74.9009 107.571 74.9227 107.887 74.7082C108.204 74.4937 108.331 74.0772 108.629 73.8379C108.926 73.5986 109.618 73.841 109.897 73.58C110.176 73.3189 110.446 73.0422 110.707 72.7625C110.967 72.4828 110.918 71.942 111.16 71.6467C111.402 71.3514 111.517 70.9847 111.74 70.677C111.963 70.3693 112.218 70.1082 112.422 69.788C112.627 69.4679 112.974 69.2472 113.161 68.9146C113.347 68.5821 113.297 68.1438 113.465 67.8019C113.632 67.46 113.927 67.1958 114.076 66.8446C114.225 66.4934 114.33 66.1422 114.46 65.7848C114.591 65.4273 114.563 65.0295 114.671 64.6689C114.78 64.3084 115.515 64.1095 115.605 63.7458C115.695 63.3822 115.341 62.9004 115.413 62.5336C115.484 62.1669 116.036 61.853 116.083 61.48C116.129 61.107 115.403 60.6439 115.431 60.2709C115.459 59.898 115.437 59.5312 115.441 59.1551C115.444 58.779 115.521 58.4123 115.499 58.0393C115.478 57.6663 115.847 57.2467 115.8 56.8769C115.754 56.507 115.223 56.2086 115.149 55.8419C115.074 55.4751 114.944 55.1363 114.842 54.7789C114.739 54.4214 115.096 53.9055 114.966 53.5574C114.836 53.2093 114.423 52.9668 114.262 52.6311C114.1 52.2955 113.859 52.0095 113.66 51.6925C113.461 51.3755 113.226 51.1082 112.993 50.8129C112.76 50.5176 112.553 50.2348 112.283 49.9737C112.013 49.7126 112.087 49.0319 111.783 48.805C111.479 48.5781 110.933 48.7056 110.601 48.5284C110.27 48.3512 110.003 48.0249 109.646 47.8944C109.289 47.7638 108.812 48.1461 108.446 48.0715C108.08 47.9969 107.776 47.711 107.397 47.6892C107.019 47.6675 106.671 47.7141 106.293 47.7421C105.914 47.77 105.477 47.338 105.102 47.4157C104.726 47.4934 104.425 47.8571 104.062 47.9752C103.7 48.0933 103.2 47.8757 102.85 48.0311C102.499 48.1865 102.136 48.3637 101.804 48.5502C101.472 48.7367 101.379 49.3148 101.063 49.5292C100.746 49.7437 100.259 49.7188 99.9616 49.9582C99.6638 50.1975 99.85 50.9683 99.5708 51.2294C99.2916 51.4905 98.5751 51.2822 98.3145 51.562C98.0539 51.8417 98.0725 52.3545 97.8306 52.6498C97.5886 52.9451 97.5824 53.3864 97.3591 53.6972C97.1357 54.008 96.4347 53.9676 96.2299 54.2909C96.0252 54.6141 96.3044 55.2078 96.1183 55.5404C95.9322 55.8729 95.1629 55.8854 94.9954 56.2304C94.8278 56.5754 94.9457 57.0447 94.7968 57.399C94.6479 57.7533 94.1981 57.9834 94.0679 58.3408L94.0772 58.3315Z" fill="#FFAA33"/>
<path d="M39.5567 58.5615C39.687 58.919 40.2236 59.1334 40.3322 59.494C40.4408 59.8545 40.8223 60.1622 40.9123 60.5259C41.0022 60.8895 40.8533 61.334 40.9216 61.7007C40.9898 62.0675 40.7231 62.5026 40.7727 62.8725C40.8223 63.2424 41.1977 63.5936 41.2225 63.9697C41.2473 64.3457 41.1977 64.7405 41.2008 65.1166C41.2039 65.4926 40.8937 65.8687 40.872 66.2417C40.8502 66.6147 40.8844 66.997 40.8378 67.3669C40.7913 67.7367 40.8782 68.1408 40.8037 68.5075C40.7293 68.8743 40.1988 69.1292 40.0965 69.4866C39.9941 69.844 39.8638 70.1704 39.7335 70.5216C39.6032 70.8728 40.0344 71.4665 39.8731 71.8022C39.7118 72.1378 39.5784 72.5357 39.383 72.8527C39.1876 73.1697 38.6757 73.2941 38.4431 73.5862C38.2104 73.8784 37.7638 73.953 37.4939 74.2141C37.224 74.4752 37.3822 75.246 37.0813 75.4697C36.7804 75.6935 36.1104 75.3423 35.7785 75.5226C35.4466 75.7029 35.2729 76.1691 34.9161 76.2996C34.5594 76.4302 34.1531 76.3369 33.787 76.4146C33.421 76.4923 33.0922 76.9057 32.7168 76.9306C32.3415 76.9554 31.9631 76.6508 31.5846 76.6229C31.2062 76.5949 30.7998 76.8125 30.4276 76.7348C30.0553 76.6571 29.8506 76.0385 29.4877 75.9204C29.1247 75.8023 28.5136 76.3773 28.1631 76.2219C27.8126 76.0665 27.8374 75.2056 27.5024 75.0191C27.1674 74.8326 26.516 75.2025 26.1996 74.988C25.8832 74.7735 25.8584 74.1892 25.5606 73.9468C25.2628 73.7043 24.5772 73.9281 24.295 73.667C24.0127 73.406 24.0747 72.8061 23.8141 72.5264C23.5536 72.2466 23.2899 71.9918 23.048 71.6965C22.806 71.4012 22.2135 71.3763 21.9902 71.0655C21.7668 70.7547 22.0119 70.13 21.8072 69.8098C21.6024 69.4897 21.1681 69.3156 20.982 68.9831C20.7959 68.6505 20.5043 68.3708 20.3368 68.0289C20.1693 67.687 20.1352 67.2829 19.9863 66.9317C19.8374 66.5805 19.9367 66.1423 19.8064 65.7817C19.6761 65.4243 19.2666 65.1601 19.155 64.7995C19.0433 64.439 19.4714 63.9293 19.3814 63.5656C19.2915 63.202 18.4787 62.9813 18.4074 62.6145C18.336 62.2478 18.7331 61.7815 18.6866 61.4117C18.64 61.0418 18.8386 60.644 18.8106 60.271C18.7827 59.898 18.0879 59.5344 18.0848 59.1614C18.0817 58.7884 18.578 58.403 18.5997 58.03C18.6214 57.6571 18.9999 57.3214 19.0464 56.9515C19.0929 56.5816 18.8075 56.162 18.8789 55.7953C18.9502 55.4285 19.2449 55.1177 19.3473 54.7572C19.4497 54.3966 18.8262 53.7781 18.9595 53.4269C19.0929 53.0757 19.9615 53.0228 20.1259 52.6871C20.2903 52.3515 19.8839 51.677 20.0794 51.36C20.2748 51.0429 20.4981 50.6731 20.7308 50.3809C20.9634 50.0888 21.8258 50.3529 22.0925 50.0888C22.3593 49.8246 22.5485 49.5355 22.8525 49.3117C23.1565 49.0879 23.11 48.3047 23.4419 48.1244C23.7738 47.9441 24.1709 47.7887 24.5276 47.6582C24.8843 47.5277 25.3868 47.8571 25.7529 47.7794C26.1189 47.7017 26.4694 47.4872 26.8479 47.4655C27.2263 47.4437 27.6048 47.4717 27.9832 47.4997C28.3617 47.5277 28.6563 47.9628 29.0286 48.0374C29.4008 48.112 29.7793 48.0063 30.1422 48.1244C30.5051 48.2425 30.8494 48.3327 31.2 48.4881C31.5505 48.6435 32.0499 48.4756 32.3849 48.6652C32.7199 48.8548 32.9216 49.2433 33.238 49.4578C33.5544 49.6723 33.5792 50.2317 33.877 50.4711C34.1748 50.7104 34.5935 50.757 34.8727 51.0181C35.1519 51.2792 35.6513 51.3009 35.9119 51.5807C36.1724 51.8604 36.4144 52.1526 36.6564 52.4478C36.8983 52.7431 37.1248 53.0477 37.3481 53.3585C37.5714 53.6693 37.3016 54.2909 37.5094 54.6111C37.7172 54.9312 38.4927 54.8939 38.6788 55.2265C38.865 55.5591 38.623 56.1061 38.7905 56.4511C38.958 56.7961 39.3613 57.0137 39.5102 57.3649C39.6591 57.7161 39.4202 58.2041 39.5505 58.5615H39.5567Z" fill="#FFAA33"/>
<path d="M72.9091 31.3094C73.0394 30.9489 73.6257 30.7717 73.7715 30.4205C73.9173 30.0693 73.3992 29.4166 73.5605 29.0716C73.7218 28.7266 74.2337 28.5401 74.4105 28.2044C74.5873 27.8687 75.0774 27.7071 75.2697 27.3839C75.462 27.0606 75.521 26.6503 75.7288 26.3333C75.9366 26.0163 75.794 25.4382 76.0173 25.1336C76.2406 24.829 76.4268 24.456 76.6656 24.1638C76.9045 23.8717 77.4659 23.8313 77.7234 23.5546C77.9809 23.278 78.3128 23.0635 78.5826 22.7994C78.8525 22.5352 78.9269 22.0317 79.2123 21.7861C79.4977 21.5406 79.9103 21.4131 80.2112 21.1862C80.5121 20.9593 80.723 20.5584 81.0394 20.3564C81.3558 20.1543 81.6877 19.8995 82.0165 19.7192C82.3453 19.5389 82.7579 19.4395 83.1022 19.2872C83.4465 19.1349 83.7971 18.8955 84.1538 18.7712C84.5105 18.6469 84.9634 18.7401 85.3294 18.6531C85.6955 18.5661 86.046 18.1558 86.4182 18.1092C86.7905 18.0626 87.231 18.1776 87.6094 18.1714C87.9878 18.1651 88.3787 18.4387 88.7571 18.476C89.1356 18.5132 89.5885 18.2553 89.9607 18.3423C90.3329 18.4293 90.5408 19.0883 90.9006 19.2219C91.2449 19.3493 91.6854 19.2219 92.008 19.3866C92.3306 19.5514 92.6998 19.6726 93.0038 19.8746C93.3078 20.0766 93.3605 20.6019 93.6397 20.8381C93.9188 21.0743 94.4214 21.0588 94.6757 21.323C94.9301 21.5872 95.3147 21.7581 95.5381 22.0503C95.7614 22.3425 96.0871 22.5911 96.2857 22.9019C96.4842 23.2127 96.5462 23.623 96.7168 23.9494C96.8874 24.2757 96.4004 24.8942 96.5462 25.233C96.692 25.5718 97.0984 25.777 97.2194 26.1251C97.3403 26.4732 97.1325 26.8897 97.2256 27.2471C97.3186 27.6045 97.5265 27.8967 97.5978 28.2603C97.6691 28.624 98.2399 28.8851 98.2895 29.2487C98.3392 29.6124 97.9824 30.0133 98.0135 30.3801C98.0445 30.7468 98.4043 31.0856 98.4136 31.4524C98.4229 31.8192 98.029 32.1766 98.0197 32.5434C98.0104 32.9101 98.3764 33.2862 98.3485 33.653C98.3206 34.0197 97.7994 34.3243 97.7529 34.688C97.7064 35.0516 97.6288 35.3873 97.5668 35.7509C97.5047 36.1146 97.4582 36.4534 97.3775 36.8139C97.2969 37.1745 97.4024 37.5568 97.3062 37.9111C97.21 38.2654 97.6319 38.7689 97.5202 39.117C97.4086 39.4652 97.0798 39.748 96.9557 40.093C96.8254 40.4535 96.8192 40.8731 96.6734 41.2244C96.5276 41.5756 96.2019 41.8646 96.0406 42.2065C95.8793 42.5484 95.8111 42.9587 95.6342 43.2913C95.4574 43.6238 95.2868 43.9906 95.0945 44.317C94.9022 44.6433 94.3717 44.7738 94.1639 45.0878C93.9561 45.4017 94.1546 46.0264 93.9312 46.331C93.7079 46.6356 93.4753 46.9775 93.2364 47.2697C92.9976 47.5618 92.5198 47.6831 92.2624 47.9597C92.0049 48.2363 91.704 48.4974 91.4311 48.7585C91.1581 49.0196 90.4974 48.8548 90.2089 49.1004C89.9204 49.3459 89.6784 49.6225 89.3775 49.8463C89.0766 50.0701 89.0301 50.6731 88.7137 50.8782C88.3973 51.0834 88.0127 51.2046 87.6807 51.3848C87.3488 51.5651 87.1658 52.109 86.8215 52.2613C86.4772 52.4136 85.8227 51.8075 85.4659 51.9288C85.1092 52.05 84.8114 52.308 84.4454 52.3981C84.0793 52.4882 83.6947 52.3421 83.3194 52.3919C82.944 52.4416 82.6214 53.0321 82.243 53.0384C81.8645 53.0446 81.5233 52.4758 81.1449 52.4385C80.7664 52.4012 80.2453 53.2311 79.8699 53.144C79.4946 53.057 79.0789 52.9389 78.7191 52.8084C78.3748 52.6809 78.2445 52.0096 77.9219 51.8479C77.5993 51.6863 77.1433 51.7298 76.8393 51.5309C76.5353 51.332 76.3244 50.9901 76.0452 50.7539C75.766 50.5177 75.5675 50.2069 75.3162 49.9396C75.065 49.6723 74.6028 49.5852 74.3794 49.2962C74.1561 49.0071 73.8521 48.7523 73.6536 48.4414C73.4551 48.1306 73.4426 47.7048 73.272 47.3785C73.1014 47.0521 73.0673 46.6698 72.9246 46.3279C72.7819 45.986 72.2825 45.784 72.1646 45.4359C72.0468 45.0878 72.5834 44.547 72.4903 44.1895C72.3973 43.8321 71.8141 43.6052 71.7428 43.2446C71.6714 42.8841 71.8172 42.4894 71.7676 42.1226C71.7179 41.7559 71.5163 41.414 71.4884 41.0472C71.4605 40.6804 71.476 40.3137 71.4636 39.9438C71.4512 39.5739 71.1658 39.2041 71.1751 38.8342C71.1844 38.4643 71.538 38.1131 71.5659 37.7464C71.5939 37.3796 71.5349 37.0066 71.5815 36.643C71.628 36.2793 71.6745 35.9126 71.7365 35.552C71.7986 35.1915 72.4159 34.949 72.4934 34.5885C72.571 34.228 72.6051 33.883 72.7013 33.5286C72.7974 33.1743 72.3569 32.6739 72.4686 32.3227C72.5803 31.9715 72.785 31.6544 72.9091 31.3063V31.3094Z" fill="#FFAA33"/>
<path d="M37.1372 40.1458C37.2675 40.5064 37.8321 40.7022 37.9779 41.0503C38.1236 41.3984 38.5083 41.6377 38.6696 41.9827C38.8309 42.3277 38.5455 42.8934 38.7223 43.2291C38.8991 43.5647 38.7751 44.0931 38.9674 44.4195C39.1597 44.7458 40.1492 44.5811 40.3571 44.8981C40.5649 45.2152 40.0562 46.045 40.2826 46.3496C40.5091 46.6542 41.1171 46.6822 41.359 46.9744C41.601 47.2665 41.9019 47.5121 42.1593 47.7918C42.4168 48.0715 42.454 48.5813 42.7239 48.8455C42.9938 49.1097 43.4063 49.2464 43.6948 49.492C43.9833 49.7375 44.1105 50.2193 44.4114 50.4462C44.7123 50.673 45.4381 50.3125 45.7545 50.5176C46.0709 50.7228 46.3904 50.8968 46.7192 51.0771C47.0481 51.2574 47.0574 52.1276 47.4017 52.2799C47.746 52.4322 48.2951 52.1432 48.6487 52.2644C49.0023 52.3856 49.328 52.6747 49.6972 52.7617C50.0663 52.8487 50.5099 52.5224 50.8821 52.5721C51.2543 52.6218 51.5987 53.3056 51.9771 53.3118C52.3555 53.3181 52.7216 52.6871 53.0969 52.6467C53.4723 52.6063 53.9624 53.1813 54.3377 53.0943C54.7131 53.0072 55.0915 52.8114 55.4513 52.6809C55.8112 52.5504 56.0252 52.1183 56.3478 51.9567C56.6704 51.7951 57.1078 51.7889 57.4118 51.5868C57.7158 51.3848 57.815 50.8999 58.0911 50.6637C58.3672 50.4275 58.8914 50.443 59.1427 50.1757C59.394 49.9084 59.1458 49.2278 59.3722 48.9387C59.5987 48.6496 59.9802 48.5098 60.1757 48.199C60.3711 47.8882 60.5355 47.5836 60.7061 47.2572C60.8767 46.9309 61.0318 46.6232 61.1745 46.2844C61.3172 45.9456 61.7608 45.7311 61.8817 45.383C62.0027 45.0349 62.2602 44.721 62.3563 44.3635C62.4525 44.0061 62.6448 43.658 62.7162 43.2974C62.7875 42.9369 62.1082 42.452 62.1578 42.0884C62.2075 41.7247 62.2385 41.3828 62.2664 41.0161C62.2943 40.6493 62.4246 40.3105 62.4339 39.9438C62.4432 39.577 62.9767 39.2134 62.9674 38.8466C62.9581 38.4798 62.4773 38.138 62.4494 37.7712C62.4215 37.4044 62.8185 37.0004 62.772 36.6336C62.7255 36.2669 62.5518 35.9187 62.4897 35.5582C62.4277 35.1977 61.8662 34.9428 61.7887 34.5823C61.7111 34.2217 61.9314 33.8052 61.8352 33.4509C61.7391 33.0966 61.2582 32.8697 61.1466 32.5216C61.0349 32.1735 60.8891 31.8595 60.7619 31.5145C60.6316 31.154 60.7681 30.7033 60.6223 30.3521C60.4765 30.0009 60.1229 29.746 59.9616 29.4041C59.8003 29.0622 60.0578 28.5059 59.881 28.1702C59.7042 27.8345 59.335 27.5983 59.1427 27.2719C58.9504 26.9456 58.7301 26.6317 58.5223 26.3177C58.3145 26.0038 58.5533 25.348 58.33 25.0434C58.1066 24.7388 57.8368 24.4249 57.5948 24.1327C57.3528 23.8406 56.8938 23.7038 56.6394 23.4241C56.385 23.1443 56.2268 22.7341 55.9538 22.473C55.6809 22.2119 55.3552 21.9601 55.0698 21.7146C54.7844 21.469 54.378 21.3261 54.0771 21.0992C53.7763 20.8723 53.1993 21.0246 52.8829 20.8194C52.5665 20.6143 52.4207 20.1108 52.0888 19.9305C51.7569 19.7503 51.4405 19.4861 51.0992 19.3338C50.758 19.1815 50.4726 18.7556 50.1159 18.6344C49.7592 18.5132 49.3125 18.5163 48.9465 18.4262C48.5804 18.3361 48.1027 18.7246 47.7274 18.6779C47.352 18.6313 46.986 18.4262 46.6076 18.42C46.2291 18.4138 45.8445 18.4728 45.466 18.5132C45.0876 18.5536 44.796 18.9825 44.4238 19.0696C44.0515 19.1566 43.6576 19.0323 43.2947 19.1659C42.9503 19.2934 42.392 18.9515 42.0694 19.1162C41.7468 19.2809 41.6971 19.9492 41.3931 20.1512C41.0891 20.3532 40.6332 20.347 40.354 20.5832C40.0748 20.8194 40.0872 21.3447 39.8328 21.612C39.5785 21.8793 39.2838 22.0658 39.0573 22.3549C38.8309 22.6439 38.4183 22.7838 38.2198 23.0946C38.0213 23.4054 38.0616 23.8374 37.891 24.1638C37.7204 24.4901 37.6118 24.8165 37.466 25.1553C37.3202 25.4941 36.8673 25.6992 36.7495 26.0473C36.6316 26.3954 36.6068 26.7684 36.5137 27.1258C36.4207 27.4833 36.3648 27.8376 36.2904 28.2013C36.2159 28.5649 36.1632 28.9161 36.1136 29.2829C36.0639 29.6496 35.9243 29.9978 35.8964 30.3645C35.8685 30.7313 36.2407 31.1074 36.2314 31.4741C36.2221 31.8409 35.6762 32.2014 35.6855 32.5682C35.6948 32.9349 35.549 33.3203 35.5769 33.6871C35.6048 34.0539 35.8034 34.4113 35.8468 34.7781C35.8902 35.1448 36.067 35.4898 36.1291 35.8535C36.1911 36.2171 36.4207 36.5404 36.4982 36.9009C36.5758 37.2615 36.4548 37.6655 36.5478 38.0198C36.6409 38.3742 36.827 38.7036 36.9387 39.0549C37.0504 39.4061 36.9976 39.8132 37.1217 40.1582L37.1372 40.1458Z" fill="#FFAA33"/>
</svg>
