<svg width="375" height="375" viewBox="0 0 375 375" fill="none" xmlns="http://www.w3.org/2000/svg">
<g clip-path="url(#clip0_5021_40878)">
<path d="M325.023 269.541C315.491 310.255 295.57 324.467 285.387 326.995C284.367 327.248 283.415 327.732 282.708 328.509L267.005 345.76C265.074 347.881 265.593 351.238 268.075 352.675L274.677 356.498C275.398 356.916 276.207 357.131 277.039 357.086C295.977 356.052 336.53 342.175 357.105 293.516C378.149 243.749 361.726 231.708 352.83 228.663C335.723 222.809 327.165 253.476 325.023 269.541Z" fill="#FFE5C0"/>
<mask id="mask0_5021_40878" style="mask-type:alpha" maskUnits="userSpaceOnUse" x="265" y="227" width="103" height="131">
<path d="M325.023 269.541C315.491 310.255 295.57 324.467 285.387 326.995C284.367 327.248 283.415 327.732 282.708 328.509L267.005 345.76C265.074 347.881 265.593 351.238 268.075 352.675L274.677 356.498C275.398 356.916 276.207 357.131 277.039 357.086C295.977 356.052 336.53 342.175 357.105 293.516C378.149 243.749 361.726 231.708 352.83 228.663C335.723 222.809 327.165 253.476 325.023 269.541Z" fill="#F99F51"/>
</mask>
<g mask="url(#mask0_5021_40878)">
<path d="M366.087 273.143C354.599 265.844 331.901 261.333 321.987 259.99C326.078 246.515 334.489 219.581 335.407 219.642C336.325 219.703 363.344 224.877 376.739 227.456L366.087 273.143Z" fill="#FFAA33"/>
<path d="M313.561 291.322L318.063 274.583C336.544 276.021 354.432 286.669 361.066 291.814L351.213 311.954C338.906 300.756 320.984 293.533 313.561 291.322Z" fill="#FFAA33"/>
<path d="M309.663 304.08L299.016 318.488C310.365 326.302 320.1 337.917 323.549 342.748L338.958 328.001C335.75 319.784 318.091 308.63 309.663 304.08Z" fill="#FFAA33"/>
</g>
<g clip-path="url(#clip1_5021_40878)">
<mask id="mask1_5021_40878" style="mask-type:alpha" maskUnits="userSpaceOnUse" x="50" y="92" width="274" height="254">
<path d="M323.625 92H50.925V345.611H323.625V92Z" fill="#D9D9D9"/>
</mask>
<g mask="url(#mask1_5021_40878)">
<path d="M187.275 337.874C262.579 337.874 323.625 291.337 323.625 233.931C323.625 176.525 262.579 129.988 187.275 129.988C111.971 129.988 50.925 176.525 50.925 233.931C50.925 291.337 111.971 337.874 187.275 337.874Z" fill="#FFE5C0"/>
<mask id="mask2_5021_40878" style="mask-type:alpha" maskUnits="userSpaceOnUse" x="50" y="129" width="274" height="209">
<path d="M187.275 337.874C262.579 337.874 323.625 291.337 323.625 233.931C323.625 176.525 262.579 129.988 187.275 129.988C111.971 129.988 50.925 176.525 50.925 233.931C50.925 291.337 111.971 337.874 187.275 337.874Z" fill="#FFF2E0"/>
</mask>
<g mask="url(#mask2_5021_40878)">
<path d="M183.9 206.198C118.182 244.73 62.0393 221.166 44.3114 189.424C43.1049 187.263 43.0099 184.694 43.8164 182.373L76.3432 88.7516C77.659 84.9642 81.2257 82.4351 85.2514 82.4351H298.96C303.018 82.4351 306.653 85.004 308.014 88.8338L345.116 193.181C346.319 196.565 345.551 200.358 342.909 202.755C299.68 241.966 228.705 222.704 193.452 205.802C190.39 204.334 186.806 204.494 183.9 206.198Z" fill="#FFAA33"/>
</g>
<path d="M119.773 104.902C105.239 107.447 95.2751 138.059 91.0357 157.718C90.2774 161.235 92.797 164.618 96.6044 165.104C133.931 169.867 156.749 154.076 165.852 142.7C167.497 140.645 167.339 137.858 165.688 135.807C155.111 122.674 134.629 102.302 119.773 104.902Z" fill="#FFAA33"/>
<path d="M254.501 108.897C269.034 111.441 278.998 142.053 283.238 161.713C283.996 165.229 281.477 168.613 277.669 169.099C240.342 173.862 217.524 158.071 208.422 146.695C206.777 144.64 206.934 141.852 208.586 139.802C219.162 126.669 239.644 106.296 254.501 108.897Z" fill="#FFAA33"/>
<path d="M168.234 237.141C174.659 237.363 187.794 232.548 188.936 220.021C189.293 225.462 191.441 235.009 206.86 237.141" stroke="#292A2B" stroke-width="7.7" stroke-linecap="round" stroke-linejoin="round"/>
<path d="M189.651 204.03C168.236 205.063 178.587 218.189 184.655 221.021C189.224 223.153 192.507 221.52 193.578 221.021C197.147 219.355 199.646 217.023 201.43 213.358C204.758 206.526 193.935 204.03 189.651 204.03Z" fill="#292A2B"/>
<path d="M141.152 201.881C147.306 205.062 155.098 202.217 158.556 195.528C162.014 188.838 159.827 180.836 153.673 177.655C147.518 174.474 139.726 177.319 136.268 184.008C132.811 190.698 134.997 198.7 141.152 201.881Z" fill="#292A2B"/>
<path d="M233.301 201.881C227.147 205.062 219.354 202.217 215.897 195.528C212.439 188.838 214.625 180.836 220.78 177.655C226.934 174.474 234.727 177.319 238.184 184.008C241.642 190.698 239.456 198.7 233.301 201.881Z" fill="#292A2B"/>
</g>
<path d="M34.9238 409.025C19.9838 353.405 52.6988 303.8 70.9238 285.95L304.5 286.741C348.78 328.681 346.099 383.375 340.699 405.875C332.239 453.215 287.524 457.55 266.224 453.8C216.544 448.4 151.474 451.55 125.149 453.8C57.6488 458.3 36.8738 425.825 34.9238 409.025Z" fill="#FFE5C0"/>
</g>
</g>
<defs>
<clipPath id="clip0_5021_40878">
<rect width="375" height="375" fill="white"/>
</clipPath>
<clipPath id="clip1_5021_40878">
<rect width="311.801" height="363.15" fill="white" transform="translate(31.125 92)"/>
</clipPath>
</defs>
</svg>
