<svg width="375" height="375" viewBox="0 0 375 375" fill="none" xmlns="http://www.w3.org/2000/svg">
<g clip-path="url(#clip0_3209_30339)">
<path d="M324.669 269.89C314.813 312.039 294.217 326.752 283.689 329.368C282.635 329.63 281.65 330.132 280.92 330.936L264.684 348.795C262.688 350.991 263.225 354.466 265.79 355.954L272.617 359.912C273.362 360.344 274.198 360.567 275.058 360.52C294.638 359.45 336.566 345.084 357.838 294.71C379.595 243.188 362.615 230.723 353.418 227.571C335.732 221.51 326.883 253.258 324.669 269.89Z" fill="#FFE5C0"/>
<mask id="mask0_3209_30339" style="mask-type:alpha" maskUnits="userSpaceOnUse" x="263" y="226" width="106" height="135">
<path d="M324.669 269.89C314.813 312.039 294.217 326.752 283.689 329.368C282.635 329.63 281.65 330.132 280.92 330.936L264.684 348.795C262.688 350.991 263.225 354.466 265.79 355.954L272.617 359.912C273.362 360.344 274.198 360.567 275.058 360.52C294.638 359.45 336.566 345.084 357.838 294.71C379.595 243.188 362.615 230.723 353.418 227.571C335.732 221.51 326.883 253.258 324.669 269.89Z" fill="#F99F51"/>
</mask>
<g mask="url(#mask0_3209_30339)">
<path d="M367.124 273.619C355.247 266.063 331.779 261.393 321.53 260.002C325.759 246.052 334.456 218.168 335.404 218.232C336.353 218.295 364.288 223.651 378.137 226.321L367.124 273.619Z" fill="#FFAA33"/>
<path d="M312.818 292.438L317.472 275.109C336.58 276.597 355.074 287.621 361.933 292.947L351.746 313.797C339.021 302.204 320.492 294.727 312.818 292.438Z" fill="#FFAA33"/>
<path d="M308.788 305.647L297.78 320.563C309.514 328.652 319.579 340.677 323.144 345.678L339.075 330.411C335.758 321.905 317.501 310.357 308.788 305.647Z" fill="#FFAA33"/>
</g>
<g clip-path="url(#clip1_3209_30339)">
<mask id="mask1_3209_30339" style="mask-type:alpha" maskUnits="userSpaceOnUse" x="50" y="92" width="274" height="254">
<path d="M323.625 92.0986H50.925V345.71H323.625V92.0986Z" fill="#D9D9D9"/>
</mask>
<g mask="url(#mask1_3209_30339)">
<path d="M187.275 337.973C262.579 337.973 323.625 291.436 323.625 234.03C323.625 176.623 262.579 130.086 187.275 130.086C111.971 130.086 50.925 176.623 50.925 234.03C50.925 291.436 111.971 337.973 187.275 337.973Z" fill="#FFE5C0"/>
<mask id="mask2_3209_30339" style="mask-type:alpha" maskUnits="userSpaceOnUse" x="50" y="130" width="274" height="208">
<path d="M187.275 337.973C262.579 337.973 323.625 291.436 323.625 234.03C323.625 176.623 262.579 130.086 187.275 130.086C111.971 130.086 50.925 176.623 50.925 234.03C50.925 291.436 111.971 337.973 187.275 337.973Z" fill="#FFF2E0"/>
</mask>
<g mask="url(#mask2_3209_30339)">
<path d="M183.9 206.296C118.182 244.828 62.0393 221.264 44.3114 189.522C43.1049 187.362 43.0099 184.793 43.8164 182.472L76.3432 88.8502C77.659 85.0629 81.2257 82.5337 85.2514 82.5337H298.96C303.018 82.5337 306.653 85.1027 308.014 88.9324L345.116 193.279C346.319 196.664 345.551 200.456 342.909 202.854C299.68 242.065 228.705 222.802 193.452 205.9C190.39 204.433 186.806 204.592 183.9 206.296Z" fill="#FFAA33"/>
</g>
<path d="M119.773 105.001C105.239 107.545 95.2751 138.157 91.0357 157.817C90.2774 161.333 92.797 164.717 96.6044 165.203C133.931 169.966 156.749 154.175 165.852 142.799C167.497 140.744 167.339 137.956 165.688 135.906C155.111 122.773 134.629 102.4 119.773 105.001Z" fill="#FFAA33"/>
<path d="M254.501 108.996C269.034 111.54 278.998 142.152 283.238 161.812C283.996 165.328 281.477 168.711 277.669 169.197C240.342 173.96 217.524 158.169 208.422 146.794C206.777 144.738 206.934 141.951 208.586 139.9C219.162 126.768 239.644 106.395 254.501 108.996Z" fill="#FFAA33"/>
<path d="M168.234 237.239C174.659 237.462 187.794 232.646 188.936 220.12C189.293 225.561 191.441 235.107 206.86 237.239" stroke="#292A2B" stroke-width="7.75863" stroke-linecap="round" stroke-linejoin="round"/>
<path d="M189.651 204.129C168.236 205.161 178.587 218.288 184.655 221.12C189.224 223.252 192.507 221.619 193.578 221.12C197.147 219.454 199.646 217.122 201.43 213.457C204.758 206.625 193.935 204.129 189.651 204.129Z" fill="#292A2B"/>
<path d="M141.152 201.979C147.306 205.16 155.098 202.316 158.556 195.626C162.014 188.937 159.827 180.935 153.673 177.754C147.518 174.573 139.726 177.417 136.268 184.107C132.811 190.797 134.997 198.798 141.152 201.979Z" fill="#292A2B"/>
<path d="M233.301 201.979C227.147 205.16 219.354 202.316 215.897 195.626C212.439 188.937 214.625 180.935 220.78 177.754C226.934 174.573 234.727 177.417 238.184 184.107C241.642 190.797 239.456 198.798 233.301 201.979Z" fill="#292A2B"/>
</g>
<path d="M34.9238 409.025C19.9838 353.405 52.6988 303.8 70.9238 285.95L304.5 286.741C348.78 328.681 346.099 383.375 340.699 405.875C332.239 453.215 287.524 457.55 266.224 453.8C216.544 448.4 151.474 451.55 125.149 453.8C57.6488 458.3 36.8738 425.825 34.9238 409.025Z" fill="#FFE5C0"/>
</g>
</g>
<defs>
<clipPath id="clip0_3209_30339">
<rect width="375" height="375" fill="white"/>
</clipPath>
<clipPath id="clip1_3209_30339">
<rect width="311.801" height="363.15" fill="white" transform="translate(31.125 92)"/>
</clipPath>
</defs>
</svg>
