<svg width="375" height="375" viewBox="0 0 375 375" fill="none" xmlns="http://www.w3.org/2000/svg">
<g clip-path="url(#clip0_5023_67236)">
<path d="M305.613 260.005C303.293 302.001 286.067 319.556 276.434 323.836C275.47 324.265 274.612 324.911 274.048 325.803L261.526 345.633C259.986 348.071 261.086 351.306 263.792 352.296L270.992 354.932C271.778 355.22 272.616 355.292 273.431 355.102C291.987 350.775 329.685 329.953 341.541 278.159C353.667 225.186 335.316 216.123 325.983 214.659C308.036 211.843 304.925 243.716 305.613 260.005Z" fill="#FFE5C0"/>
<mask id="mask0_5023_67236" style="mask-type:alpha" maskUnits="userSpaceOnUse" x="260" y="214" width="86" height="142">
<path d="M305.613 260.005C303.293 302.001 286.067 319.556 276.434 323.836C275.47 324.265 274.612 324.911 274.048 325.803L261.526 345.633C259.986 348.071 261.086 351.306 263.792 352.296L270.992 354.932C271.778 355.22 272.616 355.292 273.431 355.102C291.987 350.775 329.685 329.953 341.541 278.159C353.667 225.186 335.316 216.123 325.983 214.659C308.036 211.843 304.925 243.716 305.613 260.005Z" fill="#F99F51"/>
</mask>
<g mask="url(#mask0_5023_67236)">
<path d="M346.868 256.41C334.228 251.183 310.983 250.674 300.941 251.073C302.634 237.01 306.251 208.86 307.169 208.761C308.088 208.661 335.723 209.073 349.426 209.291L346.868 256.41Z" fill="#FFAA33"/>
<path d="M298.077 283.581L299.607 266.214C318.142 264.414 337.7 271.842 345.162 275.781L338.931 297.452C324.799 288.506 305.807 284.477 298.077 283.581Z" fill="#FFAA33"/>
<path d="M296.449 296.901L288.432 313.032C301.025 318.793 312.686 328.601 316.942 332.785L329.61 315.488C325.001 307.908 305.582 299.939 296.449 296.901Z" fill="#FFAA33"/>
</g>
<g clip-path="url(#clip1_5023_67236)">
<path d="M34.9239 409.025C23.5 354 52.6989 292.196 70.9239 274.346H304.5C348.78 316.286 346.099 383.375 340.699 405.875C332.239 453.215 287.524 457.55 266.224 453.8C216.544 448.4 151.474 451.55 125.149 453.8C57.6489 458.3 36.8739 425.825 34.9239 409.025Z" fill="#FFE5C0"/>
<mask id="mask1_5023_67236" style="mask-type:alpha" maskUnits="userSpaceOnUse" x="44" y="81" width="287" height="267">
<path d="M330.443 81H44.1077V347.292H330.443V81Z" fill="#D9D9D9"/>
</mask>
<g mask="url(#mask1_5023_67236)">
<path d="M187.275 339.169C266.344 339.169 330.443 290.305 330.443 230.028C330.443 169.752 266.344 120.888 187.275 120.888C108.206 120.888 44.1077 169.752 44.1077 230.028C44.1077 290.305 108.206 339.169 187.275 339.169Z" fill="#FFE5C0"/>
<mask id="mask2_5023_67236" style="mask-type:alpha" maskUnits="userSpaceOnUse" x="44" y="120" width="287" height="220">
<path d="M187.275 339.169C266.344 339.169 330.443 290.305 330.443 230.028C330.443 169.752 266.344 120.888 187.275 120.888C108.206 120.888 44.1077 169.752 44.1077 230.028C44.1077 290.305 108.206 339.169 187.275 339.169Z" fill="#FFF2E0"/>
</mask>
<g mask="url(#mask2_5023_67236)">
<path d="M183.731 200.691C114.727 241.149 55.7776 216.407 37.1634 183.078C35.8965 180.81 35.7968 178.112 36.6436 175.675L70.7968 77.3726C72.1784 73.3959 75.9234 70.7402 80.1504 70.7402H304.545C308.805 70.7402 312.622 73.4376 314.052 77.4589L353.008 187.023C354.272 190.577 353.465 194.559 350.691 197.076C305.301 238.248 230.776 218.022 193.761 200.275C190.546 198.734 186.783 198.902 183.731 200.691Z" fill="#FFAA33"/>
</g>
<path d="M116.398 94.5476C101.138 97.2191 90.6752 129.362 86.2238 150.004C85.4277 153.696 88.0732 157.249 92.071 157.759C131.264 162.76 155.223 146.18 164.781 134.236C166.508 132.077 166.343 129.15 164.609 126.997C153.503 113.208 131.997 91.8166 116.398 94.5476Z" fill="#FFAA33"/>
<path d="M257.862 98.7419C273.122 101.413 283.584 133.556 288.036 154.199C288.832 157.891 286.187 161.443 282.188 161.954C242.995 166.955 219.037 150.374 209.479 138.43C207.752 136.271 207.917 133.345 209.651 131.192C220.757 117.403 242.263 96.0109 257.862 98.7419Z" fill="#FFAA33"/>
<path d="M172.125 223.64C179.5 224 186.702 222.3 189 209.5C189 217.3 190 222.041 203 223.513" stroke="#292A2B" stroke-width="7.7" stroke-linecap="round" stroke-linejoin="round"/>
<path d="M189.747 192.94C168.353 193.981 178.693 207.21 184.755 210.063C189.319 212.212 192.6 210.567 193.669 210.063C197.235 208.385 199.731 206.034 201.514 202.341C204.838 195.456 194.026 192.94 189.747 192.94Z" fill="#292A2B"/>
<path d="M141.142 191.485C147.297 194.666 155.089 191.822 158.547 185.132C162.004 178.443 150.818 186.681 144.663 183.5C138.509 180.319 139.717 166.923 136.259 173.613C132.801 180.303 134.988 188.304 141.142 191.485Z" fill="#292A2B"/>
<path d="M233.472 191.485C227.317 194.666 219.525 191.822 216.068 185.132C212.61 178.442 224.796 186.88 230.951 183.699C237.105 180.518 234.897 166.923 238.355 173.613C241.813 180.302 239.626 188.304 233.472 191.485Z" fill="#292A2B"/>
</g>
</g>
</g>
<defs>
<clipPath id="clip0_5023_67236">
<rect width="375" height="375" fill="white"/>
</clipPath>
<clipPath id="clip1_5023_67236">
<rect width="311.801" height="363.15" fill="white" transform="translate(31.125 92)"/>
</clipPath>
</defs>
</svg>
