<svg width="375" height="375" viewBox="0 0 375 375" fill="none" xmlns="http://www.w3.org/2000/svg">
<g clip-path="url(#clip0_5040_42091)">
<path d="M305.613 260.005C303.293 302.001 286.067 319.556 276.434 323.836C275.47 324.265 274.612 324.911 274.048 325.803L261.526 345.633C259.986 348.071 261.086 351.306 263.792 352.296L270.992 354.932C271.778 355.22 272.616 355.292 273.431 355.102C291.987 350.775 329.685 329.953 341.541 278.159C353.667 225.186 335.316 216.123 325.983 214.659C308.036 211.843 304.925 243.716 305.613 260.005Z" fill="#FFE5C0"/>
<mask id="mask0_5040_42091" style="mask-type:alpha" maskUnits="userSpaceOnUse" x="260" y="214" width="86" height="142">
<path d="M305.613 260.005C303.293 302.001 286.067 319.556 276.434 323.836C275.47 324.265 274.612 324.911 274.048 325.803L261.526 345.633C259.986 348.071 261.086 351.306 263.792 352.296L270.992 354.932C271.778 355.22 272.616 355.292 273.431 355.102C291.987 350.775 329.685 329.953 341.541 278.159C353.667 225.186 335.316 216.123 325.983 214.659C308.036 211.843 304.925 243.716 305.613 260.005Z" fill="#F99F51"/>
</mask>
<g mask="url(#mask0_5040_42091)">
<path d="M346.868 256.41C334.228 251.183 310.983 250.674 300.941 251.073C302.634 237.01 306.251 208.86 307.169 208.761C308.088 208.661 335.723 209.073 349.426 209.291L346.868 256.41Z" fill="#FFAA33"/>
<path d="M298.077 283.581L299.607 266.214C318.142 264.414 337.7 271.842 345.162 275.781L338.931 297.452C324.799 288.506 305.807 284.477 298.077 283.581Z" fill="#FFAA33"/>
<path d="M296.449 296.901L288.433 313.032C301.026 318.793 312.686 328.601 316.942 332.785L329.61 315.488C325.001 307.908 305.582 299.939 296.449 296.901Z" fill="#FFAA33"/>
</g>
<g clip-path="url(#clip1_5040_42091)">
<path d="M34.9239 409.025C23.5 354 52.6989 292.196 70.9239 274.346H304.5C348.78 316.286 346.099 383.375 340.699 405.875C332.239 453.215 287.524 457.55 266.224 453.8C216.544 448.4 151.474 451.55 125.149 453.8C57.6489 458.3 36.8739 425.825 34.9239 409.025Z" fill="#FFE5C0"/>
<mask id="mask1_5040_42091" style="mask-type:alpha" maskUnits="userSpaceOnUse" x="44" y="80" width="287" height="267">
<path d="M330.443 80H44.1077V346.292H330.443V80Z" fill="#D9D9D9"/>
</mask>
<g mask="url(#mask1_5040_42091)">
<path d="M187.275 337.659C266.344 337.659 330.443 288.795 330.443 228.518C330.443 168.242 266.344 119.378 187.275 119.378C108.206 119.378 44.1077 168.242 44.1077 228.518C44.1077 288.795 108.206 337.659 187.275 337.659Z" fill="#FFE5C0"/>
<mask id="mask2_5040_42091" style="mask-type:alpha" maskUnits="userSpaceOnUse" x="44" y="119" width="287" height="219">
<path d="M187.275 337.659C266.344 337.659 330.443 288.795 330.443 228.518C330.443 168.242 266.344 119.378 187.275 119.378C108.206 119.378 44.1077 168.242 44.1077 228.518C44.1077 288.795 108.206 337.659 187.275 337.659Z" fill="#FFF2E0"/>
</mask>
<g mask="url(#mask2_5040_42091)">
<path d="M183.731 199.181C114.727 239.64 55.7776 214.898 37.1634 181.568C35.8965 179.3 35.7968 176.603 36.6436 174.165L70.7968 75.8628C72.1784 71.8861 75.9234 69.2305 80.1504 69.2305H304.545C308.805 69.2305 312.622 71.9279 314.052 75.9491L353.008 185.513C354.272 189.067 353.465 193.049 350.691 195.566C305.301 236.738 230.776 216.513 193.761 198.766C190.546 197.224 186.783 197.392 183.731 199.181Z" fill="#FFAA33"/>
</g>
<path d="M116.398 93.0378C101.138 95.7094 90.6752 127.852 86.2238 148.494C85.4277 152.187 88.0732 155.739 92.071 156.25C131.264 161.251 155.223 144.67 164.781 132.726C166.508 130.567 166.343 127.641 164.609 125.488C153.503 111.698 131.997 90.3068 116.398 93.0378Z" fill="#FFAA33"/>
<path d="M257.862 97.2321C273.122 99.9037 283.584 132.046 288.036 152.689C288.832 156.381 286.187 159.934 282.188 160.444C242.995 165.445 219.037 148.864 209.479 136.92C207.752 134.762 207.917 131.835 209.651 129.682C220.757 115.893 242.263 94.5012 257.862 97.2321Z" fill="#FFAA33"/>
<path d="M172.125 223.14C179.5 223.5 186.702 221.8 189 209C189 216.8 190 221.541 203 223.013" stroke="#292A2B" stroke-width="7.7" stroke-linecap="round" stroke-linejoin="round"/>
<path d="M189.747 192.4C168.353 193.441 178.693 206.669 184.755 209.523C189.319 211.672 192.6 210.027 193.669 209.523C197.235 207.845 199.731 205.494 201.514 201.801C204.838 194.916 194.026 192.4 189.747 192.4Z" fill="#292A2B"/>
<path d="M141.142 190.485C147.297 193.666 155.089 190.822 158.547 184.132C162.004 177.443 150.818 185.681 144.663 182.5C138.509 179.319 139.717 165.923 136.259 172.613C132.801 179.303 134.988 187.304 141.142 190.485Z" fill="#292A2B"/>
<path d="M233.472 190.485C227.317 193.666 219.525 190.822 216.068 184.132C212.61 177.442 224.796 185.88 230.951 182.699C237.105 179.518 234.897 165.923 238.355 172.613C241.813 179.302 239.626 187.304 233.472 190.485Z" fill="#292A2B"/>
</g>
</g>
</g>
<defs>
<clipPath id="clip0_5040_42091">
<rect width="375" height="375" fill="white"/>
</clipPath>
<clipPath id="clip1_5040_42091">
<rect width="311.801" height="363.15" fill="white" transform="translate(31.125 92)"/>
</clipPath>
</defs>
</svg>
