<svg width="375" height="375" viewBox="0 0 375 375" fill="none" xmlns="http://www.w3.org/2000/svg">
<g clip-path="url(#clip0_3209_30605)">
<path d="M304.148 260.852C301.761 304.072 284.033 322.138 274.119 326.543C273.126 326.984 272.244 327.649 271.664 328.568L258.776 348.975C257.191 351.484 258.323 354.813 261.108 355.833L268.519 358.546C269.327 358.842 270.189 358.916 271.029 358.72C290.125 354.267 328.921 332.838 341.123 279.535C353.602 225.019 334.716 215.691 325.111 214.184C306.641 211.286 303.44 244.089 304.148 260.852Z" fill="#FFE5C0"/>
<mask id="mask0_3209_30605" style="mask-type:alpha" maskUnits="userSpaceOnUse" x="258" y="214" width="88" height="145">
<path d="M304.148 260.852C301.761 304.072 284.033 322.138 274.119 326.543C273.126 326.984 272.244 327.649 271.664 328.568L258.776 348.975C257.191 351.484 258.323 354.813 261.108 355.833L268.519 358.546C269.327 358.842 270.189 358.916 271.029 358.72C290.125 354.267 328.921 332.838 341.123 279.535C353.602 225.019 334.716 215.691 325.111 214.184C306.641 211.286 303.44 244.089 304.148 260.852Z" fill="#F99F51"/>
</mask>
<g mask="url(#mask0_3209_30605)">
<path d="M346.605 257.153C333.597 251.774 309.674 251.25 299.339 251.66C301.082 237.188 304.804 208.217 305.75 208.115C306.695 208.012 335.136 208.436 349.238 208.661L346.605 257.153Z" fill="#FFAA33"/>
<path d="M296.392 285.116L297.967 267.242C317.043 265.39 337.17 273.035 344.849 277.088L338.437 299.391C323.893 290.184 304.348 286.038 296.392 285.116Z" fill="#FFAA33"/>
<path d="M294.717 298.824L286.467 315.425C299.427 321.354 311.427 331.448 315.807 335.753L328.844 317.952C324.101 310.151 304.116 301.95 294.717 298.824Z" fill="#FFAA33"/>
</g>
<g clip-path="url(#clip1_3209_30605)">
<mask id="mask1_3209_30605" style="mask-type:alpha" maskUnits="userSpaceOnUse" x="44" y="80" width="287" height="267">
<path d="M330.443 80.6597H44.1077V346.951H330.443V80.6597Z" fill="#D9D9D9"/>
</mask>
<g mask="url(#mask1_3209_30605)">
<path d="M187.275 338.828C266.344 338.828 330.443 289.964 330.443 229.687C330.443 169.411 266.344 120.547 187.275 120.547C108.206 120.547 44.1077 169.411 44.1077 229.687C44.1077 289.964 108.206 338.828 187.275 338.828Z" fill="#FFE5C0"/>
<mask id="mask2_3209_30605" style="mask-type:alpha" maskUnits="userSpaceOnUse" x="44" y="120" width="287" height="219">
<path d="M187.275 338.828C266.344 338.828 330.443 289.964 330.443 229.687C330.443 169.411 266.344 120.547 187.275 120.547C108.206 120.547 44.1077 169.411 44.1077 229.687C44.1077 289.964 108.206 338.828 187.275 338.828Z" fill="#FFF2E0"/>
</mask>
<g mask="url(#mask2_3209_30605)">
<path d="M183.731 200.568C114.727 241.026 55.7776 216.284 37.1634 182.955C35.8965 180.686 35.7968 177.989 36.6436 175.552L70.7968 77.249C72.1784 73.2723 75.9234 70.6167 80.1504 70.6167H304.545C308.805 70.6167 312.622 73.3141 314.052 77.3354L353.008 186.9C354.272 190.453 353.465 194.436 350.691 196.953C305.301 238.124 230.776 217.899 193.761 200.152C190.546 198.611 186.783 198.778 183.731 200.568Z" fill="#FFAA33"/>
</g>
<path d="M116.398 94.2072C101.138 96.8788 90.6752 129.021 86.2238 149.664C85.4277 153.356 88.0732 156.909 92.071 157.419C131.264 162.42 155.223 145.84 164.781 133.895C166.508 131.737 166.343 128.81 164.609 126.657C153.503 112.868 131.997 91.4763 116.398 94.2072Z" fill="#FFAA33"/>
<path d="M257.862 98.4016C273.122 101.073 283.584 133.216 288.036 153.858C288.832 157.55 286.187 161.103 282.188 161.613C242.995 166.614 219.037 150.034 209.479 138.09C207.752 135.931 207.917 133.004 209.651 130.851C220.757 117.062 242.263 95.6706 257.862 98.4016Z" fill="#FFAA33"/>
<path d="M172 222.5C178.746 222.733 185.5 222 189.019 209.082C189.394 214.795 189.019 221.5 202.5 222.5" stroke="#292A2B" stroke-width="8.14656" stroke-linecap="round" stroke-linejoin="round"/>
<path d="M189.77 192.292C167.284 193.375 178.152 207.158 184.524 210.132C189.321 212.37 192.769 210.656 193.893 210.132C197.641 208.382 200.265 205.934 202.138 202.086C205.632 194.912 194.268 192.292 189.77 192.292Z" fill="#292A2B"/>
<path d="M140.845 190.034C147.308 193.374 155.489 190.388 159.12 183.363C162.75 176.339 151.962 186.704 145.5 183.364C139.038 180.024 139.601 166 136.5 172C132.869 179.024 134.383 186.694 140.845 190.034Z" fill="#292A2B"/>
<path d="M233.602 190.035C227.14 193.375 218.958 190.388 215.328 183.364C211.697 176.34 224.538 186.705 231 183.365C237.462 180.025 234.099 165.244 237.73 172.268C241.36 179.293 240.065 186.694 233.602 190.035Z" fill="#292A2B"/>
</g>
<path d="M34.9238 409.025C19.9838 353.405 52.6988 294.196 70.9238 276.346H304.5C348.78 318.286 346.099 383.375 340.699 405.875C332.239 453.215 287.524 457.55 266.224 453.8C216.544 448.4 151.474 451.55 125.149 453.8C57.6488 458.3 36.8738 425.825 34.9238 409.025Z" fill="#FFE5C0"/>
</g>
</g>
<defs>
<clipPath id="clip0_3209_30605">
<rect width="375" height="375" fill="white"/>
</clipPath>
<clipPath id="clip1_3209_30605">
<rect width="311.801" height="363.15" fill="white" transform="translate(31.125 92)"/>
</clipPath>
</defs>
</svg>
