<svg width="375" height="375" viewBox="0 0 375 375" fill="none" xmlns="http://www.w3.org/2000/svg">
<g clip-path="url(#clip0_5023_67236)">
<path d="M305.613 260.005C303.293 302.001 286.067 319.556 276.434 323.836C275.47 324.265 274.612 324.911 274.048 325.803L261.526 345.633C259.986 348.071 261.086 351.306 263.792 352.296L270.992 354.932C271.778 355.22 272.616 355.292 273.431 355.102C291.987 350.775 329.685 329.953 341.541 278.159C353.667 225.186 335.316 216.123 325.983 214.659C308.036 211.843 304.925 243.716 305.613 260.005Z" fill="#FFE5C0"/>
<mask id="mask0_5023_67236" style="mask-type:alpha" maskUnits="userSpaceOnUse" x="260" y="214" width="86" height="142">
<path d="M305.613 260.005C303.293 302.001 286.067 319.556 276.434 323.836C275.47 324.265 274.612 324.911 274.048 325.803L261.526 345.633C259.986 348.071 261.086 351.306 263.792 352.296L270.992 354.932C271.778 355.22 272.616 355.292 273.431 355.102C291.987 350.775 329.685 329.953 341.541 278.159C353.667 225.186 335.316 216.123 325.983 214.659C308.036 211.843 304.925 243.716 305.613 260.005Z" fill="#F99F51"/>
</mask>
<g mask="url(#mask0_5023_67236)">
<path d="M346.868 256.41C334.228 251.183 310.983 250.674 300.941 251.073C302.634 237.01 306.251 208.86 307.169 208.761C308.088 208.661 335.723 209.073 349.426 209.291L346.868 256.41Z" fill="#FFAA33"/>
<path d="M298.077 283.581L299.607 266.214C318.142 264.414 337.7 271.842 345.162 275.781L338.931 297.452C324.799 288.506 305.807 284.477 298.077 283.581Z" fill="#FFAA33"/>
<path d="M296.449 296.901L288.432 313.032C301.025 318.793 312.686 328.601 316.942 332.785L329.61 315.488C325.001 307.908 305.582 299.939 296.449 296.901Z" fill="#FFAA33"/>
</g>
<g clip-path="url(#clip1_5023_67236)">
<path d="M34.9239 409.025C23.5 354 52.6989 292.196 70.9239 274.346H304.5C348.78 316.286 346.099 383.375 340.699 405.875C332.239 453.215 287.524 457.55 266.224 453.8C216.544 448.4 151.474 451.55 125.149 453.8C57.6489 458.3 36.8739 425.825 34.9239 409.025Z" fill="#FFE5C0"/>
<mask id="mask1_5023_67236" style="mask-type:alpha" maskUnits="userSpaceOnUse" x="44" y="80" width="287" height="267">
<path d="M330.443 80.2998H44.1077V346.591H330.443V80.2998Z" fill="#D9D9D9"/>
</mask>
<g mask="url(#mask1_5023_67236)">
<path d="M187.275 338.468C266.344 338.468 330.443 289.604 330.443 229.328C330.443 169.051 266.344 120.188 187.275 120.188C108.206 120.188 44.1077 169.051 44.1077 229.328C44.1077 289.604 108.206 338.468 187.275 338.468Z" fill="#FFE5C0"/>
<mask id="mask2_5023_67236" style="mask-type:alpha" maskUnits="userSpaceOnUse" x="44" y="120" width="287" height="219">
<path d="M187.275 338.468C266.344 338.468 330.443 289.604 330.443 229.328C330.443 169.051 266.344 120.188 187.275 120.188C108.206 120.188 44.1077 169.051 44.1077 229.328C44.1077 289.604 108.206 338.468 187.275 338.468Z" fill="#FFF2E0"/>
</mask>
<g mask="url(#mask2_5023_67236)">
<path d="M183.731 199.991C114.727 240.449 55.7776 215.707 37.1634 182.378C35.8965 180.11 35.7968 177.412 36.6436 174.975L70.7968 76.6724C72.1784 72.6957 75.9234 70.04 80.1504 70.04H304.545C308.805 70.04 312.622 72.7374 314.052 76.7587L353.008 186.323C354.272 189.877 353.465 193.859 350.691 196.376C305.301 237.548 230.776 217.322 193.761 199.575C190.546 198.034 186.783 198.202 183.731 199.991Z" fill="#FFAA33"/>
</g>
<path d="M116.398 93.8474C101.138 96.5189 90.6752 128.661 86.2238 149.304C85.4277 152.996 88.0732 156.549 92.071 157.059C131.264 162.06 155.223 145.48 164.781 133.535C166.508 131.377 166.343 128.45 164.609 126.297C153.503 112.508 131.997 91.1164 116.398 93.8474Z" fill="#FFAA33"/>
<path d="M257.862 98.0417C273.122 100.713 283.584 132.856 288.036 153.498C288.832 157.191 286.187 160.743 282.188 161.254C242.995 166.254 219.037 149.674 209.479 137.73C207.752 135.571 207.917 132.645 209.651 130.491C220.757 116.702 242.263 95.3107 257.862 98.0417Z" fill="#FFAA33"/>
<path d="M172.125 222.94C179.5 223.3 186.702 221.6 189 208.8C189 216.6 190 221.34 203 222.813" stroke="#292A2B" stroke-width="7.7" stroke-linecap="round" stroke-linejoin="round"/>
<path d="M189.747 192.24C168.353 193.281 178.693 206.509 184.755 209.363C189.319 211.512 192.6 209.867 193.669 209.363C197.235 207.684 199.731 205.334 201.514 201.641C204.838 194.755 194.026 192.24 189.747 192.24Z" fill="#292A2B"/>
<path d="M141.142 190.785C147.297 193.966 155.089 191.122 158.547 184.432C162.004 177.743 150.818 185.981 144.663 182.8C138.509 179.619 139.717 166.223 136.259 172.913C132.801 179.602 134.988 187.604 141.142 190.785Z" fill="#292A2B"/>
<path d="M233.472 190.785C227.317 193.966 219.525 191.122 216.068 184.432C212.61 177.742 224.796 186.18 230.951 182.999C237.105 179.818 234.897 166.223 238.355 172.912C241.813 179.602 239.626 187.604 233.472 190.785Z" fill="#292A2B"/>
</g>
</g>
</g>
<defs>
<clipPath id="clip0_5023_67236">
<rect width="375" height="375" fill="white"/>
</clipPath>
<clipPath id="clip1_5023_67236">
<rect width="311.801" height="363.15" fill="white" transform="translate(31.125 92)"/>
</clipPath>
</defs>
</svg>
